<?xml version="1.0" encoding="UTF-8"?>
<svg width="300px" height="300px" viewBox="0 0 300 300" version="1.1" xmlns="http://www.w3.org/2000/svg" xmlns:xlink="http://www.w3.org/1999/xlink">
    <!-- Generator: Sketch 50.2 (55047) - http://www.bohemiancoding.com/sketch -->
    <title>React</title>
    <desc>Created with Sketch.</desc>
    <defs>
        <linearGradient x1="50%" y1="10.4834541%" x2="50%" y2="0%" id="linearGradient-1">
            <stop stop-color="#B70000" offset="0%"></stop>
            <stop stop-color="#FF2E2E" offset="100%"></stop>
        </linearGradient>
        <circle id="path-2" cx="75" cy="75" r="75"></circle>
        <linearGradient x1="94.2262842%" y1="28.4907593%" x2="34.9055035%" y2="61.944442%" id="linearGradient-4">
            <stop stop-color="#B70000" offset="0%"></stop>
            <stop stop-color="#FF2E2E" offset="100%"></stop>
        </linearGradient>
        <path d="M18.1108435,106.260594 C18.878444,110.25 40.2110857,130.537502 55.5026253,131.25 C55.5026253,131.25 57.5223065,122.6891 59.0325821,108.4391 L18.1108435,106.260594 Z" id="path-5"></path>
        <linearGradient x1="88.5585139%" y1="50%" x2="5.2684286%" y2="100%" id="linearGradient-6">
            <stop stop-color="#B70000" offset="0%"></stop>
            <stop stop-color="#FF2E2E" offset="100%"></stop>
        </linearGradient>
        <path d="M58.943442,108.573485 C61.0614039,100.079764 64.4278578,87.5434483 68.7175361,77.25 L18.1108435,106.260594 L58.943442,108.573485 Z" id="path-7"></path>
        <linearGradient x1="95.265027%" y1="9.31339475%" x2="11.9836703%" y2="62.083356%" id="linearGradient-8">
            <stop stop-color="#B70000" offset="0%"></stop>
            <stop stop-color="#FF2E2E" offset="100%"></stop>
        </linearGradient>
        <path d="M68.5217761,77.9640296 L2.89728893,75.0678471 C2.26541328,81 10.1943598,101.625 18.1108435,106.260594 L68.5217761,77.9640296 Z" id="path-9"></path>
        <linearGradient x1="67.1571358%" y1="76.5608676%" x2="0%" y2="94.3080635%" id="linearGradient-10">
            <stop stop-color="#B70000" offset="0%"></stop>
            <stop stop-color="#FF2E2E" offset="100%"></stop>
        </linearGradient>
        <path d="M68.563036,78.193257 C71.3006203,71.6241904 80.9858796,53.4846074 82.3100158,51.375 L2.89728893,75.0678471" id="path-11"></path>
        <linearGradient x1="80.6692233%" y1="52.1781387%" x2="0%" y2="50%" id="linearGradient-12">
            <stop stop-color="#B70000" offset="0%"></stop>
            <stop stop-color="#FF2E2E" offset="100%"></stop>
        </linearGradient>
        <path d="M84.1234913,51.7357552 L9.67364937,24.1939836 C-1.51027552,35.25 -1.51027552,69.375 2.89728893,75.0678471 L84.1234913,51.7357552 Z" id="path-13"></path>
        <linearGradient x1="76.622759%" y1="50%" x2="4.68864364%" y2="28.8778411%" id="linearGradient-14">
            <stop stop-color="#B70000" offset="0%"></stop>
            <stop stop-color="#FF2E2E" offset="100%"></stop>
        </linearGradient>
        <linearGradient x1="93.7402776%" y1="5.41509121%" x2="8.89805333%" y2="10.9954581%" id="linearGradient-15">
            <stop stop-color="#B70000" offset="0%"></stop>
            <stop stop-color="#FF2E2E" offset="100%"></stop>
        </linearGradient>
        <path d="M111.170131,14.1762889 C118.779471,5.71035348 123.842593,-1.42108547e-14 123.842593,-1.42108547e-14 L54.2195706,0.0554972631 L29.7524289,0.0750002861 C18.5008751,6.75 12.459773,12.0969918 9.67364937,24.1939836 L111.170131,14.1762889 Z" id="path-16"></path>
        <linearGradient x1="10.9389566%" y1="11.4532129%" x2="55.0490395%" y2="91.1340832%" id="linearGradient-17">
            <stop stop-color="#D13700" offset="0%"></stop>
            <stop stop-color="#F94721" offset="100%"></stop>
        </linearGradient>
        <path d="M50.0089062,124.881397 L9.55796237,104.698807 C8.86239637,104.351762 -8.69707317,123.120285 5.92445192,128.303751 C20.545977,133.487216 40.3448276,130.131392 50.0089062,124.881397 Z" id="path-18"></path>
        <linearGradient x1="11.961026%" y1="33.2900315%" x2="100%" y2="100%" id="linearGradient-19">
            <stop stop-color="#B70000" offset="0%"></stop>
            <stop stop-color="#FF2E2E" offset="100%"></stop>
        </linearGradient>
        <path d="M50.0089062,124.881397 L18.3045977,75.6924716 C18.3045977,75.6924716 14.4528505,85.6364693 11.954023,93.5901989 C9.98489517,99.8579023 8.58797701,105.551902 8.88408387,105.699642 C22.3914307,112.438996 50.0089062,124.881397 50.0089062,124.881397 Z" id="path-20"></path>
        <linearGradient x1="4.79679953%" y1="0%" x2="78.8898107%" y2="76.4422829%" id="linearGradient-21">
            <stop stop-color="#B70000" offset="0%"></stop>
            <stop stop-color="#FF2E2E" offset="100%"></stop>
        </linearGradient>
        <path d="M50.0072053,124.880375 C63.8793103,121.928267 82.5574713,104.03054 84.6344818,96.8565377 L18.3045977,76.0653409 L50.0072053,124.880375 Z" id="path-22"></path>
        <linearGradient x1="11.9836705%" y1="20.0165789%" x2="85.8910618%" y2="85.8681926%" id="linearGradient-23">
            <stop stop-color="#B70000" offset="0%"></stop>
            <stop stop-color="#FF2E2E" offset="100%"></stop>
        </linearGradient>
        <path d="M84.632723,96.8567212 C84.632723,96.8567212 49.8911155,64.8818137 32.266638,49.4556209 C32.0802995,49.2925242 26.4454646,58.0619486 23.1609195,64.506392 C19.8230514,71.055458 17.8438637,76.318416 18.1496842,76.4138486 C40.1503882,83.2792579 84.632723,96.8567212 84.632723,96.8567212 Z" id="path-24"></path>
        <linearGradient x1="0%" y1="3.65270201%" x2="95.6930989%" y2="50%" id="linearGradient-25">
            <stop stop-color="#B70000" offset="0%"></stop>
            <stop stop-color="#FF2E2E" offset="100%"></stop>
        </linearGradient>
        <path d="M84.6344818,96.8565377 C93.0172414,88.3700284 98.9942529,74.946733 97.1264368,55.5575284 L30.6321839,49.5916193 L84.6344818,96.8565377 Z" id="path-26"></path>
        <linearGradient x1="20.672013%" y1="38.8371981%" x2="97.3570207%" y2="100%" id="linearGradient-27">
            <stop stop-color="#B70000" offset="0%"></stop>
            <stop stop-color="#FF2E2E" offset="100%"></stop>
        </linearGradient>
        <path d="M97.1264368,55.5575284 C97.1264368,55.5575284 72.7987416,26.7750981 60.1436782,13.0504261 C60.0022029,12.8969934 52.0408068,22.0863938 45.5747126,30.5752841 C38.5520426,39.7948646 31.4628324,50.3113353 31.7528736,50.337358 C53.3605292,52.2760113 97.1264368,55.5575284 97.1264368,55.5575284 Z" id="path-28"></path>
        <linearGradient x1="25.0561659%" y1="10.0003418%" x2="100%" y2="88.6450269%" id="linearGradient-29">
            <stop stop-color="#B70000" offset="0%"></stop>
            <stop stop-color="#FF2E2E" offset="100%"></stop>
        </linearGradient>
        <path d="M97.1264368,55.5575284 C97.1264368,21.2535511 78.8218391,4.47443182 72.4614194,0.253730517 C72.4614194,0.253730517 66.1206897,6.71164773 59.0229885,14.1690341 L97.1264368,55.5575284 Z" id="path-30"></path>
    </defs>
    <g id="Page-1" stroke="none" stroke-width="1" fill="none" fill-rule="evenodd">
        <g id="React">
            <rect id="Rectangle" fill="#FFFFFF" x="0" y="0" width="300" height="300"></rect>
            <g id="Round" transform="translate(13.000000, 75.000000)">
                <mask id="mask-3" fill="white">
                    <use xlink:href="#path-2"></use>
                </mask>
                <use id="Mask" fill="url(#linearGradient-1)" xlink:href="#path-2"></use>
                <g id="Left" mask="url(#mask-3)">
                    <g transform="translate(-1.250000, 16.250000)" id="Oval">
                        <g fill="none">
                            <use fill="url(#linearGradient-4)" xlink:href="#path-5"></use>
                            <use fill="#FD4B00" style="mix-blend-mode: lighten;" xlink:href="#path-5"></use>
                        </g>
                        <g fill="none">
                            <use fill="url(#linearGradient-6)" xlink:href="#path-7"></use>
                            <use fill-opacity="0.8" fill="#FD4B00" style="mix-blend-mode: lighten;" xlink:href="#path-7"></use>
                        </g>
                        <g fill="none">
                            <use fill="url(#linearGradient-8)" xlink:href="#path-9"></use>
                            <use fill-opacity="0.6" fill="#FD4B00" style="mix-blend-mode: lighten;" xlink:href="#path-9"></use>
                        </g>
                        <g fill="none">
                            <use fill="url(#linearGradient-10)" xlink:href="#path-11"></use>
                            <use fill-opacity="0.4" fill="#FD4B00" style="mix-blend-mode: lighten;" xlink:href="#path-11"></use>
                        </g>
                        <g fill="none">
                            <use fill="url(#linearGradient-12)" xlink:href="#path-13"></use>
                            <use fill-opacity="0.2" fill="#FD4B00" style="mix-blend-mode: lighten;" xlink:href="#path-13"></use>
                        </g>
                        <path d="M82.3091244,51.5126056 C93.6361908,35.7626056 104.244863,21.1115592 111.760388,12.75 L9.67364937,24.1939836 L82.3091244,51.5126056 Z" fill="url(#linearGradient-14)"></path>
                        <g fill="none">
                            <use fill="url(#linearGradient-15)" xlink:href="#path-16"></use>
                            <use fill-opacity="0.1" fill="#632003" xlink:href="#path-16"></use>
                        </g>
                    </g>
                </g>
                <g id="Right" mask="url(#mask-3)">
                    <g transform="translate(52.500000, 20.000000)" id="Oval">
                        <g>
                            <use fill="url(#linearGradient-17)" xlink:href="#path-18"></use>
                            <use fill="#FD4B00" style="mix-blend-mode: lighten;" xlink:href="#path-18"></use>
                        </g>
                        <g>
                            <use fill="url(#linearGradient-19)" xlink:href="#path-20"></use>
                            <use fill-opacity="0.8" fill="#FD4B00" style="mix-blend-mode: lighten;" xlink:href="#path-20"></use>
                        </g>
                        <g>
                            <use fill="url(#linearGradient-21)" xlink:href="#path-22"></use>
                            <use fill-opacity="0.6" fill="#FD4B00" style="mix-blend-mode: lighten;" xlink:href="#path-22"></use>
                        </g>
                        <g>
                            <use fill="url(#linearGradient-23)" xlink:href="#path-24"></use>
                            <use fill-opacity="0.4" fill="#FD4B00" style="mix-blend-mode: lighten;" xlink:href="#path-24"></use>
                        </g>
                        <g>
                            <use fill="url(#linearGradient-25)" xlink:href="#path-26"></use>
                            <use fill-opacity="0.2" fill="#FD4B00" style="mix-blend-mode: lighten;" xlink:href="#path-26"></use>
                        </g>
                        <g>
                            <use fill="url(#linearGradient-27)" xlink:href="#path-28"></use>
                            <use fill-opacity="0" fill="#FD4B00" xlink:href="#path-28"></use>
                        </g>
                        <g>
                            <use fill="url(#linearGradient-29)" xlink:href="#path-30"></use>
                            <use fill-opacity="0.1" fill="#632003" xlink:href="#path-30"></use>
                        </g>
                    </g>
                </g>
                <g id="7" mask="url(#mask-3)" fill="#FFFFFF">
                    <g transform="translate(15.000000, -45.000000)">
                        <path d="M13.0785928,61.3062913 L107.274701,61.3062913 C96.8420137,71.6736024 87.3544589,82.4163797 78.8117515,93.5349453 C70.2690441,104.653511 62.9360336,116.335342 56.8125,128.580789 C50.6889664,140.826237 46.0018875,153.710057 42.7511228,167.232637 C39.500358,180.755216 37.950598,195.028836 38.1017964,210.053925 L42.6377246,210.053925 C42.6377246,194.728335 44.3008816,180.417152 47.6272455,167.119949 C50.9536094,153.822746 55.6406883,141.20186 61.6886228,129.256915 C67.7365572,117.311969 75.0695677,105.855511 83.6878743,94.8871965 C92.3061808,83.9188818 101.831535,73.2512289 112.264222,62.8839177 L112.264222,56.7987872 L13.0785928,56.7987872 L13.0785928,61.3062913 Z"></path>
                    </g>
                </g>
            </g>
            <g id="react" transform="translate(117.000000, 75.000000)" fill="#00D8FF" fill-rule="nonzero">
                <path d="M138.305905,48.6178045 C136.56089,48.015817 134.752697,47.4462395 132.890909,46.9075718 C133.196915,45.6558817 133.47777,44.4203968 133.727486,43.2059184 C137.826535,23.263805 135.146434,7.19829949 125.994687,1.90885146 C117.21931,-3.16302877 102.86785,2.1252189 88.373567,14.7675579 C86.9797704,15.9832366 85.5820812,17.2703377 84.1849926,18.6192579 C83.2540973,17.7267798 82.3247009,16.8643111 81.3976996,16.0393541 C66.2072669,2.52134226 50.9812031,-3.17533261 41.8384389,2.12942021 C33.0714456,7.21600506 30.4751821,22.3191107 34.1649245,41.2183991 C34.5212333,43.0438679 34.9377253,44.9080488 35.4087117,46.8034393 C33.253792,47.4165302 31.1734277,48.0701339 29.182889,48.7654506 C11.3737365,54.9884895 0,64.741528 0,74.8579799 C0,85.3063362 12.2097147,95.7862009 30.7593309,102.14068 C32.2231912,102.642137 33.7421446,103.116284 35.3075081,103.566425 C34.7993938,105.616364 34.3574511,107.625189 33.9864706,109.5845 C30.4682955,128.155787 33.2157657,142.90208 41.9594042,147.956555 C50.9907845,153.176382 66.1479812,147.81101 80.9072505,134.880582 C82.0737876,133.858463 83.2445163,132.774526 84.4173412,131.638372 C85.937493,133.105529 87.4552478,134.494061 88.9649198,135.796467 C103.260987,148.126408 117.380697,153.105261 126.116251,148.036681 C135.138648,142.801849 138.070861,126.960814 134.264045,107.687609 C133.973309,106.21565 133.634965,104.711881 133.255003,103.181405 C134.319438,102.866006 135.36441,102.540405 136.383334,102.2019 C155.667426,95.7982046 168.214286,85.4458786 168.214286,74.8579799 C168.214286,64.7049168 156.47376,54.8861576 138.305905,48.6178045 Z M134.123318,95.3654702 C133.203503,95.6706646 132.259733,95.9656571 131.297999,96.2516457 C129.169129,89.4968415 126.295903,82.3141032 122.779823,74.8930914 C126.135115,67.6488337 128.897256,60.5579248 130.966542,53.8469338 C132.687304,54.3459893 134.357464,54.8723534 135.966842,55.4278264 C151.533045,60.7985997 161.028226,68.7393737 161.028226,74.8579799 C161.028226,81.3754109 150.773719,89.8359469 134.123318,95.3654702 Z M127.21452,109.086344 C128.897854,117.6087 129.138288,125.3139 128.023251,131.337377 C127.021395,136.749864 125.006603,140.358488 122.515436,141.803739 C117.214219,144.879097 105.877612,140.881551 93.6514282,130.336866 C92.2498471,129.128089 90.8380857,127.837387 89.4218331,126.471361 C94.1616386,121.275842 98.8987494,115.235861 103.522081,108.52787 C111.654006,107.804646 119.336803,106.622277 126.303987,105.008074 C126.647121,106.395406 126.95193,107.75603 127.21452,109.086344 Z M57.3480523,141.272273 C52.1686995,143.105544 48.0436016,143.158061 45.5500388,141.717011 C40.2440318,138.649756 38.0382109,126.809867 41.047074,110.927718 C41.3917055,109.108851 41.8019098,107.24047 42.2746926,105.330675 C49.1655252,106.857851 56.7920308,107.956793 64.943418,108.619099 C69.5978893,115.183045 74.4718345,121.216424 79.3835063,126.49927 C78.3103879,127.537593 77.241461,128.526102 76.1785235,129.457592 C69.6520839,135.175273 63.1118714,139.231937 57.3480523,141.272273 Z M33.0834225,95.3255571 C24.8811339,92.515782 18.1073741,88.8639442 13.4642811,84.8790026 C9.29217449,81.2979871 7.18576058,77.7427795 7.18576058,74.8579799 C7.18576058,68.7189674 16.3177458,60.8886277 31.5483004,55.5664696 C33.3963155,54.9206683 35.3308627,54.3120787 37.3384683,53.7404007 C39.443385,60.6029388 42.2046285,67.7778739 45.5368645,75.0332344 C42.1615122,82.3963286 39.3610447,89.6856006 37.2354681,96.6285627 C35.8042445,96.2162346 34.4176343,95.7822996 33.0834225,95.3255571 Z M41.2171442,39.8352682 C38.0558765,23.6428232 40.1554038,11.4278173 45.4386549,8.36266231 C51.0662382,5.0973449 63.5103978,9.75299537 76.6261555,21.4251321 C77.4645289,22.1711646 78.3061963,22.9520078 79.1502588,23.7598596 C74.2628401,29.0195984 69.4335085,35.0076641 64.8203574,41.532897 C56.9091037,42.2678261 49.3361941,43.448394 42.373501,45.0292864 C41.9357501,43.2644366 41.5480023,41.5304964 41.2171442,39.8352682 Z M113.777187,57.7925631 C112.112716,54.9110653 110.40393,52.0976887 108.66191,49.3611362 C114.028999,50.041148 119.171223,50.9438293 124.000255,52.0484735 C122.550467,56.7053244 120.743474,61.5743415 118.6164,66.5657967 C117.09056,63.662392 115.47669,60.7349799 113.777187,57.7925631 Z M84.187387,28.9070633 C87.5019575,32.5060847 90.8213182,36.5243366 94.0861853,40.8840949 C90.7961668,40.7283464 87.4654281,40.6473211 84.1071435,40.6473211 C80.7805963,40.6473211 77.4744102,40.7265459 74.2047523,40.8795935 C77.4729127,36.5603478 80.8210176,32.5474975 84.187387,28.9070633 Z M54.4080554,57.8423786 C52.7453808,60.731979 51.1614534,63.6434862 49.6595669,66.5603951 C47.5669263,61.5863452 45.7766992,56.6951212 44.3143359,51.9722497 C49.1137257,50.8958143 54.2316976,50.0156401 59.5646524,49.3485323 C57.7980793,52.1102927 56.0752213,54.9443757 54.4080554,57.8417785 L54.4080554,57.8423786 Z M59.7182543,100.881188 C54.2083428,100.265096 49.0134204,99.4302367 44.2152282,98.3835098 C45.7009461,93.5763118 47.5306966,88.5806558 49.6676512,83.4994723 C51.1734302,86.4142808 52.7636454,89.3269886 54.4365003,92.222891 L54.4367997,92.222891 C56.1407942,95.17311 57.9061696,98.0630096 59.7182543,100.881188 Z M84.3862018,121.316655 C80.9803087,117.633608 77.583099,113.559539 74.2652351,109.177273 C77.4860866,109.303912 80.7698168,109.368733 84.1071435,109.368733 C87.5357922,109.368733 90.9252168,109.291309 94.2613456,109.142462 C90.985699,113.603653 87.6783157,117.684023 84.3862018,121.316655 Z M118.684967,83.2404921 C120.933305,88.3765922 122.828628,93.3461407 124.333509,98.071413 C119.45627,99.1865597 114.190386,100.08474 108.642149,100.752148 C110.388361,97.9786834 112.112117,95.1169916 113.805931,92.1733747 C115.519507,89.1952475 117.146551,86.2126184 118.684967,83.2404921 Z M107.581306,88.5752542 C104.951807,93.1447773 102.252244,97.5069362 99.5116604,101.62452 C94.5200428,101.982231 89.3631467,102.166489 84.1071435,102.166489 C78.8723984,102.166489 73.7804751,102.003537 68.8771877,101.684538 C66.0261178,97.512939 63.2678688,93.1378762 60.6551369,88.614566 L60.6557358,88.614566 C58.0498907,84.1035612 55.6515433,79.5544431 53.478359,75.0308346 C55.6509444,70.4967213 58.0430041,65.9425026 60.6338781,61.4395995 L60.6332793,61.4404997 C63.2310399,56.925593 65.9650363,52.5718365 68.7897563,48.4263449 C73.7924518,48.0473269 78.9224007,47.8495652 84.1068439,47.8495652 L84.1071435,47.8495652 C89.3149408,47.8495652 94.4514764,48.0488272 99.4526744,48.4311465 C102.234278,52.5463286 104.949711,56.8859806 107.557652,61.4014876 C110.195236,65.9677106 112.618136,70.4916194 114.809284,74.9285025 C112.624723,79.4416082 110.207213,84.0111326 107.581306,88.5752542 Z M122.40525,8.14839552 C128.038223,11.4041099 130.228772,24.5344009 126.689638,41.7522655 C126.463876,42.8509078 126.20967,43.9699564 125.933605,45.1040098 C118.954743,43.4901069 111.376444,42.2891328 103.442136,41.5431003 C98.8200021,34.9461449 94.0301936,28.9487763 89.2224197,23.7565585 C90.5150124,22.5102703 91.8058087,21.3219 93.0912149,20.2004506 C105.509924,9.36857571 117.116908,5.09194321 122.40525,8.14839552 Z M84.1071435,59.8031895 C92.4028505,59.8031895 99.1281043,66.5432895 99.1281043,74.8579799 C99.1281043,83.17237 92.4028505,89.9127713 84.1071435,89.9127713 C75.8114359,89.9127713 69.0861821,83.17237 69.0861821,74.8579799 C69.0861821,66.5432895 75.8114359,59.8031895 84.1071435,59.8031895 Z" id="Shape"></path>
            </g>
        </g>
    </g>
</svg>