<?xml version="1.0" encoding="UTF-8"?>
<svg width="300px" height="300px" viewBox="0 0 300 300" version="1.1" xmlns="http://www.w3.org/2000/svg" xmlns:xlink="http://www.w3.org/1999/xlink">
    <!-- Generator: Sketch 40.1 (33804) - http://www.bohemiancoding.com/sketch -->
    <title>Tabs</title>
    <desc>Created with Sketch.</desc>
    <defs></defs>
    <g id="Page-1" stroke="none" stroke-width="1" fill="none" fill-rule="evenodd">
        <g id="Tabs">
            <rect id="Rectangle" fill="#FFFFFF" x="0" y="0" width="300" height="300"></rect>
            <rect id="Rectangle" fill="#DEDEDE" x="0" y="231" width="300" height="69"></rect>
            <g id="Group" transform="translate(41.000000, 241.000000)">
                <g id="star_fill" fill="#EE350F">
                    <g id="Page-1">
                        <g>
                            <g id="star_fill">
                                <polygon id="Star-1" points="19.7256166 34.5477658 7.53451508 43.4354648 12.2391287 29.12082 0 20.2990752 15.0987126 20.3398371 19.7256166 6 24.3525206 20.3398371 39.4512333 20.2990752 27.2121046 29.12082 31.9167182 43.4354648"></polygon>
                            </g>
                        </g>
                    </g>
                </g>
                <g id="home_fill" opacity="0.35" transform="translate(95.000000, 9.897959)" fill="#000000">
                    <g id="Page-1">
                        <g>
                            <g id="home_fill" transform="translate(0.570921, 0.000000)">
                                <polygon id="Rectangle-92" points="0 14.6938776 14.6938776 0 29.3877551 14.6938776 29.3877551 29.3877551 17.1428571 29.3877551 17.1428571 18.9795918 12.244898 18.9795918 12.244898 29.3877551 0 29.3877551"></polygon>
                            </g>
                        </g>
                    </g>
                </g>
                <g id="help_fill" opacity="0.35" transform="translate(184.000000, 10.000000)" fill="#000000">
                    <g id="Page-1">
                        <g>
                            <g id="help_fill">
                                <path d="M15,30 C23.2842712,30 30,23.2842712 30,15 C30,6.71572875 23.2842712,0 15,0 C6.71572875,0 0,6.71572875 0,15 C0,23.2842712 6.71572875,30 15,30 L15,30 Z M10.2272727,10.6293231 L12.2074173,10.6293231 C12.334795,8.97341277 13.446455,7.94281125 15.1950037,7.94281125 C16.9203928,7.94281125 18.0320529,8.99657236 18.0320529,10.4324667 C18.0320529,11.6715044 17.5109622,12.4010313 16.1677063,13.2231966 C14.5812747,14.1727396 13.840168,15.214921 13.8517478,16.7434535 L13.8517478,17.8087945 L15.8782115,17.8087945 L15.8782115,17.056108 C15.8782115,15.8402298 16.295084,15.1917614 17.7657177,14.3232769 C19.2479311,13.4316329 20.1858943,12.1462759 20.1858943,10.3282485 C20.1858943,7.94281125 18.19417,6.13636364 15.2760623,6.13636364 C12.0221405,6.13636364 10.3546505,8.12808798 10.2272727,10.6293231 L10.2272727,10.6293231 Z M15.0213068,23.1818182 C15.95927,23.1818182 16.6193182,22.5101902 16.6193182,21.572227 C16.6193182,20.6226841 15.95927,19.9510561 15.0213068,19.9510561 C14.0833437,19.9510561 13.4117157,20.6226841 13.4117157,21.572227 C13.4117157,22.5101902 14.0833437,23.1818182 15.0213068,23.1818182 L15.0213068,23.1818182 Z" id="Combined-Shape"></path>
                            </g>
                        </g>
                    </g>
                </g>
            </g>
            <g id="Lines" transform="translate(38.000000, 50.000000)" fill="#DBDBDB">
                <rect id="Rectangle-2" x="0" y="0" width="262" height="4"></rect>
                <rect id="Rectangle-2-Copy" x="0" y="44" width="262" height="4"></rect>
                <rect id="Rectangle-2-Copy-2" x="0" y="88" width="262" height="4"></rect>
                <rect id="Rectangle-2-Copy-3" x="0" y="132" width="262" height="4"></rect>
            </g>
        </g>
    </g>
</svg>
