<?xml version="1.0" encoding="UTF-8"?>
<svg width="325px" height="50px" viewBox="0 0 325 50" version="1.1" xmlns="http://www.w3.org/2000/svg" xmlns:xlink="http://www.w3.org/1999/xlink">
    <!-- Generator: Sketch 52.1 (67048) - http://www.bohemiancoding.com/sketch -->
    <title>68747470733a2f2f656c656374726f6e6a732e6f72672f696d616765732f656c656374726f6e2d6c6f676f2e737667</title>
    <desc>Created with Sketch.</desc>
    <g id="Home-Page" stroke="none" stroke-width="1" fill="none" fill-rule="evenodd">
        <g id="Artboard" transform="translate(-896.000000, -1399.000000)" fill="#FFFFFF">
            <g id="Build-Apps-For-Any-P-2" transform="translate(360.000000, 1204.000000)">
                <g id="Logos" transform="translate(19.000000, 195.000000)">
                    <g id="68747470733a2f2f656c656374726f6e6a732e6f72672f696d616765732f656c656374726f6e2d6c6f676f2e737667" transform="translate(517.000000, 0.000000)">
                        <g id="Group" transform="translate(67.549669, 11.920530)" fill-rule="nonzero">
                            <path d="M1.10596026,28.1456954 L18.9622517,28.1456954 C19.4701987,28.1456954 19.9,27.715894 19.9,27.207947 C19.9,26.7 19.4701987,26.2701987 18.9622517,26.2701987 L2.1218543,26.2701987 L2.1218543,15.2907285 L17.0086093,15.2907285 C17.5165563,15.2907285 17.9463576,14.8609272 17.9463576,14.3529801 C17.9463576,13.8450331 17.5165563,13.4152318 17.0086093,13.4152318 L2.1218543,13.4152318 L2.1218543,2.67019868 L18.7668874,2.67019868 C19.2748344,2.67019868 19.7046358,2.24039735 19.7046358,1.73245033 C19.7046358,1.22450331 19.2748344,0.794701987 18.7668874,0.794701987 L1.10596026,0.794701987 C0.558940397,0.794701987 0.0900662252,1.26357616 0.0900662252,1.81059603 L0.0900662252,27.1298013 C0.0900662252,27.6768212 0.558940397,28.1456954 1.10596026,28.1456954 Z M32.2972542,27.1298013 C32.2972542,27.6768212 32.7661283,28.1456954 33.3131483,28.1456954 L49.6065258,28.1456954 C50.1144728,28.1456954 50.5442742,27.715894 50.5442742,27.207947 C50.5442742,26.7 50.1144728,26.2701987 49.6065258,26.2701987 L34.3290424,26.2701987 L34.3290424,1.65430464 C34.3290424,1.10728477 33.8601682,0.638410596 33.3131483,0.638410596 C32.7661283,0.638410596 32.2972542,1.10728477 32.2972542,1.65430464 L32.2972542,27.1298013 Z M63.5276209,28.1456954 L81.3839123,28.1456954 C81.8918593,28.1456954 82.3216606,27.715894 82.3216606,27.207947 C82.3216606,26.7 81.8918593,26.2701987 81.3839123,26.2701987 L64.5435149,26.2701987 L64.5435149,15.2907285 L79.4302699,15.2907285 C79.9382169,15.2907285 80.3680182,14.8609272 80.3680182,14.3529801 C80.3680182,13.8450331 79.9382169,13.4152318 79.4302699,13.4152318 L64.5435149,13.4152318 L64.5435149,2.67019868 L81.188548,2.67019868 C81.696495,2.67019868 82.1262964,2.24039735 82.1262964,1.73245033 C82.1262964,1.22450331 81.696495,0.794701987 81.188548,0.794701987 L63.5276209,0.794701987 C62.980601,0.794701987 62.5117268,1.26357616 62.5117268,1.81059603 L62.5117268,27.1298013 C62.5117268,27.6768212 62.980601,28.1456954 63.5276209,28.1456954 Z M107.105008,28.6145695 C111.676531,28.6145695 114.68514,26.9344371 117.459312,24.3556291 C117.615604,24.1993377 117.771895,23.9649007 117.771895,23.6523179 C117.771895,23.1443709 117.303021,22.6754967 116.795074,22.6754967 C116.482491,22.6754967 116.248054,22.8317881 116.091763,22.9880795 C113.512955,25.4496689 110.895074,26.7781457 107.183153,26.7781457 C100.657988,26.7781457 95.6175904,21.3860927 95.6175904,14.4701987 L95.6175904,14.392053 C95.6175904,7.51523179 100.579842,2.16225166 107.14408,2.16225166 C110.97322,2.16225166 113.5911,3.64701987 115.857325,5.71788079 C116.013617,5.87417219 116.287127,5.99139073 116.560637,5.99139073 C117.107657,5.99139073 117.615604,5.52251656 117.615604,4.97549669 C117.615604,4.62384106 117.420239,4.35033113 117.224875,4.15496689 C114.567922,1.88874172 111.715604,0.325827815 107.183153,0.325827815 C99.2904381,0.325827815 93.5076566,6.73377483 93.5076566,14.4701987 L93.5076566,14.5483444 C93.5076566,22.4019868 99.2904381,28.6145695 107.105008,28.6145695 Z M137.163189,27.2860927 C137.163189,27.8331126 137.632063,28.3019868 138.179083,28.3019868 C138.726103,28.3019868 139.194977,27.8331126 139.194977,27.2860927 L139.194977,2.67019868 L147.947295,2.67019868 C148.455242,2.67019868 148.885043,2.24039735 148.885043,1.73245033 C148.885043,1.22450331 148.455242,0.794701987 147.947295,0.794701987 L128.410871,0.794701987 C127.902924,0.794701987 127.473123,1.22450331 127.473123,1.73245033 C127.473123,2.24039735 127.902924,2.67019868 128.410871,2.67019868 L137.163189,2.67019868 L137.163189,27.2860927 Z M160.930642,27.2860927 C160.930642,27.8331126 161.399516,28.3019868 161.946536,28.3019868 C162.493556,28.3019868 162.96243,27.8331126 162.96243,27.2860927 L162.96243,16.8145695 L171.910112,16.8145695 L180.310774,27.7549669 C180.545211,28.0675497 180.818721,28.3019868 181.20945,28.3019868 C181.75647,28.3019868 182.264417,27.7940397 182.264417,27.2470199 C182.264417,27.0125828 182.147198,26.7781457 181.951834,26.5437086 L174.176337,16.4629139 C178.786933,15.8377483 182.186271,13.2198675 182.186271,8.64834437 L182.186271,8.57019868 C182.186271,6.61655629 181.404814,4.78013245 180.11541,3.49072848 C178.47435,1.84966887 175.778324,0.794701987 172.418059,0.794701987 L161.946536,0.794701987 C161.399516,0.794701987 160.930642,1.26357616 160.930642,1.81059603 L160.930642,27.2860927 Z M162.96243,14.9781457 L162.96243,2.67019868 L172.30084,2.67019868 C177.263092,2.67019868 180.154483,4.97549669 180.154483,8.64834437 L180.154483,8.72649007 C180.154483,12.6728477 176.755145,14.9781457 172.183622,14.9781457 L162.96243,14.9781457 Z M207.712002,28.6145695 C215.995445,28.6145695 221.504717,21.9331126 221.504717,14.4701987 L221.504717,14.392053 C221.504717,6.92913907 216.073591,0.325827815 207.790147,0.325827815 C199.506704,0.325827815 193.997432,7.00728477 193.997432,14.4701987 L193.997432,14.5483444 C193.997432,22.0112583 199.428558,28.6145695 207.712002,28.6145695 Z M207.790147,26.7781457 C201.030545,26.7781457 196.107366,21.2298013 196.107366,14.4701987 L196.107366,14.392053 C196.107366,7.63245033 200.952399,2.16225166 207.712002,2.16225166 C214.471604,2.16225166 219.394783,7.71059603 219.394783,14.4701987 L219.394783,14.5483444 C219.394783,21.307947 214.54975,26.7781457 207.790147,26.7781457 Z M234.448991,27.3251656 C234.448991,27.8721854 234.878792,28.3019868 235.425812,28.3019868 C235.972832,28.3019868 236.402633,27.8721854 236.402633,27.3251656 L236.402633,3.76423841 L255.196673,27.5986755 C255.509256,27.989404 255.821839,28.2629139 256.212567,28.2629139 L256.368859,28.2629139 C256.837733,28.2629139 257.189388,27.8721854 257.189388,27.4033113 L257.189388,1.61523179 C257.189388,1.06821192 256.759587,0.638410596 256.212567,0.638410596 C255.665547,0.638410596 255.235746,1.06821192 255.235746,1.61523179 L255.235746,24.6682119 L236.793362,1.26357616 C236.519852,0.91192053 236.207269,0.677483444 235.777468,0.677483444 L235.464885,0.677483444 C234.917865,0.677483444 234.448991,1.14635762 234.448991,1.69337748 L234.448991,27.3251656 Z" id="Shape"></path>
                        </g>
                        <g id="Group" transform="translate(0.231787, 0.132451)">
                            <path d="M16.26709,10.8502718 C9.80877563,9.67399702 4.70244235,10.9051268 2.66730029,14.4300962 C1.14863171,17.0605074 1.5827308,20.5479943 3.72007728,24.2759036 C3.90199702,24.5932037 4.30669467,24.7029512 4.62399477,24.5210315 C4.94129487,24.3391118 5.05104235,23.9344141 4.86912262,23.617114 C2.94377645,20.2589706 2.56913221,17.249135 3.81435381,15.0923479 C5.504955,12.1641407 10.0597158,11.0659943 16.029758,12.1533384 C16.3895899,12.2188758 16.7344199,11.9803029 16.7999573,11.620471 C16.8654947,11.2606391 16.6269219,10.9158092 16.26709,10.8502718 Z M7.07861563,28.8071517 C9.68999775,31.6768672 13.0826192,34.3685159 16.9517131,36.6023384 C26.3201118,42.0111858 36.2934338,43.4569053 41.2087007,40.105396 C41.5108891,39.8993467 41.5888252,39.4873387 41.3827762,39.1851503 C41.1767268,38.8829619 40.7647185,38.8050255 40.4625301,39.0110748 C36.0634245,42.0106361 26.5894906,40.6373073 17.6139648,35.4552848 C13.8605087,33.2882262 10.5753367,30.6818258 8.05823533,27.9157179 C7.81207268,27.6452034 7.39322308,27.6254623 7.12270858,27.871625 C6.85219407,28.1177876 6.83245298,28.5366372 7.07861563,28.8071517 Z" id="Shape" fill-rule="nonzero"></path>
                            <path d="M39.6407377,28.0015087 C43.8694858,23.0059033 45.3460182,17.9814478 43.3150669,14.4637368 C41.8206546,11.8753386 38.6614245,10.508773 34.4628576,10.4541703 C34.0971371,10.4494141 33.7968063,10.7420335 33.79205,11.107754 C33.7872937,11.4734746 34.0799132,11.7738054 34.4456338,11.7785616 C38.2217152,11.8276699 40.943457,13.0049943 42.1680132,15.1259884 C43.8549613,18.0478679 42.5382228,22.528564 38.6297993,27.145756 C38.3934897,27.4249189 38.4282291,27.8427919 38.7073921,28.0791015 C38.986555,28.3154111 39.4044281,28.2806716 39.6407377,28.0015087 Z M28.7729049,11.0707934 C24.9494197,11.8899918 20.8796646,13.4916898 16.9711355,15.7482801 C7.30003301,21.3318937 0.991353487,29.5651322 1.86752366,35.5349762 C1.92063458,35.896851 2.25704699,36.1471536 2.61892181,36.0940427 C2.98079663,36.0409318 3.23109922,35.7045192 3.17798829,35.3426444 C2.40004159,30.0420527 8.38005162,22.2377494 17.6333872,16.8953336 C21.424971,14.7062617 25.3655808,13.1553903 29.0503881,12.3659042 C29.4080231,12.2892794 29.6358268,11.9372422 29.559202,11.5796073 C29.4825771,11.2219723 29.1305399,10.9941685 28.7729049,11.0707934 Z" id="Shape" fill-rule="nonzero"></path>
                            <path d="M13.1053499,39.6738308 C15.3163366,45.847701 18.9335091,49.6489149 23.0008948,49.6489149 C25.9673153,49.6489149 28.7118359,47.626797 30.851997,44.0667086 C31.0404405,43.7532391 30.9390868,43.3463579 30.6256172,43.1579146 C30.3121476,42.9694712 29.9052666,43.0708248 29.7168231,43.3842944 C27.7934636,46.5837404 25.4309366,48.3244116 23.0008948,48.3244116 C19.6222193,48.3244116 16.3960206,44.9340642 14.3523037,39.2272715 C14.2289898,38.8829348 13.849884,38.7037603 13.5055472,38.8270742 C13.1612104,38.9503881 12.982036,39.329494 13.1053499,39.6738308 Z M33.301094,38.466153 C34.4456795,34.8084911 35.0604132,30.5890416 35.0604132,26.1921295 C35.0604132,15.2205809 31.2204221,5.76269344 25.7508624,3.33404268 C25.4165831,3.18561253 25.0252698,3.33627301 24.8768396,3.67055228 C24.7284095,4.00483159 24.87907,4.3961449 25.2133492,4.54457507 C30.0915353,6.71063791 33.7359099,15.6867225 33.7359099,26.1921295 C33.7359099,30.4578502 33.1405877,34.5440609 32.0370364,38.0705937 C31.9278057,38.4196536 32.1222257,38.7911715 32.4712856,38.900402 C32.8203455,39.0096328 33.1918636,38.8152129 33.301094,38.466153 Z" id="Shape" fill-rule="nonzero"></path>
                            <path d="M45.7738444,37.8173417 C45.7738444,36.0667924 44.3547434,34.6476914 42.604194,34.6476914 C40.8536444,34.6476914 39.4345434,36.0667924 39.4345434,37.8173417 C39.4345434,39.5678914 40.8536444,40.9869921 42.604194,40.9869921 C44.3547434,40.9869921 45.7738444,39.5678914 45.7738444,37.8173417 Z M44.4493411,37.8173417 C44.4493411,38.8363884 43.6232404,39.6624887 42.604194,39.6624887 C41.5851474,39.6624887 40.7590467,38.8363884 40.7590467,37.8173417 C40.7590467,36.7982954 41.5851474,35.9721947 42.604194,35.9721947 C43.6232404,35.9721947 44.4493411,36.7982954 44.4493411,37.8173417 Z" id="Shape" fill-rule="nonzero"></path>
                            <path d="M3.35200735,40.9869921 C5.10255692,40.9869921 6.52165772,39.5678914 6.52165772,37.8173417 C6.52165772,36.0667924 5.10255692,34.6476914 3.35200735,34.6476914 C1.60145778,34.6476914 0.182356966,36.0667924 0.182356966,37.8173417 C0.182356966,39.5678914 1.60145778,40.9869921 3.35200735,40.9869921 Z M3.35200735,39.6624887 C2.33296076,39.6624887 1.50686028,38.8363884 1.50686028,37.8173417 C1.50686028,36.7982954 2.33296076,35.9721947 3.35200735,35.9721947 C4.37105394,35.9721947 5.1971544,36.7982954 5.1971544,37.8173417 C5.1971544,38.8363884 4.37105394,39.6624887 3.35200735,39.6624887 Z" id="Shape" fill-rule="nonzero"></path>
                            <path d="M23.0008948,6.56724609 C24.7514444,6.56724609 26.1705452,5.14814526 26.1705452,3.39759573 C26.1705452,1.64704615 24.7514444,0.227945338 23.0008948,0.227945338 C21.2503452,0.227945338 19.8312444,1.64704615 19.8312444,3.39759573 C19.8312444,5.14814526 21.2503452,6.56724609 23.0008948,6.56724609 Z M23.0008948,5.24274278 C21.9818482,5.24274278 21.1557477,4.41664228 21.1557477,3.39759573 C21.1557477,2.37854913 21.9818482,1.55244865 23.0008948,1.55244865 C24.0199414,1.55244865 24.8460419,2.37854913 24.8460419,3.39759573 C24.8460419,4.41664228 24.0199414,5.24274278 23.0008948,5.24274278 Z" id="Shape" fill-rule="nonzero"></path>
                            <path d="M23.4850352,28.4336682 C22.2470065,28.7011662 21.0272995,27.9143767 20.7592781,26.676348 C20.4923036,25.4383192 21.2785696,24.2186123 22.5165984,23.9505908 C23.7546271,23.6830929 24.9743341,24.4698824 25.2423555,25.7079111 C25.5098535,26.9459398 24.723064,28.1656468 23.4850352,28.4336682 Z" id="Path"></path>
                        </g>
                    </g>
                </g>
            </g>
        </g>
    </g>
</svg>