<?xml version="1.0" encoding="UTF-8"?>
<svg width="50px" height="50px" viewBox="0 0 50 50" version="1.1" xmlns="http://www.w3.org/2000/svg" xmlns:xlink="http://www.w3.org/1999/xlink">
    <!-- Generator: Sketch 52.1 (67048) - http://www.bohemiancoding.com/sketch -->
    <title>JS</title>
    <desc>Created with Sketch.</desc>
    <g id="Home-Page" stroke="none" stroke-width="1" fill="none" fill-rule="evenodd">
        <g id="Artboard" transform="translate(-442.000000, -2019.000000)">
            <g id="Use-Anything-You-Lov-2" transform="translate(0.000000, 1735.000000)">
                <g id="JS" transform="translate(442.000000, 284.000000)">
                    <polygon id="Path" fill="#EE350F" points="0 0 50 0 50 50 0 50"></polygon>
                    <path d="M13.1468254,41.7836508 L16.9731746,39.4680158 C17.7113492,40.7768254 18.3828571,41.8842064 19.9935715,41.8842064 C21.5375396,41.8842064 22.5109523,41.2802381 22.5109523,38.9310318 L22.5109523,22.9548412 L27.2096826,22.9548412 L27.2096826,38.9974604 C27.2096826,43.864127 24.3569842,46.0792857 20.195,46.0792857 C16.4361905,46.0792857 14.2542857,44.1325396 13.146746,41.7832539" id="Path" fill="#80030C"></path>
                    <path d="M29.7619047,41.2801588 L33.5877777,39.065 C34.5949207,40.7097619 35.9038889,41.9179365 38.2196031,41.9179365 C40.166508,41.9179365 41.4080158,40.9445238 41.4080158,39.6019842 C41.4080158,37.9909523 40.1326984,37.4203174 37.9846031,36.480873 L36.8102381,35.9770635 C33.4201588,34.534127 31.1713492,32.7217461 31.1713492,28.8954762 C31.1713492,25.3713492 33.8563492,22.6861904 38.0519047,22.6861904 C41.0390477,22.6861904 43.1870635,23.7267461 44.7307936,26.4453969 L41.0723809,28.7946826 C40.2668254,27.3515873 39.3944445,26.7811111 38.0519842,26.7811111 C36.675873,26.7811111 35.8031746,27.6537301 35.8031746,28.7946826 C35.8031746,30.204365 36.675873,30.7750793 38.6894445,31.6477777 L39.8640477,32.1511904 C43.8580953,33.8630158 46.1069047,35.6080953 46.1069047,39.5348412 C46.1069047,43.7640477 42.7842064,46.0796826 38.3203969,46.0796826 C33.9572223,46.0796826 31.1378572,43.9988889 29.7619842,41.2801588" id="Path" fill="#80030C"></path>
                </g>
            </g>
        </g>
    </g>
</svg>