<?xml version="1.0" encoding="UTF-8"?>
<svg width="134px" height="50px" viewBox="0 0 134 50" version="1.1" xmlns="http://www.w3.org/2000/svg" xmlns:xlink="http://www.w3.org/1999/xlink">
    <!-- Generator: Sketch 52.1 (67048) - http://www.bohemiancoding.com/sketch -->
    <title>pwalogo</title>
    <desc>Created with Sketch.</desc>
    <g id="Home-Page" stroke="none" stroke-width="1" fill="none" fill-rule="evenodd">
        <g id="Artboard" transform="translate(-379.000000, -1400.000000)" fill="#EE350F">
            <g id="Build-Apps-For-Any-P-2" transform="translate(360.000000, 1204.000000)">
                <g id="Logos" transform="translate(19.000000, 195.000000)">
                    <g id="pwalogo" transform="translate(0.000000, 1.000000)">
                        <polygon id="Path" points="98.1958763 41.0448235 102.05922 31.3433199 113.214206 31.3433199 107.920349 16.6266617 114.541267 0 133.505155 50 119.519973 50 116.279395 41.0448235"></polygon>
                        <polygon id="Path" points="86.2121139 50 106.443299 0 93.0307169 6.64393505e-05 79.1914175 32.3111871 69.3502896 0.000132878021 59.0407284 0.000132878021 48.4739761 32.3111871 41.0220561 17.5876768 34.2783505 38.2903681 41.1252193 50 54.3248523 50 63.8735592 21.0239064 72.9777291 50"></polygon>
                        <path d="M12.7453596,32.8358409 L21.015736,32.8358409 C23.5209828,32.8358409 25.7518102,32.557516 27.7082184,32.0008663 L29.8470487,25.4418975 L35.8247423,7.11055644 C35.3692677,6.39195312 34.8492721,5.71251666 34.2647556,5.0723355 C31.1955651,1.69073966 26.7050671,0 20.7931248,0 L0,0 L0,50 L12.7453596,50 L12.7453596,32.8358409 Z M23.6924692,11.5030001 C24.8913023,12.7039946 25.4906505,14.3111488 25.4906505,16.3245987 C25.4906505,18.3534923 24.9634784,19.9626194 23.9092024,21.1519802 C22.7534289,22.47353 20.6252609,23.1342709 17.5248351,23.1342709 L12.7453596,23.1342709 L12.7453596,9.70140629 L17.5599663,9.70140629 C20.4495368,9.70140629 22.4937045,10.3019376 23.6924692,11.5030001 Z" id="Shape" fill-rule="nonzero"></path>
                    </g>
                </g>
            </g>
        </g>
    </g>
</svg>
