<?xml version="1.0" encoding="UTF-8"?>
<svg width="57px" height="50px" viewBox="0 0 57 50" version="1.1" xmlns="http://www.w3.org/2000/svg" xmlns:xlink="http://www.w3.org/1999/xlink">
    <!-- Generator: Sketch 52.1 (67048) - http://www.bohemiancoding.com/sketch -->
    <title>React-icon</title>
    <desc>Created with Sketch.</desc>
    <g id="Home-Page" stroke="none" stroke-width="1" fill="none" fill-rule="evenodd">
        <g id="Artboard" transform="translate(-676.000000, -2019.000000)" fill="#EE350F">
            <g id="Use-Anything-You-Lov-2" transform="translate(0.000000, 1735.000000)">
                <g id="React-icon" transform="translate(676.000000, 284.000000)">
                    <path d="M56.2128146,25 C56.2128146,21.2814645 51.5560641,17.7574371 44.416476,15.5720824 C46.0640732,8.29519451 45.3318078,2.50572082 42.1052632,0.652173913 C41.3615561,0.217391304 40.4919908,0.0114416476 39.5423341,0.0114416476 L39.5423341,2.56292906 C40.0686499,2.56292906 40.4919908,2.66590389 40.8466819,2.8604119 C42.402746,3.75286041 43.0778032,7.15102975 42.5514874,11.5217391 C42.4256293,12.597254 42.2196796,13.7299771 41.9679634,14.8855835 C39.7254005,14.3363844 37.2768879,13.9130435 34.7025172,13.6384439 C33.1578947,11.5217391 31.5560641,9.59954233 29.9427918,7.91762014 C33.6727689,4.45080092 37.173913,2.55148741 39.5537757,2.55148741 L39.5537757,0 C39.5537757,0 39.5537757,0 39.5537757,0 C36.4073227,0 32.2883295,2.24256293 28.1235698,6.13272311 C23.9588101,2.26544622 19.8398169,0.0457665904 16.6933638,0.0457665904 L16.6933638,2.597254 C19.0617849,2.597254 22.5743707,4.48512586 26.3043478,7.92906178 C24.7025172,9.61098398 23.1006865,11.5217391 21.5789474,13.6384439 C18.993135,13.9130435 16.5446224,14.3363844 14.3020595,14.8970252 C14.0389016,13.7528604 13.8443936,12.6430206 13.7070938,11.5789474 C13.1693364,7.20823799 13.8329519,3.81006865 15.3775744,2.90617849 C15.7208238,2.70022883 16.1670481,2.60869565 16.6933638,2.60869565 L16.6933638,0.057208238 C16.6933638,0.057208238 16.6933638,0.057208238 16.6933638,0.057208238 C15.7322654,0.057208238 14.8627002,0.263157895 14.1075515,0.697940503 C10.8924485,2.55148741 10.1716247,8.32951945 11.8306636,15.583524 C4.71395881,17.7803204 0.0800915332,21.2929062 0.0800915332,25 C0.0800915332,28.7185355 4.73684211,32.2425629 11.8764302,34.4279176 C10.228833,41.7048055 10.9610984,47.4942792 14.187643,49.3478261 C14.9313501,49.7826087 15.8009153,49.9885584 16.7620137,49.9885584 C19.9084668,49.9885584 24.02746,47.7459954 28.1922197,43.8558352 C32.3569794,47.7231121 36.4759725,49.9427918 39.6224256,49.9427918 C40.583524,49.9427918 41.4530892,49.7368421 42.208238,49.3020595 C45.423341,47.4485126 46.1441648,41.6704805 44.4851259,34.416476 C51.5789474,32.2311213 56.2128146,28.7070938 56.2128146,25 Z M41.3157895,17.3684211 C40.8924485,18.8443936 40.3661327,20.3661327 39.771167,21.8878719 C39.3020595,20.97254 38.8100686,20.0572082 38.2723112,19.1418764 C37.7459954,18.2265446 37.1853547,17.3340961 36.624714,16.4645309 C38.2494279,16.7048055 39.8169336,17.0022883 41.3157895,17.3684211 Z M36.0755149,29.5537757 C35.1830664,31.0983982 34.2677346,32.5629291 33.3180778,33.9244851 C31.6132723,34.0732265 29.8855835,34.1533181 28.1464531,34.1533181 C26.4187643,34.1533181 24.6910755,34.0732265 22.9977117,33.9359268 C22.0480549,32.5743707 21.1212815,31.1212815 20.228833,29.5881007 C19.3592677,28.0892449 18.5697941,26.5675057 17.8489703,25.0343249 C18.5583524,23.5011442 19.3592677,21.9679634 20.2173913,20.4691076 C21.1098398,18.9244851 22.0251716,17.4599542 22.9748284,16.0983982 C24.6796339,15.9496568 26.4073227,15.8695652 28.1464531,15.8695652 C29.8741419,15.8695652 31.6018307,15.9496568 33.2951945,16.0869565 C34.2448513,17.4485126 35.1716247,18.9016018 36.0640732,20.4347826 C36.9336384,21.9336384 37.7231121,23.4553776 38.4439359,24.9885584 C37.7231121,26.5217391 36.9336384,28.0549199 36.0755149,29.5537757 Z M39.771167,28.0663616 C40.389016,29.5995423 40.9153318,31.1327231 41.3501144,32.6201373 C39.8512586,32.98627 38.2723112,33.2951945 36.6361556,33.5354691 C37.1967963,32.6544622 37.7574371,31.7505721 38.2837529,30.8237986 C38.8100686,29.9084668 39.3020595,28.9816934 39.771167,28.0663616 Z M28.1693364,40.2745995 C27.1052632,39.1762014 26.0411899,37.9519451 24.9885584,36.6132723 C26.0183066,36.6590389 27.0709382,36.6933638 28.1350114,36.6933638 C29.2105263,36.6933638 30.2745995,36.6704805 31.3157895,36.6132723 C30.2860412,37.9519451 29.221968,39.1762014 28.1693364,40.2745995 Z M19.6567506,33.5354691 C18.0320366,33.2951945 16.4645309,32.9977117 14.9656751,32.6315789 C15.389016,31.1556064 15.9153318,29.6338673 16.5102975,28.1121281 C16.979405,29.02746 17.4713959,29.9427918 18.0091533,30.8581236 C18.5469108,31.7734554 19.0961098,32.6659039 19.6567506,33.5354691 Z M28.1121281,9.72540046 C29.1762014,10.8237986 30.2402746,12.0480549 31.2929062,13.3867277 C30.2631579,13.3409611 29.2105263,13.3066362 28.1464531,13.3066362 C27.0709382,13.3066362 26.006865,13.3295195 24.9656751,13.3867277 C25.9954233,12.0480549 27.0594966,10.8237986 28.1121281,9.72540046 Z M19.6453089,16.4645309 C19.0846682,17.3455378 18.5240275,18.2494279 17.9977117,19.1762014 C17.4713959,20.0915332 16.979405,21.006865 16.5102975,21.9221968 C15.8924485,20.389016 15.3661327,18.8558352 14.9313501,17.3684211 C16.4302059,17.01373 18.0091533,16.7048055 19.6453089,16.4645309 Z M9.29061785,30.7894737 C5.2402746,29.0617849 2.6201373,26.7963387 2.6201373,25 C2.6201373,23.2036613 5.2402746,20.9267735 9.29061785,19.2105263 C10.2745995,18.7871854 11.3501144,18.409611 12.4599542,18.0549199 C13.1121281,20.2974828 13.9702517,22.6315789 15.0343249,25.0228833 C13.9816934,27.402746 13.1350114,29.7254005 12.4942792,31.9565217 C11.3615561,31.6018307 10.2860412,31.2128146 9.29061785,30.7894737 Z M15.4462243,47.1395881 C13.8901602,46.2471396 13.215103,42.8489703 13.7414188,38.4782609 C13.8672769,37.402746 14.0732265,36.2700229 14.3249428,35.1144165 C16.5675057,35.6636156 19.0160183,36.0869565 21.590389,36.3615561 C23.1350114,38.4782609 24.7368421,40.4004577 26.3501144,42.0823799 C22.6201373,45.5491991 19.1189931,47.4485126 16.7391304,47.4485126 C16.2242563,47.4370709 15.7894737,47.3340961 15.4462243,47.1395881 Z M42.5858124,38.4210526 C43.1235698,42.791762 42.4599542,46.1899314 40.9153318,47.0938215 C40.5720824,47.2997712 40.1258581,47.3913043 39.5995423,47.3913043 C37.2311213,47.3913043 33.7185355,45.5034325 29.9885584,42.0594966 C31.590389,40.3775744 33.1922197,38.4668192 34.7139588,36.3501144 C37.2997712,36.0755149 39.7482838,35.6521739 41.9908467,35.0915332 C42.2540046,36.2471396 42.4599542,37.3569794 42.5858124,38.4210526 Z M46.9908467,30.7894737 C46.006865,31.2128146 44.9313501,31.590389 43.8215103,31.9450801 C43.1693364,29.7025172 42.3112128,27.3684211 41.2471396,24.9771167 C42.2997712,22.597254 43.1464531,20.2745995 43.7871854,18.0434783 C44.9199085,18.3981693 45.9954233,18.7871854 47.0022883,19.2105263 C51.0526316,20.9382151 53.6727689,23.2036613 53.6727689,25 C53.6613272,26.7963387 51.0411899,29.0732265 46.9908467,30.7894737 Z" id="Shape" fill-rule="nonzero"></path>
                    <circle id="Oval" cx="28.1350114" cy="25" r="5.22883295"></circle>
                </g>
            </g>
        </g>
    </g>
</svg>