<?xml version="1.0" encoding="UTF-8"?>
<svg width="39px" height="50px" viewBox="0 0 39 50" version="1.1" xmlns="http://www.w3.org/2000/svg" xmlns:xlink="http://www.w3.org/1999/xlink">
    <!-- Generator: Sketch 52.1 (67048) - http://www.bohemiancoding.com/sketch -->
    <title>rollup-js-seeklogo.com</title>
    <desc>Created with Sketch.</desc>
    <defs>
        <linearGradient x1="26.8242921%" y1="48.2236445%" x2="67.5758137%" y2="55.339338%" id="linearGradient-1">
            <stop stop-color="#FF6533" offset="0%"></stop>
            <stop stop-color="#FF5633" offset="15.7%"></stop>
            <stop stop-color="#FF4333" offset="43.4%"></stop>
            <stop stop-color="#FF3733" offset="71.4%"></stop>
            <stop stop-color="#FF3333" offset="100%"></stop>
        </linearGradient>
        <linearGradient x1="32.2926113%" y1="39.496861%" x2="45.5563705%" y2="48.9139013%" id="linearGradient-2">
            <stop stop-color="#FF6533" offset="0%"></stop>
            <stop stop-color="#FF5633" offset="15.7%"></stop>
            <stop stop-color="#FF4333" offset="43.4%"></stop>
            <stop stop-color="#FF3733" offset="71.4%"></stop>
            <stop stop-color="#FF3333" offset="100%"></stop>
        </linearGradient>
        <linearGradient x1="40.2012262%" y1="47.2148639%" x2="53.9750044%" y2="54.5349876%" id="linearGradient-3">
            <stop stop-color="#FBB040" offset="0%"></stop>
            <stop stop-color="#FB8840" offset="100%"></stop>
        </linearGradient>
        <linearGradient x1="55.2222794%" y1="5.88782542%" x2="40.9262994%" y2="128.016462%" id="linearGradient-4">
            <stop stop-color="#FFFFFF" offset="0%"></stop>
            <stop stop-color="#FFFFFF" stop-opacity="0" offset="100%"></stop>
        </linearGradient>
    </defs>
    <g id="Home-Page" stroke="none" stroke-width="1" fill="none" fill-rule="evenodd">
        <g id="Artboard" transform="translate(-881.000000, -2019.000000)">
            <g id="Use-Anything-You-Lov-2" transform="translate(0.000000, 1735.000000)">
                <g id="rollup-js-seeklogo.com" transform="translate(881.000000, 284.000000)">
                    <path d="M38.2089552,16.4377199 C38.2089552,13.4999146 37.43953,10.7457222 36.0842925,8.35875542 C32.4907272,4.66026845 24.6740667,3.80340858 22.7330169,8.34126849 C20.7395061,12.9927935 26.0817651,18.1689266 28.416271,17.7579836 C31.3890501,17.2333755 27.891663,10.4134704 27.891663,10.4134704 C32.4382663,18.9820691 31.3890501,16.3590287 23.1701903,24.2281499 C14.9513303,32.097271 6.55760101,48.7011169 5.33351549,49.4005943 C5.28105469,49.4355682 5.22859387,49.4617985 5.1673896,49.488029 L37.4045561,49.488029 C37.9728816,49.488029 38.3401073,48.8847297 38.0865467,48.3776085 L29.6578434,31.6950715 C29.4742307,31.3365894 29.6053827,30.8906725 29.9551215,30.6895727 C34.8864373,27.8566891 38.2089552,22.5406606 38.2089552,16.4377199 Z" id="Path" fill="url(#linearGradient-1)"></path>
                    <path d="M38.2089552,16.4377199 C38.2089552,13.4999146 37.43953,10.7457222 36.0842925,8.35875542 C32.4907272,4.66026845 24.6740667,3.80340858 22.7330169,8.34126849 C20.7395061,12.9927935 26.0817651,18.1689266 28.416271,17.7579836 C31.3890501,17.2333755 27.891663,10.4134704 27.891663,10.4134704 C32.4382663,18.9820691 31.3890501,16.3590287 23.1701903,24.2281499 C14.9513303,32.097271 6.55760101,48.7011169 5.33351549,49.4005943 C5.28105469,49.4355682 5.22859387,49.4617985 5.1673896,49.488029 L37.4045561,49.488029 C37.9728816,49.488029 38.3401073,48.8847297 38.0865467,48.3776085 L29.6578434,31.6950715 C29.4742307,31.3365894 29.6053827,30.8906725 29.9551215,30.6895727 C34.8864373,27.8566891 38.2089552,22.5406606 38.2089552,16.4377199 Z" id="Path" fill="#EE350F"></path>
                    <path d="M5.33351549,49.4005943 C6.55760101,48.7011169 14.9513303,32.0885276 23.1701903,24.2194064 C31.3890501,16.3502852 32.4382663,18.9733255 27.891663,10.4047269 C27.891663,10.4047269 10.4921616,34.7990027 4.19686464,46.8649885" id="Path" fill="url(#linearGradient-2)"></path>
                    <path d="M7.78168654,27.5419242 C19.5329076,5.93681478 21.0717579,3.75969125 27.1921855,3.75969125 C30.4097818,3.75969125 33.6536084,5.21110694 35.7520407,7.79043 C32.8929267,3.18262236 27.8304587,0.0961781482 22.0335394,0.00874346801 L2.07220193,0.00874346801 C1.65251545,0.00874346801 1.3115202,0.349738721 1.3115202,0.769425185 L1.3115202,41.0068649 C2.50063185,37.9379078 4.52037297,33.5486867 7.78168654,27.5419242 Z" id="Path" fill="#EE350F"></path>
                    <path d="M23.1701903,24.2194064 C14.9513303,32.0885276 6.55760101,48.7011169 5.33351549,49.4005943 C4.10942997,50.1000718 2.05471499,50.1875064 0.961781482,48.9634209 C-0.201099764,47.6606442 -2.01099764,45.5534684 7.78168654,27.5419242 C19.5329076,5.93681478 21.0717579,3.75969125 27.1921855,3.75969125 C30.4097818,3.75969125 33.6536084,5.21110694 35.7520407,7.79043 C35.8657058,7.97404284 35.9793709,8.16639912 36.093036,8.35875542 C32.4994706,4.66026845 24.6828101,3.80340858 22.7417603,8.34126849 C20.7482496,12.9927935 26.0905085,18.1689266 28.4250145,17.7579836 C31.3977936,17.2333755 27.9004064,10.4134704 27.9004064,10.4134704 C32.4382663,18.9733255 31.3890501,16.3502852 23.1701903,24.2194064 Z" id="Path" fill="url(#linearGradient-3)"></path>
                    <path d="M8.74346801,28.5037057 C20.494689,6.89859627 22.0335394,4.72147273 28.153967,4.72147273 C30.8032378,4.72147273 33.4699955,5.70948461 35.4984801,7.49315209 C33.4000478,5.09744185 30.2873731,3.75969125 27.1921855,3.75969125 C21.0717579,3.75969125 19.5329076,5.93681478 7.78168654,27.5419242 C-2.01099764,45.5534684 -0.201099764,47.6606442 0.961781482,48.9634209 C1.12790737,49.1470337 1.32026367,49.3044161 1.52136343,49.4355682 C0.498377676,47.9491787 0.04371734,44.4955087 8.74346801,28.5037057 Z" id="Path" fill="url(#linearGradient-4)" opacity="0.3"></path>
                </g>
            </g>
        </g>
    </g>
</svg>