<?xml version="1.0" encoding="UTF-8"?>
<svg width="39px" height="50px" viewBox="0 0 39 50" version="1.1" xmlns="http://www.w3.org/2000/svg" xmlns:xlink="http://www.w3.org/1999/xlink">
    <!-- Generator: Sketch 52.1 (67048) - http://www.bohemiancoding.com/sketch -->
    <title>rollup-js-seeklogo.com</title>
    <desc>Created with Sketch.</desc>
    <g id="Home-Page" stroke="none" stroke-width="1" fill="none" fill-rule="evenodd">
        <g id="Artboard" transform="translate(-881.000000, -2019.000000)">
            <g id="Use-Anything-You-Lov-2" transform="translate(0.000000, 1735.000000)">
                <g id="rollup-js-seeklogo.com" transform="translate(881.000000, 284.000000)">
                    <path d="M38.2089552,16.4377199 C38.2089552,13.4999146 37.43953,10.7457222 36.0842925,8.35875542 C32.4907272,4.66026845 24.6740667,3.80340858 22.7330169,8.34126849 C20.7395061,12.9927935 26.0817651,18.1689266 28.416271,17.7579836 C31.3890501,17.2333755 27.891663,10.4134704 27.891663,10.4134704 C32.4382663,18.9820691 31.3890501,16.3590287 23.1701903,24.2281499 C14.9513303,32.097271 6.55760101,48.7011169 5.33351549,49.4005943 C5.28105469,49.4355682 5.22859387,49.4617985 5.1673896,49.488029 L37.4045561,49.488029 C37.9728816,49.488029 38.3401073,48.8847297 38.0865467,48.3776085 L29.6578434,31.6950715 C29.4742307,31.3365894 29.6053827,30.8906725 29.9551215,30.6895727 C34.8864373,27.8566891 38.2089552,22.5406606 38.2089552,16.4377199 Z" id="Path" fill="#e7bdb4"></path>
                    <path d="M7.78168654,27.5419242 C19.5329076,5.93681478 21.0717579,3.75969125 27.1921855,3.75969125 C30.4097818,3.75969125 33.6536084,5.21110694 35.7520407,7.79043 C32.8929267,3.18262236 27.8304587,0.0961781482 22.0335394,0.00874346801 L2.07220193,0.00874346801 C1.65251545,0.00874346801 1.3115202,0.349738721 1.3115202,0.769425185 L1.3115202,41.0068649 C2.50063185,37.9379078 4.52037297,33.5486867 7.78168654,27.5419242 Z" id="Path" fill="#e7bdb4"></path>
                    <path d="M23.1701903,24.2194064 C14.9513303,32.0885276 6.55760101,48.7011169 5.33351549,49.4005943 C4.10942997,50.1000718 2.05471499,50.1875064 0.961781482,48.9634209 C-0.201099764,47.6606442 -2.01099764,45.5534684 7.78168654,27.5419242 C19.5329076,5.93681478 21.0717579,3.75969125 27.1921855,3.75969125 C30.4097818,3.75969125 33.6536084,5.21110694 35.7520407,7.79043 C35.8657058,7.97404284 35.9793709,8.16639912 36.093036,8.35875542 C32.4994706,4.66026845 24.6828101,3.80340858 22.7417603,8.34126849 C20.7482496,12.9927935 26.0905085,18.1689266 28.4250145,17.7579836 C31.3977936,17.2333755 27.9004064,10.4134704 27.9004064,10.4134704 C32.4382663,18.9733255 31.3890501,16.3502852 23.1701903,24.2194064 Z" id="Path" fill="#201a19"></path>
                </g>
            </g>
        </g>
    </g>
</svg>
