<?xml version="1.0" encoding="UTF-8"?>
<svg width="172px" height="44px" viewBox="0 0 172 44" version="1.1" xmlns="http://www.w3.org/2000/svg" xmlns:xlink="http://www.w3.org/1999/xlink">
    <!-- Generator: Sketch 52.1 (67048) - http://www.bohemiancoding.com/sketch -->
    <title>webpack</title>
    <desc>Created with Sketch.</desc>
    <g id="Home-Page" stroke="none" stroke-width="1" fill="none" fill-rule="evenodd">
        <g id="Artboard" transform="translate(-983.000000, -2022.000000)" fill-rule="nonzero">
            <g id="Use-Anything-You-Lov-2" transform="translate(0.000000, 1735.000000)">
                <g id="webpack" transform="translate(983.000000, 287.000000)">
                    <path d="M38.2340183,33.6267123 L20.8196347,43.4783105 L20.8196347,35.8070776 L31.6700913,29.836758 L38.2340183,33.6267123 Z M39.4269406,32.5479452 L39.4269406,11.9486301 L33.0570776,15.630137 L33.0570776,28.8721461 L39.4269406,32.5479452 Z M1.87557078,33.6267123 L19.2899543,43.4783105 L19.2899543,35.8070776 L8.43378995,29.836758 L1.87557078,33.6267123 Z M0.682648402,32.5479452 L0.682648402,11.9486301 L7.05251142,15.630137 L7.05251142,28.8721461 L0.682648402,32.5479452 Z M1.4303653,10.6130137 L19.2899543,0.510273973 L19.2899543,7.92465753 L7.84589041,14.2203196 L7.75456621,14.2716895 L1.4303653,10.6130137 Z M38.6792237,10.6130137 L20.8196347,0.510273973 L20.8196347,7.92465753 L32.2636986,14.2146119 L32.3550228,14.2659817 L38.6792237,10.6130137 Z" id="Shape" fill="#e7bdb4"></path>
                    <path d="M19.2899543,34.0605023 L8.58219178,28.1700913 L8.58219178,16.5091324 L19.2899543,22.6906393 L19.2899543,34.0605023 Z M20.8196347,34.0605023 L31.5273973,28.1757991 L31.5273973,16.5091324 L20.8196347,22.6906393 L20.8196347,34.0605023 Z M9.30707763,15.1621005 L20.0547945,9.25456621 L30.8025114,15.1621005 L20.0547945,21.3664384 L9.30707763,15.1621005 Z" id="Shape" fill="#e7bdb4"></path>
                    <path d="M64.4554795,29.8938356 L69.1643836,29.8938356 L73.9646119,13.9006849 L69.3755708,13.9006849 L66.533105,25.2477169 L63.5022831,13.9006849 L59.5296804,13.9006849 L56.4703196,25.2477169 L53.6563927,13.9006849 L49.0673516,13.9006849 L53.8390411,29.8938356 L58.5479452,29.8938356 L61.5159817,19.6484018 L64.4554795,29.8938356 Z M74.2100457,21.9429224 C74.2100457,26.7431507 77.4805936,30.293379 82.6232877,30.293379 C86.6015982,30.293379 88.7420091,27.9075342 89.3527397,26.7773973 L86.5673516,24.6655251 C86.1107306,25.3390411 84.8550228,26.6232877 82.6803653,26.6232877 C80.3230594,26.6232877 78.6107306,25.0936073 78.5194064,22.9531963 L89.7808219,22.9531963 C89.8093607,22.6449772 89.8093607,22.3424658 89.8093607,22.0342466 C89.8093607,16.8059361 86.9954338,13.5011416 82.0410959,13.5011416 C77.4805936,13.5011416 74.2100457,17.1084475 74.2100457,21.9429224 Z M78.6449772,20.196347 C78.8276256,18.3641553 80.1118721,16.9543379 82.1038813,16.9543379 C84.033105,16.9543379 85.4372146,18.2385845 85.5285388,20.196347 L78.6449772,20.196347 Z M91.4018265,29.8938356 L95.380137,29.8938356 L95.380137,28.2442922 C95.8082192,28.7636986 97.4006849,30.293379 100.123288,30.293379 C104.712329,30.293379 107.954338,26.8401826 107.954338,21.9143836 C107.954338,16.9600457 104.957763,13.5068493 100.368721,13.5068493 C97.6175799,13.5068493 96.0251142,15.0365297 95.6255708,15.5844749 L95.6255708,7.78196347 L91.4075342,7.78196347 L91.4075342,29.8938356 L91.4018265,29.8938356 Z M95.5,21.9429224 C95.5,18.946347 97.2751142,17.2340183 99.5981735,17.2340183 C102.046804,17.2340183 103.696347,19.163242 103.696347,21.9429224 C103.696347,24.7853881 101.984018,26.5605023 99.5981735,26.5605023 C97.0296804,26.5605023 95.5,24.4771689 95.5,21.9429224 Z M109.598174,35.6130137 L113.81621,35.6130137 L113.81621,28.2385845 C114.215753,28.7579909 115.802511,30.2876712 118.559361,30.2876712 C123.148402,30.2876712 126.144977,26.8344749 126.144977,21.880137 C126.144977,16.9885845 122.902968,13.5011416 118.313927,13.5011416 C115.591324,13.5011416 113.998858,15.0308219 113.570776,15.5787671 L113.570776,13.8949772 L109.592466,13.8949772 L109.592466,35.6130137 L109.598174,35.6130137 Z M113.696347,21.8515982 C113.696347,19.3116438 115.226027,17.2340183 117.794521,17.2340183 C120.180365,17.2340183 121.892694,19.0091324 121.892694,21.8515982 C121.892694,24.6369863 120.243151,26.5605023 117.794521,26.5605023 C115.471461,26.5605023 113.696347,24.8481735 113.696347,21.8515982 Z M126.909817,24.9394977 C126.909817,28.3013699 129.660959,30.293379 132.902968,30.293379 C134.740868,30.293379 135.962329,29.7454338 136.789954,28.8550228 L137.063927,29.8938356 L140.796804,29.8938356 L140.796804,19.7682648 C140.796804,16.1894977 139.267123,13.5011416 134.130137,13.5011416 C131.681507,13.5011416 129.267123,14.4200913 127.828767,15.3961187 L129.421233,18.2728311 C130.614155,17.6621005 132.08105,17.1426941 133.673516,17.1426941 C135.539954,17.1426941 136.578767,18.0901826 136.578767,19.5 L136.578767,20.5388128 C135.996575,20.1392694 134.740868,19.6541096 133.119863,19.6541096 C129.386986,19.6484018 126.909817,21.7888128 126.909817,24.9394977 Z M131.127854,24.8139269 C131.127854,23.5011416 132.257991,22.5821918 133.878995,22.5821918 C135.5,22.5821918 136.664384,23.4098174 136.664384,24.8139269 C136.664384,26.1609589 135.5,27.0171233 133.913242,27.0171233 C132.326484,27.0171233 131.127854,26.1324201 131.127854,24.8139269 Z M151.042237,26.5605023 C148.38242,26.5605023 146.487443,24.6312785 146.487443,21.9143836 C146.487443,19.3458904 148.171233,17.2340183 150.893836,17.2340183 C152.697489,17.2340183 153.924658,18.1187215 154.626712,18.7636986 L155.819635,15.2134703 C154.780822,14.4200913 153.125571,13.5011416 150.773973,13.5011416 C145.910959,13.5011416 142.269406,17.0799087 142.269406,21.9429224 C142.269406,26.8059361 145.819635,30.293379 150.802511,30.293379 C153.125571,30.293379 154.872146,29.3173516 155.785388,28.5810502 L154.655251,25.1278539 C153.947489,25.7043379 152.663242,26.5605023 151.042237,26.5605023 Z M157.372146,29.8938356 L161.590183,29.8938356 L161.590183,21.6347032 L166.944064,29.8938356 L171.898402,29.8938356 L165.842466,21.1438356 L171.47032,13.8949772 L166.727169,13.8949772 L161.590183,20.6244292 L161.590183,7.78196347 L157.372146,7.78196347 L157.372146,29.8938356 Z" id="Shape" fill="#e7bdb4"></path>
                </g>
            </g>
        </g>
    </g>
</svg>
