<svg xmlns="http://www.w3.org/2000/svg" xmlns:xlink="http://www.w3.org/1999/xlink" width="1788" height="426" viewBox="0 0 1788 426">
  <defs>
    <linearGradient id="logo-text-white-b" x1="50%" x2="50%" y1="10.483%" y2="0%">
      <stop offset="0%" stop-color="#B70000"/>
      <stop offset="100%" stop-color="#FF2E2E"/>
    </linearGradient>
    <circle id="logo-text-white-a" cx="200" cy="200" r="200"/>
    <linearGradient id="logo-text-white-d" x1="94.226%" x2="34.906%" y1="28.491%" y2="61.944%">
      <stop offset="0%" stop-color="#B70000"/>
      <stop offset="100%" stop-color="#FF2E2E"/>
    </linearGradient>
    <path id="logo-text-white-e" d="M47.9669921,283.361585 C50,294 106.5,348.100006 147,350 C147,350 152.349173,327.170934 156.349173,289.170934 L47.9669921,283.361585 Z"/>
    <linearGradient id="logo-text-white-f" x1="88.559%" x2="5.268%" y1="50%" y2="100%">
      <stop offset="0%" stop-color="#B70000"/>
      <stop offset="100%" stop-color="#FF2E2E"/>
    </linearGradient>
    <path id="logo-text-white-g" d="M156.113083,289.529294 C161.722555,266.879371 170.638687,233.449196 182,206 L47.9669921,283.361585 L156.113083,289.529294 Z"/>
    <linearGradient id="logo-text-white-h" x1="95.265%" x2="11.984%" y1="9.313%" y2="62.083%">
      <stop offset="0%" stop-color="#B70000"/>
      <stop offset="100%" stop-color="#FF2E2E"/>
    </linearGradient>
    <path id="logo-text-white-i" d="M181.481525,207.904079 L7.67353742,200.180926 C6,216 27,271 47.9669921,283.361585 L181.481525,207.904079 Z"/>
    <linearGradient id="logo-text-white-j" x1="67.157%" x2="0%" y1="76.561%" y2="94.308%">
      <stop offset="0%" stop-color="#B70000"/>
      <stop offset="100%" stop-color="#FF2E2E"/>
    </linearGradient>
    <path id="logo-text-white-k" d="M181.590803,208.515352 C188.841359,190.997841 214.492994,142.62562 218,137 L7.67353742,200.180926"/>
    <linearGradient id="logo-text-white-l" x1="80.669%" x2="0%" y1="52.178%" y2="50%">
      <stop offset="0%" stop-color="#B70000"/>
      <stop offset="100%" stop-color="#FF2E2E"/>
    </linearGradient>
    <path id="logo-text-white-m" d="M222.803032,137.962014 L25.6208864,64.5172895 C-4,94 -4,185 7.67353742,200.180926 L222.803032,137.962014 Z"/>
    <linearGradient id="logo-text-white-n" x1="76.623%" x2="4.689%" y1="50%" y2="28.878%">
      <stop offset="0%" stop-color="#B70000"/>
      <stop offset="100%" stop-color="#FF2E2E"/>
    </linearGradient>
    <linearGradient id="logo-text-white-o" x1="93.74%" x2="8.898%" y1="5.415%" y2="10.995%">
      <stop offset="0%" stop-color="#B70000"/>
      <stop offset="100%" stop-color="#FF2E2E"/>
    </linearGradient>
    <path id="logo-text-white-p" d="M294.436688,37.8034369 C314.590205,15.2276093 328,-1.42108547e-14 328,-1.42108547e-14 L143.6018,0.147992702 L78.8000031,0.200000763 C49,18 33,32.2586447 25.6208864,64.5172895 L294.436688,37.8034369 Z"/>
    <linearGradient id="logo-text-white-q" x1="10.939%" x2="55.049%" y1="11.453%" y2="91.134%">
      <stop offset="0%" stop-color="#D13700"/>
      <stop offset="100%" stop-color="#F94721"/>
    </linearGradient>
    <path id="logo-text-white-r" d="M133.869995,334.920013 C133.869995,334.920013 61.6806184,298.834824 25.58593,280.79223 C23.7239533,279.861487 -23.2813959,330.196879 15.8593021,344.09844 C55,358 108,349 133.869995,334.920013 Z"/>
    <linearGradient id="logo-text-white-s" x1="11.961%" y1="33.29%" y2="100%">
      <stop offset="0%" stop-color="#B70000"/>
      <stop offset="100%" stop-color="#FF2E2E"/>
    </linearGradient>
    <path id="logo-text-white-t" d="M133.869995,334.920013 L49,203 C49,203 38.6891691,229.668855 32,251 C26.7287963,267.809384 22.9893538,283.08015 23.7820091,283.476373 C59.9401375,301.550679 133.869995,334.920013 133.869995,334.920013 Z"/>
    <linearGradient id="logo-text-white-u" x1="4.797%" x2="78.89%" y1="0%" y2="76.442%">
      <stop offset="0%" stop-color="#B70000"/>
      <stop offset="100%" stop-color="#FF2E2E"/>
    </linearGradient>
    <path id="logo-text-white-v" d="M133.865442,334.917273 C171,327 221,279 226.559998,259.76001 L49,204 L133.865442,334.917273 Z"/>
    <linearGradient id="logo-text-white-w" x1="11.984%" x2="85.891%" y1="20.017%" y2="85.868%">
      <stop offset="0%" stop-color="#B70000"/>
      <stop offset="100%" stop-color="#FF2E2E"/>
    </linearGradient>
    <path id="logo-text-white-x" d="M226.555289,259.760502 C226.555289,259.760502 133.554679,174.006845 86.375308,132.635265 C85.8764941,132.197855 70.7924746,155.716616 62,173 C53.0647837,190.563971 47.7666506,204.678723 48.5853084,204.934664 C107.479501,223.347038 226.555289,259.760502 226.555289,259.760502 Z"/>
    <linearGradient id="logo-text-white-y" x1="0%" x2="95.693%" y1="3.653%" y2="50%">
      <stop offset="0%" stop-color="#B70000"/>
      <stop offset="100%" stop-color="#FF2E2E"/>
    </linearGradient>
    <path id="logo-text-white-z" d="M226.559998,259.76001 C249,237 265,201 260,149 L82,133 L226.559998,259.76001 Z"/>
    <linearGradient id="logo-text-white-A" x1="20.672%" x2="97.357%" y1="38.837%" y2="100%">
      <stop offset="0%" stop-color="#B70000"/>
      <stop offset="100%" stop-color="#FF2E2E"/>
    </linearGradient>
    <path id="logo-text-white-B" d="M260,149 C260,149 194.876631,71.808263 161,35 C160.621282,34.588508 139.309237,59.2336046 122,82 C103.200852,106.726037 84.2235821,134.93021 85,135 C142.842032,140.199284 260,149 260,149 Z"/>
    <linearGradient id="logo-text-white-C" x1="25.056%" y1="10%" y2="88.645%">
      <stop offset="0%" stop-color="#B70000"/>
      <stop offset="100%" stop-color="#FF2E2E"/>
    </linearGradient>
    <path id="logo-text-white-D" d="M260,149 C260,57 211,12 193.973646,0.680481081 C193.973646,0.680481081 177,18 158,38 L260,149 Z"/>
  </defs>
  <g fill="none" fill-rule="evenodd" transform="translate(-22 13)">
    <g transform="translate(1397)">
      <mask id="logo-text-white-c" fill="#fff">
        <use xlink:href="#logo-text-white-a"/>
      </mask>
      <use fill="url(#logo-text-white-b)" xlink:href="#logo-text-white-a"/>
      <g mask="url(#logo-text-white-c)">
        <g transform="translate(-3 43)">
          <use fill="url(#logo-text-white-d)" xlink:href="#logo-text-white-e"/>
          <use fill="#FD4B00" xlink:href="#logo-text-white-e" style="mix-blend-mode:lighten"/>
          <use fill="url(#logo-text-white-f)" xlink:href="#logo-text-white-g"/>
          <use fill="#FD4B00" fill-opacity=".8" xlink:href="#logo-text-white-g" style="mix-blend-mode:lighten"/>
          <use fill="url(#logo-text-white-h)" xlink:href="#logo-text-white-i"/>
          <use fill="#FD4B00" fill-opacity=".6" xlink:href="#logo-text-white-i" style="mix-blend-mode:lighten"/>
          <use fill="url(#logo-text-white-j)" xlink:href="#logo-text-white-k"/>
          <use fill="#FD4B00" fill-opacity=".4" xlink:href="#logo-text-white-k" style="mix-blend-mode:lighten"/>
          <use fill="url(#logo-text-white-l)" xlink:href="#logo-text-white-m"/>
          <use fill="#FD4B00" fill-opacity=".2" xlink:href="#logo-text-white-m" style="mix-blend-mode:lighten"/>
          <path fill="url(#logo-text-white-n)" d="M217.997639,137.366948 C247.997639,95.3669482 276.094955,56.2974912 296,34 L25.6208864,64.5172895 L217.997639,137.366948 Z"/>
          <use fill="url(#logo-text-white-o)" xlink:href="#logo-text-white-p"/>
          <use fill="#632003" fill-opacity=".1" xlink:href="#logo-text-white-p"/>
        </g>
      </g>
      <g mask="url(#logo-text-white-c)">
        <g transform="translate(140 51)">
          <use fill="url(#logo-text-white-q)" xlink:href="#logo-text-white-r"/>
          <use fill="#FD4B00" xlink:href="#logo-text-white-r" style="mix-blend-mode:lighten"/>
          <use fill="url(#logo-text-white-s)" xlink:href="#logo-text-white-t"/>
          <use fill="#FD4B00" fill-opacity=".8" xlink:href="#logo-text-white-t" style="mix-blend-mode:lighten"/>
          <use fill="url(#logo-text-white-u)" xlink:href="#logo-text-white-v"/>
          <use fill="#FD4B00" fill-opacity=".6" xlink:href="#logo-text-white-v" style="mix-blend-mode:lighten"/>
          <use fill="url(#logo-text-white-w)" xlink:href="#logo-text-white-x"/>
          <use fill="#FD4B00" fill-opacity=".4" xlink:href="#logo-text-white-x" style="mix-blend-mode:lighten"/>
          <use fill="url(#logo-text-white-y)" xlink:href="#logo-text-white-z"/>
          <use fill="#FD4B00" fill-opacity=".2" xlink:href="#logo-text-white-z" style="mix-blend-mode:lighten"/>
          <use fill="url(#logo-text-white-A)" xlink:href="#logo-text-white-B"/>
          <use fill="#FD4B00" fill-opacity="0" xlink:href="#logo-text-white-B"/>
          <use fill="url(#logo-text-white-C)" xlink:href="#logo-text-white-D"/>
          <use fill="#632003" fill-opacity=".1" xlink:href="#logo-text-white-D"/>
        </g>
      </g>
      <g fill="#FFF" mask="url(#logo-text-white-c)">
        <path d="M0.6,19.2112775 L249.8,19.2112775 C222.199862,46.8114155 197.100113,75.4111295 174.5,105.011277 C151.899887,134.611425 132.500081,165.711114 116.3,198.311277 C100.099919,230.91144 87.700043,265.211097 79.1,301.211277 C70.499957,337.211457 66.399998,375.211077 66.8,415.211277 L78.8,415.211277 C78.8,374.411073 83.199956,336.311454 92,300.911277 C100.800044,265.5111 113.19992,231.911436 129.2,200.111277 C145.20008,168.311118 164.599886,137.811423 187.4,108.611277 C210.200114,79.4111315 235.399862,51.0114155 263,23.4112775 L263,7.21127749 L0.6,7.21127749 L0.6,19.2112775 Z" transform="translate(75 24)"/>
      </g>
    </g>
    <path stroke="#FFF" stroke-width="14" d="M1597,406 C1541.6277,406 1489.71463,384.042624 1451.336,345.663997 C1443.00972,337.337715 1435.40537,328.314188 1428.61397,318.696759 C1426.41484,315.582538 1424.30231,312.407956 1422.27907,309.17667 C1401.94657,276.70382 1391,239.150579 1391,200 C1391,161.618353 1401.51977,124.765979 1421.10659,92.7186074 C1423.10204,89.4537081 1425.18808,86.24502 1427.362,83.0962463 C1434.46593,72.8067065 1442.49341,63.1786005 1451.336,54.3360031 C1489.71463,15.9573764 1541.6277,-6 1597,-6 C1710.77066,-6 1803,86.2293415 1803,200 C1803,313.770658 1710.77066,406 1597,406 Z"/>
    <path fill="#FFF" d="M58.2,189.5 L140.7,189.5 L140.7,223.7 L58.2,223.7 L58.2,314 L22.2,314 L22.2,104 L146.7,104 L146.7,138.2 L58.2,138.2 L58.2,189.5 Z M249.6,168.2 C253.000017,168.2 256.799979,168.549997 261,169.25 C265.200021,169.950004 269.399979,171.099992 273.6,172.7 L261,205.1 C258.99999,204.099995 256.550015,203.300003 253.65,202.7 C250.749986,202.099997 247.700016,201.8 244.5,201.8 C236.099958,201.8 229.300026,203.84998 224.1,207.95 C218.899974,212.050021 214.900014,216.399977 212.1,221 L212.1,314 L176.1,314 L176.1,171.8 L210.3,171.8 L210.3,192.5 C213.700017,186.299969 218.699967,180.700025 225.3,175.7 C231.900033,170.699975 239.999952,168.2 249.6,168.2 Z M353.1,168.2 C372.900099,168.2 388.499943,172.999952 399.9,182.6 C411.300057,192.200048 417,205.099919 417,221.3 L417,314 L383.7,314 L383.7,296 C379.099977,302.200031 372.75004,307.34998 364.65,311.45 C356.549959,315.55002 347.50005,317.6 337.5,317.6 C330.699966,317.6 324.150031,316.55001 317.85,314.45 C311.549968,312.349989 306.000024,309.250021 301.2,305.15 C296.399976,301.04998 292.600014,296.100029 289.8,290.3 C286.999986,284.499971 285.6,278.000036 285.6,270.8 C285.6,263.599964 287.049985,257.050029 289.95,251.15 C292.850015,245.249971 296.849975,240.200021 301.95,236 C307.050026,231.799979 313.049965,228.550011 319.95,226.25 C326.850034,223.949989 334.29996,222.8 342.3,222.8 C348.900033,222.8 355.699965,223.649992 362.7,225.35 C369.700035,227.050008 375.799974,229.599983 381,233 L381,224.9 C381,220.299977 380.00001,216.400016 378,213.2 C375.99999,209.999984 373.500015,207.45001 370.5,205.55 C367.499985,203.649991 364.150018,202.300004 360.45,201.5 C356.749981,200.699996 353.200017,200.3 349.8,200.3 C344.999976,200.3 338.900037,201.099992 331.5,202.7 C324.099963,204.300008 316.200042,206.999981 307.8,210.8 L296.1,181.1 C303.300036,177.699983 311.84995,174.700013 321.75,172.1 C331.650049,169.499987 342.099945,168.2 353.1,168.2 Z M347.4,287.6 C355.800042,287.6 362.699973,285.850017 368.1,282.35 C373.500027,278.849983 377.799984,275.10002 381,271.1 L381,256.4 C376.399977,253.999988 371.200029,252.200006 365.4,251 C359.599971,249.799994 354.400023,249.2 349.8,249.2 C346.599984,249.2 343.400016,249.549996 340.2,250.25 C336.999984,250.950004 334.050013,252.049993 331.35,253.55 C328.649986,255.050008 326.450008,257.099987 324.75,259.7 C323.049992,262.300013 322.2,265.499981 322.2,269.3 C322.2,273.100019 322.999992,276.199988 324.6,278.6 C326.200008,281.000012 328.249987,282.849993 330.75,284.15 C333.250013,285.450006 335.999985,286.349997 339,286.85 C342.000015,287.350002 344.799987,287.6 347.4,287.6 Z M617.7,168.2 C624.900036,168.2 631.599969,169.449988 637.8,171.95 C644.000031,174.450013 649.299978,177.999977 653.7,182.6 C658.100022,187.200023 661.549987,192.849966 664.05,199.55 C666.550012,206.250034 667.8,213.899957 667.8,222.5 L667.8,314 L631.8,314 L631.8,231.8 C631.8,211.7999 623.700081,201.8 607.5,201.8 C599.49996,201.8 593.250022,203.79998 588.75,207.8 C584.249977,211.80002 580.800012,215.899979 578.4,220.1 L578.4,314 L542.4,314 L542.4,231.8 C542.4,211.7999 534.300081,201.8 518.1,201.8 C510.09996,201.8 503.850022,203.79998 499.35,207.8 C494.849977,211.80002 491.400012,215.899979 489,220.1 L489,314 L453,314 L453,171.8 L486.6,171.8 L486.6,192.5 C490.200018,186.49997 495.499965,180.950025 502.5,175.85 C509.500035,170.749975 518.499945,168.2 529.5,168.2 C538.900047,168.2 547.499961,170.349979 555.3,174.65 C563.100039,178.950021 568.899981,185.09996 572.7,193.1 C574.300008,190.099985 576.449987,187.100015 579.15,184.1 C581.850013,181.099985 585.099981,178.450012 588.9,176.15 C592.700019,173.849988 596.999976,171.950008 601.8,170.45 C606.600024,168.949993 611.899971,168.2 617.7,168.2 Z M801.3,229.7 C801.099999,226.699985 800.250008,223.500017 798.75,220.1 C797.249992,216.699983 795.050015,213.550015 792.15,210.65 C789.249986,207.749986 785.600022,205.400009 781.2,203.6 C776.799978,201.799991 771.60003,200.9 765.6,200.9 C759.799971,200.9 754.800021,201.799991 750.6,203.6 C746.399979,205.400009 742.850014,207.699986 739.95,210.5 C737.049985,213.300014 734.850007,216.399983 733.35,219.8 C731.849992,223.200017 731.000001,226.499984 730.8,229.7 L801.3,229.7 Z M765.6,168.2 C775.400049,168.2 784.649957,169.999982 793.35,173.6 C802.050044,177.200018 809.649968,182.249968 816.15,188.75 C822.650033,195.250033 827.799981,203.049955 831.6,212.15 C835.400019,221.250045 837.3,231.299945 837.3,242.3 L837.3,248 C837.3,250.400012 837.200001,252.999986 837,255.8 L730.8,255.8 C731.600004,259.200017 733.04999,262.599983 735.15,266 C737.250011,269.400017 740.049983,272.449987 743.55,275.15 C747.050018,277.850013 751.099977,280.099991 755.7,281.9 C760.300023,283.700009 765.499971,284.6 771.3,284.6 C777.30003,284.6 783.799965,283.500011 790.8,281.3 C797.800035,279.099989 804.099972,275.400026 809.7,270.2 L827.7,297.2 C821.899971,302.000024 814.100049,306.599978 804.3,311 C794.499951,315.400022 783.300063,317.6 770.7,317.6 C759.899946,317.6 749.850047,315.700019 740.55,311.9 C731.249954,308.099981 723.150035,302.800034 716.25,296 C709.349966,289.199966 703.95002,281.200046 700.05,272 C696.149981,262.799954 694.2,252.900053 694.2,242.3 C694.2,232.099949 695.999982,222.500045 699.6,213.5 C703.200018,204.499955 708.149969,196.650034 714.45,189.95 C720.750032,183.249966 728.299956,177.950019 737.1,174.05 C745.900044,170.149981 755.399949,168.2 765.6,168.2 Z M887.1,171.8 L916.5,244.7 L947.4,171.8 L977.7,171.8 L1007.7,244.7 L1038.3,171.8 L1074.9,171.8 L1006.2,321.2 L960.6,219.8 L915.6,321.2 L846.9,171.8 L887.1,171.8 Z M1160.4,284 C1166.40003,284 1171.84998,282.900011 1176.75,280.7 C1181.65002,278.499989 1185.79998,275.550019 1189.2,271.85 C1192.60002,268.149982 1195.19999,263.800025 1197,258.8 C1198.80001,253.799975 1199.7,248.500028 1199.7,242.9 C1199.7,237.299972 1198.80001,232.050025 1197,227.15 C1195.19999,222.249976 1192.60002,217.900019 1189.2,214.1 C1185.79998,210.299981 1181.65002,207.300011 1176.75,205.1 C1171.84998,202.899989 1166.40003,201.8 1160.4,201.8 C1154.39997,201.8 1148.95002,202.899989 1144.05,205.1 C1139.14998,207.300011 1135.00002,210.299981 1131.6,214.1 C1128.19998,217.900019 1125.60001,222.249976 1123.8,227.15 C1121.99999,232.050025 1121.1,237.299972 1121.1,242.9 C1121.1,248.500028 1121.99999,253.799975 1123.8,258.8 C1125.60001,263.800025 1128.19998,268.149982 1131.6,271.85 C1135.00002,275.550019 1139.14998,278.499989 1144.05,280.7 C1148.95002,282.900011 1154.39997,284 1160.4,284 Z M1160.4,168.2 C1171.00005,168.2 1180.89995,170.099981 1190.1,173.9 C1199.30005,177.700019 1207.34997,182.999966 1214.25,189.8 C1221.15003,196.600034 1226.54998,204.549955 1230.45,213.65 C1234.35002,222.750045 1236.3,232.499948 1236.3,242.9 C1236.3,253.300052 1234.35002,263.049955 1230.45,272.15 C1226.54998,281.250045 1221.15003,289.149967 1214.25,295.85 C1207.34997,302.550034 1199.30005,307.849981 1190.1,311.75 C1180.89995,315.650019 1171.00005,317.6 1160.4,317.6 C1149.79995,317.6 1139.90005,315.650019 1130.7,311.75 C1121.49995,307.849981 1113.45003,302.550034 1106.55,295.85 C1099.64997,289.149967 1094.25002,281.250045 1090.35,272.15 C1086.44998,263.049955 1084.5,253.300052 1084.5,242.9 C1084.5,232.499948 1086.44998,222.750045 1090.35,213.65 C1094.25002,204.549955 1099.64997,196.600034 1106.55,189.8 C1113.45003,182.999966 1121.49995,177.700019 1130.7,173.9 C1139.90005,170.099981 1149.79995,168.2 1160.4,168.2 Z M1336.2,168.2 C1339.60002,168.2 1343.39998,168.549997 1347.6,169.25 C1351.80002,169.950004 1355.99998,171.099992 1360.2,172.7 L1347.6,205.1 C1345.59999,204.099995 1343.15001,203.300003 1340.25,202.7 C1337.34999,202.099997 1334.30002,201.8 1331.1,201.8 C1322.69996,201.8 1315.90003,203.84998 1310.7,207.95 C1305.49997,212.050021 1301.50001,216.399977 1298.7,221 L1298.7,314 L1262.7,314 L1262.7,171.8 L1296.9,171.8 L1296.9,192.5 C1300.30002,186.299969 1305.29997,180.700025 1311.9,175.7 C1318.50003,170.699975 1326.59995,168.2 1336.2,168.2 Z M1419,227.9 L1470,171.8 L1516.5,171.8 L1454.1,239 L1520.7,314 L1473.3,314 L1419,251.9 L1419,314 L1383,314 L1383,87.2 L1419,87.2 L1419,227.9 Z"/>
  </g>
</svg>
