<svg xmlns="http://www.w3.org/2000/svg" xmlns:xlink="http://www.w3.org/1999/xlink" width="1944" height="426" viewBox="0 0 1944 426">
  <defs>
    <linearGradient id="logo-text-white-b" x1="50%" x2="50%" y1="10.483%" y2="0%">
      <stop offset="0%" stop-color="#B70000"/>
      <stop offset="100%" stop-color="#FF2E2E"/>
    </linearGradient>
    <circle id="logo-text-white-a" cx="200" cy="200" r="200"/>
    <linearGradient id="logo-text-white-d" x1="94.226%" x2="34.906%" y1="28.491%" y2="61.944%">
      <stop offset="0%" stop-color="#B70000"/>
      <stop offset="100%" stop-color="#FF2E2E"/>
    </linearGradient>
    <path id="logo-text-white-e" d="M47.9669921,283.361585 C50,294 106.5,348.100006 147,350 C147,350 152.349173,327.170934 156.349173,289.170934 L47.9669921,283.361585 Z"/>
    <linearGradient id="logo-text-white-f" x1="88.559%" x2="5.268%" y1="50%" y2="100%">
      <stop offset="0%" stop-color="#B70000"/>
      <stop offset="100%" stop-color="#FF2E2E"/>
    </linearGradient>
    <path id="logo-text-white-g" d="M156.113083,289.529294 C161.722555,266.879371 170.638687,233.449196 182,206 L47.9669921,283.361585 L156.113083,289.529294 Z"/>
    <linearGradient id="logo-text-white-h" x1="95.265%" x2="11.984%" y1="9.313%" y2="62.083%">
      <stop offset="0%" stop-color="#B70000"/>
      <stop offset="100%" stop-color="#FF2E2E"/>
    </linearGradient>
    <path id="logo-text-white-i" d="M181.481525,207.904079 L7.67353742,200.180926 C6,216 27,271 47.9669921,283.361585 L181.481525,207.904079 Z"/>
    <linearGradient id="logo-text-white-j" x1="67.157%" x2="0%" y1="76.561%" y2="94.308%">
      <stop offset="0%" stop-color="#B70000"/>
      <stop offset="100%" stop-color="#FF2E2E"/>
    </linearGradient>
    <path id="logo-text-white-k" d="M181.590803,208.515352 C188.841359,190.997841 214.492994,142.62562 218,137 L7.67353742,200.180926"/>
    <linearGradient id="logo-text-white-l" x1="80.669%" x2="0%" y1="52.178%" y2="50%">
      <stop offset="0%" stop-color="#B70000"/>
      <stop offset="100%" stop-color="#FF2E2E"/>
    </linearGradient>
    <path id="logo-text-white-m" d="M222.803032,137.962014 L25.6208864,64.5172895 C-4,94 -4,185 7.67353742,200.180926 L222.803032,137.962014 Z"/>
    <linearGradient id="logo-text-white-n" x1="76.623%" x2="4.689%" y1="50%" y2="28.878%">
      <stop offset="0%" stop-color="#B70000"/>
      <stop offset="100%" stop-color="#FF2E2E"/>
    </linearGradient>
    <linearGradient id="logo-text-white-o" x1="93.74%" x2="8.898%" y1="5.415%" y2="10.995%">
      <stop offset="0%" stop-color="#B70000"/>
      <stop offset="100%" stop-color="#FF2E2E"/>
    </linearGradient>
    <path id="logo-text-white-p" d="M294.436688,37.8034369 C314.590205,15.2276093 328,-1.42108547e-14 328,-1.42108547e-14 L143.6018,0.147992702 L78.8000031,0.200000763 C49,18 33,32.2586447 25.6208864,64.5172895 L294.436688,37.8034369 Z"/>
    <linearGradient id="logo-text-white-q" x1="10.939%" x2="55.049%" y1="11.453%" y2="91.134%">
      <stop offset="0%" stop-color="#D13700"/>
      <stop offset="100%" stop-color="#F94721"/>
    </linearGradient>
    <path id="logo-text-white-r" d="M133.869995,334.920013 C133.869995,334.920013 61.6806184,298.834824 25.58593,280.79223 C23.7239533,279.861487 -23.2813959,330.196879 15.8593021,344.09844 C55,358 108,349 133.869995,334.920013 Z"/>
    <linearGradient id="logo-text-white-s" x1="11.961%" y1="33.29%" y2="100%">
      <stop offset="0%" stop-color="#B70000"/>
      <stop offset="100%" stop-color="#FF2E2E"/>
    </linearGradient>
    <path id="logo-text-white-t" d="M133.869995,334.920013 L49,203 C49,203 38.6891691,229.668855 32,251 C26.7287963,267.809384 22.9893538,283.08015 23.7820091,283.476373 C59.9401375,301.550679 133.869995,334.920013 133.869995,334.920013 Z"/>
    <linearGradient id="logo-text-white-u" x1="4.797%" x2="78.89%" y1="0%" y2="76.442%">
      <stop offset="0%" stop-color="#B70000"/>
      <stop offset="100%" stop-color="#FF2E2E"/>
    </linearGradient>
    <path id="logo-text-white-v" d="M133.865442,334.917273 C171,327 221,279 226.559998,259.76001 L49,204 L133.865442,334.917273 Z"/>
    <linearGradient id="logo-text-white-w" x1="11.984%" x2="85.891%" y1="20.017%" y2="85.868%">
      <stop offset="0%" stop-color="#B70000"/>
      <stop offset="100%" stop-color="#FF2E2E"/>
    </linearGradient>
    <path id="logo-text-white-x" d="M226.555289,259.760502 C226.555289,259.760502 133.554679,174.006845 86.375308,132.635265 C85.8764941,132.197855 70.7924746,155.716616 62,173 C53.0647837,190.563971 47.7666506,204.678723 48.5853084,204.934664 C107.479501,223.347038 226.555289,259.760502 226.555289,259.760502 Z"/>
    <linearGradient id="logo-text-white-y" x1="0%" x2="95.693%" y1="3.653%" y2="50%">
      <stop offset="0%" stop-color="#B70000"/>
      <stop offset="100%" stop-color="#FF2E2E"/>
    </linearGradient>
    <path id="logo-text-white-z" d="M226.559998,259.76001 C249,237 265,201 260,149 L82,133 L226.559998,259.76001 Z"/>
    <linearGradient id="logo-text-white-A" x1="20.672%" x2="97.357%" y1="38.837%" y2="100%">
      <stop offset="0%" stop-color="#B70000"/>
      <stop offset="100%" stop-color="#FF2E2E"/>
    </linearGradient>
    <path id="logo-text-white-B" d="M260,149 C260,149 194.876631,71.808263 161,35 C160.621282,34.588508 139.309237,59.2336046 122,82 C103.200852,106.726037 84.2235821,134.93021 85,135 C142.842032,140.199284 260,149 260,149 Z"/>
    <linearGradient id="logo-text-white-C" x1="25.056%" y1="10%" y2="88.645%">
      <stop offset="0%" stop-color="#B70000"/>
      <stop offset="100%" stop-color="#FF2E2E"/>
    </linearGradient>
    <path id="logo-text-white-D" d="M260,149 C260,57 211,12 193.973646,0.680481081 C193.973646,0.680481081 177,18 158,38 L260,149 Z"/>
  </defs>
  <g fill="none" fill-rule="evenodd" transform="translate(0 13)">
    <g transform="translate(1531)">
      <mask id="logo-text-white-c" fill="#fff">
        <use xlink:href="#logo-text-white-a"/>
      </mask>
      <use fill="url(#logo-text-white-b)" xlink:href="#logo-text-white-a"/>
      <g mask="url(#logo-text-white-c)">
        <g transform="translate(-3 43)">
          <use fill="url(#logo-text-white-d)" xlink:href="#logo-text-white-e"/>
          <use fill="#FD4B00" xlink:href="#logo-text-white-e" style="mix-blend-mode:lighten"/>
          <use fill="url(#logo-text-white-f)" xlink:href="#logo-text-white-g"/>
          <use fill="#FD4B00" fill-opacity=".8" xlink:href="#logo-text-white-g" style="mix-blend-mode:lighten"/>
          <use fill="url(#logo-text-white-h)" xlink:href="#logo-text-white-i"/>
          <use fill="#FD4B00" fill-opacity=".6" xlink:href="#logo-text-white-i" style="mix-blend-mode:lighten"/>
          <use fill="url(#logo-text-white-j)" xlink:href="#logo-text-white-k"/>
          <use fill="#FD4B00" fill-opacity=".4" xlink:href="#logo-text-white-k" style="mix-blend-mode:lighten"/>
          <use fill="url(#logo-text-white-l)" xlink:href="#logo-text-white-m"/>
          <use fill="#FD4B00" fill-opacity=".2" xlink:href="#logo-text-white-m" style="mix-blend-mode:lighten"/>
          <path fill="url(#logo-text-white-n)" d="M217.997639,137.366948 C247.997639,95.3669482 276.094955,56.2974912 296,34 L25.6208864,64.5172895 L217.997639,137.366948 Z"/>
          <use fill="url(#logo-text-white-o)" xlink:href="#logo-text-white-p"/>
          <use fill="#632003" fill-opacity=".1" xlink:href="#logo-text-white-p"/>
        </g>
      </g>
      <g mask="url(#logo-text-white-c)">
        <g transform="translate(140 51)">
          <use fill="url(#logo-text-white-q)" xlink:href="#logo-text-white-r"/>
          <use fill="#FD4B00" xlink:href="#logo-text-white-r" style="mix-blend-mode:lighten"/>
          <use fill="url(#logo-text-white-s)" xlink:href="#logo-text-white-t"/>
          <use fill="#FD4B00" fill-opacity=".8" xlink:href="#logo-text-white-t" style="mix-blend-mode:lighten"/>
          <use fill="url(#logo-text-white-u)" xlink:href="#logo-text-white-v"/>
          <use fill="#FD4B00" fill-opacity=".6" xlink:href="#logo-text-white-v" style="mix-blend-mode:lighten"/>
          <use fill="url(#logo-text-white-w)" xlink:href="#logo-text-white-x"/>
          <use fill="#FD4B00" fill-opacity=".4" xlink:href="#logo-text-white-x" style="mix-blend-mode:lighten"/>
          <use fill="url(#logo-text-white-y)" xlink:href="#logo-text-white-z"/>
          <use fill="#FD4B00" fill-opacity=".2" xlink:href="#logo-text-white-z" style="mix-blend-mode:lighten"/>
          <use fill="url(#logo-text-white-A)" xlink:href="#logo-text-white-B"/>
          <use fill="#FD4B00" fill-opacity="0" xlink:href="#logo-text-white-B"/>
          <use fill="url(#logo-text-white-C)" xlink:href="#logo-text-white-D"/>
          <use fill="#632003" fill-opacity=".1" xlink:href="#logo-text-white-D"/>
        </g>
      </g>
      <g fill="#FFF" mask="url(#logo-text-white-c)">
        <path d="M0.6,19.2112775 L249.8,19.2112775 C222.199862,46.8114155 197.100113,75.4111295 174.5,105.011277 C151.899887,134.611425 132.500081,165.711114 116.3,198.311277 C100.099919,230.91144 87.700043,265.211097 79.1,301.211277 C70.499957,337.211457 66.399998,375.211077 66.8,415.211277 L78.8,415.211277 C78.8,374.411073 83.199956,336.311454 92,300.911277 C100.800044,265.5111 113.19992,231.911436 129.2,200.111277 C145.20008,168.311118 164.599886,137.811423 187.4,108.611277 C210.200114,79.4111315 235.399862,51.0114155 263,23.4112775 L263,7.21127749 L0.6,7.21127749 L0.6,19.2112775 Z" transform="translate(75 24)"/>
      </g>
    </g>
    <path stroke="#FFF" stroke-width="14" d="M1731,406 C1675.6277,406 1623.71463,384.042624 1585.336,345.663997 C1577.00972,337.337715 1569.40537,328.314188 1562.61397,318.696759 C1560.41484,315.582538 1558.30231,312.407956 1556.27907,309.17667 C1535.94657,276.70382 1525,239.150579 1525,200 C1525,161.618353 1535.51977,124.765979 1555.10659,92.7186074 C1557.10204,89.4537081 1559.18808,86.24502 1561.362,83.0962463 C1568.46593,72.8067065 1576.49341,63.1786005 1585.336,54.3360031 C1623.71463,15.9573764 1675.6277,-6 1731,-6 C1844.77066,-6 1937,86.2293415 1937,200 C1937,313.770658 1844.77066,406 1731,406 Z"/>
    <path fill="#FFF" d="M36,185.3 L118.5,185.3 L118.5,219.5 L36,219.5 L36,309.8 L0,309.8 L0,99.8 L124.5,99.8 L124.5,134 L36,134 L36,185.3 Z M227.4,164 C230.800017,164 234.599979,164.349996 238.8,165.05 C243.000021,165.750003 247.199979,166.899992 251.4,168.5 L238.8,200.9 C236.79999,199.899995 234.350015,199.100003 231.45,198.5 C228.549985,197.899997 225.500016,197.6 222.3,197.6 C213.899958,197.6 207.100026,199.649979 201.9,203.75 C196.699974,207.85002 192.700014,212.199977 189.9,216.8 L189.9,309.8 L153.9,309.8 L153.9,167.6 L188.1,167.6 L188.1,188.3 C191.500017,182.099969 196.499967,176.500025 203.1,171.5 C209.700033,166.499975 217.799952,164 227.4,164 Z M330.9,164 C350.700099,164 366.299943,168.799952 377.7,178.4 C389.100057,188.000048 394.8,200.899919 394.8,217.1 L394.8,309.8 L361.5,309.8 L361.5,291.8 C356.899977,298.000031 350.55004,303.149979 342.45,307.25 C334.34996,311.35002 325.30005,313.4 315.3,313.4 C308.499966,313.4 301.950031,312.35001 295.65,310.25 C289.349968,308.149989 283.800024,305.05002 279,300.95 C274.199976,296.849979 270.400014,291.900029 267.6,286.1 C264.799986,280.299971 263.4,273.800036 263.4,266.6 C263.4,259.399964 264.849985,252.850029 267.75,246.95 C270.650015,241.04997 274.649975,236.000021 279.75,231.8 C284.850026,227.599979 290.849965,224.350011 297.75,222.05 C304.650035,219.749989 312.09996,218.6 320.1,218.6 C326.700033,218.6 333.499965,219.449991 340.5,221.15 C347.500035,222.850008 353.599974,225.399983 358.8,228.8 L358.8,220.7 C358.8,216.099977 357.80001,212.200016 355.8,209 C353.79999,205.799984 351.300015,203.250009 348.3,201.35 C345.299985,199.44999 341.950018,198.100004 338.25,197.3 C334.549982,196.499996 331.000017,196.1 327.6,196.1 C322.799976,196.1 316.700037,196.899992 309.3,198.5 C301.899963,200.100008 294.000042,202.799981 285.6,206.6 L273.9,176.9 C281.100036,173.499983 289.64995,170.500013 299.55,167.9 C309.450049,165.299987 319.899945,164 330.9,164 Z M325.2,283.4 C333.600042,283.4 340.499973,281.650017 345.9,278.15 C351.300027,274.649982 355.599984,270.90002 358.8,266.9 L358.8,252.2 C354.199977,249.799988 349.000029,248.000006 343.2,246.8 C337.399971,245.599994 332.200023,245 327.6,245 C324.399984,245 321.200016,245.349996 318,246.05 C314.799984,246.750003 311.850013,247.849992 309.15,249.35 C306.449986,250.850007 304.250008,252.899987 302.55,255.5 C300.849992,258.100013 300,261.299981 300,265.1 C300,268.900019 300.799992,271.999988 302.4,274.4 C304.000008,276.800012 306.049987,278.649993 308.55,279.95 C311.050013,281.250006 313.799985,282.149997 316.8,282.65 C319.800015,283.150002 322.599987,283.4 325.2,283.4 Z M595.5,164 C602.700036,164 609.399969,165.249987 615.6,167.75 C621.800031,170.250012 627.099978,173.799977 631.5,178.4 C635.900022,183.000023 639.349987,188.649966 641.85,195.35 C644.350013,202.050033 645.6,209.699957 645.6,218.3 L645.6,309.8 L609.6,309.8 L609.6,227.6 C609.6,207.5999 601.500081,197.6 585.3,197.6 C577.29996,197.6 571.050022,199.59998 566.55,203.6 C562.049977,207.60002 558.600012,211.699979 556.2,215.9 L556.2,309.8 L520.2,309.8 L520.2,227.6 C520.2,207.5999 512.100081,197.6 495.9,197.6 C487.89996,197.6 481.650023,199.59998 477.15,203.6 C472.649978,207.60002 469.200012,211.699979 466.8,215.9 L466.8,309.8 L430.8,309.8 L430.8,167.6 L464.4,167.6 L464.4,188.3 C468.000018,182.29997 473.299965,176.750025 480.3,171.65 C487.300035,166.549974 496.299945,164 507.3,164 C516.700047,164 525.299961,166.149978 533.1,170.45 C540.900039,174.750021 546.699981,180.89996 550.5,188.9 C552.100008,185.899985 554.249987,182.900015 556.95,179.9 C559.650014,176.899985 562.899981,174.250011 566.7,171.95 C570.500019,169.649988 574.799976,167.750007 579.6,166.25 C584.400024,164.749992 589.699971,164 595.5,164 Z M779.1,225.5 C778.899999,222.499985 778.050007,219.300017 776.55,215.9 C775.049992,212.499983 772.850015,209.350014 769.95,206.45 C767.049986,203.549985 763.400022,201.200009 759,199.4 C754.599978,197.599991 749.40003,196.7 743.4,196.7 C737.599971,196.7 732.600021,197.599991 728.4,199.4 C724.199979,201.200009 720.650014,203.499986 717.75,206.3 C714.849985,209.100014 712.650007,212.199983 711.15,215.6 C709.649992,219.000017 708.800001,222.299984 708.6,225.5 L779.1,225.5 Z M743.4,164 C753.200049,164 762.449956,165.799982 771.15,169.4 C779.850043,173.000018 787.449968,178.049967 793.95,184.55 C800.450033,191.050032 805.599981,198.849954 809.4,207.95 C813.200019,217.050045 815.1,227.099945 815.1,238.1 L815.1,243.8 C815.1,246.200012 815.000001,248.799986 814.8,251.6 L708.6,251.6 C709.400004,255.000017 710.84999,258.399983 712.95,261.8 C715.05001,265.200017 717.849983,268.249986 721.35,270.95 C724.850018,273.650013 728.899977,275.899991 733.5,277.7 C738.100023,279.500009 743.299971,280.4 749.1,280.4 C755.10003,280.4 761.599965,279.300011 768.6,277.1 C775.600035,274.899989 781.899972,271.200026 787.5,266 L805.5,293 C799.699971,297.800024 791.900049,302.399978 782.1,306.8 C772.299951,311.200022 761.100063,313.4 748.5,313.4 C737.699946,313.4 727.650047,311.500019 718.35,307.7 C709.049954,303.899981 700.950035,298.600034 694.05,291.8 C687.149966,284.999966 681.75002,277.000046 677.85,267.8 C673.949981,258.599954 672,248.700053 672,238.1 C672,227.899949 673.799982,218.300045 677.4,209.3 C681.000018,200.299955 685.949969,192.450033 692.25,185.75 C698.550032,179.049966 706.099956,173.750019 714.9,169.85 C723.700044,165.94998 733.199949,164 743.4,164 Z M864.9,167.6 L894.3,240.5 L925.2,167.6 L955.5,167.6 L985.5,240.5 L1016.1,167.6 L1052.7,167.6 L984,317 L938.4,215.6 L893.4,317 L824.7,167.6 L864.9,167.6 Z M1138.2,279.8 C1144.20003,279.8 1149.64998,278.700011 1154.55,276.5 C1159.45002,274.299989 1163.59998,271.350019 1167,267.65 C1170.40002,263.949982 1172.99999,259.600025 1174.8,254.6 C1176.60001,249.599975 1177.5,244.300028 1177.5,238.7 C1177.5,233.099972 1176.60001,227.850024 1174.8,222.95 C1172.99999,218.049975 1170.40002,213.700019 1167,209.9 C1163.59998,206.099981 1159.45002,203.100011 1154.55,200.9 C1149.64998,198.699989 1144.20003,197.6 1138.2,197.6 C1132.19997,197.6 1126.75002,198.699989 1121.85,200.9 C1116.94998,203.100011 1112.80002,206.099981 1109.4,209.9 C1105.99998,213.700019 1103.40001,218.049975 1101.6,222.95 C1099.79999,227.850024 1098.9,233.099972 1098.9,238.7 C1098.9,244.300028 1099.79999,249.599975 1101.6,254.6 C1103.40001,259.600025 1105.99998,263.949982 1109.4,267.65 C1112.80002,271.350019 1116.94998,274.299989 1121.85,276.5 C1126.75002,278.700011 1132.19997,279.8 1138.2,279.8 Z M1138.2,164 C1148.80005,164 1158.69995,165.899981 1167.9,169.7 C1177.10005,173.500019 1185.14997,178.799966 1192.05,185.6 C1198.95003,192.400034 1204.34998,200.349954 1208.25,209.45 C1212.15002,218.550045 1214.1,228.299948 1214.1,238.7 C1214.1,249.100052 1212.15002,258.849954 1208.25,267.95 C1204.34998,277.050045 1198.95003,284.949966 1192.05,291.65 C1185.14997,298.350033 1177.10005,303.64998 1167.9,307.55 C1158.69995,311.450019 1148.80005,313.4 1138.2,313.4 C1127.59995,313.4 1117.70005,311.450019 1108.5,307.55 C1099.29995,303.64998 1091.25003,298.350033 1084.35,291.65 C1077.44997,284.949966 1072.05002,277.050045 1068.15,267.95 C1064.24998,258.849954 1062.3,249.100052 1062.3,238.7 C1062.3,228.299948 1064.24998,218.550045 1068.15,209.45 C1072.05002,200.349954 1077.44997,192.400034 1084.35,185.6 C1091.25003,178.799966 1099.29995,173.500019 1108.5,169.7 C1117.70005,165.899981 1127.59995,164 1138.2,164 Z M1314,164 C1317.40002,164 1321.19998,164.349996 1325.4,165.05 C1329.60002,165.750003 1333.79998,166.899992 1338,168.5 L1325.4,200.9 C1323.39999,199.899995 1320.95001,199.100003 1318.05,198.5 C1315.14999,197.899997 1312.10002,197.6 1308.9,197.6 C1300.49996,197.6 1293.70003,199.649979 1288.5,203.75 C1283.29997,207.85002 1279.30001,212.199977 1276.5,216.8 L1276.5,309.8 L1240.5,309.8 L1240.5,167.6 L1274.7,167.6 L1274.7,188.3 C1278.10002,182.099969 1283.09997,176.500025 1289.7,171.5 C1296.30003,166.499975 1304.39995,164 1314,164 Z M1396.8,223.7 L1447.8,167.6 L1494.3,167.6 L1431.9,234.8 L1498.5,309.8 L1451.1,309.8 L1396.8,247.7 L1396.8,309.8 L1360.8,309.8 L1360.8,83 L1396.8,83 L1396.8,223.7 Z"/>
  </g>
</svg>
