<?xml version="1.0" encoding="UTF-8"?>
<svg width="536px" height="124px" viewBox="0 0 536 124" version="1.1" xmlns="http://www.w3.org/2000/svg" xmlns:xlink="http://www.w3.org/1999/xlink">
    <!-- Generator: Sketch 52.1 (67048) - http://www.bohemiancoding.com/sketch -->
    <title>logo</title>
    <desc>Created with Sketch.</desc>
    <g id="Page-1" stroke="none" stroke-width="1" fill="none" fill-rule="evenodd">
        <g id="logo" fill="#000000">
            <path d="M153.84,33.07 L139.12,84.07 C138.886617,85.0184701 138.344954,85.8626212 137.58,86.47 C136.806978,87.0808436 135.844976,87.4026898 134.86,87.38 L123.92,87.38 C122.935024,87.4026898 121.973022,87.0808436 121.2,86.47 C120.43762,85.862114 119.899316,85.0177144 119.67,84.07 L104.87,33.07 L117.23,33.07 L127.07,72.28 C127.596667,74.38 128.043333,76.4 128.41,78.34 L130.41,78.34 C130.57,77.34 131.016667,75.32 131.75,72.28 L141.51,33.07 L153.87,33.07 L153.84,33.07 Z" id="Path"></path>
            <path d="M159.9,87.39 L159.9,33.07 C164.78,32.5966667 171.656667,32.36 180.53,32.36 C188.136667,32.36 193.346667,33.5933333 196.16,36.06 C198.973333,38.5266667 200.376667,43.1933333 200.37,50.06 C200.37,56.94 199.036667,61.6233333 196.37,64.11 C193.703333,66.5966667 188.94,67.8433333 182.08,67.85 C178.656886,67.8531612 175.23691,67.6427525 171.84,67.22 L171.84,87.38 L159.84,87.38 L159.9,87.39 Z M171.9,58.65 L180.32,58.65 C183.413333,58.5966667 185.526667,57.9933333 186.66,56.84 C187.793333,55.6866667 188.356667,53.43 188.35,50.07 C188.35,46.7366667 187.786667,44.48 186.66,43.3 C185.533333,42.12 183.42,41.5433333 180.32,41.57 L171.9,41.65 L171.9,58.65 Z" id="Shape" fill-rule="nonzero"></path>
            <path d="M228.32,66.85 L217.32,62.95 C213.28,61.4833333 210.393333,59.4833333 208.66,56.95 C206.926667,54.4166667 206.06,51.11 206.06,47.03 C206.06,41.03 207.516667,37.03 210.43,35.03 C213.343333,33.03 218.473333,32.03 225.82,32.03 C231.846049,31.9193595 237.858785,32.6360427 243.69,34.16 L242.9,42.35 C238.333333,42.19 232.666667,42.11 225.9,42.11 C222.753333,42.11 220.653333,42.3866667 219.6,42.94 C218.546667,43.4933333 218.023333,44.87 218.03,47.07 C217.898814,48.4619414 218.32294,49.8493358 219.21,50.93 C220.528562,51.9990137 222.05892,52.776122 223.7,53.21 L234.01,56.75 C238.21,58.2166667 241.176667,60.2166667 242.91,62.75 C244.643333,65.2833333 245.51,68.6166667 245.51,72.75 C245.51,78.8366667 244.04,82.97 241.1,85.15 C238.16,87.33 232.91,88.42 225.35,88.42 C219.076467,88.4208327 212.820855,87.7503491 206.69,86.42 L207.4,77.76 C218.58,78.0266667 224.58,78.1566667 225.4,78.15 C228.6,78.15 230.74,77.8166667 231.82,77.15 C232.9,76.4833333 233.436667,75.0666667 233.43,72.9 C233.579177,71.4897963 233.181904,70.0760774 232.32,68.95 C231.164314,67.9540386 229.796068,67.2357092 228.32,66.85 Z" id="Path"></path>
            <path d="M274.13,66.85 L263.19,62.95 C259.15,61.4833333 256.263333,59.4833333 254.53,56.95 C252.796667,54.4166667 251.93,51.11 251.93,47.03 C251.93,41.03 253.386667,37.03 256.3,35.03 C259.213333,33.03 264.343333,32.03 271.69,32.03 C277.716049,31.9193595 283.728785,32.6360427 289.56,34.16 L288.77,42.35 C284.203333,42.19 278.536667,42.11 271.77,42.11 C268.623333,42.11 266.523333,42.3866667 265.47,42.94 C264.416667,43.4933333 263.893333,44.87 263.9,47.07 C263.768814,48.4619414 264.19294,49.8493358 265.08,50.93 C266.398562,51.9990137 267.92892,52.776122 269.57,53.21 L279.88,56.75 C284.08,58.2166667 287.046667,60.2166667 288.78,62.75 C290.513333,65.2833333 291.38,68.6166667 291.38,72.75 C291.38,78.8366667 289.91,82.97 286.97,85.15 C284.03,87.33 278.78,88.42 271.22,88.42 C264.946467,88.4208327 258.690855,87.7503491 252.56,86.42 L253.27,77.76 C264.45,78.0266667 270.45,78.1566667 271.27,78.15 C274.47,78.15 276.61,77.8166667 277.69,77.15 C278.77,76.4833333 279.306667,75.0666667 279.3,72.9 C279.438982,71.5077359 279.046003,70.1144478 278.2,69 C277.028975,67.9766003 275.635393,67.2404333 274.13,66.85 Z" id="Path"></path>
            <path d="M336.02,78.02 L336.57,86.84 C331.636667,87.3666667 323.24,87.63 311.38,87.63 C308.2151,87.7798255 305.113989,86.7055376 302.72,84.63 C300.520733,82.5612187 299.315344,79.6478919 299.41,76.63 L299.41,43.78 C299.315344,40.7621081 300.520733,37.8487813 302.72,35.78 C305.114512,33.7053688 308.215249,32.6312104 311.38,32.78 C323.24,32.78 331.636667,33.0433333 336.57,33.57 L336.02,42.47 L315.15,42.47 C314.114966,42.3739218 313.087416,42.7188592 312.32,43.42 C311.661327,44.3010269 311.35148,45.3943939 311.45,46.49 L311.45,54.76 L333.1,54.76 L333.1,63.42 L311.45,63.42 L311.45,73.95 C311.344683,75.0710919 311.654233,76.1918742 312.32,77.1 C313.089076,77.7975263 314.116431,78.1387679 315.15,78.04 L336.02,78.04 L336.02,78.02 Z" id="Path"></path>
            <path d="M388.06,87.39 L375.38,87.39 L371.32,70.78 C371.007962,69.4001736 370.278159,68.1500796 369.23,67.2 C368.124985,66.4694146 366.812177,66.1183964 365.49,66.2 L357.07,66.12 L357.07,87.38 L345.23,87.38 L345.23,33.07 C350.11,32.5966667 357.013333,32.36 365.94,32.36 C373.233333,32.36 378.403333,33.5133333 381.45,35.82 C384.496667,38.1266667 386.02,42.3266667 386.02,48.42 C386.02,52.42 385.22,55.5433333 383.62,57.79 C382.02,60.0366667 379.353333,61.4 375.62,61.88 L375.62,62.27 C379.766667,63.2166667 382.34,65.9466667 383.34,70.46 L388.06,87.39 Z M357.06,56.92 L365.72,56.92 C368.866667,56.92 371.02,56.3833333 372.18,55.31 C373.34,54.2366667 373.916667,52.2033333 373.91,49.21 C373.91,46.2166667 373.346667,44.1966667 372.22,43.15 C371.093333,42.1033333 368.93,41.58 365.73,41.58 L357.07,41.66 L357.07,56.95 L357.06,56.92 Z" id="Shape" fill-rule="nonzero"></path>
            <path d="M439.32,33.07 L424.6,84.07 C424.366617,85.0184701 423.824954,85.8626212 423.06,86.47 C422.286978,87.0808436 421.324976,87.4026898 420.34,87.38 L409.39,87.38 C408.405024,87.4026898 407.443022,87.0808436 406.67,86.47 C405.90762,85.862114 405.369316,85.0177144 405.14,84.07 L390.34,33.07 L402.7,33.07 L412.54,72.28 C413.066667,74.38 413.513333,76.4 413.88,78.34 L415.88,78.34 C416.04,77.34 416.486667,75.32 417.22,72.28 L426.98,33.07 L439.32,33.07 Z" id="Path"></path>
            <path d="M481.51,78.02 L482.06,86.84 C477.126667,87.3666667 468.73,87.63 456.87,87.63 C453.7051,87.7798255 450.603989,86.7055376 448.21,84.63 C446.010733,82.5612187 444.805344,79.6478919 444.9,76.63 L444.9,43.78 C444.805344,40.7621081 446.010733,37.8487813 448.21,35.78 C450.604512,33.7053688 453.705249,32.6312104 456.87,32.78 C468.73,32.78 477.126667,33.0433333 482.06,33.57 L481.51,42.47 L460.64,42.47 C459.604966,42.3739218 458.577416,42.7188592 457.81,43.42 C457.151327,44.3010269 456.84148,45.3943939 456.94,46.49 L456.94,54.76 L478.59,54.76 L478.59,63.42 L456.94,63.42 L456.94,73.95 C456.834683,75.0710919 457.144233,76.1918742 457.81,77.1 C458.579076,77.7975263 459.606431,78.1387679 460.64,78.04 L481.5,78.04 L481.51,78.02 Z" id="Path"></path>
            <path d="M533.55,87.39 L520.87,87.39 L516.78,70.78 C516.467962,69.4001736 515.738159,68.1500796 514.69,67.2 C513.584985,66.4694146 512.272177,66.1183964 510.95,66.2 L502.53,66.12 L502.53,87.38 L490.72,87.38 L490.72,33.07 C495.6,32.5966667 502.503333,32.36 511.43,32.36 C518.723333,32.36 523.893333,33.5133333 526.94,35.82 C529.986667,38.1266667 531.51,42.3266667 531.51,48.42 C531.51,52.42 530.71,55.5433333 529.11,57.79 C527.51,60.0366667 524.843333,61.4 521.11,61.88 L521.11,62.27 C525.256667,63.2166667 527.83,65.9466667 528.83,70.46 L533.55,87.39 Z M502.55,56.92 L511.21,56.92 C514.356667,56.92 516.51,56.3833333 517.67,55.31 C518.83,54.2366667 519.406667,52.2033333 519.4,49.21 C519.4,46.2166667 518.836667,44.1966667 517.71,43.15 C516.583333,42.1033333 514.42,41.58 511.22,41.58 L502.56,41.66 L502.56,56.95 L502.55,56.92 Z" id="Shape" fill-rule="nonzero"></path>
            <path d="M40.77,76.18 C39.5432319,75.294048 37.8867681,75.294048 36.66,76.18 L6.71,97.43 L36.19,118.79 C37.4167681,119.675952 39.0732319,119.675952 40.3,118.79 L70.24,97.4 L40.77,76.18 Z" id="Path"></path>
            <path d="M40.83,26.36 C40.2332933,25.9087875 39.5080315,25.6600261 38.76,25.65 L38.76,40.95 C39.5080315,40.9600261 40.2332933,41.2087875 40.83,41.66 L66.5,60.26 L66.5,68.56 C66.5,68.56 47.55,54.56 40.67,49.93 C40.0983541,49.5572243 39.4408382,49.3369049 38.76,49.29 L38.76,65.75 C39.4732489,65.7447924 40.1710635,65.9576259 40.76,66.36 L76.82,92.49 C76.936315,92.2676956 76.998017,92.0208874 77,91.77 L77,52.56 L40.77,26.3 L40.83,26.36 Z" id="Path"></path>
            <path d="M76.95,29.58 C76.9288559,28.4773511 76.3921463,27.4483492 75.5,26.8 L40.79,1.65 L40.86,1.7 C40.2550757,1.24269733 39.518318,0.993603041 38.76,0.99 L38.76,17.31 C39.5148912,17.3157553 40.247812,17.564738 40.85,18.02 L40.78,17.95 L41.2,18.25 L76.95,44.25 L76.95,29.58 Z" id="Path"></path>
            <path d="M36.59,49.95 L32.76,52.61 L0,76.22 L0,91.8 C-0.00109696441,92.0425206 0.0536500234,92.2820387 0.16,92.5 L36.72,66.38 C37.306901,65.9711201 38.0047141,65.7513089 38.72,65.75 L38.72,49.3199215 L38.62,49.32 C37.8944843,49.3151481 37.185292,49.5352423 36.59,49.95 Z" id="Path"></path>
            <path d="M38.73,17.32 L38.73,0.95 C38.0125695,0.957168135 37.3145664,1.18401915 36.73,1.6 L1.49,26.79 C0.557288339,27.448419 0.00184132826,28.5183069 0,29.66 C0,29.66 0,29.72 0,29.74 L0,67.95 L36.68,41.65 C37.2645664,41.2340192 37.9625695,41.0071681 38.68,41 L38.68,25.66 C37.9625695,25.6671681 37.2645664,25.8940192 36.68,26.31 L10.45,44.95 L10.45,36.65 L35.94,18.52 L36.66,18.01 C37.259173,17.5659272 37.9842179,17.3242455 38.73,17.32 Z" id="Path"></path>
            <path d="M535.72,123.69 L454.71,123.69 L469.93,97.49 L535.72,97.49 L535.72,123.69 Z M472.32,115.95 C472.321119,116.18923 472.36515,116.42632 472.45,116.65 C472.546019,116.883272 472.68898,117.094309 472.87,117.27 C473.0522,117.445255 473.265975,117.584379 473.5,117.68 C473.747357,117.781645 474.012586,117.832651 474.28,117.83 C474.544052,117.831321 474.805752,117.78034 475.05,117.68 C475.281894,117.585958 475.492679,117.446567 475.67,117.27 C475.847788,117.091621 475.990285,116.881267 476.09,116.65 C476.295556,116.157245 476.295556,115.602755 476.09,115.11 C475.896895,114.660995 475.539005,114.303105 475.09,114.11 C474.847035,114.004384 474.584928,113.94992 474.32,113.95 C474.043052,113.957241 473.770629,114.021942 473.52,114.14 C473.285173,114.238609 473.071342,114.381163 472.89,114.56 C472.708759,114.735506 472.565765,114.946591 472.47,115.18 C472.36966,115.424248 472.318679,115.685948 472.32,115.95 Z M488.32,107.18 L489.08,105.93 C488.507736,105.346312 487.828796,104.877844 487.08,104.55 C486.248286,104.213873 485.356857,104.050557 484.46,104.07 C483.507605,104.052377 482.561634,104.229321 481.68,104.59 C480.917086,104.915217 480.234486,105.403276 479.68,106.02 C479.122728,106.651002 478.70071,107.389534 478.44,108.19 C478.152645,109.067705 478.010773,109.986499 478.02,110.91 C478.002858,111.900197 478.162004,112.885547 478.49,113.82 C478.77153,114.616674 479.206383,115.350489 479.77,115.98 C480.298947,116.558846 480.947193,117.01603 481.67,117.32 C482.404438,117.628091 483.193571,117.784557 483.99,117.78 C484.461791,117.780546 484.933009,117.747127 485.4,117.68 C485.871716,117.610509 486.33445,117.489795 486.78,117.32 C487.23506,117.144446 487.668007,116.916226 488.07,116.64 C488.49917,116.359408 488.889236,116.023144 489.23,115.64 L488.31,114.47 C488.184571,114.273098 487.96318,114.158585 487.73,114.17 C487.533446,114.168993 487.342618,114.236136 487.19,114.36 L486.63,114.78 C486.38046,114.950445 486.112001,115.091385 485.83,115.2 C485.431973,115.339471 485.011527,115.403894 484.59,115.39 C484.113963,115.39921 483.642064,115.300043 483.21,115.1 C482.813372,114.896411 482.470666,114.601684 482.21,114.24 C481.90095,113.820754 481.676754,113.345186 481.55,112.84 C481.38989,112.222981 481.312546,111.58741 481.32,110.95 C481.323449,110.346191 481.400689,109.745067 481.55,109.16 C481.670051,108.664025 481.883896,108.195603 482.18,107.78 C482.454529,107.402963 482.818891,107.100474 483.24,106.9 C483.703701,106.686555 484.209619,106.580586 484.72,106.59 C485.095606,106.580946 485.470269,106.631576 485.83,106.74 C486.097429,106.8272 486.355397,106.941108 486.6,107.08 L487.16,107.42 C487.302003,107.515626 487.468815,107.567755 487.64,107.57 C487.780714,107.581704 487.921349,107.546546 488.04,107.47 C488.145186,107.385524 488.239266,107.288085 488.32,107.18 Z M497.03,104.15 C496.104502,104.137939 495.185053,104.300794 494.32,104.63 C493.537832,104.930241 492.828717,105.393893 492.24,105.99 C491.646847,106.604255 491.190203,107.33693 490.9,108.14 C490.267618,109.987381 490.267618,111.992619 490.9,113.84 C491.191196,114.648506 491.647547,115.387523 492.24,116.01 C492.824957,116.615512 493.534726,117.086416 494.32,117.39 C496.069833,118.030874 497.990167,118.030874 499.74,117.39 C500.522438,117.08657 501.228973,116.615547 501.81,116.01 C502.395967,115.386218 502.845522,114.647177 503.13,113.84 C503.753401,111.991135 503.753401,109.988865 503.13,108.14 C502.847347,107.337882 502.397402,106.605017 501.81,105.99 C501.225173,105.393881 500.519301,104.930119 499.74,104.63 C498.875271,104.299624 497.955596,104.136729 497.03,104.15 Z M497.03,115.4 L497.03,115.41 C496.062035,115.480207 495.124513,115.054746 494.54,114.28 C493.944451,113.301451 493.665096,112.163077 493.74,111.02 C493.664848,109.870572 493.944073,108.725751 494.54,107.74 C495.121089,106.959998 496.059847,106.530205 497.03,106.6 C497.989354,106.530821 498.917438,106.957137 499.49,107.73 C500.084133,108.71649 500.363219,109.860741 500.29,111.01 C500.365026,112.156252 500.085736,113.297849 499.49,114.28 C498.913994,115.047597 497.987156,115.469572 497.03,115.4 Z M506.1,117.68 L506.11,117.7 L509.32,117.7 L509.32,107.95 C509.64661,107.573056 510.035612,107.255088 510.47,107.01 C510.862576,106.785093 511.307568,106.667808 511.76,106.67 C512.354417,106.626256 512.937371,106.849905 513.35,107.28 C513.758275,107.844088 513.949951,108.536249 513.89,109.23 L513.89,117.71 L517.11,117.71 L517.11,109.23 C517.103047,108.85547 517.164032,108.48278 517.29,108.13 C517.397427,107.830591 517.567943,107.557765 517.79,107.33 C518.000457,107.117652 518.252343,106.950862 518.53,106.84 C518.82283,106.72452 519.135239,106.666793 519.45,106.67 C520.06621,106.618329 520.671669,106.854605 521.09,107.31 C521.500145,107.858676 521.698944,108.536722 521.65,109.22 L521.65,117.7 L524.86,117.7 L524.86,109.22 C524.873014,108.495338 524.771773,107.77315 524.56,107.08 C524.377625,106.496658 524.074369,105.958295 523.67,105.5 C523.275503,105.057856 522.782091,104.715209 522.23,104.5 C521.591314,104.259428 520.912304,104.143996 520.23,104.16 C519.802762,104.159007 519.376763,104.205968 518.96,104.3 C518.545374,104.39256 518.145107,104.540558 517.77,104.74 C517.400284,104.945591 517.063252,105.205105 516.77,105.51 C516.446945,105.842782 516.183146,106.228333 515.99,106.65 C515.757157,105.948645 515.339082,105.323261 514.78,104.84 C514.194572,104.371138 513.459423,104.12964 512.71,104.16 C512.338729,104.15737 511.968776,104.204455 511.61,104.3 C511.287045,104.387886 510.975063,104.512008 510.68,104.67 C510.387737,104.827316 510.112883,105.015021 509.86,105.23 C509.601067,105.45008 509.357186,105.687279 509.13,105.94 L508.92,104.94 C508.820563,104.575431 508.476872,104.332332 508.1,104.36 L506.1,104.36 L506.1,117.68 Z" id="Combined-Shape"></path>
        </g>
    </g>
</svg>