<svg xmlns="http://www.w3.org/2000/svg" width="141" height="140" viewBox="0 0 141 140"><defs><linearGradient id="a" x1="100%" x2="6.773%" y1="10.458%" y2="62.059%"><stop offset="0%" stop-color="#F95B3A"/><stop offset="100%" stop-color="#CE2503"/></linearGradient><linearGradient id="b" x1="74.247%" x2="28.836%" y1="9.308%" y2="95.97%"><stop offset="0%" stop-color="#F95B3A"/><stop offset="100%" stop-color="#EE350F"/></linearGradient><linearGradient id="c" x1="100%" x2="53.791%" y1="51.651%" y2="48.349%"><stop offset="0%" stop-color="#F95B3A"/><stop offset="100%" stop-color="#EE350F"/></linearGradient></defs><g fill="none" fill-rule="evenodd" transform="translate(.5)"><path fill="url(#a)" d="M0,70 C0,53.1761488 5.9351074,37.7385162 15.8257578,25.6666667 L124.174242,25.6666667 L46.886533,136.094164 C19.5839221,126.547002 0,100.560536 0,70 Z"/><path fill="url(#b)" d="M129.916933,33.7866337 C136.316332,44.3520969 140,56.745865 140,70 C140,108.659932 108.659932,140 70,140 C65.368347,140 60.8417578,139.550169 56.4615372,138.691811 L129.916933,33.7866337 Z"/><path fill="url(#c)" d="M70,0 C87.1097071,0 102.785689,6.138509 114.945751,16.3333333 L25.0542491,16.3333333 C37.2143113,6.138509 52.8902929,0 70,0 Z"/></g></svg>