<svg width="560" height="300" viewBox="0 0 560 300" fill="none" xmlns="http://www.w3.org/2000/svg">
<path fill-rule="evenodd" clip-rule="evenodd" d="M443.316 173.315L360.471 291.63C304.044 271.899 263.003 219.4 260.158 156.942L268.68 175.475L282.18 145.055L295.86 175.475L316.47 130.655H305.49L296.31 152.525L287.31 130.655H278.22L268.95 152.525L260.98 132.762C264.335 103.439 276.145 76.6853 293.912 55H526.088C526.101 55.0162 526.114 55.0324 526.127 55.0486L446.356 168.975L430.23 150.815L448.95 130.655H435L419.7 147.485V105.275H408.9V173.315H419.7V154.685L435.99 173.315H443.316ZM342.12 129.575C338.94 129.575 335.97 130.145 333.21 131.285C330.45 132.425 328.035 134.015 325.965 136.055C323.895 138.095 322.275 140.48 321.105 143.21C319.935 145.94 319.35 148.865 319.35 151.985C319.35 155.105 319.935 158.03 321.105 160.76C322.275 163.49 323.895 165.86 325.965 167.87C328.035 169.88 330.45 171.47 333.21 172.64C335.97 173.81 338.94 174.395 342.12 174.395C345.3 174.395 348.27 173.81 351.03 172.64C353.79 171.47 356.205 169.88 358.275 167.87C360.345 165.86 361.965 163.49 363.135 160.76C364.305 158.03 364.89 155.105 364.89 151.985C364.89 148.865 364.305 145.94 363.135 143.21C361.965 140.48 360.345 138.095 358.275 136.055C356.205 134.015 353.79 132.425 351.03 131.285C348.27 130.145 345.3 129.575 342.12 129.575ZM342.12 164.315C340.32 164.315 338.685 163.985 337.215 163.325C335.745 162.665 334.5 161.78 333.48 160.67C332.46 159.56 331.68 158.255 331.14 156.755C330.6 155.255 330.33 153.665 330.33 151.985C330.33 150.305 330.6 148.73 331.14 147.26C331.68 145.79 332.46 144.485 333.48 143.345C334.5 142.205 335.745 141.305 337.215 140.645C338.685 139.985 340.32 139.655 342.12 139.655C343.92 139.655 345.555 139.985 347.025 140.645C348.495 141.305 349.74 142.205 350.76 143.345C351.78 144.485 352.56 145.79 353.1 147.26C353.64 148.73 353.91 150.305 353.91 151.985C353.91 153.665 353.64 155.255 353.1 156.755C352.56 158.255 351.78 159.56 350.76 160.67C349.74 161.78 348.495 162.665 347.025 163.325C345.555 163.985 343.92 164.315 342.12 164.315ZM394.86 129.575C391.98 129.575 389.55 130.325 387.57 131.825C385.59 133.325 384.09 135.005 383.07 136.865V130.655H372.81V173.315H383.61V145.415C384.45 144.035 385.65 142.73 387.21 141.5C388.77 140.27 390.81 139.655 393.33 139.655C394.29 139.655 395.205 139.745 396.075 139.925C396.945 140.105 397.68 140.345 398.28 140.645L402.06 130.925C400.8 130.445 399.54 130.1 398.28 129.89C397.02 129.68 395.88 129.575 394.86 129.575Z" fill="#EE350F"/>
<path d="M11.46 135.965H36.21V146.225H11.46V173.315H0.660004V110.315H38.01V120.575H11.46V135.965Z" fill="#EE350F"/>
<path d="M68.88 129.575C69.9 129.575 71.04 129.68 72.3 129.89C73.56 130.1 74.82 130.445 76.08 130.925L72.3 140.645C71.7 140.345 70.965 140.105 70.095 139.925C69.225 139.745 68.31 139.655 67.35 139.655C64.83 139.655 62.79 140.27 61.23 141.5C59.67 142.73 58.47 144.035 57.63 145.415V173.315H46.83V130.655H57.09V136.865C58.11 135.005 59.61 133.325 61.59 131.825C63.57 130.325 66 129.575 68.88 129.575ZM99.93 129.575C105.87 129.575 110.55 131.015 113.97 133.895C117.39 136.775 119.1 140.645 119.1 145.505V173.315H109.11V167.915C107.73 169.775 105.825 171.32 103.395 172.55C100.965 173.78 98.25 174.395 95.25 174.395C93.21 174.395 91.245 174.08 89.355 173.45C87.465 172.82 85.8 171.89 84.36 170.66C82.92 169.43 81.78 167.945 80.94 166.205C80.1 164.465 79.68 162.515 79.68 160.355C79.68 158.195 80.115 156.23 80.985 154.46C81.855 152.69 83.055 151.175 84.585 149.915C86.115 148.655 87.915 147.68 89.985 146.99C92.055 146.3 94.29 145.955 96.69 145.955C98.67 145.955 100.71 146.21 102.81 146.72C104.91 147.23 106.74 147.995 108.3 149.015V146.585C108.3 145.205 108 144.035 107.4 143.075C106.8 142.115 106.05 141.35 105.15 140.78C104.25 140.21 103.245 139.805 102.135 139.565C101.025 139.325 99.96 139.205 98.94 139.205C97.5 139.205 95.67 139.445 93.45 139.925C91.23 140.405 88.86 141.215 86.34 142.355L82.83 133.445C84.99 132.425 87.555 131.525 90.525 130.745C93.495 129.965 96.63 129.575 99.93 129.575ZM98.22 165.395C100.74 165.395 102.81 164.87 104.43 163.82C106.05 162.77 107.34 161.645 108.3 160.445V156.035C106.92 155.315 105.36 154.775 103.62 154.415C101.88 154.055 100.32 153.875 98.94 153.875C97.98 153.875 97.02 153.98 96.06 154.19C95.1 154.4 94.215 154.73 93.405 155.18C92.595 155.63 91.935 156.245 91.425 157.025C90.915 157.805 90.66 158.765 90.66 159.905C90.66 161.045 90.9 161.975 91.38 162.695C91.86 163.415 92.475 163.97 93.225 164.36C93.975 164.75 94.8 165.02 95.7 165.17C96.6 165.32 97.44 165.395 98.22 165.395ZM179.31 129.575C181.47 129.575 183.48 129.95 185.34 130.7C187.2 131.45 188.79 132.515 190.11 133.895C191.43 135.275 192.465 136.97 193.215 138.98C193.965 140.99 194.34 143.285 194.34 145.865V173.315H183.54V148.655C183.54 142.655 181.11 139.655 176.25 139.655C173.85 139.655 171.975 140.255 170.625 141.455C169.275 142.655 168.24 143.885 167.52 145.145V173.315H156.72V148.655C156.72 142.655 154.29 139.655 149.43 139.655C147.03 139.655 145.155 140.255 143.805 141.455C142.455 142.655 141.42 143.885 140.7 145.145V173.315H129.9V130.655H139.98V136.865C141.06 135.065 142.65 133.4 144.75 131.87C146.85 130.34 149.55 129.575 152.85 129.575C155.67 129.575 158.25 130.22 160.59 131.51C162.93 132.8 164.67 134.645 165.81 137.045C166.29 136.145 166.935 135.245 167.745 134.345C168.555 133.445 169.53 132.65 170.67 131.96C171.81 131.27 173.1 130.7 174.54 130.25C175.98 129.8 177.57 129.575 179.31 129.575ZM223.68 129.575C226.62 129.575 229.395 130.115 232.005 131.195C234.615 132.275 236.895 133.79 238.845 135.74C240.795 137.69 242.34 140.03 243.48 142.76C244.62 145.49 245.19 148.505 245.19 151.805V153.515C245.19 154.235 245.16 155.015 245.1 155.855H213.24C213.48 156.875 213.915 157.895 214.545 158.915C215.175 159.935 216.015 160.85 217.065 161.66C218.115 162.47 219.33 163.145 220.71 163.685C222.09 164.225 223.65 164.495 225.39 164.495C227.19 164.495 229.14 164.165 231.24 163.505C233.34 162.845 235.23 161.735 236.91 160.175L242.31 168.275C240.57 169.715 238.23 171.095 235.29 172.415C232.35 173.735 228.99 174.395 225.21 174.395C221.97 174.395 218.955 173.825 216.165 172.685C213.375 171.545 210.945 169.955 208.875 167.915C206.805 165.875 205.185 163.475 204.015 160.715C202.845 157.955 202.26 154.985 202.26 151.805C202.26 148.745 202.8 145.865 203.88 143.165C204.96 140.465 206.445 138.11 208.335 136.1C210.225 134.09 212.49 132.5 215.13 131.33C217.77 130.16 220.62 129.575 223.68 129.575ZM234.39 148.025C234.33 147.125 234.075 146.165 233.625 145.145C233.175 144.125 232.515 143.18 231.645 142.31C230.775 141.44 229.68 140.735 228.36 140.195C227.04 139.655 225.48 139.385 223.68 139.385C221.94 139.385 220.44 139.655 219.18 140.195C217.92 140.735 216.855 141.425 215.985 142.265C215.115 143.105 214.455 144.035 214.005 145.055C213.555 146.075 213.3 147.065 213.24 148.025H234.39Z" fill="#EE350F"/>
<path fill-rule="evenodd" clip-rule="evenodd" d="M380.989 297.197L538.393 72.3999C552.106 95.0402 560 121.598 560 150C560 232.843 492.843 300 410 300C400.075 300 390.375 299.036 380.989 297.197ZM313.688 35C339.745 13.1539 373.336 0 410 0C446.664 0 480.255 13.1539 506.312 35H313.688Z" fill="#EE350F"/>
</svg>
