<svg xmlns="http://www.w3.org/2000/svg" xmlns:xlink="http://www.w3.org/1999/xlink" width="599" height="378" viewBox="0 0 599 378">
  <defs>
    <circle id="logo-text-icon-b" cx="410" cy="150" r="150"/>
    <filter id="logo-text-icon-a" width="146.7%" height="146.7%" x="-23.3%" y="-16.7%" filterUnits="objectBoundingBox">
      <feOffset dy="20" in="SourceAlpha" result="shadowOffsetOuter1"/>
      <feGaussianBlur in="shadowOffsetOuter1" result="shadowBlurOuter1" stdDeviation="20"/>
      <feColorMatrix in="shadowBlurOuter1" values="0 0 0 0 0.933333333   0 0 0 0 0.207843137   0 0 0 0 0.0588235294  0 0 0 0.301300262 0"/>
    </filter>
  </defs>
  <g fill="none" fill-rule="evenodd" transform="translate(0 19)">
    <use fill="#000" filter="url(#logo-text-icon-a)" xlink:href="#logo-text-icon-b"/>
    <use fill="#FFF" xlink:href="#logo-text-icon-b"/>
    <path fill="#EE350F" d="M443.31632,173.315175 L360.471142,291.630351 C304.044309,271.899046 263.003036,219.399497 260.157798,156.942178 L268.68,175.475175 L282.18,145.055175 L295.86,175.475175 L316.47,130.655175 L305.49,130.655175 L296.31,152.525175 L287.31,130.655175 L278.22,130.655175 L268.95,152.525175 L260.979726,132.762149 C264.334761,103.438952 276.145277,76.6852558 293.912338,55 L526.087662,55 C526.100933,55.016198 526.114201,55.0323989 526.127466,55.0486025 L446.3556,168.974634 L430.23,150.815175 L448.95,130.655175 L435,130.655175 L419.7,147.485175 L419.7,105.275175 L408.9,105.275175 L408.9,173.315175 L419.7,173.315175 L419.7,154.685175 L435.99,173.315175 L443.31632,173.315175 Z M342.12,129.575175 C338.939984,129.575175 335.970014,130.14517 333.21,131.285175 C330.449986,132.425181 328.03501,134.015165 325.965,136.055175 C323.89499,138.095186 322.275006,140.480162 321.105,143.210175 C319.934994,145.940189 319.35,148.86516 319.35,151.985175 C319.35,155.105191 319.934994,158.030162 321.105,160.760175 C322.275006,163.490189 323.89499,165.860165 325.965,167.870175 C328.03501,169.880186 330.449986,171.47017 333.21,172.640175 C335.970014,173.810181 338.939984,174.395175 342.12,174.395175 C345.300016,174.395175 348.269986,173.810181 351.03,172.640175 C353.790014,171.47017 356.20499,169.880186 358.275,167.870175 C360.34501,165.860165 361.964994,163.490189 363.135,160.760175 C364.305006,158.030162 364.89,155.105191 364.89,151.985175 C364.89,148.86516 364.305006,145.940189 363.135,143.210175 C361.964994,140.480162 360.34501,138.095186 358.275,136.055175 C356.20499,134.015165 353.790014,132.425181 351.03,131.285175 C348.269986,130.14517 345.300016,129.575175 342.12,129.575175 Z M342.12,164.315175 C340.319991,164.315175 338.685007,163.985179 337.215,163.325175 C335.744993,162.665172 334.500005,161.780181 333.48,160.670175 C332.459995,159.56017 331.680003,158.255183 331.14,156.755175 C330.599997,155.255168 330.33,153.665184 330.33,151.985175 C330.33,150.305167 330.599997,148.730183 331.14,147.260175 C331.680003,145.790168 332.459995,144.485181 333.48,143.345175 C334.500005,142.20517 335.744993,141.305179 337.215,140.645175 C338.685007,139.985172 340.319991,139.655175 342.12,139.655175 C343.920009,139.655175 345.554993,139.985172 347.025,140.645175 C348.495007,141.305179 349.739995,142.20517 350.76,143.345175 C351.780005,144.485181 352.559997,145.790168 353.1,147.260175 C353.640003,148.730183 353.91,150.305167 353.91,151.985175 C353.91,153.665184 353.640003,155.255168 353.1,156.755175 C352.559997,158.255183 351.780005,159.56017 350.76,160.670175 C349.739995,161.780181 348.495007,162.665172 347.025,163.325175 C345.554993,163.985179 343.920009,164.315175 342.12,164.315175 Z M394.86,129.575175 C391.979986,129.575175 389.55001,130.325168 387.57,131.825175 C385.58999,133.325183 384.090005,135.005166 383.07,136.865175 L383.07,130.655175 L372.81,130.655175 L372.81,173.315175 L383.61,173.315175 L383.61,145.415175 C384.450004,144.035169 385.649992,142.730182 387.21,141.500175 C388.770008,140.270169 390.809987,139.655175 393.33,139.655175 C394.290005,139.655175 395.204996,139.745175 396.075,139.925175 C396.945004,140.105176 397.679997,140.345174 398.28,140.645175 L402.06,130.925175 C400.799994,130.445173 399.540006,130.100177 398.28,129.890175 C397.019994,129.680174 395.880005,129.575175 394.86,129.575175 Z"/>
    <g fill="#EE350F" fill-rule="nonzero" transform="translate(.66 110.315)">
      <polygon points="10.8 25.65 35.55 25.65 35.55 35.91 10.8 35.91 10.8 63 0 63 0 0 37.35 0 37.35 10.26 10.8 10.26"/>
      <path d="M68.22 19.26C69.2400051 19.26 70.3799937 19.364999 71.64 19.575 72.9000063 19.7850011 74.1599937 20.1299976 75.42 20.61L71.64 30.33C71.039997 30.0299985 70.3050043 29.7900009 69.435 29.61 68.5649956 29.4299991 67.6500048 29.34 66.69 29.34 64.1699874 29.34 62.1300078 29.9549938 60.57 31.185 59.0099922 32.4150062 57.8100042 33.7199931 56.97 35.1L56.97 63 46.17 63 46.17 20.34 56.43 20.34 56.43 26.55C57.4500051 24.6899907 58.9499901 23.0100075 60.93 21.51 62.9100099 20.0099925 65.3399856 19.26 68.22 19.26zM99.27 19.26C105.21003 19.26 109.889983 20.6999856 113.31 23.58 116.730017 26.4600144 118.44 30.3299757 118.44 35.19L118.44 63 108.45 63 108.45 57.6C107.069993 59.4600093 105.165012 61.0049939 102.735 62.235 100.304988 63.4650061 97.590015 64.08 94.59 64.08 92.5499898 64.08 90.5850095 63.7650031 88.695 63.135 86.8049906 62.5049968 85.1400072 61.5750062 83.7 60.345 82.2599928 59.1149939 81.1200042 57.6300087 80.28 55.89 79.4399958 54.1499913 79.02 52.2000108 79.02 50.04 79.02 47.8799892 79.4549957 45.9150088 80.325 44.145 81.1950044 42.3749911 82.3949924 40.8600063 83.925 39.6 85.4550077 38.3399937 87.2549897 37.3650035 89.325 36.675 91.3950104 35.9849966 93.629988 35.64 96.03 35.64 98.0100099 35.64 100.04999 35.8949975 102.15 36.405 104.250011 36.9150025 106.079992 37.6799949 107.64 38.7L107.64 36.27C107.64 34.8899931 107.340003 33.7200048 106.74 32.76 106.139997 31.7999952 105.390005 31.0350029 104.49 30.465 103.589996 29.8949971 102.585006 29.4900012 101.475 29.25 100.364994 29.0099988 99.3000051 28.89 98.28 28.89 96.8399928 28.89 95.0100111 29.1299976 92.79 29.61 90.5699889 30.0900024 88.2000126 30.8999943 85.68 32.04L82.17 23.13C84.3300108 22.1099949 86.8949852 21.2100039 89.865 20.43 92.8350149 19.6499961 95.9699835 19.26 99.27 19.26zM97.56 55.08C100.080013 55.08 102.149992 54.5550052 103.77 53.505 105.390008 52.4549947 106.679995 51.330006 107.64 50.13L107.64 45.72C106.259993 44.9999964 104.700009 44.4600018 102.96 44.1 101.219991 43.7399982 99.6600069 43.56 98.28 43.56 97.3199952 43.56 96.3600048 43.6649989 95.4 43.875 94.4399952 44.0850011 93.555004 44.4149977 92.745 44.865 91.934996 45.3150022 91.2750026 45.9299961 90.765 46.71 90.2549974 47.4900039 90 48.4499943 90 49.59 90 50.7300057 90.2399976 51.6599964 90.72 52.38 91.2000024 53.1000036 91.8149962 53.6549981 92.565 54.045 93.3150038 54.435002 94.1399955 54.7049993 95.04 54.855 95.9400045 55.0050007 96.7799961 55.08 97.56 55.08zM178.65 19.26C180.810011 19.26 182.819991 19.6349963 184.68 20.385 186.540009 21.1350038 188.129993 22.1999931 189.45 23.58 190.770007 24.9600069 191.804996 26.65499 192.555 28.665 193.305004 30.67501 193.68 32.9699871 193.68 35.55L193.68 63 182.88 63 182.88 38.34C182.88 32.33997 180.450024 29.34 175.59 29.34 173.189988 29.34 171.315007 29.939994 169.965 31.14 168.614993 32.340006 167.580004 33.5699937 166.86 34.83L166.86 63 156.06 63 156.06 38.34C156.06 32.33997 153.630024 29.34 148.77 29.34 146.369988 29.34 144.495007 29.939994 143.145 31.14 141.794993 32.340006 140.760004 33.5699937 140.04 34.83L140.04 63 129.24 63 129.24 20.34 139.32 20.34 139.32 26.55C140.400005 24.749991 141.98999 23.0850076 144.09 21.555 146.19001 20.0249923 148.889983 19.26 152.19 19.26 155.010014 19.26 157.589988 19.9049936 159.93 21.195 162.270012 22.4850064 164.009994 24.329988 165.15 26.73 165.630002 25.8299955 166.274996 24.9300045 167.085 24.03 167.895004 23.1299955 168.869994 22.3350034 170.01 21.645 171.150006 20.9549966 172.439993 20.3850023 173.88 19.935 175.320007 19.4849977 176.909991 19.26 178.65 19.26zM223.02 19.26C225.960015 19.26 228.734987 19.7999946 231.345 20.88 233.955013 21.9600054 236.23499 23.4749903 238.185 25.425 240.13501 27.3750098 241.679994 29.7149864 242.82 32.445 243.960006 35.1750137 244.53 38.1899835 244.53 41.49L244.53 43.2C244.53 43.9200036 244.5 44.6999958 244.44 45.54L212.58 45.54C212.820001 46.5600051 213.254997 47.5799949 213.885 48.6 214.515003 49.6200051 215.354995 50.5349959 216.405 51.345 217.455005 52.1550041 218.669993 52.8299973 220.05 53.37 221.430007 53.9100027 222.989991 54.18 224.73 54.18 226.530009 54.18 228.479989 53.8500033 230.58 53.19 232.68001 52.5299967 234.569992 51.4200078 236.25 49.86L241.65 57.96C239.909991 59.4000072 237.570015 60.7799934 234.63 62.1 231.689985 63.4200066 228.330019 64.08 224.55 64.08 221.309984 64.08 218.295014 63.5100057 215.505 62.37 212.714986 61.2299943 210.28501 59.6400102 208.215 57.6 206.14499 55.5599898 204.525006 53.1600138 203.355 50.4 202.184994 47.6399862 201.6 44.6700159 201.6 41.49 201.6 38.4299847 202.139995 35.5500135 203.22 32.85 204.300005 30.1499865 205.784991 27.7950101 207.675 25.785 209.565009 23.77499 211.829987 22.1850059 214.47 21.015 217.110013 19.8449941 219.959985 19.26 223.02 19.26zM233.73 37.71C233.67 36.8099955 233.415002 35.8500051 232.965 34.83 232.514998 33.8099949 231.855004 32.8650043 230.985 31.995 230.114996 31.1249957 229.020007 30.4200027 227.7 29.88 226.379993 29.3399973 224.820009 29.07 223.02 29.07 221.279991 29.07 219.780006 29.3399973 218.52 29.88 217.259994 30.4200027 216.195004 31.1099958 215.325 31.95 214.454996 32.7900042 213.795002 33.7199949 213.345 34.74 212.894998 35.7600051 212.64 36.7499952 212.58 37.71L233.73 37.71z"/>
    </g>
    <path fill="#EE350F" d="M380.989008 297.196737L538.393428 72.3999293C552.106425 95.0402076 560 121.598282 560 150 560 232.842712 492.842712 300 410 300 400.075029 300 390.375195 299.036076 380.989008 297.196737L380.989008 297.196737zM313.687677 35C339.744953 13.1539478 373.336342 0 410 0 446.663658 0 480.255047 13.1539478 506.312323 35L313.687677 35 313.687677 35z"/>
  </g>
</svg>
