<svg xmlns="http://www.w3.org/2000/svg" width="1661" height="235" viewBox="0 0 1661 235">
  <path fill="#fff" fill-rule="evenodd" d="M58.2,185.5 L140.7,185.5 L140.7,219.7 L58.2,219.7 L58.2,310 L22.2,310 L22.2,100 L146.7,100 L146.7,134.2 L58.2,134.2 L58.2,185.5 Z M249.6,164.2 C253.000017,164.2 256.799979,164.549997 261,165.25 C265.200021,165.950004 269.399979,167.099992 273.6,168.7 L261,201.1 C258.99999,200.099995 256.550015,199.300003 253.65,198.7 C250.749986,198.099997 247.700016,197.8 244.5,197.8 C236.099958,197.8 229.300026,199.84998 224.1,203.95 C218.899974,208.050021 214.900014,212.399977 212.1,217 L212.1,310 L176.1,310 L176.1,167.8 L210.3,167.8 L210.3,188.5 C213.700017,182.299969 218.699967,176.700025 225.3,171.7 C231.900033,166.699975 239.999952,164.2 249.6,164.2 Z M353.1,164.2 C372.900099,164.2 388.499943,168.999952 399.9,178.6 C411.300057,188.200048 417,201.099919 417,217.3 L417,310 L383.7,310 L383.7,292 C379.099977,298.200031 372.75004,303.34998 364.65,307.45 C356.549959,311.55002 347.50005,313.6 337.5,313.6 C330.699966,313.6 324.150031,312.55001 317.85,310.45 C311.549968,308.349989 306.000024,305.250021 301.2,301.15 C296.399976,297.04998 292.600014,292.100029 289.8,286.3 C286.999986,280.499971 285.6,274.000036 285.6,266.8 C285.6,259.599964 287.049985,253.050029 289.95,247.15 C292.850015,241.249971 296.849975,236.200021 301.95,232 C307.050026,227.799979 313.049965,224.550011 319.95,222.25 C326.850034,219.949989 334.29996,218.8 342.3,218.8 C348.900033,218.8 355.699965,219.649992 362.7,221.35 C369.700035,223.050008 375.799974,225.599983 381,229 L381,220.9 C381,216.299977 380.00001,212.400016 378,209.2 C375.99999,205.999984 373.500015,203.45001 370.5,201.55 C367.499985,199.649991 364.150018,198.300004 360.45,197.5 C356.749981,196.699996 353.200017,196.3 349.8,196.3 C344.999976,196.3 338.900037,197.099992 331.5,198.7 C324.099963,200.300008 316.200042,202.999981 307.8,206.8 L296.1,177.1 C303.300036,173.699983 311.84995,170.700013 321.75,168.1 C331.650049,165.499987 342.099945,164.2 353.1,164.2 Z M347.4,283.6 C355.800042,283.6 362.699973,281.850017 368.1,278.35 C373.500027,274.849983 377.799984,271.10002 381,267.1 L381,252.4 C376.399977,249.999988 371.200029,248.200006 365.4,247 C359.599971,245.799994 354.400023,245.2 349.8,245.2 C346.599984,245.2 343.400016,245.549996 340.2,246.25 C336.999984,246.950004 334.050013,248.049993 331.35,249.55 C328.649986,251.050008 326.450008,253.099987 324.75,255.7 C323.049992,258.300013 322.2,261.499981 322.2,265.3 C322.2,269.100019 322.999992,272.199988 324.6,274.6 C326.200008,277.000012 328.249987,278.849993 330.75,280.15 C333.250013,281.450006 335.999985,282.349997 339,282.85 C342.000015,283.350002 344.799987,283.6 347.4,283.6 Z M617.7,164.2 C624.900036,164.2 631.599969,165.449988 637.8,167.95 C644.000031,170.450013 649.299978,173.999977 653.7,178.6 C658.100022,183.200023 661.549987,188.849966 664.05,195.55 C666.550012,202.250034 667.8,209.899957 667.8,218.5 L667.8,310 L631.8,310 L631.8,227.8 C631.8,207.7999 623.700081,197.8 607.5,197.8 C599.49996,197.8 593.250022,199.79998 588.75,203.8 C584.249977,207.80002 580.800012,211.899979 578.4,216.1 L578.4,310 L542.4,310 L542.4,227.8 C542.4,207.7999 534.300081,197.8 518.1,197.8 C510.09996,197.8 503.850022,199.79998 499.35,203.8 C494.849977,207.80002 491.400012,211.899979 489,216.1 L489,310 L453,310 L453,167.8 L486.6,167.8 L486.6,188.5 C490.200018,182.49997 495.499965,176.950025 502.5,171.85 C509.500035,166.749975 518.499945,164.2 529.5,164.2 C538.900047,164.2 547.499961,166.349979 555.3,170.65 C563.100039,174.950021 568.899981,181.09996 572.7,189.1 C574.300008,186.099985 576.449987,183.100015 579.15,180.1 C581.850013,177.099985 585.099981,174.450012 588.9,172.15 C592.700019,169.849988 596.999976,167.950008 601.8,166.45 C606.600024,164.949993 611.899971,164.2 617.7,164.2 Z M801.3,225.7 C801.099999,222.699985 800.250008,219.500017 798.75,216.1 C797.249992,212.699983 795.050015,209.550015 792.15,206.65 C789.249986,203.749986 785.600022,201.400009 781.2,199.6 C776.799978,197.799991 771.60003,196.9 765.6,196.9 C759.799971,196.9 754.800021,197.799991 750.6,199.6 C746.399979,201.400009 742.850014,203.699986 739.95,206.5 C737.049985,209.300014 734.850007,212.399983 733.35,215.8 C731.849992,219.200017 731.000001,222.499984 730.8,225.7 L801.3,225.7 Z M765.6,164.2 C775.400049,164.2 784.649957,165.999982 793.35,169.6 C802.050044,173.200018 809.649968,178.249968 816.15,184.75 C822.650033,191.250033 827.799981,199.049955 831.6,208.15 C835.400019,217.250045 837.3,227.299945 837.3,238.3 L837.3,244 C837.3,246.400012 837.200001,248.999986 837,251.8 L730.8,251.8 C731.600004,255.200017 733.04999,258.599983 735.15,262 C737.250011,265.400017 740.049983,268.449987 743.55,271.15 C747.050018,273.850013 751.099977,276.099991 755.7,277.9 C760.300023,279.700009 765.499971,280.6 771.3,280.6 C777.30003,280.6 783.799965,279.500011 790.8,277.3 C797.800035,275.099989 804.099972,271.400026 809.7,266.2 L827.7,293.2 C821.899971,298.000024 814.100049,302.599978 804.3,307 C794.499951,311.400022 783.300063,313.6 770.7,313.6 C759.899946,313.6 749.850047,311.700019 740.55,307.9 C731.249954,304.099981 723.150035,298.800034 716.25,292 C709.349966,285.199966 703.95002,277.200046 700.05,268 C696.149981,258.799954 694.2,248.900053 694.2,238.3 C694.2,228.099949 695.999982,218.500045 699.6,209.5 C703.200018,200.499955 708.149969,192.650034 714.45,185.95 C720.750032,179.249966 728.299956,173.950019 737.1,170.05 C745.900044,166.149981 755.399949,164.2 765.6,164.2 Z M887.1,167.8 L916.5,240.7 L947.4,167.8 L977.7,167.8 L1007.7,240.7 L1038.3,167.8 L1074.9,167.8 L1006.2,317.2 L960.6,215.8 L915.6,317.2 L846.9,167.8 L887.1,167.8 Z M1160.4,280 C1166.40003,280 1171.84998,278.900011 1176.75,276.7 C1181.65002,274.499989 1185.79998,271.550019 1189.2,267.85 C1192.60002,264.149982 1195.19999,259.800025 1197,254.8 C1198.80001,249.799975 1199.7,244.500028 1199.7,238.9 C1199.7,233.299972 1198.80001,228.050025 1197,223.15 C1195.19999,218.249976 1192.60002,213.900019 1189.2,210.1 C1185.79998,206.299981 1181.65002,203.300011 1176.75,201.1 C1171.84998,198.899989 1166.40003,197.8 1160.4,197.8 C1154.39997,197.8 1148.95002,198.899989 1144.05,201.1 C1139.14998,203.300011 1135.00002,206.299981 1131.6,210.1 C1128.19998,213.900019 1125.60001,218.249976 1123.8,223.15 C1121.99999,228.050025 1121.1,233.299972 1121.1,238.9 C1121.1,244.500028 1121.99999,249.799975 1123.8,254.8 C1125.60001,259.800025 1128.19998,264.149982 1131.6,267.85 C1135.00002,271.550019 1139.14998,274.499989 1144.05,276.7 C1148.95002,278.900011 1154.39997,280 1160.4,280 Z M1160.4,164.2 C1171.00005,164.2 1180.89995,166.099981 1190.1,169.9 C1199.30005,173.700019 1207.34997,178.999966 1214.25,185.8 C1221.15003,192.600034 1226.54998,200.549955 1230.45,209.65 C1234.35002,218.750045 1236.3,228.499948 1236.3,238.9 C1236.3,249.300052 1234.35002,259.049955 1230.45,268.15 C1226.54998,277.250045 1221.15003,285.149967 1214.25,291.85 C1207.34997,298.550034 1199.30005,303.849981 1190.1,307.75 C1180.89995,311.650019 1171.00005,313.6 1160.4,313.6 C1149.79995,313.6 1139.90005,311.650019 1130.7,307.75 C1121.49995,303.849981 1113.45003,298.550034 1106.55,291.85 C1099.64997,285.149967 1094.25002,277.250045 1090.35,268.15 C1086.44998,259.049955 1084.5,249.300052 1084.5,238.9 C1084.5,228.499948 1086.44998,218.750045 1090.35,209.65 C1094.25002,200.549955 1099.64997,192.600034 1106.55,185.8 C1113.45003,178.999966 1121.49995,173.700019 1130.7,169.9 C1139.90005,166.099981 1149.79995,164.2 1160.4,164.2 Z M1336.2,164.2 C1339.60002,164.2 1343.39998,164.549997 1347.6,165.25 C1351.80002,165.950004 1355.99998,167.099992 1360.2,168.7 L1347.6,201.1 C1345.59999,200.099995 1343.15001,199.300003 1340.25,198.7 C1337.34999,198.099997 1334.30002,197.8 1331.1,197.8 C1322.69996,197.8 1315.90003,199.84998 1310.7,203.95 C1305.49997,208.050021 1301.50001,212.399977 1298.7,217 L1298.7,310 L1262.7,310 L1262.7,167.8 L1296.9,167.8 L1296.9,188.5 C1300.30002,182.299969 1305.29997,176.700025 1311.9,171.7 C1318.50003,166.699975 1326.59995,164.2 1336.2,164.2 Z M1419,223.9 L1470,167.8 L1516.5,167.8 L1454.1,235 L1520.7,310 L1473.3,310 L1419,247.9 L1419,310 L1383,310 L1383,83.2 L1419,83.2 L1419,223.9 Z M1532.1,100 L1682.1,100 L1569.6,317.2 L1539,301.3 L1625.4,134.2 L1532.1,134.2 L1532.1,100 Z" transform="translate(-22 -83)"/>
</svg>
