<svg xmlns="http://www.w3.org/2000/svg" width="560" height="300" viewBox="0 0 560 300"><defs><linearGradient id="a" x1="100%" x2="6.773%" y1="10.423%" y2="62.069%"><stop offset="0%" stop-color="#F95B3A"/><stop offset="100%" stop-color="#CE2503"/></linearGradient><linearGradient id="b" x1="95.999%" x2="0%" y1="63.201%" y2="63.201%"><stop offset="0%" stop-color="#EE350F"/><stop offset="100%" stop-color="#F95B3A"/></linearGradient><linearGradient id="c" x1="76.423%" x2="26.938%" y1="9.308%" y2="95.97%"><stop offset="0%" stop-color="#F95B3A"/><stop offset="100%" stop-color="#EE350F"/></linearGradient></defs><g fill="none" fill-rule="evenodd"><path fill="url(#a)" d="M443.316,173.315 L360.471,291.63 C304.044,271.899 263.003,219.4 260.158,156.942 L268.68,175.475 L282.18,145.055 L295.86,175.475 L316.47,130.655 L305.49,130.655 L296.31,152.525 L287.31,130.655 L278.22,130.655 L268.95,152.525 L260.98,132.762 C264.335,103.439 276.145,76.6853 293.912,55 L526.088,55 C526.101,55.0162 526.114,55.0324 526.127,55.0486 L446.356,168.975 L430.23,150.815 L448.95,130.655 L435,130.655 L419.7,147.485 L419.7,105.275 L408.9,105.275 L408.9,173.315 L419.7,173.315 L419.7,154.685 L435.99,173.315 L443.316,173.315 Z M342.12,129.575 C338.94,129.575 335.97,130.145 333.21,131.285 C330.45,132.425 328.035,134.015 325.965,136.055 C323.895,138.095 322.275,140.48 321.105,143.21 C319.935,145.94 319.35,148.865 319.35,151.985 C319.35,155.105 319.935,158.03 321.105,160.76 C322.275,163.49 323.895,165.86 325.965,167.87 C328.035,169.88 330.45,171.47 333.21,172.64 C335.97,173.81 338.94,174.395 342.12,174.395 C345.3,174.395 348.27,173.81 351.03,172.64 C353.79,171.47 356.205,169.88 358.275,167.87 C360.345,165.86 361.965,163.49 363.135,160.76 C364.305,158.03 364.89,155.105 364.89,151.985 C364.89,148.865 364.305,145.94 363.135,143.21 C361.965,140.48 360.345,138.095 358.275,136.055 C356.205,134.015 353.79,132.425 351.03,131.285 C348.27,130.145 345.3,129.575 342.12,129.575 Z M342.12,164.315 C340.32,164.315 338.685,163.985 337.215,163.325 C335.745,162.665 334.5,161.78 333.48,160.67 C332.46,159.56 331.68,158.255 331.14,156.755 C330.6,155.255 330.33,153.665 330.33,151.985 C330.33,150.305 330.6,148.73 331.14,147.26 C331.68,145.79 332.46,144.485 333.48,143.345 C334.5,142.205 335.745,141.305 337.215,140.645 C338.685,139.985 340.32,139.655 342.12,139.655 C343.92,139.655 345.555,139.985 347.025,140.645 C348.495,141.305 349.74,142.205 350.76,143.345 C351.78,144.485 352.56,145.79 353.1,147.26 C353.64,148.73 353.91,150.305 353.91,151.985 C353.91,153.665 353.64,155.255 353.1,156.755 C352.56,158.255 351.78,159.56 350.76,160.67 C349.74,161.78 348.495,162.665 347.025,163.325 C345.555,163.985 343.92,164.315 342.12,164.315 Z M394.86,129.575 C391.98,129.575 389.55,130.325 387.57,131.825 C385.59,133.325 384.09,135.005 383.07,136.865 L383.07,130.655 L372.81,130.655 L372.81,173.315 L383.61,173.315 L383.61,145.415 C384.45,144.035 385.65,142.73 387.21,141.5 C388.77,140.27 390.81,139.655 393.33,139.655 C394.29,139.655 395.205,139.745 396.075,139.925 C396.945,140.105 397.68,140.345 398.28,140.645 L402.06,130.925 C400.8,130.445 399.54,130.1 398.28,129.89 C397.02,129.68 395.88,129.575 394.86,129.575 Z"/><path fill="url(#b)" d="M11.46,135.965 L36.21,135.965 L36.21,146.225 L11.46,146.225 L11.46,173.315 L0.660004,173.315 L0.660004,110.315 L38.01,110.315 L38.01,120.575 L11.46,120.575 L11.46,135.965 Z M68.88,129.575 C69.9,129.575 71.04,129.68 72.3,129.89 C73.56,130.1 74.82,130.445 76.08,130.925 L72.3,140.645 C71.7,140.345 70.965,140.105 70.095,139.925 C69.225,139.745 68.31,139.655 67.35,139.655 C64.83,139.655 62.79,140.27 61.23,141.5 C59.67,142.73 58.47,144.035 57.63,145.415 L57.63,173.315 L46.83,173.315 L46.83,130.655 L57.09,130.655 L57.09,136.865 C58.11,135.005 59.61,133.325 61.59,131.825 C63.57,130.325 66,129.575 68.88,129.575 Z M99.93,129.575 C105.87,129.575 110.55,131.015 113.97,133.895 C117.39,136.775 119.1,140.645 119.1,145.505 L119.1,173.315 L109.11,173.315 L109.11,167.915 C107.73,169.775 105.825,171.32 103.395,172.55 C100.965,173.78 98.25,174.395 95.25,174.395 C93.21,174.395 91.245,174.08 89.355,173.45 C87.465,172.82 85.8,171.89 84.36,170.66 C82.92,169.43 81.78,167.945 80.94,166.205 C80.1,164.465 79.68,162.515 79.68,160.355 C79.68,158.195 80.115,156.23 80.985,154.46 C81.855,152.69 83.055,151.175 84.585,149.915 C86.115,148.655 87.915,147.68 89.985,146.99 C92.055,146.3 94.29,145.955 96.69,145.955 C98.67,145.955 100.71,146.21 102.81,146.72 C104.91,147.23 106.74,147.995 108.3,149.015 L108.3,146.585 C108.3,145.205 108,144.035 107.4,143.075 C106.8,142.115 106.05,141.35 105.15,140.78 C104.25,140.21 103.245,139.805 102.135,139.565 C101.025,139.325 99.96,139.205 98.94,139.205 C97.5,139.205 95.67,139.445 93.45,139.925 C91.23,140.405 88.86,141.215 86.34,142.355 L82.83,133.445 C84.99,132.425 87.555,131.525 90.525,130.745 C93.495,129.965 96.63,129.575 99.93,129.575 Z M98.22,165.395 C100.74,165.395 102.81,164.87 104.43,163.82 C106.05,162.77 107.34,161.645 108.3,160.445 L108.3,156.035 C106.92,155.315 105.36,154.775 103.62,154.415 C101.88,154.055 100.32,153.875 98.94,153.875 C97.98,153.875 97.02,153.98 96.06,154.19 C95.1,154.4 94.215,154.73 93.405,155.18 C92.595,155.63 91.935,156.245 91.425,157.025 C90.915,157.805 90.66,158.765 90.66,159.905 C90.66,161.045 90.9,161.975 91.38,162.695 C91.86,163.415 92.475,163.97 93.225,164.36 C93.975,164.75 94.8,165.02 95.7,165.17 C96.6,165.32 97.44,165.395 98.22,165.395 Z M179.31,129.575 C181.47,129.575 183.48,129.95 185.34,130.7 C187.2,131.45 188.79,132.515 190.11,133.895 C191.43,135.275 192.465,136.97 193.215,138.98 C193.965,140.99 194.34,143.285 194.34,145.865 L194.34,173.315 L183.54,173.315 L183.54,148.655 C183.54,142.655 181.11,139.655 176.25,139.655 C173.85,139.655 171.975,140.255 170.625,141.455 C169.275,142.655 168.24,143.885 167.52,145.145 L167.52,173.315 L156.72,173.315 L156.72,148.655 C156.72,142.655 154.29,139.655 149.43,139.655 C147.03,139.655 145.155,140.255 143.805,141.455 C142.455,142.655 141.42,143.885 140.7,145.145 L140.7,173.315 L129.9,173.315 L129.9,130.655 L139.98,130.655 L139.98,136.865 C141.06,135.065 142.65,133.4 144.75,131.87 C146.85,130.34 149.55,129.575 152.85,129.575 C155.67,129.575 158.25,130.22 160.59,131.51 C162.93,132.8 164.67,134.645 165.81,137.045 C166.29,136.145 166.935,135.245 167.745,134.345 C168.555,133.445 169.53,132.65 170.67,131.96 C171.81,131.27 173.1,130.7 174.54,130.25 C175.98,129.8 177.57,129.575 179.31,129.575 Z M223.68,129.575 C226.62,129.575 229.395,130.115 232.005,131.195 C234.615,132.275 236.895,133.79 238.845,135.74 C240.795,137.69 242.34,140.03 243.48,142.76 C244.62,145.49 245.19,148.505 245.19,151.805 L245.19,153.515 C245.19,154.235 245.16,155.015 245.1,155.855 L213.24,155.855 C213.48,156.875 213.915,157.895 214.545,158.915 C215.175,159.935 216.015,160.85 217.065,161.66 C218.115,162.47 219.33,163.145 220.71,163.685 C222.09,164.225 223.65,164.495 225.39,164.495 C227.19,164.495 229.14,164.165 231.24,163.505 C233.34,162.845 235.23,161.735 236.91,160.175 L242.31,168.275 C240.57,169.715 238.23,171.095 235.29,172.415 C232.35,173.735 228.99,174.395 225.21,174.395 C221.97,174.395 218.955,173.825 216.165,172.685 C213.375,171.545 210.945,169.955 208.875,167.915 C206.805,165.875 205.185,163.475 204.015,160.715 C202.845,157.955 202.26,154.985 202.26,151.805 C202.26,148.745 202.8,145.865 203.88,143.165 C204.96,140.465 206.445,138.11 208.335,136.1 C210.225,134.09 212.49,132.5 215.13,131.33 C217.77,130.16 220.62,129.575 223.68,129.575 Z M234.39,148.025 C234.33,147.125 234.075,146.165 233.625,145.145 C233.175,144.125 232.515,143.18 231.645,142.31 C230.775,141.44 229.68,140.735 228.36,140.195 C227.04,139.655 225.48,139.385 223.68,139.385 C221.94,139.385 220.44,139.655 219.18,140.195 C217.92,140.735 216.855,141.425 215.985,142.265 C215.115,143.105 214.455,144.035 214.005,145.055 C213.555,146.075 213.3,147.065 213.24,148.025 L234.39,148.025 Z"/><path fill="url(#c)" d="M380.989,297.197 L538.393,72.3999 C552.106,95.0402 560,121.598 560,150 C560,232.843 492.843,300 410,300 C400.075,300 390.375,299.036 380.989,297.197 Z M313.688,35 C339.745,13.1539 373.336,0 410,0 C446.664,0 480.255,13.1539 506.312,35 L313.688,35 Z"/></g></svg>