<svg xmlns="http://www.w3.org/2000/svg" width="512" height="512" viewBox="0 0 512 512">
  <g fill="none" fill-rule="evenodd">
    <rect width="512" height="512" fill="#000"/>
    <path fill="#FFF" fill-rule="nonzero" d="M79.8671647,146 L79.8671647,95.6484855 L80.4531017,95.6484855 L115.257756,146 L129.867117,146 L129.867117,66.0000763 L113.031196,66.0000763 L113.031196,116.312528 L112.328071,116.312528 L77.7968542,66.0000763 L62.9531184,66.0000763 L62.9531184,146 L79.8671647,146 Z M179.867146,147.093749 C201.078064,147.093749 217.328048,132.171888 217.328048,106.000038 C217.328048,79.8281881 201.078064,64.9063273 179.867146,64.9063273 C158.539042,64.9063273 142.406245,79.8281881 142.406245,106.000038 C142.406245,132.054701 158.539042,147.093749 179.867146,147.093749 Z M179.867146,132.132826 C167.562471,132.132826 159.554666,122.953147 159.554666,106.000038 C159.554666,89.0469293 167.562471,79.8672506 179.867146,79.8672506 C192.13276,79.8672506 200.179627,89.0469293 200.179627,106.000038 C200.179627,122.953147 192.13276,132.132826 179.867146,132.132826 Z M114.164007,246 L114.164007,232.054701 L79.8671647,232.054701 L79.8671647,166.000076 L62.9531184,166.000076 L62.9531184,246 L114.164007,246 Z M142.28904,246 L142.28904,166.000076 L125.374993,166.000076 L125.374993,246 L142.28904,246 Z M172.640603,246 L172.640603,193.734425 L173.304665,193.734425 L194.00777,245.609375 L205.179634,245.609375 L225.882739,193.929737 L226.546801,193.929737 L226.546801,246 L242.953036,246 L242.953036,166.000076 L222.093681,166.000076 L200.062452,219.750025 L199.124952,219.750025 L177.093723,166.000076 L156.234368,166.000076 L156.234368,246 L172.640603,246 Z M273.773415,246 L273.773415,166.000076 L256.859368,166.000076 L256.859368,246 L273.773415,246 Z M325.882769,246 L325.882769,179.945375 L350.374934,179.945375 L350.374934,166.000076 L284.671871,166.000076 L284.671871,179.945375 L309.164035,179.945375 L309.164035,246 L325.882769,246 Z M390.882778,247.132811 C410.414009,247.132811 421.898373,237.796883 421.937435,223.148459 C421.898373,209.828159 411.85932,202.757854 397.953083,199.632857 L390.76559,197.914108 C383.812472,196.312547 377.992165,193.734425 378.109352,187.992243 C378.109352,182.835998 382.67966,179.046939 390.960903,179.046939 C399.046832,179.046939 404.007765,182.71881 404.632764,189.007867 L420.843687,189.007867 C420.609312,174.750068 408.890573,164.906327 391.07809,164.906327 C373.539044,164.906327 360.687494,174.593818 360.765619,189.125054 C360.726556,200.921918 369.046861,207.679724 382.562473,210.921908 L391.273402,213.109406 C399.984331,215.218779 404.828077,217.718777 404.867139,223.109397 C404.828077,228.968766 399.281207,232.953137 390.687465,232.953137 C381.898411,232.953137 375.570292,228.890641 375.023418,220.882836 L358.656246,220.882836 C359.085933,238.187507 371.468734,247.132811 390.882778,247.132811 Z M115.843693,346 L115.843693,331.937513 L125.765558,331.937513 L125.765558,318.382839 L115.843693,318.382839 L115.843693,266.000076 L94.6718381,266.000076 L61.2734325,318.617214 L61.2734325,331.937513 L99.6718334,331.937513 L99.6718334,346 L115.843693,346 Z M99.9843331,318.382839 L78.3046662,318.382839 L78.3046662,317.757839 L99.3593336,284.437559 L99.9843331,284.437559 L99.9843331,318.382839 Z M97.445273,446 L112.640571,393.695362 L113.26557,393.695362 L128.499931,446 L144.98429,446 L167.874893,366.000076 L149.398348,366.000076 L136.156174,421.703148 L135.453049,421.703148 L120.882751,366.000076 L105.062453,366.000076 L90.4530921,421.585961 L89.7890303,421.585961 L76.5468554,366.000076 L58.0703105,366.000076 L80.9609137,446 L97.445273,446 Z M230.960879,446 L230.960879,432.054701 L193.812477,432.054701 L193.812477,412.953157 L228.031195,412.953157 L228.031195,399.007857 L193.812477,399.007857 L193.812477,379.945375 L230.804629,379.945375 L230.804629,366.000076 L176.898431,366.000076 L176.898431,446 L230.960879,446 Z M278.460898,446 C296.429631,446 305.999935,436.625009 305.999935,423.890646 C305.999935,412.05472 297.52338,404.906289 288.421826,404.476602 L288.421826,403.695353 C296.742131,401.820355 302.874937,395.921923 302.874937,386.507869 C302.874937,374.515693 293.968696,366.000076 276.312463,366.000076 L244.281243,366.000076 L244.281243,446 L278.460898,446 Z M273.73434,399.476607 L261.19529,399.476607 L261.19529,379.671938 L274.04684,379.671938 C281.546833,379.671938 285.804641,383.539122 285.804641,389.320367 C285.804641,395.648486 280.648396,399.476607 273.73434,399.476607 Z M274.984339,432.171888 L261.19529,432.171888 L261.19529,410.921908 L275.374964,410.921908 C283.499956,410.921908 288.539014,415.609404 288.539014,422.21096 C288.539014,428.226579 284.437455,432.171888 274.984339,432.171888 Z"/>
  </g>
</svg>
