<?xml version="1.0" encoding="UTF-8"?>
<svg width="170px" height="170px" viewBox="0 0 170 170" version="1.1" xmlns="http://www.w3.org/2000/svg" xmlns:xlink="http://www.w3.org/1999/xlink">
    <!-- Generator: Sketch 40.1 (33804) - http://www.bohemiancoding.com/sketch -->
    <title>vi_logo_on_white_4C</title>
    <desc>Created with Sketch.</desc>
    <defs></defs>
    <g id="Page-1" stroke="none" stroke-width="1" fill="none" fill-rule="evenodd">
        <g id="vi_logo_on_white_4C">
            <path d="M84.709,169.044 C131.377,169.044 169.21,131.211 169.21,84.543 C169.21,37.874 131.377,0.042 84.709,0.042 C38.04,0.042 0.208,37.874 0.208,84.543 C0.208,131.211 38.04,169.044 84.709,169.044" id="Fill-1" fill="#FFF101"></path>
            <path d="M84.709,169.044 C38.115,169.044 0.208,131.137 0.208,84.543 C0.208,37.949 38.115,0.042 84.709,0.042 C131.303,0.042 169.21,37.949 169.21,84.543 C169.21,131.137 131.303,169.044 84.709,169.044 L84.709,169.044 Z M84.709,8.546 C42.804,8.546 8.712,42.638 8.712,84.543 C8.712,126.448 42.804,160.54 84.709,160.54 C126.614,160.54 160.706,126.448 160.706,84.543 C160.706,42.638 126.614,8.546 84.709,8.546 L84.709,8.546 Z" id="Fill-2" fill="#0C0000"></path>
            <path d="M102.949,119.957 L119.239,119.957 L119.239,67.23 L102.949,67.23 L102.949,119.957 Z M60.581,119.957 L76.121,119.957 L97.555,67.23 L81.48,67.23 L74.942,84.055 C72.799,89.521 70.549,95.521 68.62,100.881 L68.405,100.881 C66.582,95.521 64.546,89.735 62.511,84.163 L56.294,67.23 L39.147,67.23 L60.581,119.957 L60.581,119.957 Z" id="Fill-3" fill="#0C0000"></path>
            <polygon id="Fill-4" fill="#0C0000" points="102.949 58.478 119.239 58.478 119.239 42.187 102.949 42.187"></polygon>
        </g>
    </g>
</svg>