<svg xmlns="http://www.w3.org/2000/svg" width="256" height="256" viewBox="0 0 256 256">
  <g fill="none">
    <polygon fill="#F7DF1E" points="0 0 256 0 256 256 0 256"/>
    <path fill="#000" d="M67.3113397 213.932292L86.902654 202.076241C90.6821079 208.777346 94.1202286 214.447137 102.367086 214.447137 110.272203 214.447137 115.256076 211.354819 115.256076 199.326883L115.256076 117.528787 139.313575 117.528787 139.313575 199.666997C139.313575 224.58433 124.707759 235.925943 103.3984 235.925943 84.1532952 235.925943 72.9819429 225.958603 67.3113397 213.93026M152.380952 211.354413L171.969422 200.0128C177.125994 208.433981 183.827911 214.619835 195.684368 214.619835 205.652521 214.619835 212.009041 209.635962 212.009041 202.762159 212.009041 194.513676 205.479416 191.592025 194.481168 186.78207L188.468419 184.202565C171.111213 176.81473 159.597308 167.53534 159.597308 147.944838 159.597308 129.901308 173.344508 116.153295 194.825752 116.153295 210.119924 116.153295 221.117765 121.48094 229.021663 135.400432L210.29059 147.428775C206.166146 140.040127 201.699556 137.119289 194.826159 137.119289 187.78047 137.119289 183.312254 141.587098 183.312254 147.428775 183.312254 154.646349 187.78047 157.568406 198.089956 162.036622L204.103924 164.614095C224.553448 173.378641 236.067352 182.313448 236.067352 202.418387 236.067352 224.071924 219.055137 235.927975 196.200432 235.927975 173.860978 235.927975 159.425829 225.274311 152.380952 211.354413"/>
  </g>
</svg>
