<svg xmlns="http://www.w3.org/2000/svg" width="128" height="114" viewBox="0 0 128 114">
  <path fill="#00D8FF" d="M105.241691,36.9118187 C103.913849,36.4547751 102.537933,36.022338 101.121235,35.6133684 C101.354086,34.6630549 101.567798,33.7250447 101.757816,32.8029832 C104.876921,17.6624461 102.837541,5.4651239 95.873664,1.44924641 C89.1961795,-2.40144831 78.2756635,1.61351783 67.246468,11.2118888 C66.1858805,12.1348616 65.122331,13.1120601 64.0592385,14.136193 C63.3508885,13.458602 62.643679,12.8037948 61.938292,12.1774674 C50.3793725,1.91426431 38.7933401,-2.41078968 31.8362983,1.61670757 C25.1651935,5.4785664 23.1896078,16.9452112 25.9972589,31.2940103 C26.2683865,32.6799505 26.5853095,34.0952819 26.9436991,35.5343085 C25.3039471,35.999782 23.7209267,36.4960138 22.2062578,37.0239151 C8.65466485,41.7485975 0,49.1533414 0,56.8339975 C0,64.7666435 9.2907893,72.7232115 23.4058263,77.5476865 C24.5197277,77.9284045 25.6755513,78.288389 26.8666898,78.6301465 C26.4800482,80.18651 26.1437589,81.711659 25.8614673,83.1992155 C23.1843676,97.2989875 25.2750115,108.494732 31.9283449,112.332212 C38.8006309,116.295232 50.33426,112.221711 61.5650925,102.404615 C62.4527505,101.628598 63.343598,100.805646 64.2360405,99.943051 C65.392776,101.056952 66.5476875,102.111159 67.6964485,103.099977 C78.574815,112.461169 89.3189845,116.241234 95.966166,112.393046 C102.831617,108.418634 105.062838,96.391735 102.166101,81.75905 C101.94487,80.641503 101.687413,79.499805 101.398286,78.3378305 C102.208252,78.0983715 103.003407,77.8511675 103.778741,77.594166 C118.452665,72.732325 128,64.8725875 128,56.8339975 C128,49.1255453 119.066233,41.6709046 105.241691,36.9118187 L105.241691,36.9118187 Z M102.059018,72.4037825 C101.359099,72.6354935 100.640952,72.859459 99.9091355,73.0765885 C98.2892055,67.948177 96.1028695,62.4948675 93.4273645,56.860655 C95.9805205,51.3606385 98.082328,45.9770481 99.6569185,40.8819007 C100.966305,41.2607957 102.237187,41.6604241 103.461818,42.0821528 C115.306674,46.1597744 122.531882,52.188603 122.531882,56.8339975 C122.531882,61.7821895 114.728877,68.205634 102.059018,72.4037825 L102.059018,72.4037825 Z M96.801877,82.8210035 C98.0827835,89.291383 98.2657375,95.1413585 97.417268,99.7145285 C96.6549215,103.82382 95.1217975,106.563575 93.226183,107.660844 C89.192306,109.995731 80.565894,106.960697 71.262573,98.954916 C70.196062,98.037183 69.1218045,97.057251 68.0441295,96.0201305 C71.6508095,92.0755665 75.255439,87.489866 78.77349,82.3969965 C84.9613495,81.847907 90.8074525,80.9502235 96.109021,79.7246815 C96.3701235,80.777978 96.602063,81.8109965 96.801877,82.8210035 L96.801877,82.8210035 Z M43.6380933,107.257343 C39.6969467,108.649207 36.5580188,108.689078 34.6605816,107.594999 C30.6230595,105.266264 28.9445749,96.2771325 31.2341217,84.2190195 C31.4963636,82.8380915 31.8085021,81.419571 32.1682586,79.969608 C37.4117288,81.129077 43.2149976,81.9634205 49.4176667,82.4662595 C52.959413,87.449767 56.6681645,92.030455 60.4056235,96.04132 C59.589051,96.82964 58.775668,97.58014 57.9668425,98.2873495 C53.0006515,102.628352 48.0239803,105.70827 43.6380933,107.257343 L43.6380933,107.257343 Z M25.174307,72.3734795 C18.9329052,70.24023 13.7785199,67.467666 10.2454317,64.4422015 C7.0707332,61.7234075 5.46789085,59.0242075 5.46789085,56.8339975 C5.46789085,52.17311 12.4167305,46.2281258 24.0061802,42.187414 C25.4123981,41.697106 26.8844611,41.23505 28.4121168,40.8010181 C30.0138199,46.0112238 32.1149445,51.458609 34.6505567,56.967055 C32.0821358,62.557295 29.9511644,68.0914875 28.3337405,73.362753 C27.2446735,73.0497035 26.1895544,72.7202495 25.174307,72.3734795 L25.174307,72.3734795 Z M31.3635339,30.2439036 C28.9580173,17.9502059 30.5556193,8.6762766 34.5758257,6.34913645 C38.8580462,3.87002812 48.3272326,7.4047111 58.307461,16.2664809 C58.945408,16.8328869 59.5858615,17.4257221 60.2281375,18.0390628 C56.5091335,22.0323843 52.83433,26.5786693 49.3240257,31.5327847 C43.3040823,32.0907607 37.5415965,32.9870765 32.2434454,34.1873285 C31.9103457,32.8474116 31.6152951,31.5309621 31.3635339,30.2439036 L31.3635339,30.2439036 Z M86.5769505,43.8775183 C85.310398,41.6898152 84.0101245,39.5538313 82.684562,37.4761741 C86.768563,37.9924556 90.681457,38.6777932 94.356033,39.5164659 C93.2528395,43.0520603 91.8778365,46.7487364 90.259273,50.5383705 C89.0982095,48.3340351 87.870161,46.1114727 86.5769505,43.8775183 L86.5769505,43.8775183 Z M64.0610605,21.9469449 C66.5832305,24.6794094 69.1090455,27.7301639 71.5933945,31.0401984 C69.089907,30.9219503 66.555434,30.860434 64.0000005,30.860434 C61.468717,30.860434 58.952927,30.9205833 56.4649325,31.0367808 C58.9517875,27.7575045 61.499475,24.710851 64.0610605,21.9469449 L64.0610605,21.9469449 Z M41.4009492,43.9153395 C40.1357632,46.1091943 38.9304987,48.3196813 37.787662,50.5342695 C36.1953002,46.7578499 34.8330551,43.0443138 33.720293,39.4585949 C37.3723127,38.641339 41.2667524,37.9730894 45.3247801,37.4666049 C43.9805342,39.5634005 42.6695527,41.7151053 41.4009492,43.9148838 L41.4009492,43.9153395 L41.4009492,43.9153395 Z M45.4416611,76.5914495 C41.248981,76.1236975 37.2959869,75.489852 33.6448785,74.6951515 C34.7754121,71.04541 36.1677318,67.2525865 37.7938136,63.3948285 C38.9396123,65.607822 40.1496614,67.8192205 41.4225938,70.01786 L41.4228217,70.01786 C42.7194493,72.257738 44.0627838,74.45182 45.4416611,76.5914495 L45.4416611,76.5914495 Z M64.2123455,92.1065525 C61.620685,89.3102935 59.035632,86.2171615 56.510956,82.890039 C58.961812,82.9861865 61.4605145,83.0354 64.0000005,83.0354 C66.6089765,83.0354 69.1881055,82.9766175 71.72668,82.8636095 C69.2341285,86.250654 66.7174275,89.3485705 64.2123455,92.1065525 L64.2123455,92.1065525 Z M90.311448,63.1982045 C92.0222855,67.0976565 93.464502,70.8706585 94.609617,74.4582 C90.8983595,75.3048465 86.891368,75.986767 82.6695245,76.4934795 C83.9982775,74.3877975 85.309942,72.2151315 86.598823,69.980266 C87.902742,67.7191995 89.140815,65.454715 90.311448,63.1982045 L90.311448,63.1982045 Z M81.862293,67.2484855 C79.8614175,70.7177785 77.8072275,74.0296355 75.721824,77.1558055 C71.9235315,77.427388 67.999473,77.567281 64.0000005,77.567281 C60.016704,77.567281 56.1420855,77.4435645 52.4110065,77.2013725 C50.24153,74.034193 48.142684,70.712539 46.154567,67.278332 L46.1550227,67.278332 C44.1721461,63.8534675 42.3471616,60.3996665 40.6935114,56.965233 C42.3467059,53.522824 44.1669058,50.0651505 46.1383905,46.646437 L46.1379348,46.6471205 C48.1146596,43.2192936 50.195051,39.9138158 52.344477,36.7664579 C56.151199,36.4786982 60.0547525,36.3285528 63.9997725,36.3285528 L64.0000005,36.3285528 C67.9627915,36.3285528 71.871357,36.4798373 75.6769395,36.7701033 C77.793557,39.8944496 79.8598225,43.1892189 81.844294,46.6175016 C83.851322,50.084289 85.694989,53.5189505 87.362309,56.88754 C85.7000015,60.3139995 83.8604355,63.7832935 81.862293,67.2484855 L81.862293,67.2484855 Z M93.1423385,6.1864599 C97.4286605,8.6582774 99.0955245,18.6271134 96.4024765,31.6993346 C96.230686,32.5334505 96.037252,33.3830594 95.8271845,34.2440603 C90.51673,33.018746 84.750143,32.1069373 78.7126575,31.5405313 C75.1955175,26.5319624 71.5507885,21.9786144 67.892389,18.0365565 C68.875967,17.0903443 69.858178,16.1881046 70.8362875,15.336673 C80.286108,7.11285035 89.118259,3.86592703 93.1423385,6.1864599 L93.1423385,6.1864599 Z M64.0000005,45.4040348 C70.3124875,45.4040348 75.429963,50.5212825 75.429963,56.8339975 C75.429963,63.1464845 70.3124875,68.263961 64.0000005,68.263961 C57.687513,68.263961 52.5700375,63.1464845 52.5700375,56.8339975 C52.5700375,50.5212825 57.687513,45.4040348 64.0000005,45.4040348 L64.0000005,45.4040348 Z"/>
</svg>
