<svg width="145" height="31" viewBox="0 0 145 31" fill="none" xmlns="http://www.w3.org/2000/svg">
<path d="M12.4821 30.9958C10.9143 31.0233 9.36736 30.633 8.00027 29.8649C6.70652 29.13 5.63554 28.059 4.90069 26.7653V30.5769H0V0H5.61275V12.4821C6.34702 11.1895 7.40887 10.1132 8.69139 9.36157C10.0521 8.5987 11.5927 8.21535 13.1523 8.25159C14.5066 8.23523 15.8442 8.55166 17.0477 9.17308C18.2159 9.78413 19.2488 10.6247 20.0844 11.6444C20.9622 12.7257 21.6299 13.9616 22.0531 15.2885C22.5175 16.708 22.7508 18.193 22.7442 19.6865C22.7578 21.2013 22.4952 22.7058 21.9693 24.1265C21.4823 25.4455 20.7504 26.6606 19.8122 27.7077C18.8967 28.7226 17.7853 29.5419 16.5451 30.1162C15.2724 30.706 13.8848 31.0064 12.4821 30.9958ZM10.9323 26.2208C11.7845 26.2299 12.6283 26.0511 13.4036 25.6972C14.1345 25.3652 14.7901 24.8877 15.3304 24.294C15.8687 23.6945 16.2881 22.9979 16.566 22.2416C16.8633 21.4373 17.0124 20.5858 17.0058 19.7284C17.0095 18.8593 16.8679 17.9958 16.5869 17.1734C16.3242 16.3937 15.9195 15.6695 15.3932 15.0372C14.8884 14.4331 14.2692 13.9349 13.5711 13.5711C12.859 13.2049 12.0682 13.018 11.2674 13.0266C10.0386 13.0243 8.84964 13.4627 7.9165 14.2623C6.92074 15.0795 6.13152 16.1199 5.61275 17.299V22.5348C5.79736 23.0845 6.08131 23.5956 6.45048 24.0427C6.821 24.4839 7.25094 24.8715 7.72801 25.1946C8.21169 25.5269 8.7407 25.7879 9.29874 25.9695C9.82659 26.1389 10.3779 26.2237 10.9323 26.2208Z" fill="#262626"/>
<path d="M83.927 30.9961C82.0902 30.997 80.2654 30.6999 78.5237 30.1164C76.8646 29.5858 75.327 28.7317 74 27.6033L76.0943 24.0848C77.2986 24.9622 78.607 25.6868 79.9897 26.242C81.1971 26.7186 82.4824 26.9671 83.7804 26.975C84.7022 27.0241 85.6185 26.8059 86.4193 26.3467C86.7252 26.1589 86.9757 25.8932 87.145 25.5766C87.3143 25.2601 87.3963 24.9043 87.3827 24.5456C87.3919 24.1781 87.2885 23.8166 87.0864 23.5097C86.8842 23.2027 86.5929 22.9649 86.2517 22.8282C85.0582 22.3125 83.8257 21.8924 82.5657 21.5717C81.1416 21.1807 79.9269 20.8037 78.9216 20.4407C78.0557 20.1501 77.2371 19.7337 76.4922 19.2051C75.9195 18.7948 75.4587 18.2476 75.1519 17.6134C74.8564 16.9336 74.7135 16.1973 74.733 15.4563C74.7165 14.4146 74.9386 13.383 75.3822 12.4405C75.8106 11.5524 76.4333 10.7722 77.2043 10.1577C78.0216 9.5105 78.9519 9.02052 79.9478 8.71258C81.0528 8.36885 82.2045 8.19927 83.3616 8.20995C84.9255 8.20044 86.481 8.44082 87.9691 8.92201C89.4318 9.41194 90.7788 10.1959 91.9273 11.2258L89.6655 14.6185C88.6764 13.8531 87.5834 13.2326 86.4193 12.7755C85.4359 12.3992 84.3935 12.2006 83.3406 12.1891C82.5059 12.1602 81.6795 12.3632 80.9531 12.7755C80.6355 12.9715 80.3777 13.2509 80.2078 13.5832C80.0379 13.9156 79.9625 14.2882 79.9897 14.6604C79.9759 14.9967 80.0556 15.3302 80.2201 15.6238C80.405 15.9046 80.6569 16.135 80.9531 16.294C81.3728 16.5264 81.8148 16.7159 82.2725 16.8595C82.8171 17.041 83.4942 17.2294 84.304 17.4249C85.8119 17.8159 87.1034 18.2068 88.1785 18.5977C89.1166 18.9186 90.0049 19.3698 90.8173 19.9381C91.454 20.3861 91.9717 20.9828 92.3252 21.6764C92.6643 22.4181 92.829 23.2277 92.8069 24.0429C92.8457 25.0204 92.649 25.9929 92.2335 26.8786C91.818 27.7642 91.1959 28.5371 90.4194 29.1321C88.8277 30.3747 86.6636 30.9961 83.927 30.9961Z" fill="#262626"/>
<path d="M108.933 30.9958C107.366 31.0233 105.819 30.633 104.452 29.8649C103.158 29.13 102.087 28.059 101.352 26.7653V30.5769H96.4513V0H102.064V12.4821C102.793 11.1922 103.847 10.1161 105.122 9.36157C106.489 8.59504 108.037 8.21157 109.604 8.25159C110.958 8.23523 112.296 8.55166 113.499 9.17308C114.667 9.78413 115.7 10.6247 116.536 11.6444C117.413 12.7257 118.081 13.9616 118.504 15.2885C118.969 16.708 119.202 18.193 119.196 19.6865C119.209 21.2013 118.946 22.7058 118.421 24.1265C117.934 25.4455 117.202 26.6606 116.263 27.7077C115.348 28.7226 114.237 29.5419 112.996 30.1162C111.724 30.706 110.336 31.0064 108.933 30.9958ZM107.384 26.2208C108.236 26.2299 109.08 26.0511 109.855 25.6972C110.586 25.3652 111.241 24.8877 111.782 24.294C112.32 23.6945 112.739 22.9979 113.017 22.2416C113.315 21.4373 113.464 20.5858 113.457 19.7284C113.461 18.8593 113.319 17.9958 113.038 17.1734C112.769 16.3922 112.357 15.6678 111.824 15.0372C111.319 14.4331 110.7 13.9349 110.001 13.5711C109.289 13.2049 108.499 13.018 107.698 13.0266C106.469 13.0243 105.28 13.4627 104.347 14.2623C103.359 15.0819 102.577 16.122 102.064 17.299V22.5348C102.249 23.0845 102.533 23.5956 102.902 24.0427C103.272 24.4839 103.702 24.8715 104.179 25.1946C104.658 25.5178 105.18 25.7716 105.729 25.9485C106.262 26.1273 106.821 26.2192 107.384 26.2208Z" fill="#262626"/>
<path d="M133.185 30.9956C131.549 31.0193 129.925 30.713 128.41 30.095C127.056 29.5444 125.828 28.7238 124.801 27.6833C123.774 26.6427 122.97 25.4039 122.437 24.0425C121.885 22.6712 121.6 21.2066 121.6 19.7282C121.59 18.2187 121.859 16.7204 122.395 15.3092C122.91 13.9517 123.694 12.7122 124.699 11.6651C125.737 10.5866 126.984 9.73145 128.364 9.15192C129.897 8.51923 131.544 8.20568 133.202 8.23042C134.847 8.20295 136.48 8.51672 137.998 9.15192C139.351 9.72775 140.576 10.5679 141.6 11.6232C142.592 12.6574 143.361 13.8832 143.862 15.2254C144.378 16.5906 144.64 18.0384 144.637 19.4978C144.637 19.8608 144.637 20.2099 144.637 20.545C144.63 20.827 144.595 21.1076 144.532 21.3827H127.568C127.634 22.1828 127.847 22.9638 128.197 23.6864C128.832 24.9843 129.942 25.9889 131.296 26.4928C131.966 26.7441 132.675 26.8719 133.391 26.8698C134.499 26.866 135.588 26.5775 136.553 26.0321C137.463 25.5748 138.183 24.8109 138.584 23.8749L143.401 25.2153C142.544 26.9418 141.196 28.3769 139.527 29.3411C137.607 30.4697 135.412 31.0425 133.185 30.9956ZM138.882 17.7595C138.802 16.2612 138.148 14.8513 137.056 13.8222C135.999 12.8434 134.611 12.2996 133.171 12.2996C131.73 12.2996 130.343 12.8434 129.286 13.8222C128.764 14.3115 128.337 14.8939 128.029 15.5396C127.701 16.2367 127.509 16.9903 127.464 17.7595H138.882Z" fill="#262626"/>
<path d="M26.2467 16.8213C25.4744 21.1744 26.5152 24.7782 29.369 27.6327C30.4236 28.7189 31.6896 29.5775 33.0891 30.1558C34.4886 30.734 35.9918 31.0195 37.506 30.9947C40.0742 30.9947 43.3684 29.2054 47.3886 25.6267L43.4213 21.2259L43.1753 21.5193C42.667 22.1302 42.1197 22.7076 41.5368 23.2479C40.9479 23.7782 40.2996 24.2385 39.6047 24.6196C38.9667 25.0067 38.24 25.2237 37.4941 25.25C36.7232 25.2801 35.9547 25.1477 35.2383 24.8615C34.522 24.5753 33.874 24.1417 33.3363 23.5888C32.8139 23.0467 32.4045 22.4061 32.1321 21.7043C31.8597 21.0026 31.7296 20.2538 31.7494 19.5013C31.7296 18.7489 31.8597 18 32.1321 17.2983C32.4045 16.5966 32.8139 15.956 33.3363 15.4138C33.874 14.861 34.522 14.4273 35.2383 14.1411C35.9547 13.855 36.7232 13.7226 37.4941 13.7526C38.2331 13.7728 38.9555 13.9758 39.5968 14.3434C40.3235 14.7258 40.9915 15.2104 41.5804 15.7825C42.165 16.3508 42.6939 16.919 43.1674 17.4873C43.6408 18.0556 44.0111 18.5326 44.2782 18.9185L44.6749 19.5013L48.9914 24.128C53.7522 28.7085 57.5873 30.9987 60.4966 30.9987C62.0107 31.0219 63.5135 30.7349 64.9123 30.1553C66.3111 29.5757 67.5762 28.7158 68.6297 27.6288C71.4861 24.7743 72.5269 21.1704 71.7519 16.8173C71.5357 15.6032 71.0578 14.4506 70.3515 13.4394C67.8283 9.81315 64.5499 8 60.5165 8C57.9615 8 54.7242 9.73518 50.8045 13.2055L54.7043 17.3168C54.7077 17.3203 54.7117 17.3231 54.7161 17.325C54.7205 17.3269 54.7253 17.3278 54.7301 17.3278C54.735 17.3278 54.7397 17.3269 54.7442 17.325C54.7486 17.3231 54.7526 17.3203 54.7559 17.3168L56.4698 15.731C57.0587 15.2007 57.707 14.7404 58.4019 14.3592C59.0399 13.9722 59.7666 13.7552 60.5125 13.7289C61.2834 13.6988 62.0519 13.8312 62.7683 14.1174C63.4846 14.4036 64.1326 14.8372 64.6703 15.39C65.1927 15.9322 65.6021 16.5728 65.8745 17.2745C66.1469 17.9763 66.277 18.7251 66.2572 19.4775C66.277 20.23 66.1469 20.9788 65.8745 21.6806C65.6021 22.3823 65.1927 23.0229 64.6703 23.5651C64.1326 24.1179 63.4846 24.5515 62.7683 24.8377C62.0519 25.1239 61.2834 25.2563 60.5125 25.2262C59.7803 25.2083 59.0637 25.0109 58.4257 24.6514C57.6992 24.2702 57.0312 23.7869 56.442 23.2162C55.8575 22.6479 55.3285 22.0796 54.8551 21.5114C54.3817 20.9431 54.0074 20.4647 53.7324 20.0762L53.3356 19.4934L49.0112 14.8746C44.2478 10.2915 40.4127 8 37.506 8C33.4699 8 30.1836 9.81447 27.6472 13.4434C26.9408 14.4546 26.463 15.6072 26.2467 16.8213Z" fill="url(#paint0_radial)"/>
<path d="M26.2467 16.8213C25.4744 21.1744 26.5152 24.7782 29.369 27.6327C30.4236 28.7189 31.6896 29.5775 33.0891 30.1558C34.4886 30.734 35.9918 31.0195 37.506 30.9947C40.0742 30.9947 43.3684 29.2054 47.3886 25.6267L43.4213 21.2259L43.1753 21.5193C42.667 22.1302 42.1197 22.7076 41.5368 23.2479C40.9479 23.7782 40.2996 24.2385 39.6047 24.6196C38.9667 25.0067 38.24 25.2237 37.4941 25.25C36.7232 25.2801 35.9547 25.1477 35.2383 24.8615C34.522 24.5753 33.874 24.1417 33.3363 23.5888C32.8139 23.0467 32.4045 22.4061 32.1321 21.7043C31.8597 21.0026 31.7296 20.2538 31.7494 19.5013C31.7296 18.7489 31.8597 18 32.1321 17.2983C32.4045 16.5966 32.8139 15.956 33.3363 15.4138C33.874 14.861 34.522 14.4273 35.2383 14.1411C35.9547 13.855 36.7232 13.7226 37.4941 13.7526C38.2331 13.7728 38.9555 13.9758 39.5968 14.3434C40.3235 14.7258 40.9915 15.2104 41.5804 15.7825C42.165 16.3508 42.6939 16.919 43.1674 17.4873C43.6408 18.0556 44.0111 18.5326 44.2782 18.9185L44.6749 19.5013L48.9914 24.128C53.7522 28.7085 57.5873 30.9987 60.4966 30.9987C62.0107 31.0219 63.5135 30.7349 64.9123 30.1553C66.3111 29.5757 67.5762 28.7158 68.6297 27.6288C71.4861 24.7743 72.5269 21.1704 71.7519 16.8173C71.5357 15.6032 71.0578 14.4506 70.3515 13.4394C67.8283 9.81315 64.5499 8 60.5165 8C57.9615 8 54.7242 9.73518 50.8045 13.2055L54.7043 17.3168C54.7077 17.3203 54.7117 17.3231 54.7161 17.325C54.7205 17.3269 54.7253 17.3278 54.7301 17.3278C54.735 17.3278 54.7397 17.3269 54.7442 17.325C54.7486 17.3231 54.7526 17.3203 54.7559 17.3168L56.4698 15.731C57.0587 15.2007 57.707 14.7404 58.4019 14.3592C59.0399 13.9722 59.7666 13.7552 60.5125 13.7289C61.2834 13.6988 62.0519 13.8312 62.7683 14.1174C63.4846 14.4036 64.1326 14.8372 64.6703 15.39C65.1927 15.9322 65.6021 16.5728 65.8745 17.2745C66.1469 17.9763 66.277 18.7251 66.2572 19.4775C66.277 20.23 66.1469 20.9788 65.8745 21.6806C65.6021 22.3823 65.1927 23.0229 64.6703 23.5651C64.1326 24.1179 63.4846 24.5515 62.7683 24.8377C62.0519 25.1239 61.2834 25.2563 60.5125 25.2262C59.7803 25.2083 59.0637 25.0109 58.4257 24.6514C57.6992 24.2702 57.0312 23.7869 56.442 23.2162C55.8575 22.6479 55.3285 22.0796 54.8551 21.5114C54.3817 20.9431 54.0074 20.4647 53.7324 20.0762L53.3356 19.4934L49.0112 14.8746C44.2478 10.2915 40.4127 8 37.506 8C33.4699 8 30.1836 9.81447 27.6472 13.4434C26.9408 14.4546 26.463 15.6072 26.2467 16.8213Z" fill="url(#paint1_radial)"/>
<defs>
<radialGradient id="paint0_radial" cx="0" cy="0" r="1" gradientUnits="userSpaceOnUse" gradientTransform="translate(37.9027 32.981) scale(37.3206 37.2951)">
<stop stop-color="#FFDD55"/>
<stop offset="0.1" stop-color="#FFDD55"/>
<stop offset="0.5" stop-color="#FF543E"/>
<stop offset="1" stop-color="#C837AB"/>
</radialGradient>
<radialGradient id="paint1_radial" cx="0" cy="0" r="1" gradientUnits="userSpaceOnUse" gradientTransform="translate(31.9517 6.68375) scale(16.4009 16.3897)">
<stop stop-color="#3771C8"/>
<stop offset="0.13" stop-color="#3771C8"/>
<stop offset="1" stop-color="#6600FF" stop-opacity="0"/>
</radialGradient>
</defs>
</svg>
