<svg xmlns="http://www.w3.org/2000/svg" width="128" height="128" viewBox="0 0 128 128">
  <path fill="#3F53D9" d="M0 3.46988544C0 .60084736 3.28454656-1.02419456 5.5608832.71860224L55.217152 38.7357696C57.028096 40.1220096 57.028096 42.8520448 55.217152 44.238336L5.5609344 82.25536C3.28454656 83.998208 0 82.37312 0 79.504384L0 3.46988544zM128 124.530176C128 127.398912 124.71552 129.024 122.439168 127.281152L72.782848 89.264128C70.971904 87.878144 70.971904 85.14816 72.782848 83.761664L122.439168 45.7444864C124.71552 44.0016896 128 45.6267264 128 48.4957696L128 124.530176zM4.35082752 124.570112C-2.19541504 116.476416-.94875648 104.602624 7.1353344 98.048512L122.895872 4.19874304C123.16416 3.9812864 123.557376 4.02269696 123.774976 4.29124096 130.290688 12.3475456 129.050112 24.1670144 121.003008 30.6907136L5.10769664 124.649984C4.8767232 124.836864 4.53786112 124.801536 4.35082752 124.570112z"/>
</svg>
