<?xml version="1.0" encoding="UTF-8"?> <svg xmlns="http://www.w3.org/2000/svg" width="198" height="76" viewBox="0 0 198 76" fill="none"><mask id="mask0_150_42" style="mask-type:alpha" maskUnits="userSpaceOnUse" x="3" y="14" width="58" height="58"><path d="M3.88672 21.8745C12.7055 16.7726 22.518 14.0039 32.3304 14.0039C42.1429 14.0039 51.9553 16.7726 60.7741 21.8745C60.7741 42.251 49.9369 61.0719 32.3304 71.2446C14.7239 61.0719 3.88672 42.251 3.88672 21.8745Z" fill="black"></path></mask><g mask="url(#mask0_150_42)"><rect x="-34.6771" y="6.93555" width="132.93" height="23.1183" fill="#CA181C"></rect><rect x="-34.6771" y="54.3281" width="132.93" height="23.1183" fill="#CA181C"></rect><rect x="-34.6771" y="30.0527" width="132.93" height="24.2742" fill="#FFC400"></rect></g><path d="M32.3657 12.0234C42.7185 12.0234 53.2127 14.8148 62.7881 20.1502C62.6114 30.7857 59.7141 41.2091 54.3787 50.4312C49.0786 59.6534 41.4818 67.3561 32.3657 72.8329C23.2496 67.3561 15.6529 59.618 10.3528 50.4312C5.05273 41.2091 2.15536 30.7857 1.97869 20.1502C11.5188 14.8501 22.0129 12.0234 32.3657 12.0234V10.0801C21.2003 10.0801 10.0348 13.2248 0 19.0195C0 42.1631 12.3315 63.5401 32.3657 75.0942C52.4 63.5401 64.7315 42.1631 64.7315 19.0195C54.6967 13.2248 43.5312 10.0801 32.3657 10.0801V12.0234Z" fill="black"></path><path fill-rule="evenodd" clip-rule="evenodd" d="M32.3659 17.0829C32.3659 17.0829 30.9563 16.8983 30.0166 17.1333C30.0166 17.1333 30.7046 16.6299 31.3087 16.4956C31.3087 16.4956 27.7512 15.3545 23.1196 17.7709C23.1196 17.7709 15.5179 15.8411 12.984 14.0792C12.984 14.0792 19.7802 6.12502 9.09083 0C10.5172 4.81611 8.83911 6.46064 5.6004 9.17914C1.82471 12.3172 -0.558177 20.3552 7.46308 24.5169C7.46308 24.5169 3.5867 24.3826 1.28772 26.9165C1.28772 26.9165 4.50965 36.5488 15.9374 35.6761C15.7193 41.1467 23.8916 43.8988 23.4553 48.2115C19.8642 53.3296 20.6193 63.9351 32.131 64.6064C43.6427 63.8512 44.8677 53.3128 41.2765 48.2115C40.8235 43.8988 48.9958 41.1467 48.7944 35.6761C60.2222 36.5488 63.4441 26.9165 63.4441 26.9165C61.1451 24.3826 57.2687 24.5169 57.2687 24.5169C65.29 20.3552 62.9071 12.3339 59.1314 9.17914C55.8927 6.46064 54.2146 4.81611 55.641 0C44.9516 6.12502 51.7478 14.0792 51.7478 14.0792C49.2139 15.8244 41.6122 17.7709 41.6122 17.7709C36.9806 15.3545 33.4231 16.4956 33.4231 16.4956C34.0272 16.6466 34.7152 17.1333 34.7152 17.1333C33.7755 16.8983 32.3659 17.0829 32.3659 17.0829Z" fill="black"></path><path fill-rule="evenodd" clip-rule="evenodd" d="M22.2638 19.5186C22.2638 19.5186 21.2905 20.4919 21.5423 21.5995L15.5683 19.5354L19.5621 22.3043C19.5621 22.3043 18.119 23.093 17.4813 24.0495C17.4813 24.0495 18.0854 23.932 18.6392 23.9656C18.6392 23.9656 17.6491 24.4858 17.1121 25.2577C17.1121 25.2577 10.3326 23.1433 6.57372 18.1091C6.57372 18.1091 7.68126 21.2639 12.145 24.6368C6.54016 22.3043 2.05967 16.5652 7.01002 11.3128C9.07407 9.13128 11.8261 8.02375 11.5912 5.07031C16.1388 10.4066 7.12749 12.0679 12.9505 17.6056C12.9505 17.6056 12.2624 16.7498 12.1953 15.7094C12.1953 15.7094 13.4874 16.6323 14.6789 17.0519C15.8535 17.4714 19.9816 19.3005 22.2638 19.5186Z" fill="#FFE98A"></path><path fill-rule="evenodd" clip-rule="evenodd" d="M17.6323 24.684C17.4477 24.8518 17.2631 25.0364 17.1289 25.2545C17.1289 25.2545 10.3494 23.1402 6.59049 18.1059C6.59049 18.1059 7.69802 21.2607 12.1617 24.6337C8.31892 23.0898 2.66376 17.485 7.26172 14.1456C7.26172 14.1456 5.76822 16.9984 9.77885 19.8847C9.77885 19.8847 6.08706 16.5621 8.23501 13.2227C8.21823 13.2227 6.42268 18.559 17.6323 24.684Z" fill="#FEC200"></path><path fill-rule="evenodd" clip-rule="evenodd" d="M22.2637 19.5187C22.2637 19.5187 21.2904 20.4919 21.5421 21.5995L15.5681 19.5354L19.562 22.3043C19.562 22.3043 19.1928 22.5056 18.7397 22.8245C15.35 20.9115 13.051 18.4782 13.051 18.4782C13.4034 19.1662 14.0411 19.7368 14.0411 19.7368C5.4157 14.132 13.9236 9.75218 11.9602 6.53025C10.7352 10.2388 4.74447 11.1786 4.91228 16.9344C4.66057 15.1053 5.21433 13.1755 6.97633 11.3128C9.04037 9.13129 11.7924 8.02375 11.5575 5.07031C16.1051 10.4066 7.09379 12.0679 12.9168 17.6056C12.9168 17.6056 12.2287 16.7498 12.1616 15.7094C12.1616 15.7094 13.4537 16.6323 14.6452 17.0519C15.8534 17.4714 19.9815 19.3005 22.2637 19.5187Z" fill="#FAF4DC"></path><path fill-rule="evenodd" clip-rule="evenodd" d="M21.6597 32.957C23.1699 34.3498 24.9152 34.5344 25.8549 35.3735C26.61 36.0279 25.3011 36.6488 24.5795 36.481C23.321 36.1454 22.1463 34.1149 21.6597 32.957Z" fill="#F9FCBA"></path><path fill-rule="evenodd" clip-rule="evenodd" d="M27.5161 49.1016C27.5161 49.1016 28.0698 49.6218 28.0698 50.4105C25.1332 53.0283 26.4421 57.8276 29.5969 59.2372C29.5969 59.2372 28.9928 58.566 28.9089 57.878C28.9089 57.878 30.2346 59.3211 32.349 59.5225C34.4634 59.3211 35.7891 57.878 35.7891 57.878C35.7051 58.566 35.1178 59.2372 35.1178 59.2372C38.2726 57.8276 39.5983 53.0283 36.6449 50.4105C36.6449 49.6218 37.1986 49.1016 37.1986 49.1016C43.0887 52.0382 40.1856 61.3348 32.349 61.9725C24.5291 61.3348 21.626 52.0382 27.5161 49.1016Z" fill="#EAA416"></path><path fill-rule="evenodd" clip-rule="evenodd" d="M27.5162 49.1016C27.533 49.1183 28.07 49.6385 28.07 50.4105C25.1333 53.0283 26.4422 57.8276 29.597 59.2372C29.597 59.2372 28.9929 58.566 28.909 57.878C28.909 57.878 30.2347 59.3211 32.3491 59.5225C34.4635 59.3211 35.7892 57.878 35.7892 57.878C35.7053 58.566 35.1179 59.2372 35.1179 59.2372C38.2727 57.8276 39.5984 53.0283 36.645 50.4105C36.645 49.6385 37.182 49.1183 37.1988 49.1016C37.182 49.1183 36.8128 49.605 36.8799 50.3098C38.8097 51.6523 39.0279 54.2029 38.2895 56.2167C37.1652 59.3379 35.2018 59.7742 34.1279 59.9588C34.1279 59.9588 34.5138 59.6567 34.6648 59.2708C34.6648 59.2708 33.6748 60.093 32.3491 60.1098C31.0066 60.093 30.0333 59.2708 30.0333 59.2708C30.1844 59.6567 30.5703 59.9588 30.5703 59.9588C29.5131 59.7742 27.533 59.3379 26.4087 56.2167C25.6703 54.1862 25.9052 51.6355 27.8182 50.3098C27.9022 49.605 27.533 49.1183 27.5162 49.1016Z" fill="#FEF163"></path><path fill-rule="evenodd" clip-rule="evenodd" d="M32.3658 61.9725C24.5291 61.3348 21.626 52.0382 27.5161 49.1016C27.5161 49.1016 24.4284 51.367 25.2843 55.2601C25.2843 55.2601 25.2339 54.5218 25.3682 54.0519C25.3682 54.0519 25.2171 60.2105 32.349 61.0831C39.4809 60.2105 39.3299 54.0519 39.3299 54.0519C39.4809 54.5218 39.4138 55.2601 39.4138 55.2601C40.2696 51.367 37.1819 49.1016 37.1819 49.1016C43.1056 52.0382 40.2025 61.3348 32.3658 61.9725Z" fill="#DE9138"></path><path fill-rule="evenodd" clip-rule="evenodd" d="M16.7765 27.3483C16.7765 27.3483 15.4843 28.1706 15.283 29.6305C15.283 29.6305 12.0275 28.3384 8.67129 28.4055C8.67129 28.4055 9.67814 28.6405 10.5843 29.4459C10.5843 29.4459 7.8658 29.0264 6.45621 28.5062C6.45621 28.5062 8.23498 31.3422 11.071 32.5168C11.071 32.5168 6.30518 31.8456 4.4425 27.8182C8.53704 26.1569 12.5812 25.8884 16.7765 27.3483Z" fill="#C60B1E"></path><path fill-rule="evenodd" clip-rule="evenodd" d="M16.7765 27.3483C16.7765 27.3483 16.5247 27.5161 16.2227 27.8182C16.2227 27.8182 11.1045 25.9891 5.21443 28.1874C5.21443 28.1874 7.00998 31.51 11.071 32.5168C11.071 32.5168 6.30518 31.8456 4.4425 27.8182C8.53704 26.1569 12.5812 25.8884 16.7765 27.3483Z" fill="#FF8C7C"></path><path fill-rule="evenodd" clip-rule="evenodd" d="M32.3658 32.8223C32.3658 32.8223 36.0241 27.8384 39.246 26.9826C39.246 26.9826 36.4436 26.8148 34.6312 28.6271C34.6312 28.6271 35.3864 27.0665 35.9402 26.6302C35.9402 26.6302 33.5573 27.5531 32.3658 29.3151C31.1744 27.5531 28.7747 26.6302 28.7747 26.6302C29.3285 27.0665 30.0836 28.6271 30.0836 28.6271C28.2713 26.8148 25.4689 26.9826 25.4689 26.9826C28.7076 27.8384 32.3658 32.8223 32.3658 32.8223ZM35.8227 18.5586C39.8837 18.6425 43.3909 21.4952 38.5412 23.3244C38.5412 23.3244 41.7463 22.8377 43.6594 24.2473C43.6594 24.2473 42.9881 24.1298 42.2162 24.2641C42.2162 24.2641 44.6327 25.3884 45.6898 26.5966C45.6898 26.5966 43.4244 25.6569 41.1758 26.5799C41.1758 26.5799 48.7607 25.9757 47.0491 34.1312C45.9583 24.1634 36.259 39.8535 34.3795 33.158C34.3795 33.158 34.497 34.1145 33.96 34.5508C33.96 34.5508 33.3727 33.4936 32.3826 33.9467C31.3925 33.4936 30.8052 34.5508 30.8052 34.5508C30.2682 34.1145 30.3857 33.158 30.3857 33.158C28.5062 39.8367 18.7901 24.1634 17.7161 34.1312C16.0045 25.9757 23.5894 26.5799 23.5894 26.5799C21.324 25.6737 19.0754 26.5966 19.0754 26.5966C20.1326 25.3716 22.549 24.2641 22.549 24.2641C21.7771 24.1298 21.1059 24.2473 21.1059 24.2473C23.0189 22.8377 26.224 23.3244 26.224 23.3244C21.3744 21.512 24.8816 18.6593 28.9425 18.5586C28.3552 18.7935 27.5497 18.9613 27.1302 19.448C31.0066 19.599 32.3994 21.2939 32.3994 21.2939C32.3994 21.2939 33.7922 19.599 37.6686 19.448C37.2155 18.9613 36.41 18.7935 35.8227 18.5586Z" fill="#C60B1E"></path><path fill-rule="evenodd" clip-rule="evenodd" d="M41.1591 26.5648H41.1759C41.6122 26.5313 48.6769 26.2124 47.0324 34.1162C45.9416 24.1484 36.2423 39.8385 34.3628 33.1429C34.3628 33.1429 34.4803 34.0995 33.9433 34.5358C33.9433 34.5358 33.356 33.4786 32.3659 33.9316C31.3758 33.4786 30.7885 34.5358 30.7885 34.5358C30.2515 34.0995 30.369 33.1429 30.369 33.1429C28.4895 39.8217 18.7734 24.1484 17.6994 34.1162C16.0549 26.2124 23.1028 26.5481 23.5559 26.5648H23.5727C23.5727 26.5648 18.8741 26.6152 18.3371 30.4916C18.3371 30.4916 21.3576 28.8806 24.4453 31.6495C27.533 34.4183 29.446 34.6364 30.4529 32.1025C30.4529 32.1025 30.4864 33.3275 30.9899 33.4953C30.9899 33.4953 31.7282 33.0758 32.3659 33.4953C33.0036 33.0758 33.7419 33.4953 33.7419 33.4953C34.2453 33.3275 34.2789 32.1025 34.2789 32.1025C35.2858 34.6364 37.1988 34.4015 40.2865 31.6495C43.3741 28.8806 46.3947 30.4916 46.3947 30.4916C45.8745 26.6152 41.1591 26.5648 41.1591 26.5648Z" fill="#FF7C6C"></path><path fill-rule="evenodd" clip-rule="evenodd" d="M35.8229 18.5586C39.8839 18.6425 43.3911 21.4952 38.5414 23.3244C38.5414 23.3244 41.8304 20.9415 38.7428 19.5822C38.7428 19.5822 39.5482 20.1192 39.263 20.824C39.263 20.824 35.6383 20.1024 32.366 23.0055C29.0938 20.1024 25.4691 20.824 25.4691 20.824C25.1838 20.1192 25.9893 19.5822 25.9893 19.5822C22.9016 20.9415 26.1907 23.3244 26.1907 23.3244C21.341 21.512 24.8482 18.6593 28.9092 18.5586C28.3218 18.7935 27.5164 18.9613 27.0968 19.448C30.9732 19.599 32.366 21.2939 32.366 21.2939C32.366 21.2939 33.7588 19.599 37.6352 19.448C37.2157 18.9613 36.4102 18.7935 35.8229 18.5586Z" fill="#FF7C6C"></path><path fill-rule="evenodd" clip-rule="evenodd" d="M42.4679 19.5186C42.4679 19.5186 43.4412 20.4919 43.1895 21.5995L49.1635 19.5354L45.1696 22.3043C45.1696 22.3043 46.6128 23.093 47.2504 24.0495C47.2504 24.0495 46.6463 23.932 46.0926 23.9656C46.0926 23.9656 47.0826 24.4858 47.6196 25.2577C47.6196 25.2577 54.3991 23.1433 58.158 18.1091C58.158 18.1091 57.0505 21.2639 52.5868 24.6368C58.2084 22.3211 62.6889 16.5652 57.7385 11.3128C55.6744 9.13128 52.9224 8.02375 53.1573 5.07031C48.6097 10.4066 57.621 12.0679 51.7981 17.6056C51.7981 17.6056 52.4861 16.7498 52.5532 15.7094C52.5532 15.7094 51.2611 16.6323 50.0696 17.0519C48.8614 17.4714 44.7333 19.3005 42.4679 19.5186Z" fill="#FFE98A"></path><path fill-rule="evenodd" clip-rule="evenodd" d="M47.0828 24.684C47.2674 24.8518 47.4519 25.0364 47.5862 25.2545C47.5862 25.2545 54.3657 23.1402 58.1246 18.1059C58.1246 18.1059 57.017 21.2607 52.5533 24.6337C56.3962 23.0898 62.0345 17.485 57.4534 14.1456C57.4534 14.1456 58.9468 16.9984 54.9362 19.8847C54.9362 19.8847 58.628 16.5621 56.4801 13.2227C56.4968 13.2227 58.2924 18.559 47.0828 24.684Z" fill="#FEC200"></path><path fill-rule="evenodd" clip-rule="evenodd" d="M42.4679 19.5187C42.4679 19.5187 43.4412 20.4919 43.1895 21.5995L49.1635 19.5354L45.1696 22.3043C45.1696 22.3043 45.5388 22.5056 45.9919 22.8245C49.3816 20.9115 51.6806 18.4782 51.6806 18.4782C51.3282 19.1662 50.6905 19.7368 50.6905 19.7368C59.3159 14.132 50.808 9.75218 52.7714 6.53025C53.9964 10.2388 59.9871 11.1786 59.8193 16.9344C60.071 15.1053 59.5173 13.1755 57.7553 11.3128C55.6912 9.13129 52.9392 8.02375 53.1741 5.07031C48.6265 10.4066 57.6378 12.0679 51.8148 17.6056C51.8148 17.6056 52.5029 16.7498 52.57 15.7094C52.57 15.7094 51.2779 16.6323 50.0864 17.0519C48.8614 17.4714 44.7333 19.3005 42.4679 19.5187Z" fill="#FAF4DC"></path><path fill-rule="evenodd" clip-rule="evenodd" d="M43.0721 32.957C41.5618 34.3498 39.8166 34.5344 38.8769 35.3735C38.1218 36.0279 39.4307 36.6488 40.1522 36.481C41.394 36.1454 42.5855 34.1149 43.0721 32.957Z" fill="#F9FCBA"></path><path fill-rule="evenodd" clip-rule="evenodd" d="M32.3657 36.802C32.3657 36.802 33.8592 37.339 35.8393 39.4366C35.8393 39.4366 35.7051 38.5472 34.6815 37.4061C34.6815 37.4061 36.4938 38.262 38.0041 40.1918C38.0041 40.1918 36.5945 37.4565 35.4869 36.2986C35.4869 36.2986 37.1315 36.802 39.615 38.799C39.615 38.799 39.4808 38.2452 39.1619 37.9767C43.5418 38.3291 45.0856 29.8715 45.8743 34.2681C46.1428 35.7616 45.7904 38.4969 43.4746 40.2086C43.4746 40.2086 44.0116 39.252 43.8606 38.0606C43.3068 40.175 41.8133 41.1315 40.84 42.8767C39.9674 44.4541 40.1185 46.1322 39.1787 47.4747C39.1787 47.4747 38.9102 45.6959 37.4167 44.7897C37.4167 44.7897 38.0041 45.4274 38.088 46.3336C38.088 46.3336 36.4434 45.4106 34.6647 46.2329C34.6647 46.2329 36.9637 46.2832 38.1215 48.0452L37.1315 48.0284L37.3328 47.5586C37.3328 47.5586 33.8928 48.8004 35.6044 52.0559C35.6044 52.0559 35.6715 51.4685 35.94 51.1497C35.94 51.1497 36.628 51.9216 36.9637 52.9117C38.0712 56.2175 35.6883 52.7103 32.3321 53.0795C28.976 52.7103 26.5931 56.2343 27.7006 52.9117C28.0362 51.9216 28.7242 51.1497 28.7242 51.1497C28.9927 51.4853 29.0599 52.0559 29.0599 52.0559C30.7715 48.8004 27.3314 47.5586 27.3314 47.5586L27.5328 48.0284L26.5427 48.0452C27.7006 46.2832 29.9996 46.2329 29.9996 46.2329C28.2208 45.4106 26.5763 46.3336 26.5763 46.3336C26.6602 45.4274 27.2475 44.7897 27.2475 44.7897C25.754 45.6959 25.4855 47.4747 25.4855 47.4747C24.5458 46.149 24.6968 44.4709 23.8242 42.8767C22.8677 41.1315 21.3742 40.175 20.8037 38.0606C20.6526 39.252 21.1896 40.2086 21.1896 40.2086C18.8571 38.5137 18.5215 35.7616 18.79 34.2681C19.5954 29.8715 21.1393 38.3291 25.5023 37.9767C25.1835 38.2452 25.0492 38.799 25.0492 38.799C27.5328 36.802 29.1773 36.2986 29.1773 36.2986C28.0698 37.4565 26.6602 40.1918 26.6602 40.1918C28.1873 38.262 29.9828 37.4061 29.9828 37.4061C28.9592 38.5472 28.8249 39.4366 28.8249 39.4366C30.8722 37.339 32.3657 36.802 32.3657 36.802Z" fill="#C60B1E"></path><path fill-rule="evenodd" clip-rule="evenodd" d="M25.5193 47.4521C25.5193 47.4521 25.7878 45.6733 27.2813 44.7671C27.2813 44.7671 26.694 45.4048 26.6101 46.311C26.6101 46.311 28.2546 45.388 30.0334 46.2103C30.0334 46.2103 27.7344 46.2606 26.5765 48.0226L27.5666 48.0058L27.3652 47.536C27.3652 47.536 30.8053 48.7778 29.0937 52.0333C31.6611 48.8785 27.8686 47.3178 27.8686 47.3178C29.5803 46.3949 31.3087 46.6802 31.3087 46.6802C29.8152 45.1531 27.6673 45.4384 27.6673 45.4384C27.8519 44.5322 28.6574 43.8945 28.6574 43.8945C25.3851 44.5154 25.5193 47.4521 25.5193 47.4521ZM39.1957 47.4521C39.1957 47.4521 38.9272 45.6733 37.4337 44.7671C37.4337 44.7671 38.0211 45.4048 38.105 46.311C38.105 46.311 36.4605 45.388 34.6817 46.2103C34.6817 46.2103 36.9807 46.2606 38.1385 48.0226L37.1485 48.0058L37.3498 47.536C37.3498 47.536 33.9098 48.7778 35.6214 52.0333C33.0539 48.8785 36.8464 47.3178 36.8464 47.3178C35.1348 46.3949 33.4063 46.6802 33.4063 46.6802C34.8998 45.1531 37.0478 45.4384 37.0478 45.4384C36.8632 44.5322 36.0577 43.8945 36.0577 43.8945C39.3468 44.5154 39.1957 47.4521 39.1957 47.4521Z" fill="#FF7C6C"></path><path fill-rule="evenodd" clip-rule="evenodd" d="M32.3659 36.802C32.3659 36.802 33.8594 37.339 35.8396 39.4366C35.8396 39.4366 35.7053 38.5472 34.6817 37.4061C34.6817 37.4061 36.494 38.262 38.0043 40.1918C38.0043 40.1918 36.5947 37.4565 35.4872 36.2986C35.4872 36.2986 37.1317 36.802 39.6153 38.799C39.6153 38.799 39.481 38.2452 39.1622 37.9767C43.542 38.3291 45.0858 29.8715 45.8745 34.2681C46.143 35.7616 45.7906 38.4969 43.4749 40.2086C45.841 37.1209 44.5656 35.1911 44.5656 35.1911C44.1293 38.262 40.404 38.8661 40.404 38.8661C40.555 39.3695 40.0851 40.4267 40.0851 40.4267C39.7327 39.7387 38.5581 39.3863 38.5581 39.3863C39.1622 40.4435 38.3567 42.1551 38.3567 42.1551C38.0043 41.0979 36.3934 39.6044 36.3934 39.6044C36.6618 40.3931 36.5779 41.4503 36.5779 41.4503C34.9502 39.2353 32.3492 38.2452 32.3492 38.2452C32.3492 38.2452 29.7649 39.2353 28.1204 41.4503C28.1204 41.4503 28.0365 40.3931 28.305 39.6044C28.305 39.6044 26.694 41.0979 26.3416 42.1551C26.3416 42.1551 25.5361 40.4435 26.1402 39.3863C26.1402 39.3863 24.9488 39.7387 24.6132 40.4267C24.6132 40.4267 24.1433 39.3527 24.2943 38.8661C24.2943 38.8661 20.569 38.262 20.1327 35.1911C20.1327 35.1911 18.8741 37.1209 21.2234 40.2086C18.8909 38.5137 18.5553 35.7616 18.8238 34.2681C19.6293 29.8715 21.1731 38.3291 25.5361 37.9767C25.2173 38.2452 25.083 38.799 25.083 38.799C27.5666 36.802 29.2111 36.2986 29.2111 36.2986C28.1036 37.4565 26.694 40.1918 26.694 40.1918C28.2211 38.262 30.0166 37.4061 30.0166 37.4061C28.993 38.5472 28.8587 39.4366 28.8587 39.4366C30.8724 37.339 32.3659 36.802 32.3659 36.802Z" fill="#A70C00"></path><path fill-rule="evenodd" clip-rule="evenodd" d="M36.2925 55.8306C36.2925 55.8306 35.0004 57.2905 32.349 57.5087C29.6976 57.2905 28.4055 55.8306 28.4055 55.8306C30.0165 53.8169 34.7151 53.8169 36.2925 55.8306Z" fill="#C60B1E"></path><path fill-rule="evenodd" clip-rule="evenodd" d="M36.2925 55.8309C36.2925 55.8309 35.0004 57.2909 32.349 57.509C29.6976 57.2909 28.4055 55.8309 28.4055 55.8309C28.4055 55.8309 29.6473 55.3107 31.1744 55.596C31.1744 55.596 30.285 55.3275 29.8822 55.3275C29.8822 55.3275 31.1576 54.9583 32.3322 55.1597C33.5069 54.9583 34.7823 55.3275 34.7823 55.3275C34.3795 55.3275 33.4901 55.596 33.4901 55.596C35.0507 55.3107 36.2925 55.8309 36.2925 55.8309Z" fill="#A70C00"></path><path fill-rule="evenodd" clip-rule="evenodd" d="M47.9386 27.3483C47.9386 27.3483 49.2307 28.1706 49.4321 29.6305C49.4321 29.6305 52.6876 28.3384 56.0438 28.4055C56.0438 28.4055 55.0369 28.6405 54.1307 29.4459C54.1307 29.4459 56.8492 29.0264 58.2588 28.5062C58.2588 28.5062 56.4801 31.3422 53.6441 32.5168C53.6441 32.5168 58.4099 31.8456 60.2725 27.8182C56.1948 26.1569 52.1506 25.8884 47.9386 27.3483Z" fill="#C60B1E"></path><path fill-rule="evenodd" clip-rule="evenodd" d="M47.9386 27.3483C47.9386 27.3483 48.1903 27.5161 48.4924 27.8182C48.4924 27.8182 53.6105 25.9891 59.5006 28.1874C59.5006 28.1874 57.7051 31.51 53.6441 32.5168C53.6441 32.5168 58.4099 31.8456 60.2725 27.8182C56.1948 26.1569 52.1506 25.8884 47.9386 27.3483Z" fill="#FF8C7C"></path><path fill-rule="evenodd" clip-rule="evenodd" d="M25.4857 26.9814C25.4857 26.9814 28.2881 26.8136 30.1005 28.6259C30.1005 28.6259 29.3453 27.0653 28.7916 26.629C28.7916 26.629 31.1744 27.5519 32.3827 29.3139C33.5741 27.5519 35.957 26.629 35.957 26.629C35.4032 27.0653 34.6481 28.6259 34.6481 28.6259C36.4604 26.8136 39.2628 26.9814 39.2628 26.9814C39.2628 26.9814 36.9806 26.7129 35.806 27.4177C35.806 27.4177 36.3765 26.4276 37.0645 25.8906C37.0645 25.8906 33.8929 26.3269 32.3659 28.4078C30.8388 26.3269 27.6672 25.8906 27.6672 25.8906C28.3552 26.4276 28.9258 27.4177 28.9258 27.4177C27.7679 26.7129 25.4857 26.9814 25.4857 26.9814Z" fill="#A70C00"></path><path d="M8.01794 52.1987C9.17621 51.4014 10.6312 50.4975 11.129 50.2144C11.8743 49.7905 13.2773 49.5594 14.277 49.796C15.3218 50.0435 16.5744 50.3867 17.4127 50.6356C18.3207 50.9036 19.1248 51.9211 19.2738 53.1463C19.4065 54.2362 19.5309 55.6119 19.561 56.2478C19.6102 57.2776 19.5008 58.1008 18.4684 59.27C17.7956 60.0317 16.547 61.179 15.9932 61.6536C15.1918 62.3414 13.7737 62.6122 12.7645 62.1595C11.7553 61.7069 10.0049 60.7428 9.42509 60.375C8.44323 59.75 8.10135 58.909 7.83059 58.0516C7.55982 57.1941 7.16598 55.5436 7.00735 54.9241C6.78171 54.0434 7.07846 52.8455 8.01794 52.1987Z" fill="#E0E2E0"></path><path d="M8.69083 52.0198C9.55509 51.4619 10.7571 50.666 11.218 50.439C12.1615 49.974 13.1639 49.7648 14.4166 50.0738C15.5803 50.361 16.4049 50.562 16.9929 50.7932C17.581 51.0243 17.8927 51.7148 17.0025 52.4164C16.1123 53.1179 14.9786 54.0587 14.5082 54.4034C14.0378 54.748 12.7619 55.176 11.6022 54.7781C10.4426 54.3801 9.1968 53.8413 8.57869 53.5774C7.96058 53.3135 7.88537 52.5395 8.69083 52.0198Z" fill="#F5F4F0"></path><path d="M7.46816 55.4637C7.22885 54.6022 7.64047 53.8364 8.77003 54.2617C9.89958 54.6856 10.8883 55.0917 11.5967 55.3844C12.4404 55.7331 13.3033 56.9488 13.4838 58.0674C13.6643 59.186 13.786 60.0777 13.8954 60.6876C14.0048 61.2975 13.4688 62.1959 12.3406 61.5901C11.2124 60.9829 9.97343 60.332 9.51531 60.0284C8.82746 59.5717 8.49106 58.9358 8.24901 58.1932C8.00696 57.448 7.59534 55.9205 7.46816 55.4637Z" fill="#CACCCB"></path><path d="M15.1468 54.6673C16.0343 53.9303 17.0736 53.0715 17.4455 52.7966C17.8175 52.5217 18.7036 52.1033 18.8335 53.0482C18.9635 53.9932 19.2164 55.8543 19.2383 56.4656C19.2588 57.0782 19.2 57.8987 18.3795 58.8984C17.7737 59.6368 16.4281 60.8129 15.8866 61.2997C15.345 61.7879 14.7639 61.8098 14.5423 60.8088C14.3208 59.8078 14.0569 57.9917 13.9803 57.4502C13.9037 56.91 14.0582 55.5726 15.1468 54.6673Z" fill="#C0C2C2"></path><path d="M12.6577 51.1406C13.1384 51.0492 13.4957 50.8043 13.4557 50.5936C13.4156 50.3829 12.9934 50.2862 12.5126 50.3775C12.0318 50.4689 11.6746 50.7138 11.7146 50.9245C11.7546 51.1352 12.1769 51.232 12.6577 51.1406Z" fill="#121212"></path><path d="M9.72272 52.9668C10.2035 52.8754 10.5608 52.6305 10.5208 52.4198C10.4807 52.2091 10.0585 52.1123 9.5777 52.2037C9.09691 52.2951 8.73962 52.54 8.77966 52.7507C8.81971 52.9614 9.24193 53.0581 9.72272 52.9668Z" fill="#121212"></path><path d="M15.8819 52.0254C16.3627 51.934 16.72 51.6891 16.6799 51.4784C16.6399 51.2677 16.2177 51.1709 15.7369 51.2623C15.2561 51.3537 14.8988 51.5986 14.9388 51.8093C14.9789 52.02 15.4011 52.1167 15.8819 52.0254Z" fill="#121212"></path><path d="M13.114 54.1738C13.5947 54.0824 13.952 53.8375 13.912 53.6268C13.8719 53.4161 13.4497 53.3194 12.9689 53.4107C12.4881 53.5021 12.1309 53.747 12.1709 53.9577C12.2109 54.1684 12.6332 54.2652 13.114 54.1738Z" fill="#121212"></path><path d="M10.8418 58.6112C11.0708 58.4619 11.0549 58.0316 10.8062 57.6501C10.5575 57.2686 10.1702 57.0804 9.94118 57.2297C9.71215 57.379 9.7281 57.8093 9.97681 58.1908C10.2255 58.5723 10.6128 58.7605 10.8418 58.6112Z" fill="#121212"></path><path d="M15.6071 56.576C15.7811 56.1551 15.7179 55.7295 15.4659 55.6253C15.2139 55.5212 14.8686 55.7779 14.6946 56.1988C14.5207 56.6197 14.5839 57.0454 14.8359 57.1495C15.0879 57.2537 15.4332 56.9969 15.6071 56.576Z" fill="#121212"></path><path d="M17.1375 57.0194C17.3115 56.5985 17.2483 56.1728 16.9963 56.0687C16.7443 55.9645 16.399 56.2213 16.225 56.6422C16.0511 57.0631 16.1143 57.4887 16.3663 57.5929C16.6183 57.697 16.9636 57.4403 17.1375 57.0194Z" fill="#121212"></path><path d="M18.6679 57.4647C18.8419 57.0438 18.7787 56.6181 18.5267 56.514C18.2747 56.4098 17.9294 56.6666 17.7554 57.0875C17.5815 57.5084 17.6447 57.934 17.8967 58.0382C18.1487 58.1423 18.494 57.8856 18.6679 57.4647Z" fill="#121212"></path><path d="M57.5747 57.6663C56.7364 58.7959 55.6534 60.1223 55.2746 60.5517C54.707 61.1945 53.4544 61.8673 52.4315 61.9671C51.3635 62.0724 50.0657 62.1517 49.1919 62.1886C48.2456 62.2283 47.1557 61.5268 46.6183 60.415C46.1397 59.4263 45.5762 58.1654 45.341 57.5733C44.9609 56.6147 44.7981 55.801 45.3957 54.3611C45.7855 53.4229 46.5964 51.9324 46.9656 51.3047C47.5003 50.3939 48.7557 49.6787 49.8565 49.7813C50.9574 49.8825 52.9266 50.2271 53.5939 50.3885C54.7262 50.662 55.3211 51.3471 55.8557 52.0691C56.3904 52.7925 57.2971 54.227 57.6472 54.7617C58.1477 55.5221 58.2543 56.7501 57.5747 57.6663Z" fill="#E0E2E0"></path><path d="M56.9976 58.0523C56.3604 58.8605 55.4811 60.0024 55.1187 60.3675C54.3761 61.1128 53.4955 61.6366 52.21 61.7501C51.0162 61.8554 50.1711 61.9319 49.5393 61.9032C48.9075 61.8745 48.3892 61.3234 49.0046 60.3716C49.62 59.4198 50.3871 58.1617 50.7208 57.6831C51.0545 57.2045 52.1239 56.3867 53.3491 56.3867C54.5744 56.3881 55.9283 56.4934 56.5983 56.544C57.2698 56.5932 57.5911 57.3002 56.9976 58.0523Z" fill="#B7BABA"></path><path d="M57.0373 54.3975C57.5433 55.1359 57.4011 55.992 56.1949 55.9564C54.9888 55.9209 53.9221 55.8566 53.1563 55.8088C52.2456 55.7527 51.0353 54.8816 50.502 53.8819C49.9687 52.8823 49.5653 52.0782 49.2644 51.5367C48.9636 50.9951 49.1796 49.9709 50.4446 50.1801C51.7081 50.388 53.0921 50.6027 53.6226 50.7422C54.4213 50.9514 54.9464 51.4437 55.4154 52.0686C55.8859 52.6936 56.7693 54.0064 57.0373 54.3975Z" fill="#F5F4F0"></path><path d="M50.0302 57.6402C49.4299 58.6248 48.7242 59.7735 48.4603 60.155C48.1978 60.5365 47.4949 61.2176 47.0655 60.367C46.6374 59.515 45.7937 57.8371 45.5763 57.2641C45.3588 56.6911 45.1482 55.8952 45.6009 54.685C45.9345 53.7907 46.8275 52.2413 47.1817 51.6054C47.5359 50.9681 48.0788 50.7589 48.6121 51.6355C49.1454 52.512 49.9837 54.1435 50.2312 54.6303C50.4815 55.1158 50.7673 56.4313 50.0302 57.6402Z" fill="#CACCCB"></path><path d="M53.8479 61.0528C54.2732 60.8106 54.532 60.4632 54.4258 60.2768C54.3196 60.0904 53.8888 60.1356 53.4635 60.3779C53.0382 60.6201 52.7795 60.9675 52.8857 61.1539C52.9918 61.3403 53.4227 61.295 53.8479 61.0528Z" fill="#121212"></path><path d="M56.133 57.9571C56.5583 57.7149 56.817 57.3675 56.7108 57.1811C56.6047 56.9947 56.1739 57.0399 55.7486 57.2822C55.3233 57.5244 55.0646 57.8718 55.1707 58.0582C55.2769 58.2446 55.7077 58.1993 56.133 57.9571Z" fill="#121212"></path><path d="M50.4944 61.2306C50.9197 60.9884 51.1784 60.6409 51.0723 60.4545C50.9661 60.2681 50.5353 60.3134 50.11 60.5556C49.6847 60.7978 49.426 61.1452 49.5322 61.3316C49.6383 61.518 50.0691 61.4728 50.4944 61.2306Z" fill="#121212"></path><path d="M52.5499 57.9454C52.9751 57.7032 53.2339 57.3558 53.1277 57.1694C53.0216 56.983 52.5907 57.0282 52.1654 57.2704C51.7402 57.5126 51.4814 57.8601 51.5876 58.0465C51.6937 58.2329 52.1246 58.1876 52.5499 57.9454Z" fill="#121212"></path><path d="M55.0457 59.5216C55.471 59.2794 55.7297 58.9319 55.6236 58.7455C55.5174 58.5592 55.0866 58.6044 54.6613 58.8466C54.236 59.0888 53.9773 59.4363 54.0834 59.6227C54.1896 59.809 54.6204 59.7638 55.0457 59.5216Z" fill="#121212"></path><path d="M51.4767 59.6114C51.902 59.3692 52.1607 59.0218 52.0546 58.8354C51.9484 58.649 51.5176 58.6942 51.0923 58.9364C50.667 59.1787 50.4083 59.5261 50.5145 59.7125C50.6206 59.8989 51.0514 59.8536 51.4767 59.6114Z" fill="#121212"></path><path d="M51.9257 52.2347C52.094 52.0193 51.9395 51.6173 51.5807 51.3369C51.2218 51.0565 50.7944 51.0038 50.6261 51.2193C50.4577 51.4347 50.6122 51.8367 50.9711 52.1171C51.3299 52.3975 51.7573 52.4501 51.9257 52.2347Z" fill="#121212"></path><path d="M55.8771 54.7835C56.0454 54.5681 55.8909 54.1661 55.5321 53.8857C55.1732 53.6053 54.7458 53.5527 54.5775 53.7681C54.4092 53.9836 54.5636 54.3855 54.9225 54.6659C55.2814 54.9463 55.7087 54.999 55.8771 54.7835Z" fill="#121212"></path><path d="M49.9617 56.041C49.99 55.5865 49.7923 55.2043 49.5202 55.1873C49.2481 55.1704 49.0045 55.5251 48.9763 55.9797C48.948 56.4342 49.1457 56.8165 49.4178 56.8334C49.6899 56.8503 49.9334 56.4956 49.9617 56.041Z" fill="#121212"></path><path d="M48.3703 56.1152C48.3986 55.6607 48.2009 55.2785 47.9288 55.2615C47.6566 55.2446 47.4131 55.5994 47.3848 56.0539C47.3565 56.5085 47.5542 56.8907 47.8263 56.9076C48.0985 56.9245 48.342 56.5698 48.3703 56.1152Z" fill="#121212"></path><path d="M48.3359 58.957C48.3642 58.5025 48.1665 58.1203 47.8944 58.1033C47.6222 58.0864 47.3787 58.4412 47.3504 58.8957C47.3221 59.3503 47.5198 59.7325 47.7919 59.7494C48.0641 59.7663 48.3076 59.4116 48.3359 58.957Z" fill="#121212"></path><path d="M48.3093 53.2813C48.3375 52.8267 48.1399 52.4445 47.8677 52.4276C47.5956 52.4106 47.3521 52.7654 47.3238 53.2199C47.2955 53.6745 47.4932 54.0567 47.7653 54.0736C48.0374 54.0906 48.281 53.7358 48.3093 53.2813Z" fill="#121212"></path><path d="M46.779 56.1953C46.8073 55.7408 46.6096 55.3586 46.3375 55.3416C46.0653 55.3247 45.8218 55.6794 45.7935 56.134C45.7652 56.5885 45.9629 56.9708 46.235 56.9877C46.5072 57.0046 46.7507 56.6499 46.779 56.1953Z" fill="#121212"></path><path d="M87.0183 42C85.5007 42 84.0277 41.8303 82.5993 41.4909C81.171 41.1288 79.8765 40.4952 78.716 39.5901C77.5777 38.6849 76.6739 37.4291 76.0043 35.8225C75.3348 34.2158 75 32.1567 75 29.6449C75 27.3142 75.3348 25.3568 76.0043 23.7728C76.6739 22.1889 77.5666 20.9217 78.6825 19.9713C79.7984 19.0209 81.0147 18.342 82.3315 17.9347C83.6706 17.5048 85.0097 17.2898 86.3488 17.2898C87.487 17.2898 88.5918 17.3803 89.663 17.5614C90.7566 17.7424 91.5489 17.946 92.0399 18.1723L95.7559 21.2611L92.7429 26.1828L87.0183 23.1958C85.4337 23.1958 84.0946 23.7276 83.0011 24.7911C81.9075 25.832 81.3607 27.45 81.3607 29.6449C81.3607 31.2063 81.6285 32.4735 82.1641 33.4465C82.7221 34.4195 83.4809 35.1323 84.4406 35.5849C85.4003 36.0374 86.4938 36.2637 87.7213 36.2637C89.0158 36.2637 90.1205 36.1619 91.0356 35.9582C91.9506 35.7319 92.7541 35.4717 93.4459 35.1775C94.1378 34.8608 94.7962 34.5553 95.4211 34.2611V39.9634C94.64 40.4613 93.6022 40.9252 92.3077 41.3551C91.0133 41.785 89.2501 42 87.0183 42Z" fill="white"></path><path d="M103.266 42C102.306 42 101.414 41.8642 100.588 41.5927C99.7844 41.2985 99.1372 40.8007 98.6462 40.0992C98.1552 39.3977 97.9097 38.4247 97.9097 37.1802C97.9097 36.0487 98.1886 35.1097 98.7466 34.3629C99.3045 33.6162 100.063 33.0618 101.023 32.6997C101.983 32.3377 103.065 32.1567 104.27 32.1567C105.431 32.1567 106.301 32.2924 106.882 32.564C107.462 32.8129 107.964 33.0731 108.388 33.3446L108.622 33.141C108.622 32.4621 108.567 31.8964 108.455 31.4439C108.343 30.9913 108.087 30.6519 107.685 30.4256C107.283 30.1767 106.658 30.0522 105.81 30.0522C104.985 30.0522 104.103 30.1314 103.166 30.2898C102.251 30.4256 101.402 30.6066 100.621 30.8329C99.8625 31.0366 99.2934 31.2402 98.914 31.4439V26.3525C99.6058 26.1036 100.588 25.8773 101.86 25.6736C103.154 25.4473 104.739 25.3342 106.614 25.3342C108.622 25.3342 110.207 25.5944 111.368 26.1149C112.55 26.6127 113.398 27.3481 113.912 28.3211C114.425 29.2715 114.682 30.4143 114.682 31.7493V36.2637L115.351 39.6919L114.682 41.6945H108.957V40.0313L108.622 39.8616C108.444 40.0426 108.131 40.3029 107.685 40.6423C107.239 40.9817 106.647 41.2985 105.911 41.5927C105.174 41.8642 104.293 42 103.266 42ZM106.112 37.5535C106.714 37.5535 107.227 37.497 107.652 37.3838C108.098 37.2707 108.422 37.1688 108.622 37.0783V36.4334C108.622 36.1393 108.41 35.8564 107.986 35.5849C107.585 35.3133 106.949 35.1775 106.078 35.1775C104.873 35.1775 104.27 35.6075 104.27 36.4674C104.27 36.8294 104.404 37.101 104.672 37.282C104.94 37.463 105.42 37.5535 106.112 37.5535Z" fill="white"></path><path d="M125.221 42C123.592 42 122.152 41.8303 120.902 41.4909C119.653 41.1514 118.682 40.8007 117.99 40.4386V35.7206C118.905 36.1279 119.842 36.4447 120.802 36.671C121.784 36.8973 122.666 37.0557 123.447 37.1462C124.228 37.2141 124.786 37.248 125.121 37.248C125.5 37.248 125.768 37.1915 125.924 37.0783C126.08 36.9426 126.158 36.7842 126.158 36.6031C126.158 36.3542 125.958 36.1506 125.556 35.9922C125.154 35.8111 124.395 35.5849 123.279 35.3133C122.364 35.087 121.472 34.8042 120.601 34.4648C119.753 34.1027 119.05 33.6049 118.492 32.9713C117.956 32.3377 117.689 31.4891 117.689 30.4256C117.689 29.1131 117.99 28.0836 118.593 27.3368C119.195 26.5901 120.054 26.0696 121.17 25.7755C122.286 25.4587 123.592 25.3003 125.087 25.3003C125.935 25.3003 126.728 25.3455 127.464 25.436C128.201 25.5265 128.725 25.5944 129.037 25.6397L132.151 27.6762L130.644 31.3081L124.786 30.0183C124.072 30.0183 123.715 30.2559 123.715 30.7311C123.715 31.2289 124.228 31.6023 125.255 31.8512C126.058 32.0322 126.884 32.2359 127.732 32.4621C128.58 32.6658 129.35 32.9373 130.042 33.2768C130.756 33.6162 131.325 34.0688 131.749 34.6345C132.195 35.2002 132.419 35.9469 132.419 36.8747C132.419 38.5944 131.805 39.8842 130.577 40.7441C129.372 41.5814 127.587 42 125.221 42Z" fill="white"></path><path d="M138.445 24.6554L134.193 20.3107L138.445 16L142.696 20.3107L138.445 24.6554ZM135.432 41.6606V30.4256L134.729 27.7102L135.398 25.6397H141.458V41.6606H135.432Z" fill="white"></path><path d="M145.207 41.6606V31.4439L144.537 27.7102L145.575 25.6397H150.563V27.0992L150.864 27.3029C151.11 27.0766 151.445 26.8164 151.869 26.5222C152.315 26.2054 152.851 25.9225 153.476 25.6736C154.1 25.4247 154.803 25.3003 155.585 25.3003C157.593 25.3003 159.1 25.8773 160.104 27.0313C161.108 28.1854 161.611 29.8033 161.611 31.8851V36.1958L162.314 39.5901L161.611 41.6606H155.585V32.7676C155.585 31.9077 155.395 31.2515 155.016 30.799C154.658 30.3238 154.089 30.0862 153.308 30.0862L151.233 30.7311V41.6606H145.207Z" fill="white"></path><path d="M172.94 42C170.217 42 168.108 41.3438 166.613 40.0313C165.117 38.7189 164.37 36.5918 164.37 33.6501C164.37 30.6858 165.117 28.5587 166.613 27.2689C168.108 25.9565 170.217 25.3003 172.94 25.3003C175.73 25.3003 177.839 25.9565 179.267 27.2689C180.718 28.5587 181.443 30.6858 181.443 33.6501C181.443 36.5918 180.718 38.7189 179.267 40.0313C177.839 41.3438 175.73 42 172.94 42ZM172.94 37.5875C173.855 37.5875 174.491 37.248 174.848 36.5692C175.205 35.8677 175.384 34.8947 175.384 33.6501C175.384 32.3829 175.205 31.4099 174.848 30.7311C174.491 30.0522 173.855 29.7128 172.94 29.7128C172.003 29.7128 171.344 30.0522 170.965 30.7311C170.608 31.4099 170.429 32.3829 170.429 33.6501C170.429 34.8947 170.608 35.8677 170.965 36.5692C171.344 37.248 172.003 37.5875 172.94 37.5875Z" fill="white"></path><path d="M190.802 42C189.173 42 187.734 41.8303 186.484 41.4909C185.234 41.1514 184.263 40.8007 183.571 40.4386V35.7206C184.486 36.1279 185.424 36.4447 186.383 36.671C187.365 36.8973 188.247 37.0557 189.028 37.1462C189.809 37.2141 190.367 37.248 190.702 37.248C191.081 37.248 191.349 37.1915 191.505 37.0783C191.662 36.9426 191.74 36.7842 191.74 36.6031C191.74 36.3542 191.539 36.1506 191.137 35.9922C190.735 35.8111 189.977 35.5849 188.861 35.3133C187.946 35.087 187.053 34.8042 186.183 34.4648C185.334 34.1027 184.631 33.6049 184.073 32.9713C183.538 32.3377 183.27 31.4891 183.27 30.4256C183.27 29.1131 183.571 28.0836 184.174 27.3368C184.777 26.5901 185.636 26.0696 186.752 25.7755C187.868 25.4587 189.173 25.3003 190.668 25.3003C191.517 25.3003 192.309 25.3455 193.045 25.436C193.782 25.5265 194.306 25.5944 194.619 25.6397L197.732 27.6762L196.226 31.3081L190.367 30.0183C189.653 30.0183 189.296 30.2559 189.296 30.7311C189.296 31.2289 189.809 31.6023 190.836 31.8512C191.639 32.0322 192.465 32.2359 193.313 32.4621C194.161 32.6658 194.931 32.9373 195.623 33.2768C196.337 33.6162 196.906 34.0688 197.33 34.6345C197.777 35.2002 198 35.9469 198 36.8747C198 38.5944 197.386 39.8842 196.159 40.7441C194.954 41.5814 193.168 42 190.802 42Z" fill="white"></path><path d="M79.0808 60C78.604 60 78.1043 59.9811 77.5817 59.9432C77.0682 59.9148 76.6189 59.8674 76.2338 59.8011V58.8352C77.2057 58.9394 78.0447 58.9915 78.7507 58.9915C79.1908 58.9915 79.5347 58.9678 79.7822 58.9205C80.039 58.8731 80.2498 58.7879 80.4149 58.6648C80.5799 58.5511 80.6854 58.3807 80.7312 58.1534C80.7771 57.9167 80.8 57.5994 80.8 57.2017C80.8 56.6998 80.7771 56.3494 80.7312 56.1506C80.6854 55.9517 80.5799 55.8097 80.4149 55.7244C80.259 55.6392 79.9748 55.5682 79.5622 55.5114L77.6229 55.2557C77.1553 55.1894 76.8023 55.0521 76.5639 54.8438C76.3347 54.6354 76.1834 54.3655 76.11 54.0341C76.0367 53.7027 76 53.267 76 52.7273C76 51.9981 76.11 51.4394 76.3301 51.0511C76.5501 50.6534 76.8711 50.3788 77.2928 50.2273C77.7238 50.0758 78.2877 50 78.9845 50C79.4613 50 79.9243 50.0237 80.3736 50.071C80.8321 50.1089 81.208 50.161 81.5014 50.2273V51.1648C80.8229 51.0606 80.0665 51.0085 79.2321 51.0085C78.7645 51.0085 78.3931 51.0369 78.118 51.0938C77.843 51.1506 77.6321 51.2405 77.4854 51.3636C77.3295 51.4867 77.2241 51.6525 77.1691 51.8608C77.1232 52.0597 77.1003 52.339 77.1003 52.6989C77.1003 53.1155 77.1232 53.4186 77.1691 53.608C77.2149 53.7973 77.3066 53.9347 77.4441 54.0199C77.5817 54.0956 77.8063 54.1525 78.118 54.1903L80.016 54.446C80.5112 54.5123 80.8871 54.6165 81.1438 54.7585C81.4097 54.8911 81.6069 55.1373 81.7352 55.4972C81.8544 55.8002 81.914 56.3305 81.914 57.0881C81.914 57.893 81.8086 58.5085 81.5977 58.9347C81.3868 59.3513 81.0796 59.6354 80.6762 59.7869C80.2819 59.929 79.7501 60 79.0808 60Z" fill="#FFC400"></path><path d="M83.8676 59.8864V50.1136H84.9678V59.8864H83.8676Z" fill="#FFC400"></path><path d="M92.641 59.8864L88.46 52.3864H88.4049V59.8864H87.3459V50.1136H88.4737L92.586 57.4716H92.641V50.1136H93.7138V59.8864H92.641Z" fill="#FFC400"></path><path d="M98.9773 59.8864V50.1136H100.078V58.8494H103.819V59.8864H98.9773Z" fill="#FFC400"></path><path d="M105.331 59.8864V50.1136H106.431V59.8864H105.331Z" fill="#FFC400"></path><path d="M113.746 59.8153C113.499 59.8722 113.196 59.9148 112.839 59.9432C112.49 59.9811 112.156 60 111.835 60C110.844 60 110.125 59.8769 109.675 59.6307C109.226 59.375 108.924 58.911 108.768 58.2386C108.612 57.5568 108.534 56.4773 108.534 55C108.534 53.5322 108.612 52.4621 108.768 51.7898C108.924 51.108 109.226 50.6392 109.675 50.3835C110.134 50.1278 110.854 50 111.835 50C112.156 50 112.49 50.0189 112.839 50.0568C113.196 50.0947 113.485 50.142 113.705 50.1989V51.1364C113.173 51.0511 112.637 51.0085 112.096 51.0085C111.298 51.0085 110.739 51.089 110.418 51.25C110.097 51.411 109.886 51.7519 109.785 52.2727C109.685 52.7936 109.634 53.7027 109.634 55C109.634 56.2973 109.685 57.2064 109.785 57.7273C109.886 58.2481 110.097 58.589 110.418 58.75C110.739 58.911 111.298 58.9915 112.096 58.9915C112.747 58.9915 113.297 58.9489 113.746 58.8636V59.8153Z" fill="#FFC400"></path><path d="M115.565 59.8864V50.1136H120.874V51.1222H116.665V54.446H120.324V55.4545H116.665V58.8778H120.874V59.8864H115.565Z" fill="#FFC400"></path><path d="M127.992 59.8864L123.811 52.3864H123.756V59.8864H122.697V50.1136H123.825L127.937 57.4716H127.992V50.1136H129.065V59.8864H127.992Z" fill="#FFC400"></path><path d="M136.351 59.8153C136.104 59.8722 135.801 59.9148 135.443 59.9432C135.095 59.9811 134.76 60 134.439 60C133.449 60 132.729 59.8769 132.28 59.6307C131.831 59.375 131.528 58.911 131.372 58.2386C131.217 57.5568 131.139 56.4773 131.139 55C131.139 53.5322 131.217 52.4621 131.372 51.7898C131.528 51.108 131.831 50.6392 132.28 50.3835C132.739 50.1278 133.458 50 134.439 50C134.76 50 135.095 50.0189 135.443 50.0568C135.801 50.0947 136.09 50.142 136.31 50.1989V51.1364C135.778 51.0511 135.242 51.0085 134.701 51.0085C133.903 51.0085 133.344 51.089 133.023 51.25C132.702 51.411 132.491 51.7519 132.39 52.2727C132.289 52.7936 132.239 53.7027 132.239 55C132.239 56.2973 132.289 57.2064 132.39 57.7273C132.491 58.2481 132.702 58.589 133.023 58.75C133.344 58.911 133.903 58.9915 134.701 58.9915C135.352 58.9915 135.902 58.9489 136.351 58.8636V59.8153Z" fill="#FFC400"></path><path d="M138.183 59.8864V50.1136H139.284V59.8864H138.183Z" fill="#FFC400"></path><path d="M147.163 59.8864L146.324 57.2159H142.748L141.923 59.8864H140.809L143.835 50.1136H145.279L148.305 59.8864H147.163ZM144.577 51.3636H144.509L143.023 56.2074H146.035L144.577 51.3636Z" fill="#FFC400"></path><path d="M152.729 59.8864V50.1136H158.038V51.1222H153.829V54.446H157.488V55.4545H153.829V58.8778H158.038V59.8864H152.729Z" fill="#FFC400"></path><path d="M162.515 60C162.039 60 161.539 59.9811 161.016 59.9432C160.503 59.9148 160.053 59.8674 159.668 59.8011V58.8352C160.64 58.9394 161.479 58.9915 162.185 58.9915C162.625 58.9915 162.969 58.9678 163.217 58.9205C163.474 58.8731 163.684 58.7879 163.849 58.6648C164.014 58.5511 164.12 58.3807 164.166 58.1534C164.212 57.9167 164.235 57.5994 164.235 57.2017C164.235 56.6998 164.212 56.3494 164.166 56.1506C164.12 55.9517 164.014 55.8097 163.849 55.7244C163.694 55.6392 163.409 55.5682 162.997 55.5114L161.057 55.2557C160.59 55.1894 160.237 55.0521 159.998 54.8438C159.769 54.6354 159.618 54.3655 159.545 54.0341C159.471 53.7027 159.435 53.267 159.435 52.7273C159.435 51.9981 159.545 51.4394 159.765 51.0511C159.985 50.6534 160.306 50.3788 160.727 50.2273C161.158 50.0758 161.722 50 162.419 50C162.896 50 163.359 50.0237 163.808 50.071C164.267 50.1089 164.643 50.161 164.936 50.2273V51.1648C164.257 51.0606 163.501 51.0085 162.667 51.0085C162.199 51.0085 161.828 51.0369 161.553 51.0938C161.278 51.1506 161.067 51.2405 160.92 51.3636C160.764 51.4867 160.659 51.6525 160.604 51.8608C160.558 52.0597 160.535 52.339 160.535 52.6989C160.535 53.1155 160.558 53.4186 160.604 53.608C160.649 53.7973 160.741 53.9347 160.879 54.0199C161.016 54.0956 161.241 54.1525 161.553 54.1903L163.451 54.446C163.946 54.5123 164.322 54.6165 164.578 54.7585C164.844 54.8911 165.041 55.1373 165.17 55.4972C165.289 55.8002 165.349 56.3305 165.349 57.0881C165.349 57.893 165.243 58.5085 165.032 58.9347C164.821 59.3513 164.514 59.6354 164.111 59.7869C163.716 59.929 163.185 60 162.515 60Z" fill="#FFC400"></path><path d="M167.288 50.1136H170.782C171.497 50.1136 172.033 50.2415 172.391 50.4972C172.749 50.7528 172.982 51.0985 173.092 51.5341C173.202 51.9602 173.257 52.5142 173.257 53.196C173.257 53.8684 173.202 54.4176 173.092 54.8438C172.982 55.2699 172.744 55.6155 172.377 55.8807C172.02 56.1458 171.483 56.2784 170.768 56.2784H168.389V59.8864H167.288V50.1136ZM170.479 55.2841C170.983 55.2841 171.355 55.2131 171.593 55.071C171.832 54.929 171.983 54.7159 172.047 54.4318C172.12 54.1477 172.157 53.7358 172.157 53.196C172.157 52.6468 172.125 52.2348 172.061 51.9602C171.997 51.6856 171.845 51.4773 171.607 51.3352C171.369 51.1932 170.997 51.1222 170.493 51.1222H168.389V55.2841H170.479Z" fill="#FFC400"></path><path d="M179.989 59.8864L179.15 57.2159H175.574L174.749 59.8864H173.635L176.661 50.1136H178.105L181.13 59.8864H179.989ZM177.403 51.3636H177.334L175.849 56.2074H178.861L177.403 51.3636Z" fill="#FFC400"></path><path d="M187.935 59.8864L183.754 52.3864H183.699V59.8864H182.64V50.1136H183.768L187.88 57.4716H187.935V50.1136H189.008V59.8864H187.935Z" fill="#FFC400"></path><path d="M196.858 59.8864L196.019 57.2159H192.444L191.618 59.8864H190.504L193.53 50.1136H194.974L198 59.8864H196.858ZM194.273 51.3636H194.204L192.719 56.2074H195.731L194.273 51.3636Z" fill="#FFC400"></path></svg> 