<svg width="197" height="72" viewBox="0 0 197 72" fill="none" xmlns="http://www.w3.org/2000/svg">
<path fill-rule="evenodd" clip-rule="evenodd" d="M87.3127 49.478L87 18.478L76.5 19.978L76.5707 49.478H87.3127ZM124.93 49.478V32.1641C124.93 27.4321 123.682 23.8701 121.186 21.4781C118.742 19.0861 114.946 17.8901 109.798 17.8901C107.614 17.8901 105.274 18.1501 102.778 18.6701C100.334 19.1901 97.9678 19.9441 95.6798 20.9321L97 27.978C100.9 26.522 105.296 26.478 108 26.478C110.236 26.478 111.564 26.938 112.5 27.978C113.488 28.966 114 31.43 114 33.978V34.478H110.5C104.832 34.478 100.016 36.086 97 38.478C93.984 40.87 93.0278 44.4621 93.0278 48.9341C93.0278 49.1171 93.0303 49.2984 93.0354 49.478H103.879C103.821 49.0178 103.792 48.5245 103.792 47.9981C103.792 45.7101 104.442 44.0201 105.742 42.9281C107.042 41.7841 109.018 41.2121 111.67 41.2121H114V49.478H124.93ZM143.263 49.478H132.602V19.478H142V25.478C143.56 23.346 145.732 21.57 147.5 20.478C149.32 19.386 152.108 18.478 154.5 18.478C157.776 18.478 160.68 20.294 162.5 22.478C164.372 24.61 164.5 27.234 164.5 30.978L164.55 49.478H153.74V32.4621C153.74 30.5381 153.124 29.31 152.5 28.478C151.928 27.646 151.144 27.478 150 27.478C147.66 27.478 145.184 28.182 143 31.978L143.263 49.478ZM183.46 49.478H170.108L184.5 27.4839L171 27.478V19.1379H196.5V26.478L183.46 49.478ZM31.902 49.478V32.752C31.902 28.02 30.654 24.458 28.158 22.066C25.714 19.674 21.918 18.478 16.77 18.478C14.586 18.478 12.246 18.738 9.74997 19.258C7.30597 19.778 4.93997 20.532 2.65197 21.52L3.97214 28.5659C7.87214 27.1099 12.2681 27.0659 14.9721 27.0659C17.2081 27.0659 18.5361 27.5259 19.4721 28.5659C20.4601 29.5539 20.9721 32.0179 20.9721 34.5659V35.0659H17.4721C11.8041 35.0659 6.98814 36.6739 3.97214 39.0659C0.966035 41.4501 0.00626695 45.0265 0 49.478H10.7941C10.774 49.1921 10.764 48.8947 10.764 48.586C10.764 46.298 11.414 44.608 12.714 43.516C14.014 42.372 15.99 41.8 18.642 41.8H20.9721V49.478H31.902ZM39.2119 49.478V2.68001L50.0539 1.51001V49.478H39.2119ZM57.2119 49.478V2.68001L68.0539 1.51001V49.478H57.2119ZM86.6639 1.794C85.4679 0.598 83.9339 0 82.0619 0C80.1899 0 78.6299 0.598 77.3819 1.794C76.1859 2.99 75.5879 4.498 75.5879 6.318C75.5879 8.138 76.1859 9.672 77.3819 10.92C78.6299 12.116 80.1899 12.714 82.0619 12.714C83.9339 12.714 85.4679 12.116 86.6639 10.92C87.9119 9.672 88.5359 8.138 88.5359 6.318C88.5359 4.498 87.9119 2.99 86.6639 1.794Z" fill="#1D3755"/>
<path fill-rule="evenodd" clip-rule="evenodd" d="M197 55.478H0V71.478H197V55.478ZM69.1003 66.644C67.9943 67.988 66.6923 68.618 65.2783 68.618C63.9343 68.618 62.7583 68.058 61.9043 67.162C61.0223 66.266 60.4903 65.048 60.4903 63.648C60.4903 62.29 61.0223 60.96 61.9043 60.064C62.7583 59.168 63.9343 58.608 65.2783 58.608C66.6923 58.608 67.9943 59.238 69.1003 60.582L67.7423 61.702C66.9723 60.75 66.1603 60.358 65.2783 60.358C64.4383 60.358 63.6963 60.708 63.1363 61.31C62.5763 61.884 62.2403 62.752 62.2403 63.648C62.2403 64.544 62.5763 65.314 63.1363 65.916C63.6963 66.518 64.4383 66.868 65.2783 66.868C66.1603 66.868 66.9723 66.476 67.7423 65.524L69.1003 66.644ZM83.8672 68.464H82.0752L81.3752 66.098H78.1832L77.4832 68.464H75.6912L78.7152 58.678H80.8292L83.8672 68.464ZM79.7792 60.778L78.6312 64.642H80.9272L79.7792 60.778ZM96.7895 65.58C96.7895 66.35 96.4815 67.106 95.9075 67.68C95.2495 68.338 94.4655 68.618 93.5695 68.618C92.9955 68.618 92.3935 68.506 91.7915 68.226C91.2175 67.96 90.6715 67.666 90.1675 67.12L91.4135 65.916C91.6795 66.196 92.0015 66.434 92.3515 66.588C92.7295 66.756 93.1355 66.882 93.5415 66.882C94.4235 66.882 95.1095 66.294 95.1095 65.58C95.1095 65.006 94.6195 64.558 93.9895 64.376C93.7375 64.306 93.4995 64.236 93.2895 64.166C92.8415 64.054 92.3515 63.928 91.8755 63.718C91.3995 63.508 90.9935 63.214 90.6995 62.78C90.4055 62.346 90.1815 61.744 90.2655 61.016C90.3495 60.302 90.7135 59.616 91.2735 59.21C91.8335 58.804 92.6455 58.594 93.4295 58.594C94.4235 58.594 95.5295 58.874 96.5935 59.588L95.4035 60.82C94.7455 60.47 93.9335 60.33 93.4155 60.33C92.9815 60.33 92.6315 60.372 92.3655 60.526C92.0995 60.68 91.9595 60.89 91.9455 61.24C91.9198 61.9869 92.5335 62.1771 93.46 62.4642C93.5409 62.4893 93.6241 62.5151 93.7095 62.542C93.8222 62.5732 93.9295 62.6024 94.032 62.6302C94.9864 62.8892 95.5247 63.0353 96.1315 63.718C96.5655 64.208 96.7895 64.852 96.7895 65.58ZM105.466 58.678V68.478H103.786V58.678H105.466ZM119.924 58.678V68.478H117.768L114.296 60.862V68.464H112.602V58.678H114.926L118.244 66.14V58.678H119.924ZM136.515 63.676C136.515 65.034 135.997 66.28 135.115 67.176C134.233 68.072 133.071 68.618 131.727 68.618C130.383 68.618 129.221 68.072 128.339 67.176C127.457 66.28 126.925 65.034 126.925 63.676C126.925 62.318 127.457 61.044 128.339 60.134C129.221 59.224 130.383 58.636 131.727 58.636C133.071 58.636 134.247 59.224 135.129 60.134C136.011 61.044 136.515 62.318 136.515 63.676ZM134.779 63.676C134.779 62.738 134.443 61.912 133.883 61.282C133.323 60.666 132.567 60.288 131.727 60.288C130.887 60.288 130.131 60.666 129.571 61.282C129.011 61.912 128.661 62.738 128.661 63.676C128.661 64.614 129.011 65.426 129.571 66C130.131 66.602 130.887 66.966 131.727 66.966C132.567 66.966 133.323 66.602 133.883 66C134.443 65.426 134.779 64.614 134.779 63.676Z" fill="#1D3755"/>
</svg>
