<svg xmlns="http://www.w3.org/2000/svg" width="198" height="76" viewBox="0 0 198 76">
  <g fill="none" fill-rule="evenodd">
    <rect width="198" height="76" fill="#1E70B9"/>
    <g fill="#FFF" fill-rule="nonzero" transform="translate(19 13)">
      <path d="M16.3 4.5C15.3 4.1 14.2 3.8 13.2 3.8 9.9 3.8 8.3 5.8 8.3 9.6L8.3 12.3 15.1 12.3 14.3 15.7 8.3 15.7 8.3 33.3 4.1 33.3 4.1 15.6.5 15.6.5 12.2 4.1 12.2 4.1 9.4C4.1 3.5 7.5.3 12.9.3 14.5.3 16 .5 17 1L16.3 4.5zM33.3 33.7C31.8 33.4 30.3 32.2 30 30.4 29 32.9 26.8 33.7 24.4 33.7 20.3 33.7 17.6 30.6 17.6 27.3 17.6 23.2 20.9 20.9 24.5 20.6L29.4 20.2 29.4 18.9C29.4 17 28.3 15.5 25.3 15.5 23.2 15.5 21.1 16.2 19.5 17.2L18.7 13.7C20.6 12.5 23 11.9 25.5 11.9 30.1 11.9 33.6 14.5 33.6 19.4L33.6 27.8C33.6 29.7 34.6 30.8 35.9 31L33.3 33.7 33.3 33.7zM29.5 23.6L25.5 24C22.8 24.2 21.8 25.8 21.8 27.4 21.8 28.9 23 30.2 24.9 30.2 27.4 30.2 29.5 28.3 29.5 25.5L29.5 23.6 29.5 23.6zM47.1 33.5L45.4 33.5 36.7 12.2 40.9 12.2 44.8 21.5C45.4 22.8 46 24.7 46.5 26.3L46.6 26.3C47.1 24.7 47.7 22.9 48.3 21.5L52.1 12.2 56 12.2 47.1 33.5 47.1 33.5zM77.8 21.4L75.5 23.7 62.8 23.7C62.9 26.3 65.3 30 70.2 30 72.9 30 74.8 29.3 76.3 28.3L75.9 32.4C74.4 33.2 72.5 33.7 69.7 33.7 63.7 33.7 58.5 29.3 58.5 22.7 58.5 15.6 64 11.7 68.9 11.7 74.7 11.7 78 15.8 78 19.6 77.9 20.3 77.9 20.9 77.8 21.4L77.8 21.4zM69.1 15.3C66.5 15.3 63.7 17.4 63.1 20.3L73.6 20.3C73.7 20.1 73.7 19.9 73.7 19.7 73.6 17.7 71.9 15.3 69.1 15.3L69.1 15.3zM97.5 33.7C96 33.4 94.5 32.2 94.2 30.4 93.2 32.9 91 33.7 88.6 33.7 84.5 33.7 81.8 30.6 81.8 27.3 81.8 23.2 85.1 20.9 88.7 20.6L93.6 20.2 93.6 18.9C93.6 17 92.5 15.5 89.5 15.5 87.4 15.5 85.3 16.2 83.7 17.2L82.9 13.7C84.8 12.5 87.2 11.9 89.7 11.9 94.3 11.9 97.8 14.5 97.8 19.4L97.8 27.8C97.8 29.7 98.8 30.8 100.1 31L97.5 33.7 97.5 33.7zM93.5 23.6L89.5 24C86.8 24.2 85.8 25.8 85.8 27.4 85.8 28.9 87 30.2 88.9 30.2 91.4 30.2 93.5 28.3 93.5 25.5L93.5 23.6 93.5 23.6zM113.2 33.7C109.5 33.7 105.8 32.2 104.3 31.1L104.3.3 108.5.3 108.5 13.5C109.3 12.7 112 11.8 114.3 11.8 120.3 11.8 124.8 16.3 124.8 22.6 124.8 29 120.3 33.7 113.2 33.7zM113.8 15.5C111 15.5 109.1 16.8 108.4 17.6L108.4 29C109.1 29.4 111.1 30.1 112.7 30.1 117.6 30.1 120.4 27.1 120.4 22.7 120.5 18.5 117.6 15.5 113.8 15.5L113.8 15.5zM134.2 34C132.8 33.6 130.1 32.3 130.1 28.2L130.1.2 134.3.2 134.3 27.6C134.3 29.6 135.8 30.8 137.1 31.1L134.2 34zM159.4 21.4L157.1 23.7 144.5 23.7C144.6 26.3 147 30 151.9 30 154.6 30 156.5 29.3 158 28.3L157.6 32.4C156.1 33.2 154.2 33.7 151.4 33.7 145.4 33.7 140.2 29.3 140.2 22.7 140.2 15.6 145.7 11.7 150.6 11.7 156.4 11.7 159.7 15.8 159.7 19.6 159.5 20.3 159.5 20.9 159.4 21.4zM150.7 15.3C148.1 15.3 145.3 17.4 144.7 20.3L155.2 20.3C155.3 20.1 155.3 19.9 155.3 19.7 155.3 17.7 153.5 15.3 150.7 15.3L150.7 15.3z"/>
      <g transform="translate(4 38)">
        <path d="M6.6 11.7L3.2 7 1.9 7 1.9 11.8.3 11.8.3.9 3.5.9C5 .9 6.7 1.9 6.7 3.9 6.7 5.4 5.9 6.2 4.8 6.7L8.5 11.7 6.6 11.7 6.6 11.7zM3.3 2.4L1.9 2.4 1.9 5.7 3.2 5.7C4.2 5.7 5 5.2 5 4.1 5.1 2.9 4.2 2.4 3.3 2.4L3.3 2.4zM17.9 11.7L16.7 8.9 12.5 8.9 11.3 11.7 9.7 11.7 14.3.8 14.9.8 19.5 11.7 17.9 11.7zM15.1 5C14.9 4.7 14.8 4.2 14.7 3.7L14.6 3.7C14.5 4.1 14.3 4.7 14.2 5L13.1 7.6 16.2 7.6 15.1 5zM31.4 12L26.4 6.5C25.6 5.6 24.7 4.5 23.9 3.6L23.8 3.6C23.9 4.6 23.9 5.5 23.9 6.3L23.9 11.7 22.3 11.7 22.3.9 23.4.9 28 6C28.6 6.7 29.6 7.8 30.2 8.6L30.3 8.6C30.2 7.8 30.2 6.9 30.2 6.1L30.2 1 32 1 32 12 31.4 12 31.4 12z"/>
        <polygon points="41.3 11.7 37.2 6.7 37.2 11.7 35.6 11.7 35.6 .9 37.2 .9 37.2 6 41.4 .9 43.2 .9 38.8 6.2 43.4 11.7"/>
        <polygon points="46.2 11.7 46.2 .9 47.8 .9 47.8 11.7"/>
        <path d="M60.8 12L55.8 6.5C55 5.6 54.1 4.5 53.3 3.6L53.2 3.6C53.3 4.6 53.3 5.5 53.3 6.3L53.3 11.7 51.7 11.7 51.7.9 52.8.9 57.4 6C58 6.7 59 7.8 59.6 8.6L59.7 8.6C59.6 7.8 59.6 6.9 59.6 6.1L59.6 1 61.2 1 61.2 12 60.8 12 60.8 12zM70.3 12C67.4 12 64.4 10 64.4 6.4 64.4 2.7 67.5.8 70.2.8 71.7.8 72.9 1.1 73.7 1.6L73.4 3.1C72.6 2.6 71.6 2.3 70.4 2.3 68.3 2.3 66 3.7 66 6.5 66 9.3 68.2 10.6 70.4 10.6 71.4 10.6 72.2 10.4 72.7 10L72.7 7.6 70.2 7.6 70.2 6.3 74.2 6.3 74.2 10.8C73.2 11.6 71.9 12 70.3 12L70.3 12z"/>
        <polygon points="86.9 2.4 86.9 11.8 85.3 11.8 85.3 2.4 81.8 2.4 81.8 1 90.4 1 90.4 2.4"/>
        <polygon points="100.1 11.7 100.1 7 94.6 7 94.6 11.7 93 11.7 93 .9 94.6 .9 94.6 5.5 100.1 5.5 100.1 .9 101.7 .9 101.7 11.7"/>
        <polygon points="105.3 11.7 105.3 .9 111.1 .9 111.1 2.3 106.9 2.3 106.9 5.5 110.4 5.5 110.4 7 106.9 7 106.9 10.3 111.7 10.3 111.7 11.7 105.3 11.7"/>
        <path d="M123,11.7 L119.5,11.7 L119.5,0.9 L122.5,0.9 C124,0.9 125.5,1.9 125.5,3.7 C125.5,4.5 125.1,5.3 124.5,5.6 C125.5,5.9 126.5,7 126.5,8.4 C126.5,10.7 124.7,11.7 123,11.7 L123,11.7 Z M122.2,2.3 L121,2.3 L121,5.2 L122.2,5.2 C123.1,5.2 123.9,4.8 123.9,3.7 C123.9,2.7 123.1,2.3 122.2,2.3 Z M122.7,6.5 L121,6.5 L121,10.4 L122.6,10.4 C123.8,10.4 124.8,9.8 124.8,8.5 C124.9,7.2 123.8,6.5 122.7,6.5 L122.7,6.5 Z"/>
        <polygon points="129.6 11.7 129.6 .9 135.4 .9 135.4 2.3 131.2 2.3 131.2 5.5 134.7 5.5 134.7 7 131.2 7 131.2 10.3 136 10.3 136 11.7 129.6 11.7"/>
        <path d="M141.1,11.9 C139.9,11.9 138.9,11.6 138.4,11.2 L138.2,9.5 C139,10.1 140.1,10.5 141.2,10.5 C142.4,10.5 143.2,9.9 143.2,8.9 C143.2,7.9 142.6,7.4 141.4,7 C139.5,6.4 138.5,5.4 138.5,3.9 C138.5,2.4 139.6,1 141.9,1 C143,1 143.8,1.3 144.2,1.6 L143.9,2.9 C143.5,2.6 142.7,2.3 141.8,2.3 C140.7,2.3 140.1,3 140.1,3.7 C140.1,4.5 140.7,4.9 141.8,5.3 C143.6,5.9 144.9,6.8 144.9,8.7 C144.7,10.6 143.5,11.9 141.1,11.9 L141.1,11.9 Z"/>
        <polygon points="151.6 2.4 151.6 11.8 150 11.8 150 2.4 146.5 2.4 146.5 1 155.1 1 155.1 2.4"/>
      </g>
    </g>
  </g>
</svg>
