<?xml version="1.0" encoding="UTF-8" standalone="no"?>
<svg xmlns="http://www.w3.org/2000/svg" height="32px" width="122px" version="1.1" xmlns:xlink="http://www.w3.org/1999/xlink" viewBox="0 0 122 32"><!-- Generator: Sketch 51.2 (57519) - http://www.bohemiancoding.com/sketch -->
 <title>assets/logos/gomage/big/gomage</title>
 <desc>Created with Sketch.</desc>
 <g id="assets/logos/gomage/big/gomage" fill-rule="evenodd" fill="none">
  <g id="Logo" fill-rule="nonzero">
   <rect id="@bounce" y="0" x="0" height="32" width="122"/>
   <path id="Mage" fill="#57D68D" d="m117.62 4.4028c0.12-0.261 0.27-0.4822 0.47-0.6751s0.42-0.3405 0.68-0.4483 0.54-0.1645 0.83-0.1645 0.57 0.0567 0.83 0.1645 0.48 0.2554 0.68 0.4483c0.19 0.1929 0.34 0.4141 0.46 0.6751 0.11 0.261 0.17 0.539 0.17 0.8398 0 0.3063-0.06 0.59-0.17 0.851s-0.26 0.488-0.46 0.6809-0.42 0.3404-0.68 0.4482-0.54 0.1589-0.83 0.1589-0.57-0.0511-0.83-0.1589-0.48-0.2553-0.68-0.4482-0.35-0.4199-0.47-0.6809c-0.11-0.261-0.17-0.5447-0.17-0.851 0-0.3008 0.05-0.5788 0.17-0.8398zm0.35 1.566c0.09 0.2213 0.22 0.4142 0.37 0.5787 0.16 0.1646 0.35 0.2894 0.56 0.3858 0.22 0.0908 0.45 0.1419 0.7 0.1419s0.48-0.0454 0.69-0.1419c0.22-0.0907 0.4-0.2212 0.56-0.3858 0.15-0.1645 0.28-0.3574 0.36-0.5787 0.1-0.2213 0.14-0.4653 0.14-0.7262 0-0.2554-0.04-0.4937-0.14-0.7149-0.09-0.2213-0.21-0.4142-0.36-0.5731-0.16-0.1645-0.35-0.2894-0.56-0.3801-0.21-0.0908-0.44-0.1419-0.69-0.1419s-0.48 0.0454-0.7 0.1419c-0.21 0.0907-0.4 0.2212-0.56 0.3801-0.16 0.1645-0.28 0.3518-0.37 0.5731-0.09 0.2212-0.13 0.4595-0.13 0.7149 0 0.2609 0.04 0.5049 0.13 0.7262zm1.76-1.9631c0.29 0 0.52 0.0567 0.66 0.1759 0.14 0.1191 0.21 0.295 0.21 0.539 0 0.2269-0.06 0.3915-0.18 0.4936-0.13 0.1021-0.29 0.1645-0.47 0.1872l0.71 1.1007h-0.41l-0.68-1.0723h-0.41v1.0723h-0.39v-2.4964h0.96zm-0.17 1.1064c0.09 0 0.17-0.0057 0.25-0.0114s0.15-0.0227 0.21-0.0511c0.06-0.0283 0.11-0.068 0.15-0.1248 0.03-0.0567 0.05-0.1305 0.05-0.2326 0-0.0851-0.01-0.1475-0.05-0.1986-0.03-0.051-0.07-0.0851-0.12-0.1135-0.05-0.0283-0.11-0.0453-0.18-0.0567-0.07-0.0113-0.13-0.017-0.2-0.017h-0.51v0.7943h0.4v0.0114zm-2.28 10.02c0.25-0.25 0.37-0.545 0.37-0.885 0-0.397-0.09-0.84-0.26-1.317-0.17-0.47-0.4-0.93-0.67-1.373-0.27-0.436-0.57-0.873-0.88-1.293-0.32-0.4144-0.76-0.8626-1.06-1.1292-0.55-0.488-1.42-1.0951-2.35-1.4525-0.94-0.3575-1.94-0.539-2.97-0.539-1.15 0-2.25 0.2099-3.26 0.6297-1 0.4199-1.89 1.01-2.62 1.7646-0.74 0.7494-1.34 1.6454-1.76 2.6494-0.43 1.01-0.65 2.117-0.65 3.297 0 1.157 0.22 2.252 0.65 3.262s1.02 1.895 1.76 2.633c0.73 0.737 1.62 1.333 2.62 1.759 1.01 0.431 2.11 0.646 3.26 0.646 1.2 0 2.39-0.232 3.53-0.686s2.16-1.135 3.02-2.02c0.25-0.25 0.43-0.488 0.53-0.704 0.1-0.215 0.16-0.425 0.19-0.629v-0.012c0-0.363-0.12-0.675-0.37-0.924-0.25-0.25-0.55-0.375-0.89-0.375-0.28 0-0.52 0.079-0.69 0.244-0.16 0.148-0.31 0.312-0.43 0.488-0.55 0.698-1.28 1.243-2.17 1.628-0.89 0.386-1.8 0.579-2.71 0.579-0.8 0-1.55-0.153-2.24-0.454-0.7-0.301-1.32-0.715-1.86-1.231s-0.97-1.14-1.28-1.861c-0.32-0.715-0.48-1.504-0.48-2.338h12.71c0.39 0.017 0.71-0.107 0.96-0.357zm-7.81-5.5717c0.59 0 1.19 0.1021 1.78 0.3064s1.14 0.4763 1.64 0.8173c0.49 0.334 0.92 0.737 1.28 1.191 0.33 0.42 0.58 0.88 0.75 1.368h-10.87c0.17-0.483 0.42-0.942 0.75-1.368 0.37-0.459 0.79-0.868 1.27-1.214s1.01-0.624 1.59-0.8114c0.58-0.1929 1.18-0.2893 1.81-0.2893zm-10.501-1.8553c-0.788 0-1.202 0.3971-1.202 1.1517v1.1803c-0.209-0.3689-0.47-0.715-0.787-1.0214-0.408-0.3972-0.879-0.7319-1.394-1.0043-0.516-0.2723-1.071-0.4822-1.649-0.6297-0.578-0.1476-1.173-0.2213-1.762-0.2213-1.128 0-2.193 0.2099-3.168 0.6298-0.969 0.4198-1.825 1.0099-2.538 1.7645-0.714 0.7494-1.281 1.6394-1.683 2.6494-0.408 1.01-0.612 2.117-0.612 3.297 0 1.157 0.204 2.252 0.606 3.262s0.969 1.895 1.683 2.633c0.714 0.737 1.564 1.333 2.533 1.764s2.034 0.647 3.162 0.647c0.589 0 1.172-0.074 1.739-0.221 0.567-0.148 1.111-0.369 1.626-0.653 0.516-0.283 0.986-0.629 1.389-1.021 0.328-0.318 0.606-0.669 0.827-1.055l0.028 2.791c0 0.817-0.158 1.589-0.47 2.298s-0.737 1.333-1.264 1.867c-0.527 0.527-1.156 0.953-1.864 1.265s-1.479 0.471-2.295 0.471c-0.793 0-1.524-0.142-2.181-0.414-0.658-0.278-1.275-0.675-1.831-1.18-0.153-0.125-0.311-0.267-0.47-0.42-0.187-0.176-0.413-0.261-0.68-0.261-0.442 0-0.765 0.13-0.963 0.38-0.193 0.244-0.295 0.545-0.295 0.879 0 0.261 0.091 0.511 0.278 0.732 0.176 0.21 0.363 0.38 0.561 0.511 1.518 1.447 3.394 2.184 5.57 2.184 1.128 0 2.21-0.215 3.213-0.647 1.003-0.431 1.898-1.026 2.657-1.781 0.76-0.749 1.372-1.634 1.808-2.633 0.442-0.998 0.659-2.088 0.659-3.245v-14.803c0.01-0.7489-0.421-1.146-1.231-1.146zm-6.8 1.8553c0.816 0 1.575 0.1588 2.255 0.4707 0.68 0.312 1.275 0.743 1.768 1.282s0.878 1.181 1.156 1.901c0.278 0.721 0.414 1.487 0.414 2.281s-0.142 1.56-0.414 2.281c-0.278 0.72-0.663 1.356-1.156 1.878-0.493 0.528-1.088 0.953-1.768 1.265s-1.439 0.471-2.255 0.471c-0.793 0-1.536-0.159-2.221-0.471-0.686-0.312-1.281-0.737-1.768-1.265-0.493-0.528-0.879-1.158-1.156-1.878-0.278-0.721-0.414-1.487-0.414-2.281s0.142-1.56 0.414-2.281c0.277-0.72 0.663-1.362 1.156-1.901 0.487-0.539 1.082-0.97 1.768-1.282 0.685-0.3119 1.433-0.4707 2.221-0.4707zm-9.389-1.9007c-0.21-0.2383-0.493-0.3575-0.833-0.3575-0.363 0-0.669 0.1192-0.901 0.3575s-0.357 0.539-0.357 0.9021v1.4753c-0.21-0.3689-0.47-0.715-0.788-1.0214-0.408-0.3972-0.878-0.7319-1.394-1.0043-0.515-0.2723-1.071-0.4822-1.649-0.6297-0.578-0.1476-1.173-0.2213-1.762-0.2213-1.127 0-2.193 0.2099-3.167 0.6298-0.969 0.4198-1.825 1.0099-2.539 1.7645-0.714 0.7494-1.28 1.6394-1.683 2.6494-0.408 1.01-0.612 2.117-0.612 3.297 0 1.157 0.204 2.252 0.612 3.262s0.975 1.895 1.683 2.633c0.714 0.737 1.57 1.333 2.539 1.764 0.974 0.431 2.04 0.647 3.167 0.647 0.589 0 1.179-0.074 1.745-0.221 0.567-0.148 1.117-0.369 1.632-0.653 0.516-0.283 0.986-0.629 1.394-1.021 0.323-0.318 0.601-0.669 0.828-1.05v1.759c0 0.335 0.107 0.641 0.311 0.897 0.21 0.266 0.504 0.397 0.873 0.397 0.34 0 0.64-0.131 0.884-0.392 0.249-0.261 0.374-0.561 0.374-0.902v-14.059-0.006c-0.034-0.3631-0.153-0.6638-0.357-0.8964zm-7.689 1.9007c0.815 0 1.575 0.1588 2.255 0.4707 0.68 0.312 1.275 0.743 1.768 1.282s0.878 1.181 1.156 1.901c0.277 0.721 0.413 1.487 0.413 2.281s-0.141 1.56-0.413 2.281c-0.278 0.72-0.663 1.356-1.156 1.878-0.493 0.528-1.088 0.953-1.768 1.265s-1.44 0.471-2.255 0.471c-0.794 0-1.536-0.159-2.222-0.471-0.685-0.312-1.28-0.737-1.768-1.265-0.493-0.528-0.878-1.158-1.156-1.878-0.277-0.721-0.413-1.487-0.413-2.281s0.141-1.56 0.413-2.281c0.278-0.72 0.663-1.362 1.156-1.901 0.488-0.539 1.083-0.97 1.768-1.282 0.686-0.3119 1.434-0.4707 2.222-0.4707zm-11.209-9.5603c-0.657 0-1.11 0.09078-1.382 0.27234-0.266 0.18156-0.482 0.4539-0.635 0.80566l-8.12 17.957-8.086-17.957c-0.175-0.35176-0.379-0.61843-0.611-0.79999-0.233-0.18156-0.55-0.27234-0.93-0.27234-1.054 0.0000036-1.586 0.57305-1.586 1.7021v20.437c0 0.885 0.413 1.333 1.224 1.333 0.81 0 1.218-0.448 1.218-1.333v-16.857l7.751 17.362c0.125 0.283 0.255 0.482 0.386 0.612 0.136 0.137 0.357 0.21 0.646 0.21 0.402 0 0.725-0.278 0.957-0.822l7.939-17.442v16.931c0 0.885 0.419 1.333 1.241 1.333 0.799 0 1.201-0.448 1.201-1.333v-20.369c0.006-1.1743-0.408-1.77-1.213-1.77z"/>
   <g id="Go" fill="#57D68D">
    <path id="Shape" d="m33.341 14.338c0 0.533-0.431 0.964-0.952 0.964s-0.952-0.437-0.952-0.964v-8.0855c0-0.5333 0.431-0.9646 0.952-0.9646s0.952 0.4369 0.952 0.9646v8.0855z"/>
    <path id="Shape" d="m37.551 9.4298c-0.255-0.244-0.629-0.4255-1.003-0.4255-0.771 0-1.394 0.6241-1.394 1.3957 0 0.46 0.193 0.828 0.578 1.135l0.011 0.005 0.012 0.006c1.218 1.061 1.887 2.627 1.762 4.255-0.193 2.695-2.442 4.778-5.128 4.778s-4.936-2.088-5.128-4.778c-0.114-1.634 0.549-3.2 1.762-4.255l0.011-0.006 0.012-0.005c0.391-0.301 0.578-0.675 0.578-1.135 0-0.7716-0.624-1.3957-1.394-1.3957-0.374 0-0.748 0.1815-1.003 0.4255l-0.006 0.0057c-0.011 0.0113-0.108 0.0907-0.153 0.1305-0.096 0.0851-0.198 0.1758-0.306 0.2893-0.317 0.3117-0.629 0.6807-0.918 1.1067-0.963 1.401-1.49 3.081-1.348 5.044 0.294 4.153 3.751 7.37 7.893 7.37s7.598-3.211 7.893-7.37c0.142-1.958-0.385-3.637-1.349-5.039-0.294-0.425-0.606-0.794-0.917-1.106-0.108-0.1078-0.216-0.2043-0.306-0.2894-0.046-0.051-0.142-0.1305-0.159-0.1418z"/>
    <path id="Shape" opacity=".5" d="m32.219 20.579c-2.612-0.085-4.771-2.139-4.958-4.778-0.114-1.634 0.549-3.2 1.762-4.255l0.011-0.006 0.012-0.005c0.391-0.301 0.578-0.675 0.578-1.135 0-0.7716-0.624-1.3957-1.394-1.3957-0.374 0-0.748 0.1815-1.003 0.4255l-0.006 0.0057c-0.011 0.0113-0.108 0.0907-0.153 0.1305-0.028 0.0283-0.062 0.051-0.091 0.0794-0.141 0.1532-0.255 0.295-0.34 0.3976-0.793 1.1-1.291 2.445-1.291 3.92 0 3.671 2.923 6.65 6.522 6.65 0.187 0 0.379-0.012 0.561-0.023-0.068 0-0.136-0.006-0.21-0.011z"/>
    <path id="Shape" d="m13.208 11.37c-0.81 0.063-1.473 0.777-1.473 1.64 0 0.862 0.669 1.583 1.519 1.645h4.176 0.753c0.125 0 0.187 0.097 0.136 0.21 0 0-0.17 0.42-0.345 0.732-1.383 2.389-3.831 3.768-6.556 3.768-4.1821 0-7.5649-3.388-7.5649-7.575 0-4.1872 3.3828-7.5744 7.5649-7.5744 1.762 0 3.439 0.6127 4.782 1.7078 0.408 0.4085 0.901 0.6184 1.422 0.6184 1.066 0 1.927-0.8624 1.927-1.9291 0-0.556-0.238-1.078-0.652-1.4581-2.051-1.7873-4.686-2.7972-7.479-2.7972-6.307 0.00001-11.418 5.1177-11.418 11.433 0 6.315 5.111 11.433 11.418 11.433 5.57 0 10.307-4.029 11.253-9.464 0.034-0.17 0.051-0.318 0.051-0.465 0-1.01-0.776-1.85-1.779-1.929l-7.735 0.005z"/>
    <path id="Shape" opacity=".5" d="m6.9696 17.912c1.2466 0.913 2.7879 1.453 4.4534 1.453 2.726 0 5.174-1.385 6.556-3.768 0.176-0.312 0.346-0.732 0.346-0.732 0.051-0.113-0.011-0.21-0.136-0.21h-0.754-4.176c-0.855-0.068-1.518-0.783-1.518-1.645 0-0.863 0.663-1.577 1.473-1.64h0.584l0.051 0.012c3.649 0.136 6.845 0.992 6.845 4.204 0 2.349-2.59 5.9-5.65 7.052-1.139 0.38-2.357 0.59-3.615 0.59-1.241 0-2.4365-0.198-3.5528-0.561-1.0312-1.129-0.9349-2.883-0.9066-4.755z"/>
    <path id="Shape" opacity=".5" d="m15.344 14.655h-2.085c-0.855-0.068-1.518-0.783-1.518-1.645 0-0.863 0.663-1.577 1.473-1.64h0.584l0.051 0.012c1.994 0.073 3.853 0.363 5.128 1.134-0.097 0.988-0.38 1.924-0.816 2.769h-0.017c0.107-0.221 0.181-0.414 0.181-0.414 0.051-0.114-0.011-0.21-0.136-0.21h-0.754l-2.091-0.006z"/>
    <path id="Shape" opacity=".5" d="m7.4286 18.224c-0.0453-0.028-0.085-0.057-0.1303-0.085-0.4873-0.312-0.9293-0.681-1.326-1.101-1.3089-1.361-2.1135-3.211-2.1135-5.254 0-4.1869 3.3828-7.5741 7.5642-7.5741 1.763 0 3.44 0.6128 4.783 1.7078l0.028 0.0227 0.023 0.0227c0.362 0.3631 0.85 0.573 1.377 0.573 1.065 0 1.926-0.8624 1.926-1.929 0-0.5561-0.238-1.0781-0.651-1.4582l0.011 0.0113c-2.063-1.7985-4.703-2.8085-7.497-2.8085-1.371 0.00004-2.6798 0.24401-3.8981 0.6809-3.3885 1.4581-5.4793 4.6638-5.4793 8.5163 0 3.7731 2.1815 7.0411 5.383 8.6751z"/>
   </g>
  </g>
 </g>
</svg>
