<?xml version="1.0" encoding="UTF-8"?>
<svg width="242px" height="56px" viewBox="0 0 242 56" version="1.1" xmlns="http://www.w3.org/2000/svg" xmlns:xlink="http://www.w3.org/1999/xlink">
    <!-- Generator: Sketch 52.5 (67469) - http://www.bohemiancoding.com/sketch -->
    <title>Logo-white</title>
    <desc>Created with Sketch.</desc>
    <defs>
        <linearGradient x1="50%" y1="0%" x2="50%" y2="107.449936%" id="linearGradient-1">
            <stop stop-color="#E237B7" offset="0%"></stop>
            <stop stop-color="#705CDE" offset="100%"></stop>
        </linearGradient>
        <linearGradient x1="50%" y1="0%" x2="50%" y2="100%" id="linearGradient-2">
            <stop stop-color="#E237B7" offset="0%"></stop>
            <stop stop-color="#705CDE" offset="100%"></stop>
        </linearGradient>
    </defs>
    <g id="Assets" stroke="none" stroke-width="1" fill="none" fill-rule="evenodd">
        <g id="Logo-white">
            <g id="Group-59">
                <path d="M13.3019871,28.2644645 L8.65109677,30.9398194 L6.43096774,30.0127484 L1.2544,25.6241548 L13.3019871,18.6935226 C13.4548129,18.6089806 13.6282323,18.5663484 13.8020129,18.5663484 C13.9757935,18.5663484 14.1492129,18.6089806 14.3020387,18.6935226 L26.2820645,25.5901935 L20.6224516,30.5069935 L18.9945017,30.9658254 L14.3020387,28.2644645 C14.1492129,28.1795613 13.9757935,28.1372903 13.8020129,28.1372903 C13.6282323,28.1372903 13.4548129,28.1795613 13.3019871,28.2644645 Z M15.6095484,14.4797935 L11.3026065,13.7033806 L1.2544,7.33202581 L13.3019871,0.401754839 C13.4548129,0.316851613 13.6282323,0.274580645 13.8020129,0.274580645 C13.9757935,0.274580645 14.1492129,0.316851613 14.3020387,0.401754839 L26.2820645,7.29842581 L22.3873548,11.3026065 L15.6095484,14.4797935 Z M11.3734194,52.1117935 L1.2544,44.7660387 L1.37290323,44.6981161 L13.3019871,37.8354065 C13.4548129,37.7508645 13.6282323,37.7082323 13.8020129,37.7082323 C13.9757935,37.7082323 14.1492129,37.7508645 14.3020387,37.8354065 L26.2820645,44.7320774 L23.5875613,47.6635871 L18.2924903,51.1941161 L11.3734194,52.1117935 Z" id="Combined-Shape" fill="url(#linearGradient-1)" opacity="0.396507626"></path>
                <path d="M0.0216774194,28.2123528 L0.0216774194,27.535225 C0.0638405668,27.205785 0.16835998,26.8790123 0.339612903,26.5729032 C0.576619355,26.1660903 0.881548387,25.8611613 1.2544,25.6241548 L1.37290323,25.5562323 C2.15256774,25.1494194 3.11829677,25.1324387 3.93192258,25.6068129 L10.8961548,29.6062968 L12.7322323,30.6627097 C13.3998968,31.0471226 14.2211097,31.0471226 14.8887742,30.6627097 L23.6724645,25.6068129 C24.5196903,25.1154581 25.5024,25.1494194 26.2820645,25.5901935 C26.6715355,25.8102194 27.0104258,26.1491097 27.2647742,26.5729032 C27.8410323,27.5725935 27.6882065,28.792671 26.9768258,29.6062968 C26.7904,29.8093419 26.5530323,29.9957677 26.2990452,30.1482323 L15.4032516,36.4346839 C14.9118968,36.7060129 14.3526194,36.8584774 13.8106839,36.8584774 C13.2514065,36.8584774 12.7091097,36.7060129 12.2177548,36.4346839 L1.30498065,30.1482323 C1.05099355,29.9957677 0.813987097,29.8093419 0.644541935,29.6062968 C0.300508732,29.2130162 0.0871476355,28.7247704 0.0216774188,28.2123522 Z M0.0216774194,9.92035462 L0.0216774194,9.24325568 C0.0638405668,8.91380952 0.16835998,8.58699389 0.339612903,8.28077419 C0.576619355,7.87432258 0.881548387,7.56903226 1.2544,7.33202581 L1.37290323,7.26410323 C2.15256774,6.85765161 3.11829677,6.84067097 3.93192258,7.31504516 L10.8961548,11.3141677 L12.7322323,12.3709419 C13.3998968,12.7549935 14.2211097,12.7549935 14.8887742,12.3709419 L23.6724645,7.31504516 C24.5196903,6.82369032 25.5024,6.85765161 26.2820645,7.29806452 C26.6715355,7.51845161 27.0104258,7.85734194 27.2647742,8.28077419 C27.8410323,9.28082581 27.6882065,10.5005419 26.9768258,11.3141677 C26.7904,11.5175742 26.5530323,11.7036387 26.2990452,11.8561032 L15.4032516,18.1429161 C14.9118968,18.4142452 14.3526194,18.5663484 13.8106839,18.5663484 C13.2514065,18.5663484 12.7091097,18.4142452 12.2177548,18.1429161 L1.30498065,11.8561032 C1.05099355,11.7036387 0.813987097,11.5175742 0.644541935,11.3141677 C0.300508732,10.9208871 0.0871476355,10.4327258 0.0216774188,9.92035402 Z M0.0216774194,37.7832041 L0.0216774194,37.1060359 C0.0638405668,36.7765531 0.16835998,36.4497036 0.339612903,36.1434839 C0.576619355,35.7370323 0.881548387,35.4321032 1.2544,35.1947355 L1.37290323,35.1271742 C2.15256774,34.7203613 3.11829677,34.7033806 3.93192258,35.1777548 L10.8961548,39.1768774 L12.7322323,40.2340129 C13.3998968,40.6180645 14.2211097,40.6180645 14.8887742,40.2340129 L23.6724645,35.1777548 C24.5196903,34.6864 25.5024,34.7203613 26.2820645,35.1611355 C26.6715355,35.3811613 27.0104258,35.7200516 27.2647742,36.1434839 C27.8410323,37.1435355 27.6882065,38.3636129 26.9768258,39.1768774 C26.7904,39.3802839 26.5530323,39.5667097 26.2990452,39.7191742 L15.4032516,46.0056258 C14.9118968,46.2765935 14.3526194,46.4290581 13.8106839,46.4290581 C13.2514065,46.4290581 12.7091097,46.2765935 12.2177548,46.0056258 L1.30498065,39.7191742 C1.05099355,39.5667097 0.813987097,39.3802839 0.644541935,39.1768774 C0.300508732,38.7837715 0.0871476355,38.2956159 0.0216774188,37.7832035 Z M14.1691151,55.9783226 L13.4452518,55.9783226 C13.0158174,55.9273495 12.6012688,55.7879851 12.2177548,55.5762065 L1.30498065,49.2897548 C1.05099355,49.1372903 0.813987097,48.9512258 0.644541935,48.7478194 C0.300508733,48.3545388 0.0871476366,47.8663774 0.0216774194,47.3540464 L0.0216774194,46.6770279 C0.0638405668,46.347635 0.16835998,46.0208962 0.339612903,45.7147871 C0.576619355,45.3079742 0.881548387,45.0030452 1.2544,44.7656774 L1.37290323,44.6977548 C2.15256774,44.2913032 3.11829677,44.2743226 3.93192258,44.7486968 L10.8961548,48.7478194 L12.7322323,49.8045935 C13.3998968,50.1886452 14.2211097,50.1886452 14.8887742,49.8045935 L23.6724645,44.7486968 C24.5196903,44.2573419 25.5024,44.2913032 26.2820645,44.7320774 C26.6715355,44.9521032 27.0104258,45.2909935 27.2647742,45.7147871 C27.8410323,46.7144774 27.6882065,47.9341935 26.9768258,48.7478194 C26.7904,48.9512258 26.5530323,49.1372903 26.2990452,49.2897548 L15.4032516,55.5762065 C15.0197377,55.7879851 14.5948442,55.9273495 14.1691151,55.9783226 Z" id="Combined-Shape" fill="url(#linearGradient-2)"></path>
            </g>
            <g id="Group-58" transform="translate(44.000000, 8.000000)" fill="#FFFFFF">
                <path d="M4.4408921e-16,7.31215484 C4.4408921e-16,7.06467097 0.0715354839,6.85765161 0.214606452,6.69073548 C0.357316129,6.52454194 0.566503226,6.44144516 0.843251613,6.44144516 L3.21403871,6.44144516 C3.31845161,6.44144516 3.42575484,6.46276129 3.53486452,6.50539355 C3.64469677,6.54802581 3.74188387,6.61016774 3.82787097,6.69073548 C3.91349677,6.77202581 3.98503226,6.86487742 4.04211613,6.96929032 C4.0992,7.0747871 4.12774194,7.18895484 4.12774194,7.31215484 L4.12774194,23.7216 C4.12774194,24.2924387 3.82787097,24.5782194 3.22812903,24.5782194 L0.857341935,24.5782194 C0.285780645,24.5782194 4.4408921e-16,24.2924387 4.4408921e-16,23.7216 L4.4408921e-16,7.31215484 Z M4.4408921e-16,0.988490323 C4.4408921e-16,0.415122581 0.280722581,0.128619355 0.843251613,0.128619355 L3.24185806,0.128619355 C3.50885161,0.128619355 3.72309677,0.200877419 3.88495484,0.343587097 C4.0468129,0.487380645 4.12774194,0.702348387 4.12774194,0.988490323 L4.12774194,3.12407742 C4.12774194,3.34446452 4.05114839,3.55220645 3.89904516,3.74802581 C3.74658065,3.94384516 3.53233548,4.04211613 3.25630968,4.04211613 L0.857341935,4.04211613 C0.285780645,4.04211613 4.4408921e-16,3.73610323 4.4408921e-16,3.12407742 L4.4408921e-16,0.988490323 Z M8.58353548,6.85512258 C8.69770323,6.70301935 8.8068129,6.60763871 8.91194839,6.56934194 C8.98818065,6.49310968 9.10234839,6.45300645 9.25517419,6.44830968 C9.40727742,6.44325161 9.5499871,6.44144516 9.68330323,6.44144516 L11.1255742,6.44144516 C11.4019613,6.44144516 11.6060903,6.53176774 11.7394065,6.71205161 C11.8734452,6.89341935 11.9634065,7.0932129 12.0110968,7.31215484 L12.1682581,8.82632258 C12.3872,8.50224516 12.656,8.18322581 12.9750194,7.86890323 C13.2936774,7.55530323 13.6723097,7.27385806 14.1101935,7.02637419 C14.5480774,6.77889032 15.0481032,6.57909677 15.6099097,6.42699355 C16.1717161,6.27452903 16.8050581,6.19829677 17.5092129,6.19829677 C18.6328258,6.19829677 19.6321548,6.40025806 20.5086452,6.80490323 C21.3840516,7.20990968 22.1218065,7.76449032 22.722271,8.46900645 C23.3216516,9.17388387 23.7761548,10.0019613 24.0861419,10.9543226 C24.3950452,11.9063226 24.5496774,12.9302194 24.5496774,14.0245677 L24.5496774,23.5499871 C24.5496774,23.8928516 24.4691097,24.1493677 24.3076129,24.3209806 C24.1450323,24.4925935 23.912,24.5782194 23.6074323,24.5782194 L21.4368,24.5782194 C21.056,24.5782194 20.8016516,24.5070452 20.6730323,24.3639742 C20.5444129,24.2212645 20.4797419,23.9690839 20.4797419,23.607071 L20.4797419,14.0957419 C20.4797419,13.5913806 20.3941161,13.0985806 20.2228645,12.6173419 C20.0512516,12.1368258 19.8012387,11.7061677 19.4731871,11.3250065 C19.1444129,10.9445677 18.7372387,10.64 18.2520258,10.4113032 C17.7664516,10.1826065 17.2046452,10.0684387 16.5666065,10.0684387 C16.1287226,10.0684387 15.6742194,10.1565935 15.2027355,10.3325419 C14.7316129,10.5092129 14.3005935,10.7585032 13.9107613,11.0825806 C13.5198452,11.4062968 13.196129,11.7993806 12.9388903,12.2607484 C12.6823742,12.7224774 12.5486968,13.2438194 12.5396645,13.8244129 L12.5396645,23.0788645 C12.5396645,23.2595097 12.5299097,23.4408774 12.5111226,23.6215226 C12.4916129,23.8018065 12.4511484,23.9647484 12.389729,24.1067355 C12.3272258,24.2498065 12.2394323,24.3639742 12.1252645,24.4496 C12.0110968,24.5355871 11.863329,24.5782194 11.6823226,24.5782194 L9.3259871,24.5782194 C9.01202581,24.5782194 8.78116129,24.5048774 8.63339355,24.3571097 C8.4859871,24.2093419 8.41192258,23.9976258 8.41192258,23.7216 L8.41192258,7.2836129 C8.41192258,7.15065806 8.46900645,7.0075871 8.58353548,6.85512258 Z M28.6766968,6.49852903 C28.6766968,5.65094194 28.8053161,4.83442581 29.0625548,4.04934194 C29.3197935,3.26317419 29.6958968,2.57094194 30.1908645,1.97083871 C30.6858323,1.37109677 31.2924387,0.892387097 32.0114065,0.535793548 C32.7303742,0.17883871 33.5468903,7.10542736e-15 34.4605935,7.10542736e-15 L34.6036645,7.10542736e-15 C34.8796903,7.10542736e-15 35.0939355,0.0838193548 35.2467613,0.250012903 C35.3985032,0.416929032 35.4743742,0.643096774 35.4743742,0.928154839 L35.4743742,2.89935484 C35.4743742,3.17574194 35.4010323,3.40877419 35.2539871,3.5988129 C35.1054968,3.7892129 34.9035355,3.88459355 34.6462968,3.88459355 C34.5035871,3.88459355 34.3229419,3.92072258 34.104,3.99189677 C33.8846968,4.06343226 33.6755097,4.17507097 33.4753548,4.32717419 C33.2752,4.47963871 33.1039484,4.67509677 32.9616,4.9131871 C32.818529,5.15055484 32.7473548,5.432 32.7473548,5.75535484 L32.7473548,8.06905806 L34.8179097,8.06905806 C35.0939355,8.06905806 35.3081806,8.14059355 35.4602839,8.28330323 C35.6131097,8.42637419 35.6889806,8.66410323 35.6889806,8.9972129 L35.6889806,10.7541677 C35.6889806,11.0872774 35.6131097,11.3372903 35.4602839,11.5034839 C35.3081806,11.6704 35.0939355,11.7538581 34.8179097,11.7538581 L32.7473548,11.7538581 L32.7473548,23.6504258 C32.7473548,23.9546323 32.6472774,24.1854968 32.4471226,24.3426581 C32.2469677,24.4998194 32.0283871,24.5782194 31.7906581,24.5782194 L29.5763097,24.5782194 C29.2912516,24.5782194 29.0697806,24.4907871 28.9126194,24.3137548 C28.7554581,24.1378065 28.6766968,23.9163355 28.6766968,23.6504258 L28.6766968,11.7538581 L27.2626065,11.7538581 C26.9869419,11.7538581 26.7633032,11.6704 26.5916903,11.5034839 C26.4204387,11.3372903 26.3348129,11.0872774 26.3348129,10.7541677 L26.3348129,8.9972129 C26.3348129,8.66410323 26.4204387,8.42637419 26.5916903,8.28330323 C26.7633032,8.14059355 26.9869419,8.06905806 27.2626065,8.06905806 L28.6766968,8.06905806 L28.6766968,6.49852903 Z M41.2441806,15.4953806 C41.2441806,16.2577032 41.3778581,16.9784774 41.6444903,17.6591484 C41.9104,18.3394581 42.2821677,18.9373935 42.7583484,19.4507871 C43.2341677,19.9652645 43.7934452,20.3724387 44.4365419,20.6719484 C45.0789161,20.9721806 45.7809032,21.1221161 46.5428645,21.1221161 C47.3138581,21.1221161 48.0353548,20.9721806 48.7066323,20.6719484 C49.3771871,20.3724387 49.960671,19.9652645 50.4563613,19.4507871 C50.951329,18.9373935 51.3415226,18.3394581 51.6265806,17.6591484 C51.9123613,16.9784774 52.055071,16.2577032 52.055071,15.4953806 C52.055071,14.7431742 51.9123613,14.0270968 51.6265806,13.3464258 C51.3415226,12.6653935 50.951329,12.0681806 50.4563613,11.5537032 C49.960671,11.0399484 49.3771871,10.6306065 48.7066323,10.3256774 C48.0353548,10.0207484 47.3138581,9.86864516 46.5428645,9.86864516 C45.7809032,9.86864516 45.0789161,10.0207484 44.4365419,10.3256774 C43.7934452,10.6306065 43.2341677,11.0399484 42.7583484,11.5537032 C42.2821677,12.0681806 41.9104,12.6653935 41.6444903,13.3464258 C41.3778581,14.0270968 41.2441806,14.7431742 41.2441806,15.4953806 Z M56.0971871,23.7360516 C56.0971871,23.9073032 56.0614194,24.0474839 55.9898839,24.1569548 C55.9187097,24.2667871 55.8258581,24.3524129 55.7116903,24.4141935 C55.5971613,24.4763355 55.4660129,24.519329 55.3186065,24.5424516 C55.1708387,24.5666581 55.0165677,24.5782194 54.8547097,24.5782194 L53.0692129,24.5782194 C52.7646452,24.5782194 52.5525677,24.4976516 52.4337032,24.3354323 C52.3144774,24.1735742 52.2266839,23.9690839 52.1696,23.7216 L52.0839742,22.5076645 C51.7508645,22.8407742 51.3816258,23.152929 50.9769806,23.4426839 C50.5723355,23.7331613 50.1366194,23.9857032 49.6701935,24.1995871 C49.204129,24.4141935 48.7084387,24.5803871 48.184929,24.6999742 C47.6614194,24.8184774 47.1238194,24.8784516 46.5714065,24.8784516 C45.7147871,24.8784516 44.8885161,24.765729 44.0936774,24.5424516 C43.2984774,24.3191742 42.5534968,24.0048516 41.8587355,23.6002065 C41.1636129,23.1955613 40.5324387,22.7078194 39.9666581,22.1362581 C39.3997935,21.5650581 38.9142194,20.9320774 38.5095742,20.2369548 C38.1052903,19.5418323 37.7909677,18.7943226 37.567329,17.9947871 C37.343329,17.194529 37.2316903,16.3621161 37.2316903,15.4953806 C37.2316903,14.6290065 37.343329,13.795871 37.567329,12.9959742 C37.7909677,12.1964387 38.1052903,11.448929 38.5095742,10.7541677 C38.9142194,10.0590452 39.3997935,9.42823226 39.9666581,8.86209032 C40.5324387,8.2955871 41.1636129,7.8100129 41.8587355,7.40536774 C42.5534968,7.00072258 43.2984774,6.68603871 44.0936774,6.46276129 C44.8885161,6.23876129 45.7147871,6.12712258 46.5714065,6.12712258 C47.1809032,6.12712258 47.7614968,6.19107097 48.3135484,6.31969032 C48.8656,6.44830968 49.3826065,6.62895484 49.8631226,6.86234839 C50.3436387,7.09610323 50.7887484,7.37682581 51.1984516,7.70523871 C51.6077935,8.03329032 51.9792,8.39313548 52.3123097,8.78332903 L52.5124645,7.25507097 C52.5601548,7.08345806 52.6053161,6.94327742 52.6483097,6.83380645 C52.6909419,6.72433548 52.743329,6.63618065 52.8051097,6.56934194 C52.8672516,6.50322581 52.9456516,6.45770323 53.040671,6.43421935 C53.1364129,6.4100129 53.2549161,6.39845161 53.3976258,6.39845161 L54.8261677,6.39845161 C54.9779097,6.39845161 55.1307355,6.41290323 55.2828387,6.44144516 C55.4353032,6.4699871 55.5733161,6.5147871 55.6972387,6.57656774 C55.8204387,6.63870968 55.9187097,6.72433548 55.9898839,6.83380645 C56.0614194,6.94327742 56.0971871,7.07912258 56.0971871,7.24098065 L56.0971871,23.7360516 Z M65.9795613,24.5782194 C65.2273548,24.5691871 64.5199484,24.4542968 63.8587871,24.2353548 C63.1969032,24.0164129 62.6210065,23.6995613 62.1303742,23.2844387 C61.6401032,22.8700387 61.2524387,22.3602581 60.9662968,21.7547355 C60.6805161,21.1502968 60.5378065,20.4609548 60.5378065,19.6896 L60.5378065,10.0398968 L58.8961032,10.0398968 C58.6189935,10.0398968 58.4126968,9.97883871 58.2743226,9.85527742 C58.136671,9.73171613 58.0673032,9.52794839 58.0673032,9.2436129 L58.0673032,7.19473548 C58.0673032,6.91979355 58.136671,6.72578065 58.2743226,6.6116129 C58.4126968,6.49780645 58.6189935,6.44144516 58.8961032,6.44144516 L60.5378065,6.44144516 C60.5378065,5.93672258 60.5406968,5.43380645 60.5450323,4.93450323 C60.5500903,4.43411613 60.5522581,3.93228387 60.5522581,3.42756129 C60.5522581,3.23716129 60.611871,3.08722581 60.7307355,2.97811613 C60.8496,2.86828387 61.0327742,2.77073548 61.2809806,2.68510968 C61.4428387,2.62802581 61.6375742,2.55938065 61.866271,2.47809032 C62.0949677,2.39752258 62.330529,2.31876129 62.5736774,2.24216774 C62.8157419,2.16629677 63.0516645,2.1019871 63.2803613,2.04923871 C63.5090581,1.9972129 63.6990968,1.97083871 63.8519226,1.97083871 C64.1463742,1.97083871 64.3393032,2.05176774 64.4296258,2.21362581 C64.5199484,2.37620645 64.565471,2.58972903 64.565471,2.85672258 C64.565471,3.45610323 64.5629419,4.05367742 64.5586065,4.64872258 C64.5531871,5.24376774 64.5510194,5.84134194 64.5510194,6.44144516 L66.6078452,6.44144516 C66.8549677,6.44144516 67.0453677,6.50503226 67.1794065,6.63292903 C67.3123613,6.76154839 67.3788387,6.9627871 67.3788387,7.23772903 L67.3788387,9.18616774 C67.3788387,9.4900129 67.3123613,9.70859355 67.1794065,9.84082581 C67.0453677,9.97341935 66.8549677,10.0398968 66.6078452,10.0398968 L64.5510194,10.0398968 C64.5510194,10.659871 64.5510194,11.1841032 64.5510194,11.6125935 C64.5510194,12.0421677 64.5510194,12.4204387 64.5510194,12.7502968 C64.5510194,13.0787097 64.5531871,13.3858065 64.5586065,13.6723097 C64.5629419,13.9580903 64.565471,14.2680774 64.565471,14.6019097 C64.565471,14.9346581 64.565471,15.3169032 64.565471,15.7457548 C64.565471,16.1749677 64.565471,16.6988387 64.565471,17.3188129 L64.5586065,17.3758968 L64.5510194,17.4333419 L64.5510194,19.306271 C64.5510194,19.9356387 64.6745806,20.3883355 64.9227871,20.6650839 C65.170271,20.9411097 65.5698581,21.0791226 66.1226323,21.0791226 C66.3220645,21.0791226 66.4788645,21.1510194 66.5933935,21.293729 C66.7075613,21.4368 66.7646452,21.6080516 66.7646452,21.8074839 L66.7646452,23.7931355 C66.7646452,24.0406194 66.696,24.2335484 66.5576258,24.3712 C66.4199742,24.5092129 66.2270452,24.5782194 65.9795613,24.5782194 Z M69.8634323,7.31215484 C69.8634323,7.06467097 69.935329,6.85765161 70.0780387,6.69073548 C70.2211097,6.52454194 70.4299355,6.44144516 70.7066839,6.44144516 L73.077471,6.44144516 C73.1818839,6.44144516 73.2891871,6.46276129 73.3982968,6.50539355 C73.5077677,6.54802581 73.6056774,6.61016774 73.6913032,6.69073548 C73.776929,6.77202581 73.8484645,6.86487742 73.9055484,6.96929032 C73.9626323,7.0747871 73.9911742,7.18895484 73.9911742,7.31215484 L73.9911742,23.7216 C73.9911742,24.2924387 73.6913032,24.5782194 73.0915613,24.5782194 L70.7211355,24.5782194 C70.1492129,24.5782194 69.8634323,24.2924387 69.8634323,23.7216 L69.8634323,7.31215484 Z M69.8634323,0.988490323 C69.8634323,0.415122581 70.1441548,0.128619355 70.7066839,0.128619355 L73.1052903,0.128619355 C73.3722839,0.128619355 73.586529,0.200877419 73.7483871,0.343587097 C73.9102452,0.487380645 73.9911742,0.702348387 73.9911742,0.988490323 L73.9911742,3.12407742 C73.9911742,3.34446452 73.9145806,3.55220645 73.7624774,3.74802581 C73.6100129,3.94384516 73.3957677,4.04211613 73.1197419,4.04211613 L70.7211355,4.04211613 C70.1492129,4.04211613 69.8634323,3.73610323 69.8634323,3.12407742 L69.8634323,0.988490323 Z M90.4569806,19.8225548 C90.6188387,19.7181419 90.7546839,19.6538323 90.8634323,19.6296258 C90.9732645,19.6061419 91.0664774,19.5938581 91.1423484,19.5938581 C91.3038452,19.6036129 91.4422194,19.6896 91.5563871,19.8510968 L91.8996129,20.3229419 L92.9133935,21.7648516 C92.9607226,21.831329 92.9993806,21.9003355 93.0279226,21.971871 C93.0564645,22.0430452 93.0709161,22.1077161 93.0709161,22.1648 C93.0709161,22.3172645 93.0178065,22.4531097 92.9133935,22.5719742 C92.8082581,22.6908387 92.6706065,22.8122323 92.4993548,22.9357935 C91.6900645,23.5261419 90.8164645,24.0019613 89.8785548,24.3639742 C88.9402839,24.7256258 87.9098839,24.9069935 86.7866323,24.9069935 C85.9390452,24.9069935 85.1181935,24.7946323 84.3229935,24.5709935 C83.5281548,24.3477161 82.7857032,24.0333935 82.0952774,23.6287484 C81.4048516,23.2241032 80.7744,22.7381677 80.2032,22.1720258 C79.6316387,21.6055226 79.1392,20.9747097 78.7251613,20.2795871 C78.3104,19.5848258 77.9917419,18.8373161 77.7681032,18.0374194 C77.5441032,17.2375226 77.4324645,16.4047484 77.4324645,15.5383742 C77.4324645,14.672 77.5441032,13.8385032 77.7681032,13.0389677 C77.9917419,12.2394323 78.3104,11.4919226 78.7251613,10.7968 C79.1392,10.1016774 79.6316387,9.47122581 80.2032,8.90436129 C80.7744,8.33858065 81.4048516,7.85264516 82.0952774,7.448 C82.7857032,7.04335484 83.5281548,6.72903226 84.3229935,6.50539355 C85.1181935,6.28139355 85.9390452,6.16975484 86.7866323,6.16975484 C87.8434065,6.16975484 88.8430968,6.3316129 89.7853419,6.65496774 C90.7283097,6.97904516 91.5657806,7.41692903 92.2992,7.96898065 L92.2847484,7.95489032 C92.4177032,8.08856774 92.5492129,8.20490323 92.6778323,8.30498065 C92.8060903,8.40469677 92.8707613,8.55932903 92.8707613,8.76923871 C92.8707613,8.82632258 92.867871,8.8928 92.8635355,8.96867097 C92.8584774,9.04526452 92.8324645,9.1168 92.7851355,9.18291613 L91.6138323,10.9684129 C91.4227097,11.253471 91.2135226,11.3961806 90.9848258,11.3961806 C90.823329,11.3961806 90.6426839,11.3159742 90.442529,11.1544774 C89.9569548,10.7444129 89.3904516,10.4113032 88.7430194,10.1540645 C88.0952258,9.8971871 87.4290065,9.76892903 86.7436387,9.76892903 C86.0011871,9.76892903 85.3038968,9.9232 84.6517677,10.2324645 C83.9992774,10.5420903 83.4255484,10.9611871 82.9302194,11.4890323 C82.4356129,12.0179613 82.0450581,12.6317935 81.7592774,13.3319742 C81.4742194,14.0314323 81.3315097,14.7670194 81.3315097,15.5383742 C81.3315097,16.3288774 81.4742194,17.071329 81.7592774,17.7660903 C82.0450581,18.4612129 82.4330839,19.0660129 82.9233548,19.5797677 C83.4136258,20.0942452 83.9873548,20.5014194 84.6449032,20.800929 C85.3013677,21.1008 86.0011871,21.2507355 86.7436387,21.2507355 C87.552929,21.2507355 88.2527484,21.1105548 88.8430968,20.829471 C89.4330839,20.5487484 89.9714065,20.2131097 90.4569806,19.8225548 Z M99.0394323,15.4953806 C99.0394323,16.2577032 99.173471,16.9784774 99.4397419,17.6591484 C99.7060129,18.3394581 100.077419,18.9373935 100.553961,19.4507871 C101.029781,19.9652645 101.589058,20.3724387 102.231794,20.6719484 C102.874529,20.9721806 103.576516,21.1221161 104.338477,21.1221161 C105.109471,21.1221161 105.830968,20.9721806 106.502245,20.6719484 C107.1728,20.3724387 107.755923,19.9652645 108.251613,19.4507871 C108.746942,18.9373935 109.137135,18.3394581 109.422194,17.6591484 C109.707974,16.9784774 109.850684,16.2577032 109.850684,15.4953806 C109.850684,14.7431742 109.707974,14.0270968 109.422194,13.3464258 C109.137135,12.6653935 108.746942,12.0681806 108.251613,11.5537032 C107.755923,11.0399484 107.1728,10.6306065 106.502245,10.3256774 C105.830968,10.0207484 105.109471,9.86864516 104.338477,9.86864516 C103.576516,9.86864516 102.874529,10.0207484 102.231794,10.3256774 C101.589058,10.6306065 101.029781,11.0399484 100.553961,11.5537032 C100.077419,12.0681806 99.7060129,12.6653935 99.4397419,13.3464258 C99.173471,14.0270968 99.0394323,14.7431742 99.0394323,15.4953806 Z M113.8928,23.7360516 C113.8928,23.9073032 113.857032,24.0474839 113.785497,24.1569548 C113.714323,24.2667871 113.621471,24.3524129 113.506942,24.4141935 C113.392774,24.4763355 113.261626,24.519329 113.113858,24.5424516 C112.966452,24.5666581 112.811819,24.5782194 112.650323,24.5782194 L110.864826,24.5782194 C110.560258,24.5782194 110.348181,24.4976516 110.229316,24.3354323 C110.11009,24.1735742 110.022297,23.9690839 109.965213,23.7216 L109.879226,22.5076645 C109.546116,22.8407742 109.177239,23.152929 108.772594,23.4426839 C108.367948,23.7331613 107.932232,23.9857032 107.465806,24.1995871 C106.999742,24.4141935 106.504052,24.5803871 105.980181,24.6999742 C105.457032,24.8184774 104.919071,24.8784516 104.367019,24.8784516 C103.510039,24.8784516 102.684129,24.765729 101.888929,24.5424516 C101.09409,24.3191742 100.34911,24.0048516 99.6543484,23.6002065 C98.9592258,23.1955613 98.3280516,22.7078194 97.7619097,22.1362581 C97.1950452,21.5650581 96.7098323,20.9320774 96.3051871,20.2369548 C95.9005419,19.5418323 95.5862194,18.7943226 95.3629419,17.9947871 C95.1385806,17.194529 95.0269419,16.3621161 95.0269419,15.4953806 C95.0269419,14.6290065 95.1385806,13.795871 95.3629419,12.9959742 C95.5862194,12.1964387 95.9005419,11.448929 96.3051871,10.7541677 C96.7098323,10.0590452 97.1950452,9.42823226 97.7619097,8.86209032 C98.3280516,8.2955871 98.9592258,7.8100129 99.6543484,7.40536774 C100.34911,7.00072258 101.09409,6.68603871 101.888929,6.46276129 C102.684129,6.23876129 103.510039,6.12712258 104.367019,6.12712258 C104.976155,6.12712258 105.556748,6.19107097 106.109161,6.31969032 C106.661213,6.44830968 107.178219,6.62895484 107.658735,6.86234839 C108.139252,7.09610323 108.584,7.37682581 108.994065,7.70523871 C109.403406,8.03329032 109.774813,8.39313548 110.107923,8.78332903 L110.308077,7.25507097 C110.355768,7.08345806 110.400929,6.94327742 110.443923,6.83380645 C110.486555,6.72433548 110.538581,6.63618065 110.600361,6.56934194 C110.662503,6.50322581 110.741265,6.45770323 110.836284,6.43421935 C110.931665,6.4100129 111.050168,6.39845161 111.193239,6.39845161 L112.621781,6.39845161 C112.773523,6.39845161 112.926348,6.41290323 113.078452,6.44144516 C113.230916,6.4699871 113.368568,6.5147871 113.49249,6.57656774 C113.616052,6.63870968 113.714323,6.72433548 113.785497,6.83380645 C113.857032,6.94327742 113.8928,7.07912258 113.8928,7.24098065 L113.8928,23.7360516 Z M116.060903,21.8219355 C116.060903,21.5556645 116.09631,21.3269677 116.168206,21.1365677 C116.239381,20.9461677 116.4128,20.8507871 116.689548,20.8507871 L118.931716,20.8507871 C119.045884,20.8507871 119.162219,20.8558452 119.281084,20.8652387 C119.400671,20.8749935 119.509781,20.9006452 119.609858,20.9436387 C119.709574,20.986271 119.793032,21.0487742 119.859871,21.1293419 C119.925987,21.2106323 119.959948,21.3269677 119.959948,21.4794323 L119.959948,23.5929806 C119.959948,23.7259355 119.954529,23.8502194 119.945858,23.9647484 C119.935742,24.0781935 119.909729,24.183329 119.867097,24.2783484 C119.824103,24.3733677 119.759794,24.4477935 119.674168,24.4998194 C119.588181,24.5525677 119.469316,24.5782194 119.316852,24.5782194 L117.074684,24.5782194 C116.741213,24.5782194 116.489394,24.5424516 116.318142,24.4712774 C116.146529,24.3997419 116.060903,24.2212645 116.060903,23.9362065 L116.060903,21.8219355 Z M121.990761,15.7331097 C121.990761,15.6066581 122.02689,15.5000774 122.100232,15.4151742 C122.173935,15.3299097 122.280877,15.2869161 122.422503,15.2869161 L123.636439,15.2869161 C123.690632,15.2869161 123.744826,15.2981161 123.801187,15.3194323 C123.857548,15.341471 123.907045,15.3732645 123.951484,15.4151742 C123.9952,15.4567226 124.032052,15.5040516 124.061316,15.5571613 C124.090581,15.6113548 124.104671,15.6698839 124.104671,15.7331097 L124.104671,24.1392516 C124.104671,24.4322581 123.951484,24.5782194 123.644387,24.5782194 L122.429729,24.5782194 C122.136723,24.5782194 121.990761,24.4322581 121.990761,24.1392516 L121.990761,15.7331097 Z M121.990761,12.4937806 C121.990761,12.1996903 122.134194,12.0530065 122.422503,12.0530065 L123.651252,12.0530065 C123.787819,12.0530065 123.897652,12.0898581 123.980748,12.1635613 C124.063123,12.2369032 124.104671,12.3463742 124.104671,12.4937806 L124.104671,13.5877677 C124.104671,13.700129 124.066013,13.8067097 123.987974,13.9075097 C123.909935,14.0075871 123.800465,14.0574452 123.658477,14.0574452 L122.429729,14.0574452 C122.136723,14.0574452 121.990761,13.9010065 121.990761,13.5877677 L121.990761,12.4937806 Z M128.019252,19.9475613 C128.019252,20.3377548 128.087535,20.7073548 128.224103,21.0552774 C128.361394,21.4042839 128.55071,21.708129 128.794942,21.9664516 C129.038813,22.2251355 129.327484,22.4299871 129.662039,22.5813677 C129.995871,22.7323871 130.360413,22.8078968 130.755665,22.8078968 C131.141161,22.8078968 131.498116,22.7323871 131.827252,22.5813677 C132.156748,22.4299871 132.440723,22.2251355 132.679897,21.9664516 C132.91871,21.708129 133.104774,21.4042839 133.239535,21.0552774 C133.373574,20.7073548 133.440774,20.3377548 133.440774,19.9475613 C133.440774,19.5620645 133.373574,19.1939097 133.239535,18.8423742 C133.104774,18.4908387 132.91871,18.1833806 132.679897,17.9167484 C132.440723,17.6512 132.156748,17.4387613 131.827252,17.2805161 C131.498116,17.1219097 131.141161,17.0424258 130.755665,17.0424258 C130.360413,17.0424258 129.995871,17.1219097 129.662039,17.2805161 C129.327484,17.4387613 129.038813,17.6512 128.794942,17.9167484 C128.55071,18.1833806 128.361394,18.4908387 128.224103,18.8423742 C128.087535,19.1939097 128.019252,19.5620645 128.019252,19.9475613 Z M125.956284,19.9475613 C125.956284,19.5035355 126.013729,19.0754065 126.127897,18.6631742 C126.242065,18.2513032 126.405006,17.8668903 126.614555,17.5106581 C126.823742,17.1551484 127.0752,16.8314323 127.367484,16.5413161 C127.659406,16.2515613 127.983845,16.0026323 128.339716,15.7956129 C128.695587,15.587871 129.076748,15.4274581 129.483561,15.3122065 C129.890735,15.1980387 130.315613,15.1402323 130.758916,15.1402323 C131.198245,15.1402323 131.621677,15.1980387 132.031381,15.3122065 C132.440723,15.4274581 132.821884,15.587871 133.175226,15.7956129 C133.528568,16.0026323 133.851561,16.2515613 134.144206,16.5413161 C134.43649,16.8314323 134.687226,17.1551484 134.897135,17.5106581 C135.105961,17.8668903 135.268903,18.2513032 135.383071,18.6631742 C135.4976,19.0754065 135.555045,19.5035355 135.555045,19.9475613 C135.555045,20.3908645 135.4976,20.8179097 135.383071,21.2272516 C135.268903,21.6373161 135.105961,22.0192 134.897135,22.3725419 C134.687226,22.7258839 134.43649,23.0492387 134.144206,23.3415226 C133.851561,23.6348903 133.528568,23.8845419 133.175226,24.0915613 C132.821884,24.2989419 132.440723,24.4600774 132.031381,24.5742452 C131.621677,24.6894968 131.198245,24.7465806 130.758916,24.7465806 C130.315613,24.7465806 129.890735,24.6894968 129.483561,24.5742452 C129.076748,24.4600774 128.695587,24.2989419 128.339716,24.0915613 C127.983845,23.8845419 127.659406,23.6348903 127.367484,23.3415226 C127.0752,23.0492387 126.823742,22.7258839 126.614555,22.3725419 C126.405006,22.0192 126.242065,21.6373161 126.127897,21.2272516 C126.013729,20.8179097 125.956284,20.3908645 125.956284,19.9475613 Z" id="Combined-Shape"></path>
                <path d="M3.18868548,38.6475448 C2.6932787,38.6475448 2.24968607,38.563479 1.85843632,38.3964047 C1.46771529,38.2298592 1.13303813,37.9993391 0.855462296,37.7064305 C0.577357742,37.4145793 0.365342674,37.070914 0.219417091,36.676492 C0.0729627916,36.2825986 -4.97379915e-14,35.8612121 -4.97379915e-14,35.4133897 C-4.97379915e-14,34.9835437 0.0761350869,34.571674 0.228405261,34.177252 C0.380146719,33.78283 0.593747935,33.436521 0.868680193,33.1383253 C1.14308374,32.8390721 1.47353116,32.6022074 1.85843632,32.4256163 C2.2438702,32.2495539 2.67213006,32.1617871 3.14427335,32.1617871 C3.40704514,32.1617871 3.64708215,32.1792347 3.86544181,32.2157161 C4.08327275,32.25114 4.28629965,32.3045403 4.4745225,32.3764457 C4.66274536,32.4483511 4.83880775,32.5366466 5.00323838,32.6408036 C5.16714031,32.7449607 5.3268125,32.863393 5.48225497,32.9945146 L5.02544445,33.5322186 C4.90595466,33.4248893 4.780649,33.3276056 4.64899874,33.2408962 C4.51787721,33.1547155 4.37618135,33.0796378 4.22338246,33.0167206 C4.07111229,32.9543322 3.90403807,32.9051616 3.7221598,32.8692089 C3.53975283,32.8337849 3.33831207,32.8152799 3.11730884,32.8152799 C2.77099993,32.8152799 2.45112683,32.884013 2.15874694,33.0220078 C1.86583835,33.1594739 1.61522702,33.3450532 1.40638424,33.5787456 C1.19701276,33.8119093 1.03311083,34.0857842 0.913621043,34.3993127 C0.794131254,34.7133699 0.734386359,35.0469896 0.734386359,35.4001718 C0.734386359,35.7771463 0.792545106,36.12557 0.9088626,36.4459718 C1.02570881,36.765845 1.19119688,37.0418346 1.40638424,37.2755271 C1.62157161,37.5086908 1.88117111,37.6916265 2.18571145,37.822748 C2.4902518,37.9543983 2.83338841,38.0204877 3.21564999,38.0204877 C3.57411936,38.0204877 3.91144009,37.9591567 4.2281409,37.8359659 C4.544313,37.7133038 4.81025709,37.5647347 5.02544445,37.3907871 L5.02544445,35.8257881 L3.11730884,35.8257881 L3.11730884,35.1982024 L5.70643051,35.1982024 L5.70643051,37.6916265 C5.41352191,37.9533408 5.05346639,38.1785738 4.62679268,38.3657392 C4.19959025,38.5534333 3.72057366,38.6475448 3.18868548,38.6475448 Z M7.87416562,38.5402155 L7.87416562,32 L8.56413985,32 L8.56413985,38.5402155 L7.87416562,38.5402155 Z M12.9085982,38.6475448 C12.5622893,38.6475448 12.2424162,38.5830414 11.9500363,38.4545635 C11.6576565,38.3266142 11.4038728,38.1531954 11.1886855,37.9353645 C10.9734981,37.7175335 10.8064239,37.4616351 10.6869341,37.1692552 C10.5674443,36.8768753 10.5076994,36.5659904 10.5076994,36.2376578 C10.5076994,35.9093252 10.5674443,35.5968541 10.6869341,35.301302 C10.8064239,35.0057498 10.9734981,34.7477364 11.1886855,34.5267332 C11.4038728,34.30573 11.6592426,34.1312537 11.9547948,34.002247 C12.250347,33.8737691 12.5739211,33.8097945 12.9265746,33.8097945 C13.2728835,33.8097945 13.593814,33.8737691 13.8893662,34.002247 C14.1854471,34.1312537 14.4408169,34.3041438 14.6554755,34.5219748 C14.8706629,34.7403344 15.0377371,34.9951755 15.1572269,35.2880841 C15.2767167,35.5809927 15.3364616,35.8913489 15.3364616,36.2196814 C15.3364616,36.5485427 15.2751305,36.8604851 15.1524684,37.1555086 C15.0303351,37.4515895 14.8616747,37.7096028 14.6464873,37.930606 C14.4318287,38.1516093 14.1748728,38.3266142 13.8761483,38.4545635 C13.5774238,38.5830414 13.2549071,38.6475448 12.9085982,38.6475448 Z M12.9085982,34.4188752 C12.6579869,34.4188752 12.4279955,34.4648734 12.2191527,34.5573987 C12.0097812,34.649924 11.8321327,34.7778732 11.6856784,34.9417752 C11.5392241,35.1056771 11.4244928,35.2965435 11.3409557,35.5138457 C11.2574185,35.731148 11.21565,35.9648404 11.21565,36.2154517 C11.21565,36.4655343 11.2590047,36.7008129 11.3451854,36.9212874 C11.4318948,37.1417619 11.5513846,37.3320997 11.7036547,37.493358 C11.8559249,37.6540876 12.0367458,37.7820369 12.2455885,37.8777345 C12.4544313,37.9729033 12.6817791,38.0204877 12.9265746,38.0204877 C13.1777146,38.0204877 13.4071773,37.9739607 13.6165488,37.8819642 C13.8253916,37.7899676 14.0046263,37.6630758 14.1537241,37.5023462 C14.302822,37.3410878 14.4196682,37.1518075 14.5032053,36.9345053 C14.5867424,36.7172031 14.628511,36.4835107 14.628511,36.2328993 C14.628511,35.9833454 14.5851563,35.7475382 14.4989756,35.5270636 C14.4122662,35.3065891 14.2911903,35.1146653 14.1362765,34.9507633 C13.980834,34.7873901 13.7984271,34.657326 13.5895843,34.5621572 C13.3802128,34.4664596 13.1533937,34.4188752 12.9085982,34.4188752 Z M19.6724605,38.6385566 C19.4572731,38.6385566 19.2600621,38.6115921 19.0813562,38.5581918 C18.9021215,38.5042628 18.7403344,38.4323574 18.5975811,38.3424757 C18.4542991,38.2531227 18.324235,38.1489657 18.2073888,38.0294759 C18.0910713,37.9099861 17.9879717,37.7846805 17.8986187,37.6530302 L17.8986187,38.5402155 L17.2086445,38.5402155 L17.2086445,32 L17.8986187,32 L17.8986187,34.839733 C17.9937876,34.7027956 18.1000595,34.571674 18.216377,34.4458397 C18.3332232,34.320534 18.4627586,34.2116185 18.6065693,34.1190933 C18.7498513,34.0260393 18.9089948,33.952019 19.0855859,33.8949177 C19.2616483,33.8383451 19.4572731,33.8097945 19.6724605,33.8097945 C19.9468641,33.8097945 20.2170379,33.8637235 20.482982,33.9710528 C20.748926,34.0783821 20.9863195,34.2354107 21.1951622,34.4416099 C21.4045337,34.6472804 21.571608,34.9000066 21.6969136,35.1982024 C21.8222193,35.4974556 21.8851365,35.8374199 21.8851365,36.2196814 C21.8851365,36.601943 21.8222193,36.9424361 21.6969136,37.2406318 C21.571608,37.539885 21.4061199,37.7915538 21.199392,37.997753 C20.9937215,38.2039522 20.7579142,38.3625669 20.4919701,38.4730685 C20.226026,38.5830414 19.9526799,38.6385566 19.6724605,38.6385566 Z M19.5466261,34.4373802 C19.3319675,34.4373802 19.1241821,34.4802062 18.9243275,34.5663869 C18.7239442,34.6525676 18.5447095,34.7725861 18.3866235,34.9269711 C18.2285374,35.0813562 18.1027031,35.2690503 18.0107065,35.4889961 C17.9176525,35.7089419 17.8716542,35.9521512 17.8716542,36.2196814 C17.8716542,36.4872117 17.9176525,36.7320071 18.0107065,36.9551252 C18.1027031,37.1777146 18.2285374,37.3669949 18.3866235,37.5213799 C18.5447095,37.675765 18.7239442,37.7957835 18.9243275,37.8819642 C19.1241821,37.9681449 19.3319675,38.0109709 19.5466261,38.0109709 C19.7676294,38.0109709 19.9780583,37.9713172 20.1784416,37.8909523 C20.3782962,37.8111163 20.551715,37.6953275 20.6981693,37.543586 C20.8446236,37.3923733 20.9609411,37.2046791 21.0476505,36.981561 C21.1338312,36.7589716 21.1771859,36.5083603 21.1771859,36.2286696 C21.1771859,35.9553235 21.1338312,35.7089419 21.0476505,35.4889961 C20.9609411,35.2690503 20.8430375,35.0802987 20.6934109,34.9232701 C20.544313,34.7657128 20.3714229,34.6446368 20.1736832,34.5616284 C19.9770009,34.4786201 19.7676294,34.4373802 19.5466261,34.4373802 Z M25.1637037,38.6385566 C24.9485163,38.6385566 24.7380874,38.6084198 24.5324169,38.5486749 C24.3262177,38.4894587 24.1406384,38.3979909 23.9767365,38.2753288 C23.8123059,38.1531954 23.6811843,38.0025114 23.5828432,37.8232767 C23.4839733,37.644042 23.4348027,37.4325557 23.4348027,37.1872315 C23.4348027,36.9424361 23.4823872,36.7261913 23.5780847,36.5374397 C23.6737823,36.3497456 23.8091336,36.1927169 23.9857247,36.0674113 C24.1617871,35.9415769 24.3706298,35.846408 24.6127817,35.7808473 C24.8544049,35.7152865 25.1219351,35.6819774 25.4148437,35.6819774 C25.7130395,35.6819774 25.9731677,35.6999537 26.1941709,35.7359064 C26.4146454,35.7718591 26.6298328,35.8194435 26.8386756,35.8791884 L26.8386756,35.7184588 C26.8386756,35.3002445 26.7181283,34.9851299 26.4759765,34.7725861 C26.2343533,34.5610997 25.8954464,34.4548278 25.4592558,34.4548278 C25.1848523,34.4548278 24.9352984,34.4860221 24.7111229,34.5489393 C24.487476,34.6118565 24.268059,34.6938074 24.0528716,34.7953209 L23.8466724,34.2306523 C24.1036283,34.1116912 24.3632278,34.0175798 24.6259996,33.9488467 C24.8887714,33.8801137 25.1906682,33.8457471 25.5311612,33.8457471 C26.1640341,33.8457471 26.6509814,34.002247 26.9914745,34.3157756 C27.3319675,34.6298328 27.5016853,35.0940453 27.5016853,35.7089419 L27.5016853,38.5402155 L26.8386756,38.5402155 L26.8386756,37.8412531 C26.6779459,38.0506245 26.4611724,38.2351464 26.1894125,38.3964047 C25.9176525,38.5581918 25.5755733,38.6385566 25.1637037,38.6385566 Z M25.4909788,36.1927169 C25.0563743,36.1927169 24.7227546,36.2794263 24.4906483,36.4523164 C24.2585421,36.6257352 24.1422246,36.8620712 24.1422246,37.160267 C24.1422246,37.3093649 24.1734188,37.4410151 24.236336,37.5541603 C24.2987245,37.6678342 24.383319,37.765118 24.4906483,37.8454828 C24.5979777,37.9258476 24.7211685,37.9877074 24.8612782,38.0294759 C25.0008592,38.0712445 25.1483709,38.0918644 25.3032846,38.0918644 C25.5174146,38.0918644 25.7183266,38.0606701 25.9060208,37.997753 C26.0931862,37.9353645 26.2570881,37.8486551 26.3971978,37.7381535 C26.5367788,37.6276518 26.6472804,37.4965303 26.7271165,37.3442601 C26.8074813,37.19199 26.8476637,37.0228009 26.8476637,36.8377503 L26.8476637,36.389928 C26.6753024,36.3418148 26.4770339,36.2974027 26.2539158,36.2556341 C26.0307977,36.2138656 25.7764854,36.1927169 25.4909788,36.1927169 Z M29.6604322,38.5402155 L29.6604322,32 L30.3504065,32 L30.3504065,38.5402155 L29.6604322,38.5402155 Z M36.7198467,38.5402155 L36.0118961,38.5402155 L36.0118961,32.2691164 L38.3593946,32.2691164 C38.7115194,32.2691164 39.0324499,32.3151147 39.3221862,32.4081687 C39.6119225,32.5006939 39.8593616,32.6318155 40.0655608,32.802062 C40.27176,32.9723085 40.429846,33.18168 40.5408763,33.429119 C40.6508492,33.6770868 40.7063644,33.9562488 40.7063644,34.266605 C40.7063644,34.607098 40.6402749,34.9058225 40.5091534,35.1627784 C40.3775031,35.4192056 40.1998546,35.634393 39.9762078,35.8072831 C39.7520323,35.9812306 39.4908466,36.110766 39.1921221,36.1974754 C38.8933977,36.2841848 38.5772256,36.3270108 38.2425484,36.3270108 L36.7198467,36.3270108 L36.7198467,38.5402155 Z M36.7198467,32.9226092 L36.7198467,35.6819774 L38.2737426,35.6819774 C38.5312273,35.6819774 38.7665058,35.6497257 38.9790496,35.5836362 C39.1915934,35.5180755 39.3740004,35.423964 39.5267993,35.301302 C39.6795982,35.1791686 39.7964444,35.0327143 39.8773379,34.8624678 C39.9582314,34.6922213 39.9984139,34.502941 39.9984139,34.2935695 C39.9984139,33.8399313 39.8445575,33.4978521 39.5357875,33.2678607 C39.2275461,33.0378693 38.8188487,32.9226092 38.3096953,32.9226092 L36.7198467,32.9226092 Z M44.4956711,38.6475448 C44.1789703,38.6475448 43.8802459,38.5888573 43.6000264,38.4730685 C43.3192783,38.3562223 43.0734254,38.1917917 42.8635252,37.9803053 C42.6525676,37.7682903 42.4854934,37.5129205 42.3612451,37.214196 C42.2375256,36.9154715 42.1756659,36.587139 42.1756659,36.2286696 C42.1756659,35.8945212 42.2306523,35.5794065 42.3411539,35.2833256 C42.4516555,34.9883022 42.6055119,34.7308175 42.8027229,34.5129866 C42.9994052,34.2951556 43.234155,34.123323 43.505915,33.9980173 C43.777675,33.8721829 44.0748133,33.8097945 44.39733,33.8097945 C44.7372943,33.8097945 45.0423634,33.8737691 45.310951,34.002247 C45.5795387,34.1312537 45.8063578,34.30573 45.9914084,34.5267332 C46.1769876,34.7477364 46.3170973,35.0073359 46.4127949,35.3060604 C46.5084925,35.6047849 46.5560769,35.9241293 46.5560769,36.2646223 L46.5560769,36.3629635 L46.5470888,36.4792809 L42.8830877,36.4792809 C42.9068799,36.730421 42.9666248,36.9530104 43.0623224,37.1470491 C43.15802,37.3410878 43.2801533,37.5049898 43.4297799,37.6392836 C43.5788778,37.7741061 43.745952,37.8756196 43.9310026,37.9438239 C44.1165819,38.012557 44.3106206,38.0474523 44.5136475,38.0474523 C44.8361642,38.0474523 45.1121539,37.9877074 45.3421453,37.8682176 C45.5721367,37.7481991 45.7825656,37.5906417 45.9739607,37.3934307 L46.4038068,37.7783359 C46.1706431,38.0411077 45.9052277,38.2520653 45.6065032,38.4096226 C45.3077787,38.5682374 44.9376776,38.6475448 44.4956711,38.6475448 Z M44.3793536,34.3924394 C44.1773842,34.3924394 43.9902188,34.4326218 43.8183861,34.5129866 C43.6460247,34.5938801 43.494812,34.7043817 43.3642192,34.8444914 C43.2336263,34.9851299 43.1268257,35.1506179 43.0432886,35.3420131 C42.9602802,35.5328795 42.9068799,35.7417223 42.8830877,35.9685414 L45.8481264,35.9685414 C45.8306787,35.7602273 45.787324,35.559844 45.7191197,35.3684489 C45.6509153,35.1775824 45.5562752,35.0105082 45.4341418,34.8666975 C45.3125372,34.7239442 45.1644967,34.6086842 44.9894918,34.5219748 C44.8139581,34.4357941 44.6109312,34.3924394 44.3793536,34.3924394 Z M50.4262772,38.6475448 C50.1095764,38.6475448 49.8108519,38.5888573 49.5301038,38.4730685 C49.2498843,38.3562223 49.0040315,38.1917917 48.7936025,37.9803053 C48.5831736,37.7682903 48.4160994,37.5129205 48.2918512,37.214196 C48.1681317,36.9154715 48.1057432,36.587139 48.1057432,36.2286696 C48.1057432,35.8945212 48.1612583,35.5794065 48.27176,35.2833256 C48.3822616,34.9883022 48.5361179,34.7308175 48.7333289,34.5129866 C48.9300112,34.2951556 49.1647611,34.123323 49.436521,33.9980173 C49.7077523,33.8721829 50.0048906,33.8097945 50.327936,33.8097945 C50.6679003,33.8097945 50.9724407,33.8737691 51.2415571,34.002247 C51.5101447,34.1312537 51.7369638,34.30573 51.9220144,34.5267332 C52.107065,34.7477364 52.2477034,35.0073359 52.343401,35.3060604 C52.4385698,35.6047849 52.486683,35.9241293 52.486683,36.2646223 L52.486683,36.3629635 L52.4776948,36.4792809 L48.8136937,36.4792809 C48.837486,36.730421 48.8972309,36.9530104 48.9929284,37.1470491 C49.0880973,37.3410878 49.2107594,37.5049898 49.360386,37.6392836 C49.5094838,37.7741061 49.6765581,37.8756196 49.8616086,37.9438239 C50.0466592,38.012557 50.2412266,38.0474523 50.4442535,38.0474523 C50.7667702,38.0474523 51.0427599,37.9877074 51.2727513,37.8682176 C51.5027427,37.7481991 51.7131716,37.5906417 51.9045668,37.3934307 L52.3344128,37.7783359 C52.1012491,38.0411077 51.8358337,38.2520653 51.5371092,38.4096226 C51.2383848,38.5682374 50.8682837,38.6475448 50.4262772,38.6475448 Z M50.3099597,34.3924394 C50.1079902,34.3924394 49.9208248,34.4326218 49.7484634,34.5129866 C49.5766308,34.5938801 49.425418,34.7043817 49.2948252,34.8444914 C49.1642324,34.9851299 49.056903,35.1506179 48.9738947,35.3420131 C48.8908863,35.5328795 48.837486,35.7417223 48.8136937,35.9685414 L51.7787324,35.9685414 C51.7612848,35.7602273 51.7179301,35.559844 51.6497257,35.3684489 C51.5815214,35.1775824 51.4868812,35.0105082 51.3647479,34.8666975 C51.2431432,34.7239442 51.0945741,34.6086842 50.9195691,34.5219748 C50.7445641,34.4357941 50.5410085,34.3924394 50.3099597,34.3924394 Z M55.0128874,38.5402155 L54.3229132,38.5402155 L54.3229132,33.9086643 L55.0128874,33.9086643 L55.0128874,35.1178376 C55.0964246,34.9264424 55.2011103,34.7509087 55.326416,34.5891217 C55.4522503,34.4278633 55.5955324,34.2888111 55.756262,34.1730223 C55.9175203,34.0561761 56.0935827,33.9684092 56.2849779,33.9086643 C56.4583967,33.8542066 56.6434472,33.8272421 56.841187,33.8272421 C56.8618069,33.8272421 56.8824268,33.8272421 56.9030467,33.8277708 L56.9030467,34.571674 L56.8496464,34.571674 C56.5985064,34.571674 56.3611129,34.6166149 56.1369374,34.7059679 C55.9132906,34.7953209 55.7176657,34.9296147 55.5505915,35.1088494 C55.3829886,35.2880841 55.251867,35.5106735 55.1561695,35.7760888 C55.0604719,36.0420329 55.0128874,36.3481594 55.0128874,36.6944683 L55.0128874,38.5402155 Z M58.3903245,36.2106933 L58.3903245,35.4852951 L60.8805763,35.4852951 L60.8805763,36.2106933 L58.3903245,36.2106933 Z M64.4102835,38.6205803 C64.2247042,38.6205803 64.0518142,38.5967881 63.8905558,38.5486749 C63.7292975,38.5010905 63.5902452,38.4249554 63.4739277,38.3202696 C63.3576102,38.2161126 63.2661424,38.0797039 63.2005816,37.9126297 C63.1350208,37.7455555 63.1022404,37.5457009 63.1022404,37.3125372 L63.1022404,34.517745 L62.4572071,34.517745 L62.4572071,33.9086643 L63.1022404,33.9086643 L63.1022404,32.5107395 L63.7922147,32.5107395 L63.7922147,33.9086643 L65.2609874,33.9086643 L65.2609874,34.517745 L63.7922147,34.517745 L63.7922147,37.2226555 C63.7922147,37.5097482 63.8635913,37.7096028 64.0068733,37.8232767 C64.1501553,37.9369506 64.3383782,37.9935232 64.5715419,37.9935232 C64.6910317,37.9935232 64.8025907,37.9818915 64.9072765,37.9575706 C65.0119622,37.9337783 65.1235212,37.8920098 65.2435398,37.8322649 L65.2435398,38.4233692 C65.1235212,38.4894587 64.9966294,38.5386293 64.8623356,38.5714097 C64.7280418,38.6041901 64.5773577,38.6205803 64.4102835,38.6205803 Z M69.0867755,38.6475448 C68.7399379,38.6475448 68.4200648,38.5830414 68.1276849,38.4545635 C67.835305,38.3266142 67.5815214,38.1531954 67.366334,37.9353645 C67.1511467,37.7175335 66.9840724,37.4616351 66.8645826,37.1692552 C66.7450929,36.8768753 66.685348,36.5659904 66.685348,36.2376578 C66.685348,35.9093252 66.7450929,35.5968541 66.8645826,35.301302 C66.9840724,35.0057498 67.1511467,34.7477364 67.366334,34.5267332 C67.5815214,34.30573 67.8363624,34.1312537 68.1319146,34.002247 C68.4279955,33.8737691 68.7515696,33.8097945 69.1042231,33.8097945 C69.4500033,33.8097945 69.7714626,33.8737691 70.0675435,34.002247 C70.3630956,34.1312537 70.6179367,34.3041438 70.8325953,34.5219748 C71.0488401,34.7403344 71.2148569,34.9951755 71.3348754,35.2880841 C71.4543652,35.5809927 71.5141101,35.8913489 71.5141101,36.2196814 C71.5141101,36.5485427 71.4522503,36.8604851 71.3306457,37.1555086 C71.2074549,37.4515895 71.0393232,37.7096028 70.8246646,37.930606 C70.6089485,38.1516093 70.3525213,38.3266142 70.0543256,38.4545635 C69.7545437,38.5830414 69.4325557,38.6475448 69.0867755,38.6475448 Z M69.0867755,34.4188752 C68.8356355,34.4188752 68.605644,34.4648734 68.3962726,34.5573987 C68.1874298,34.649924 68.0097812,34.7778732 67.8633269,34.9417752 C67.7168726,35.1056771 67.6021413,35.2965435 67.5186042,35.5138457 C67.4350671,35.731148 67.3932985,35.9648404 67.3932985,36.2154517 C67.3932985,36.4655343 67.4366532,36.7008129 67.5228339,36.9212874 C67.6095433,37.1417619 67.7290331,37.3320997 67.8813033,37.493358 C68.0335735,37.6540876 68.2143943,37.7820369 68.4232371,37.8777345 C68.6320798,37.9729033 68.8594277,38.0204877 69.1042231,38.0204877 C69.3548344,38.0204877 69.5842971,37.9739607 69.7941973,37.8819642 C70.0025114,37.7899676 70.1822748,37.6630758 70.3319014,37.5023462 C70.4804706,37.3410878 70.5973168,37.1518075 70.6808539,36.9345053 C70.764391,36.7172031 70.8061595,36.4835107 70.8061595,36.2328993 C70.8061595,35.9833454 70.7628048,35.7475382 70.6771529,35.5270636 C70.5899147,35.3065891 70.4683101,35.1146653 70.3133963,34.9507633 C70.1584826,34.7873901 69.9755469,34.657326 69.7672328,34.5621572 C69.5573326,34.4664596 69.3315709,34.4188752 69.0867755,34.4188752 Z M73.1985989,36.2106933 L73.1985989,35.4852951 L75.6888507,35.4852951 L75.6888507,36.2106933 L73.1985989,36.2106933 Z M80.5662547,38.5402155 L77.7852092,38.5402155 L77.7852092,32.2691164 L80.4494085,32.2691164 C80.7597647,32.2691164 81.0394554,32.3061265 81.2900668,32.3812042 C81.5401494,32.4557531 81.754808,32.5604388 81.933514,32.6947327 C82.1122199,32.8290265 82.2496861,32.9929284 82.3453836,33.1869672 C82.4400238,33.3815346 82.4881369,33.5983081 82.4881369,33.836759 C82.4881369,34.0461305 82.460115,34.2280087 82.4030137,34.3829225 C82.3469698,34.5383649 82.270306,34.6758311 82.1756659,34.7953209 C82.0799683,34.9148107 81.9742251,35.0152667 81.8579076,35.0956315 C81.7415901,35.1759963 81.6215716,35.2431432 81.4957372,35.2970722 C81.6807878,35.3504725 81.855264,35.4207918 82.019166,35.5075012 C82.1830679,35.5942106 82.3247637,35.6967814 82.4437248,35.8162712 C82.5632146,35.9362897 82.6589122,36.0795717 82.7297601,36.246646 C82.8016655,36.4137202 82.8370894,36.6045866 82.8370894,36.8203027 C82.8370894,37.0883616 82.7836891,37.3305135 82.6768885,37.5457009 C82.5695592,37.7608882 82.4157029,37.9417091 82.216377,38.0876347 C82.0165224,38.2335602 81.7764854,38.345648 81.4957372,38.4233692 C81.2160465,38.5010905 80.9056903,38.5402155 80.5662547,38.5402155 Z M78.492631,35.6914943 L78.492631,37.9126297 L80.5926905,37.9126297 C81.0695922,37.9126297 81.4449805,37.8137598 81.7183266,37.6160201 C81.9927302,37.4177516 82.1301963,37.1391184 82.1301963,36.7790629 C82.1301963,36.4316965 81.9895579,36.1631088 81.7098672,35.9743573 C81.4296477,35.7861344 81.0156632,35.6914943 80.4673848,35.6914943 L78.492631,35.6914943 Z M78.492631,32.8961734 L78.492631,35.0639085 L80.3420792,35.0639085 C80.7650519,35.0639085 81.1103034,34.968211 81.3783623,34.7762871 C81.6464213,34.5843632 81.7801864,34.3025577 81.7801864,33.9308704 C81.7801864,33.6125834 81.6612253,33.3609147 81.4233032,33.1748067 C81.1843236,32.9886987 80.8422444,32.8961734 80.3954795,32.8961734 L78.492631,32.8961734 Z M86.4656665,38.6385566 C86.1843897,38.6385566 85.9353645,38.5936158 85.7175335,38.5042628 C85.4997026,38.4143811 85.3141233,38.2874893 85.1618531,38.1230586 C85.009583,37.9591567 84.8932655,37.7635318 84.8129007,37.5367127 C84.7314784,37.3093649 84.691296,37.0587536 84.691296,36.7838213 L84.691296,33.9086643 L85.3812702,33.9086643 L85.3812702,36.6141035 C85.3812702,37.0434208 85.4917719,37.3844425 85.7127751,37.6355826 C85.9337783,37.8856652 86.2499504,38.0109709 86.6623488,38.0109709 C86.8595598,38.0109709 87.043553,37.977133 87.2132708,37.9084 C87.3835173,37.8396669 87.5294429,37.7413258 87.6526337,37.6128478 C87.774767,37.4843698 87.8720508,37.3305135 87.9439561,37.1518075 C88.014804,36.9725729 88.0512854,36.7753618 88.0512854,36.5601745 L88.0512854,33.9086643 L88.7317428,33.9086643 L88.7317428,38.5402155 L88.0512854,38.5402155 L88.0512854,37.733395 C87.895843,37.9845351 87.6928161,38.1981363 87.441676,38.3741987 C87.1910647,38.5502611 86.8659044,38.6385566 86.4656665,38.6385566 Z M92.4406847,38.6295684 C92.1060075,38.6295684 91.7686868,38.5682374 91.4281938,38.446104 C91.0877007,38.3234419 90.7863327,38.1579539 90.5235609,37.9485824 L90.8730421,37.4563479 C91.1236534,37.6472143 91.3843104,37.7931399 91.656599,37.8951821 C91.928359,37.9966955 92.2011764,38.0474523 92.4761087,38.0474523 C92.7568568,38.0474523 92.9868482,37.9818915 93.1660829,37.8502412 C93.3453176,37.7191197 93.4346705,37.539885 93.4346705,37.3125372 L93.4346705,37.2945608 C93.4346705,37.1814156 93.4034763,37.0830745 93.3410878,36.9990087 C93.2781706,36.9154715 93.1925187,36.8425088 93.0851893,36.7795916 C92.97786,36.7166744 92.8541405,36.6616879 92.7135021,36.6141035 C92.5733924,36.5659904 92.4285242,36.5210495 92.2794263,36.4792809 C92.1001917,36.4258806 91.9193708,36.3677219 91.7374926,36.3048047 C91.5550856,36.2424162 91.3906549,36.1625801 91.2447294,36.0674113 C91.0982751,35.9717137 90.9787853,35.8527526 90.88626,35.7089419 C90.793206,35.5656599 90.7472077,35.3869539 90.7472077,35.1712379 L90.7472077,35.1537902 C90.7472077,34.9565792 90.7863327,34.7757584 90.8635252,34.6118565 C90.9417752,34.4474258 91.0506906,34.3073161 91.1908003,34.1904699 C91.3309101,34.0741524 91.4979843,33.9842707 91.6925517,33.9218822 C91.8865904,33.858965 92.0970194,33.8277708 92.3238385,33.8277708 C92.6109312,33.8277708 92.9006675,33.8737691 93.1925187,33.9668231 C93.4854273,34.0593484 93.7513714,34.1830679 93.9903509,34.3385103 L93.6762937,34.8582381 C93.4616351,34.7207719 93.2358734,34.6118565 93.0000661,34.5309629 C92.7642588,34.4505981 92.5326813,34.409887 92.3063909,34.409887 C92.0314586,34.409887 91.8136277,34.4743903 91.6518406,34.6023396 C91.491111,34.7308175 91.4102174,34.8910184 91.4102174,35.0818849 L91.4102174,35.0998612 C91.4102174,35.2077193 91.4429978,35.301302 91.5090873,35.3821955 C91.5746481,35.4625603 91.6624149,35.5328795 91.7729165,35.5926244 C91.8834181,35.6523693 92.01031,35.7062983 92.1541207,35.7538828 C92.296874,35.8019959 92.4459718,35.8495803 92.6014143,35.8971648 C92.780649,35.9510938 92.9582975,36.01031 93.1348886,36.0763994 C93.310951,36.1419602 93.4706232,36.226026 93.6139052,36.3270108 C93.7577159,36.4285242 93.8724473,36.5511863 93.9591567,36.6944683 C94.0453374,36.8377503 94.0892208,37.0143414 94.0892208,37.2226555 L94.0892208,37.2406318 C94.0892208,37.4616351 94.0453374,37.6577886 93.9591567,37.8280352 C93.8724473,37.997753 93.7561298,38.1426211 93.6096755,38.2621109 C93.4632212,38.3821294 93.2898024,38.4730685 93.0899478,38.535457 C92.8895645,38.5983742 92.6733197,38.6295684 92.4406847,38.6295684 Z M96.0982312,38.5402155 L96.0982312,33.9086643 L96.8299362,33.9086643 L96.8299362,38.5402155 L96.0982312,38.5402155 Z M96.014804,32.8961734 L96.014804,32.1342938 L96.7465091,32.1342938 L96.7465091,32.8961734 L96.014804,32.8961734 Z M103.029806,38.5402155 L102.339832,38.5402155 L102.339832,35.8342476 C102.339832,35.4044016 102.228802,35.0639085 102.008327,34.8132972 C101.787324,34.5621572 101.471152,34.4373802 101.058225,34.4373802 C100.861543,34.4373802 100.678078,34.471218 100.507303,34.5399511 C100.337585,34.6086842 100.189545,34.7070253 100.064239,34.836032 C99.9389333,34.9639812 99.8416496,35.1178376 99.7734452,35.2970722 C99.7047122,35.4763069 99.6698169,35.6735179 99.6698169,35.8881766 L99.6698169,38.5402155 L98.9803714,38.5402155 L98.9803714,33.9086643 L99.6698169,33.9086643 L99.6698169,34.7144273 C99.8252594,34.463816 100.028286,34.2502148 100.279426,34.0741524 C100.530038,33.89809 100.855727,33.8097945 101.255436,33.8097945 C101.536713,33.8097945 101.785738,33.8547353 102.003569,33.9440883 C102.221928,34.03397 102.406979,34.1608618 102.559249,34.3252924 C102.711519,34.4891944 102.827837,34.6848192 102.908202,34.9116384 C102.989095,35.1389862 103.029806,35.3895975 103.029806,35.6645298 L103.029806,38.5402155 Z M107.159077,38.6475448 C106.842377,38.6475448 106.543652,38.5888573 106.263433,38.4730685 C105.982685,38.3562223 105.736832,38.1917917 105.526403,37.9803053 C105.315974,37.7682903 105.1489,37.5129205 105.024651,37.214196 C104.900932,36.9154715 104.839072,36.587139 104.839072,36.2286696 C104.839072,35.8945212 104.894059,35.5794065 105.00456,35.2833256 C105.115062,34.9883022 105.268918,34.7308175 105.4656,34.5129866 C105.662811,34.2951556 105.897561,34.123323 106.168793,33.9980173 C106.441081,33.8721829 106.737691,33.8097945 107.060736,33.8097945 C107.400701,33.8097945 107.70577,33.8737691 107.974357,34.002247 C108.242945,34.1312537 108.470293,34.30573 108.654815,34.5267332 C108.840394,34.7477364 108.981032,35.0073359 109.076201,35.3060604 C109.171899,35.6047849 109.219483,35.9241293 109.219483,36.2646223 L109.219483,36.3629635 L109.210495,36.4792809 L105.547023,36.4792809 C105.570815,36.730421 105.630031,36.9530104 105.725729,37.1470491 C105.821426,37.3410878 105.944088,37.5049898 106.093186,37.6392836 C106.242284,37.7741061 106.409358,37.8756196 106.594938,37.9438239 C106.779988,38.012557 106.974027,38.0474523 107.177054,38.0474523 C107.49957,38.0474523 107.77556,37.9877074 108.005552,37.8682176 C108.235543,37.7481991 108.445972,37.5906417 108.636838,37.3934307 L109.067213,37.7783359 C108.834049,38.0411077 108.568105,38.2520653 108.269909,38.4096226 C107.971185,38.5682374 107.601084,38.6475448 107.159077,38.6475448 Z M107.04276,34.3924394 C106.84079,34.3924394 106.653625,34.4326218 106.481264,34.5129866 C106.309431,34.5938801 106.158218,34.7043817 106.027625,34.8444914 C105.897033,34.9851299 105.790232,35.1506179 105.706695,35.3420131 C105.623686,35.5328795 105.570286,35.7417223 105.547023,35.9685414 L108.512061,35.9685414 C108.494085,35.7602273 108.451259,35.559844 108.382526,35.3684489 C108.314322,35.1775824 108.219153,35.0105082 108.098077,34.8666975 C107.975943,34.7239442 107.827374,34.6086842 107.652369,34.5219748 C107.477364,34.4357941 107.273809,34.3924394 107.04276,34.3924394 Z M112.587932,38.6295684 C112.253255,38.6295684 111.915934,38.5682374 111.575441,38.446104 C111.234948,38.3234419 110.93358,38.1579539 110.670808,37.9485824 L111.020289,37.4563479 C111.27143,37.6472143 111.532086,37.7931399 111.804375,37.8951821 C112.075606,37.9966955 112.348952,38.0474523 112.623356,38.0474523 C112.904633,38.0474523 113.134096,37.9818915 113.31333,37.8502412 C113.492565,37.7191197 113.582447,37.539885 113.582447,37.3125372 L113.582447,37.2945608 C113.582447,37.1814156 113.550724,37.0830745 113.488335,36.9990087 C113.425418,36.9154715 113.340295,36.8425088 113.232965,36.7795916 C113.125636,36.7166744 113.001388,36.6616879 112.861278,36.6141035 C112.72064,36.5659904 112.5763,36.5210495 112.426674,36.4792809 C112.247439,36.4258806 112.067147,36.3677219 111.88474,36.3048047 C111.702333,36.2424162 111.538431,36.1625801 111.391977,36.0674113 C111.245522,35.9717137 111.126033,35.8527526 111.034036,35.7089419 C110.940982,35.5656599 110.894984,35.3869539 110.894984,35.1712379 L110.894984,35.1537902 C110.894984,34.9565792 110.93358,34.7757584 111.011301,34.6118565 C111.089023,34.4474258 111.197938,34.3073161 111.338576,34.1904699 C111.478157,34.0741524 111.64576,33.9842707 111.839799,33.9218822 C112.033838,33.858965 112.244795,33.8277708 112.471086,33.8277708 C112.758179,33.8277708 113.047915,33.8737691 113.340295,33.9668231 C113.633203,34.0593484 113.899147,34.1830679 114.138127,34.3385103 L113.82407,34.8582381 C113.609411,34.7207719 113.383649,34.6118565 113.147842,34.5309629 C112.911506,34.4505981 112.680457,34.409887 112.453638,34.409887 C112.179235,34.409887 111.960875,34.4743903 111.799617,34.6023396 C111.638358,34.7308175 111.557994,34.8910184 111.557994,35.0818849 L111.557994,35.0998612 C111.557994,35.2077193 111.590245,35.301302 111.656335,35.3821955 C111.721895,35.4625603 111.809662,35.5328795 111.920164,35.5926244 C112.030666,35.6523693 112.158086,35.7062983 112.301368,35.7538828 C112.444121,35.8019959 112.593748,35.8495803 112.74919,35.8971648 C112.928425,35.9510938 113.105545,36.01031 113.282136,36.0763994 C113.458198,36.1419602 113.617871,36.226026 113.761681,36.3270108 C113.904963,36.4285242 114.019695,36.5511863 114.106404,36.6944683 C114.192585,36.8377503 114.236468,37.0143414 114.236468,37.2226555 L114.236468,37.2406318 C114.236468,37.4616351 114.192585,37.6577886 114.106404,37.8280352 C114.019695,37.997753 113.903377,38.1426211 113.756923,38.2621109 C113.610997,38.3821294 113.43705,38.4730685 113.237195,38.535457 C113.037341,38.5983742 112.820567,38.6295684 112.587932,38.6295684 Z M117.586412,38.6295684 C117.251735,38.6295684 116.914943,38.5682374 116.573921,38.446104 C116.233428,38.3234419 115.93206,38.1579539 115.669288,37.9485824 L116.018769,37.4563479 C116.269909,37.6472143 116.530566,37.7931399 116.802855,37.8951821 C117.074086,37.9966955 117.347432,38.0474523 117.622365,38.0474523 C117.903113,38.0474523 118.132576,37.9818915 118.31181,37.8502412 C118.491045,37.7191197 118.580927,37.539885 118.580927,37.3125372 L118.580927,37.2945608 C118.580927,37.1814156 118.549204,37.0830745 118.486815,36.9990087 C118.423898,36.9154715 118.338775,36.8425088 118.231445,36.7795916 C118.124116,36.7166744 117.999868,36.6616879 117.859758,36.6141035 C117.71912,36.5659904 117.57478,36.5210495 117.425154,36.4792809 C117.246448,36.4258806 117.065627,36.3677219 116.88322,36.3048047 C116.700813,36.2424162 116.536911,36.1625801 116.390457,36.0674113 C116.244002,35.9717137 116.124513,35.8527526 116.032516,35.7089419 C115.939462,35.5656599 115.893464,35.3869539 115.893464,35.1712379 L115.893464,35.1537902 C115.893464,34.9565792 115.93206,34.7757584 116.009781,34.6118565 C116.087502,34.4474258 116.196418,34.3073161 116.337056,34.1904699 C116.477166,34.0741524 116.64424,33.9842707 116.838279,33.9218822 C117.032318,33.858965 117.243275,33.8277708 117.469566,33.8277708 C117.756659,33.8277708 118.046395,33.8737691 118.338775,33.9668231 C118.631683,34.0593484 118.897627,34.1830679 119.136607,34.3385103 L118.82255,34.8582381 C118.607891,34.7207719 118.382129,34.6118565 118.146322,34.5309629 C117.909986,34.4505981 117.678937,34.409887 117.452118,34.409887 C117.177715,34.409887 116.959355,34.4743903 116.798097,34.6023396 C116.636838,34.7308175 116.556473,34.8910184 116.556473,35.0818849 L116.556473,35.0998612 C116.556473,35.2077193 116.588725,35.301302 116.654815,35.3821955 C116.720375,35.4625603 116.808142,35.5328795 116.918644,35.5926244 C117.029145,35.6523693 117.156566,35.7062983 117.299848,35.7538828 C117.44313,35.8019959 117.592228,35.8495803 117.74767,35.8971648 C117.926905,35.9510938 118.104554,36.01031 118.281145,36.0763994 C118.457207,36.1419602 118.616351,36.226026 118.760161,36.3270108 C118.903443,36.4285242 119.018175,36.5511863 119.104884,36.6944683 C119.191065,36.8377503 119.234948,37.0143414 119.234948,37.2226555 L119.234948,37.2406318 C119.234948,37.4616351 119.191065,37.6577886 119.104884,37.8280352 C119.018175,37.997753 118.901857,38.1426211 118.755403,38.2621109 C118.609477,38.3821294 118.43553,38.4730685 118.236204,38.535457 C118.035821,38.5983742 117.819576,38.6295684 117.586412,38.6295684 Z M125.281343,38.5402155 L124.573921,38.5402155 L124.573921,32.2691164 L126.920362,32.2691164 C127.273016,32.2691164 127.593946,32.3151147 127.884211,32.4081687 C128.173948,32.5006939 128.421387,32.6318155 128.627586,32.802062 C128.833785,32.9723085 128.991342,33.18168 129.101844,33.429119 C129.212346,33.6770868 129.267861,33.9562488 129.267861,34.266605 C129.267861,34.607098 129.2023,34.9058225 129.071178,35.1627784 C128.939528,35.4192056 128.76188,35.634393 128.537704,35.8072831 C128.313529,35.9812306 128.052343,36.110766 127.754147,36.1974754 C127.455423,36.2841848 127.138722,36.3270108 126.804573,36.3270108 L125.281343,36.3270108 L125.281343,38.5402155 Z M125.281343,32.9226092 L125.281343,35.6819774 L126.835239,35.6819774 C127.093252,35.6819774 127.328002,35.6497257 127.540546,35.5836362 C127.75309,35.5180755 127.935497,35.423964 128.088296,35.301302 C128.241094,35.1791686 128.357941,35.0327143 128.438834,34.8624678 C128.519728,34.6922213 128.560439,34.502941 128.560439,34.2935695 C128.560439,33.8399313 128.406054,33.4978521 128.097812,33.2678607 C127.789042,33.0378693 127.380874,32.9226092 126.87172,32.9226092 L125.281343,32.9226092 Z M131.758641,38.5402155 L131.068667,38.5402155 L131.068667,33.9086643 L131.758641,33.9086643 L131.758641,35.1178376 C131.842178,34.9264424 131.946335,34.7509087 132.07217,34.5891217 C132.197475,34.4278633 132.340757,34.2888111 132.502016,34.1730223 C132.663803,34.0561761 132.839865,33.9684092 133.030732,33.9086643 C133.203622,33.8542066 133.389201,33.8272421 133.586941,33.8272421 C133.607561,33.8272421 133.628181,33.8272421 133.6488,33.8277708 L133.6488,34.571674 L133.594871,34.571674 C133.34426,34.571674 133.106867,34.6166149 132.88322,34.7059679 C132.659044,34.7953209 132.463419,34.9296147 132.295817,35.1088494 C132.128742,35.2880841 131.997621,35.5106735 131.901923,35.7760888 C131.806754,36.0420329 131.758641,36.3481594 131.758641,36.6944683 L131.758641,38.5402155 Z M137.241425,38.6475448 C136.895116,38.6475448 136.575243,38.5830414 136.282334,38.4545635 C135.989954,38.3266142 135.736171,38.1531954 135.521512,37.9353645 C135.306325,37.7175335 135.138722,37.4616351 135.019761,37.1692552 C134.899742,36.8768753 134.840526,36.5659904 134.840526,36.2376578 C134.840526,35.9093252 134.899742,35.5968541 135.019761,35.301302 C135.138722,35.0057498 135.306325,34.7477364 135.521512,34.5267332 C135.736171,34.30573 135.991541,34.1312537 136.287093,34.002247 C136.583174,33.8737691 136.906748,33.8097945 137.259401,33.8097945 C137.605181,33.8097945 137.926641,33.8737691 138.222193,34.002247 C138.517745,34.1312537 138.773115,34.3041438 138.988302,34.5219748 C139.20349,34.7403344 139.370035,34.9951755 139.490054,35.2880841 C139.609015,35.5809927 139.669288,35.8913489 139.669288,36.2196814 C139.669288,36.5485427 139.607428,36.8604851 139.485295,37.1555086 C139.363162,37.4515895 139.193973,37.7096028 138.979314,37.930606 C138.764127,38.1516093 138.507171,38.3266142 138.208975,38.4545635 C137.91025,38.5830414 137.587734,38.6475448 137.241425,38.6475448 Z M137.241425,34.4188752 C136.990285,34.4188752 136.760822,34.4648734 136.551451,34.5573987 C136.342608,34.649924 136.164959,34.7778732 136.018505,34.9417752 C135.872051,35.1056771 135.756791,35.2965435 135.673782,35.5138457 C135.589716,35.731148 135.548477,35.9648404 135.548477,36.2154517 C135.548477,36.4655343 135.591303,36.7008129 135.678012,36.9212874 C135.764721,37.1417619 135.883683,37.3320997 136.036481,37.493358 C136.188752,37.6540876 136.369044,37.7820369 136.578415,37.8777345 C136.787258,37.9729033 137.014077,38.0204877 137.259401,38.0204877 C137.510013,38.0204877 137.739475,37.9739607 137.949375,37.8819642 C138.15769,37.7899676 138.336924,37.6630758 138.486551,37.5023462 C138.636177,37.3410878 138.751966,37.1518075 138.836032,36.9345053 C138.919569,36.7172031 138.961338,36.4835107 138.961338,36.2328993 C138.961338,35.9833454 138.917983,35.7475382 138.831802,35.5270636 C138.745093,35.3065891 138.623488,35.1146653 138.468574,34.9507633 C138.313132,34.7873901 138.131254,34.657326 137.921882,34.5621572 C137.712511,34.4664596 137.48622,34.4188752 137.241425,34.4188752 Z M145.249884,38.5402155 L144.452581,38.5402155 L143.019761,36.6495275 L141.577424,38.5402155 L140.807085,38.5402155 L142.625867,36.1837288 L140.878461,33.9086643 L141.666777,33.9086643 L143.037737,35.6999537 L144.408697,33.9086643 L145.179036,33.9086643 L143.422642,36.1657524 L145.249884,38.5402155 Z M147.624347,40 C147.432952,40 147.259533,39.9804375 147.10462,39.9418413 C146.949177,39.903245 146.793735,39.8445575 146.638821,39.767365 L146.871985,39.2212015 C146.98513,39.2804177 147.097218,39.3237724 147.207191,39.3507369 C147.318221,39.3777014 147.448285,39.3909193 147.597383,39.3909193 C147.806226,39.3909193 147.982288,39.3285308 148.126099,39.2026965 C148.268852,39.0773908 148.40949,38.850043 148.546957,38.5217104 L146.44161,33.9086643 L147.20349,33.9086643 L148.88745,37.7693477 L150.374727,33.9086643 L151.108585,33.9086643 L149.165025,38.6924856 C148.968343,39.1699161 148.748397,39.5077655 148.506774,39.7049765 C148.265151,39.9016588 147.970656,40 147.624347,40 Z M161.563413,38.5402155 L160.998744,38.5402155 L156.949838,33.3979248 L156.949838,38.5402155 L156.260393,38.5402155 L156.260393,32.2691164 L156.923402,32.2691164 L160.873439,37.2945608 L160.873439,32.2691164 L161.563413,32.2691164 L161.563413,38.5402155 Z M165.881435,38.6475448 C165.564206,38.6475448 165.26601,38.5888573 164.985262,38.4730685 C164.704514,38.3562223 164.458661,38.1917917 164.248761,37.9803053 C164.037803,37.7682903 163.870729,37.5129205 163.747009,37.214196 C163.622761,36.9154715 163.560901,36.587139 163.560901,36.2286696 C163.560901,35.8945212 163.616417,35.5794065 163.726918,35.2833256 C163.83742,34.9883022 163.991276,34.7308175 164.187958,34.5129866 C164.38517,34.2951556 164.619391,34.123323 164.891151,33.9980173 C165.162911,33.8721829 165.460049,33.8097945 165.782566,33.8097945 C166.123059,33.8097945 166.427599,33.8737691 166.696715,34.002247 C166.965303,34.1312537 167.192122,34.30573 167.377173,34.5267332 C167.562223,34.7477364 167.702862,35.0073359 167.798559,35.3060604 C167.893728,35.6047849 167.941313,35.9241293 167.941313,36.2646223 L167.941313,36.3629635 L167.932853,36.4792809 L164.268852,36.4792809 C164.292644,36.730421 164.35186,36.9530104 164.448087,37.1470491 C164.543784,37.3410878 164.665918,37.5049898 164.815016,37.6392836 C164.964642,37.7741061 165.131716,37.8756196 165.316767,37.9438239 C165.501817,38.012557 165.695856,38.0474523 165.898883,38.0474523 C166.2214,38.0474523 166.497918,37.9877074 166.727381,37.8682176 C166.957372,37.7481991 167.167801,37.5906417 167.359196,37.3934307 L167.789042,37.7783359 C167.556407,38.0411077 167.290463,38.2520653 166.991739,38.4096226 C166.693543,38.5682374 166.323442,38.6475448 165.881435,38.6475448 Z M165.764589,34.3924394 C165.56262,34.3924394 165.375983,34.4326218 165.203622,34.5129866 C165.03126,34.5938801 164.880048,34.7043817 164.749455,34.8444914 C164.618862,34.9851299 164.512061,35.1506179 164.429053,35.3420131 C164.346045,35.5328795 164.292116,35.7417223 164.268852,35.9685414 L167.233891,35.9685414 C167.215914,35.7602273 167.173088,35.559844 167.104355,35.3684489 C167.036151,35.1775824 166.941511,35.0105082 166.819906,34.8666975 C166.698302,34.7239442 166.549204,34.6086842 166.374727,34.5219748 C166.199194,34.4357941 165.996167,34.3924394 165.764589,34.3924394 Z M171.328266,38.6205803 C171.142687,38.6205803 170.969797,38.5967881 170.80801,38.5486749 C170.646752,38.5010905 170.508228,38.4249554 170.391911,38.3202696 C170.275064,38.2161126 170.184125,38.0797039 170.118036,37.9126297 C170.053004,37.7455555 170.020223,37.5457009 170.020223,37.3125372 L170.020223,34.517745 L169.374661,34.517745 L169.374661,33.9086643 L170.020223,33.9086643 L170.020223,32.5107395 L170.710198,32.5107395 L170.710198,33.9086643 L172.17897,33.9086643 L172.17897,34.517745 L170.710198,34.517745 L170.710198,37.2226555 C170.710198,37.5097482 170.781046,37.7096028 170.924856,37.8232767 C171.068138,37.9369506 171.256361,37.9935232 171.488996,37.9935232 C171.608486,37.9935232 171.720574,37.9818915 171.825259,37.9575706 C171.929416,37.9337783 172.041504,37.8920098 172.160994,37.8322649 L172.160994,38.4233692 C172.041504,38.4894587 171.914612,38.5386293 171.780319,38.5714097 C171.646025,38.6041901 171.494812,38.6205803 171.328266,38.6205803 Z M178.96028,38.5756394 L178.360188,38.5756394 L177.115062,34.9206265 L175.860948,38.5756394 L175.251867,38.5756394 L173.630295,33.9086643 L174.364682,33.9086643 L175.582843,37.6260657 L176.828498,33.890688 L177.401626,33.890688 L178.65574,37.6260657 L179.87443,33.9086643 L180.59084,33.9086643 L178.96028,38.5756394 Z M184.254841,38.6475448 C183.908532,38.6475448 183.588659,38.5830414 183.29575,38.4545635 C183.003371,38.3266142 182.749587,38.1531954 182.534928,37.9353645 C182.319741,37.7175335 182.152138,37.4616351 182.033177,37.1692552 C181.913158,36.8768753 181.853942,36.5659904 181.853942,36.2376578 C181.853942,35.9093252 181.913158,35.5968541 182.033177,35.301302 C182.152138,35.0057498 182.319741,34.7477364 182.534928,34.5267332 C182.749587,34.30573 183.004957,34.1312537 183.300509,34.002247 C183.59659,33.8737691 183.920164,33.8097945 184.272817,33.8097945 C184.618598,33.8097945 184.940057,33.8737691 185.235609,34.002247 C185.531161,34.1312537 185.786531,34.3041438 186.00119,34.5219748 C186.216906,34.7403344 186.383451,34.9951755 186.50347,35.2880841 C186.622431,35.5809927 186.682704,35.8913489 186.682704,36.2196814 C186.682704,36.5485427 186.620845,36.8604851 186.498711,37.1555086 C186.376049,37.4515895 186.207389,37.7096028 185.99273,37.930606 C185.777543,38.1516093 185.520587,38.3266142 185.222391,38.4545635 C184.923138,38.5830414 184.60115,38.6475448 184.254841,38.6475448 Z M184.254841,34.4188752 C184.003701,34.4188752 183.774238,34.4648734 183.564867,34.5573987 C183.356024,34.649924 183.178376,34.7778732 183.031921,34.9417752 C182.885467,35.1056771 182.770207,35.2965435 182.687198,35.5138457 C182.603133,35.731148 182.561893,35.9648404 182.561893,36.2154517 C182.561893,36.4655343 182.604719,36.7008129 182.691428,36.9212874 C182.778138,37.1417619 182.897099,37.3320997 183.049369,37.493358 C183.202168,37.6540876 183.38246,37.7820369 183.591831,37.8777345 C183.800674,37.9729033 184.027493,38.0204877 184.272817,38.0204877 C184.523429,38.0204877 184.752891,37.9739607 184.962792,37.8819642 C185.171106,37.7899676 185.35034,37.6630758 185.499967,37.5023462 C185.649594,37.3410878 185.765382,37.1518075 185.848919,36.9345053 C185.932985,36.7172031 185.974754,36.4835107 185.974754,36.2328993 C185.974754,35.9833454 185.931399,35.7475382 185.845218,35.5270636 C185.758509,35.3065891 185.636904,35.1146653 185.481991,34.9507633 C185.326548,34.7873901 185.144141,34.657326 184.935298,34.5621572 C184.725927,34.4664596 184.499637,34.4188752 184.254841,34.4188752 Z M189.244333,38.5402155 L188.554887,38.5402155 L188.554887,33.9086643 L189.244333,33.9086643 L189.244333,35.1178376 C189.328399,34.9264424 189.432556,34.7509087 189.557861,34.5891217 C189.683167,34.4278633 189.826978,34.2888111 189.988236,34.1730223 C190.149494,34.0561761 190.325557,33.9684092 190.516952,33.9086643 C190.689842,33.8542066 190.874893,33.8272421 191.072632,33.8272421 C191.093252,33.8272421 191.113872,33.8272421 191.134492,33.8277708 L191.134492,34.571674 L191.081092,34.571674 C190.829952,34.571674 190.592558,34.6166149 190.368912,34.7059679 C190.144736,34.7953209 189.949111,34.9296147 189.782037,35.1088494 C189.614963,35.2880841 189.483312,35.5106735 189.388144,35.7760888 C189.292446,36.0420329 189.244333,36.3481594 189.244333,36.6944683 L189.244333,38.5402155 Z M196.921816,38.5402155 L196.097548,38.5402155 L194.440553,36.3809398 L193.499438,37.3305135 L193.499438,38.5402155 L192.809464,38.5402155 L192.809464,32 L193.499438,32 L193.499438,36.5152336 L195.999207,33.9086643 L196.859428,33.9086643 L194.914811,35.8971648 L196.921816,38.5402155 Z" id="Combined-Shape" stroke="#FFFFFF" stroke-width="0.4" stroke-linecap="round" stroke-linejoin="round"></path>
            </g>
        </g>
    </g>
</svg>