<svg xmlns="http://www.w3.org/2000/svg" width="180" height="56" viewBox="0 0 180 56">
  <defs>
    <linearGradient id="infatica-a" x1="50%" x2="50%" y1="0%" y2="107.45%">
      <stop offset="0%" stop-color="#E237B7"/>
      <stop offset="100%" stop-color="#705CDE"/>
    </linearGradient>
    <linearGradient id="infatica-b" x1="50%" x2="50%" y1="0%" y2="100%">
      <stop offset="0%" stop-color="#E237B7"/>
      <stop offset="100%" stop-color="#705CDE"/>
    </linearGradient>
  </defs>
  <g fill="none">
    <path fill="url(#infatica-a)" d="M13.3019871,28.2644645 L8.65109677,30.9398194 L6.43096774,30.0127484 L1.2544,25.6241548 L13.3019871,18.6935226 C13.4548129,18.6089806 13.6282323,18.5663484 13.8020129,18.5663484 C13.9757935,18.5663484 14.1492129,18.6089806 14.3020387,18.6935226 L26.2820645,25.5901935 L20.6224516,30.5069935 L18.9945017,30.9658254 L14.3020387,28.2644645 C14.1492129,28.1795613 13.9757935,28.1372903 13.8020129,28.1372903 C13.6282323,28.1372903 13.4548129,28.1795613 13.3019871,28.2644645 Z M15.6095484,14.4797935 L11.3026065,13.7033806 L1.2544,7.33202581 L13.3019871,0.401754839 C13.4548129,0.316851613 13.6282323,0.274580645 13.8020129,0.274580645 C13.9757935,0.274580645 14.1492129,0.316851613 14.3020387,0.401754839 L26.2820645,7.29842581 L22.3873548,11.3026065 L15.6095484,14.4797935 Z M11.3734194,52.1117935 L1.2544,44.7660387 L1.37290323,44.6981161 L13.3019871,37.8354065 C13.4548129,37.7508645 13.6282323,37.7082323 13.8020129,37.7082323 C13.9757935,37.7082323 14.1492129,37.7508645 14.3020387,37.8354065 L26.2820645,44.7320774 L23.5875613,47.6635871 L18.2924903,51.1941161 L11.3734194,52.1117935 Z" opacity=".397"/>
    <path fill="url(#infatica-b)" d="M0.0216774188,28.2123528 L0.0216774188,27.535225 C0.0638405668,27.205785 0.16835998,26.8790123 0.339612903,26.5729032 C0.576619355,26.1660903 0.881548387,25.8611613 1.2544,25.6241548 L1.37290323,25.5562323 C2.15256774,25.1494194 3.11829677,25.1324387 3.93192258,25.6068129 L10.8961548,29.6062968 L12.7322323,30.6627097 C13.3998968,31.0471226 14.2211097,31.0471226 14.8887742,30.6627097 L23.6724645,25.6068129 C24.5196903,25.1154581 25.5024,25.1494194 26.2820645,25.5901935 C26.6715355,25.8102194 27.0104258,26.1491097 27.2647742,26.5729032 C27.8410323,27.5725935 27.6882065,28.792671 26.9768258,29.6062968 C26.7904,29.8093419 26.5530323,29.9957677 26.2990452,30.1482323 L15.4032516,36.4346839 C14.9118968,36.7060129 14.3526194,36.8584774 13.8106839,36.8584774 C13.2514065,36.8584774 12.7091097,36.7060129 12.2177548,36.4346839 L1.30498065,30.1482323 C1.05099355,29.9957677 0.813987097,29.8093419 0.644541935,29.6062968 C0.300508732,29.2130162 0.0871476355,28.7247704 0.0216774188,28.2123522 L0.0216774188,28.2123528 Z M0.0216774188,9.92035462 L0.0216774188,9.24325568 C0.0638405668,8.91380952 0.16835998,8.58699389 0.339612903,8.28077419 C0.576619355,7.87432258 0.881548387,7.56903226 1.2544,7.33202581 L1.37290323,7.26410323 C2.15256774,6.85765161 3.11829677,6.84067097 3.93192258,7.31504516 L10.8961548,11.3141677 L12.7322323,12.3709419 C13.3998968,12.7549935 14.2211097,12.7549935 14.8887742,12.3709419 L23.6724645,7.31504516 C24.5196903,6.82369032 25.5024,6.85765161 26.2820645,7.29806452 C26.6715355,7.51845161 27.0104258,7.85734194 27.2647742,8.28077419 C27.8410323,9.28082581 27.6882065,10.5005419 26.9768258,11.3141677 C26.7904,11.5175742 26.5530323,11.7036387 26.2990452,11.8561032 L15.4032516,18.1429161 C14.9118968,18.4142452 14.3526194,18.5663484 13.8106839,18.5663484 C13.2514065,18.5663484 12.7091097,18.4142452 12.2177548,18.1429161 L1.30498065,11.8561032 C1.05099355,11.7036387 0.813987097,11.5175742 0.644541935,11.3141677 C0.300508732,10.9208871 0.0871476355,10.4327258 0.0216774188,9.92035402 L0.0216774188,9.92035462 Z M0.0216774188,37.7832041 L0.0216774188,37.1060359 C0.0638405668,36.7765531 0.16835998,36.4497036 0.339612903,36.1434839 C0.576619355,35.7370323 0.881548387,35.4321032 1.2544,35.1947355 L1.37290323,35.1271742 C2.15256774,34.7203613 3.11829677,34.7033806 3.93192258,35.1777548 L10.8961548,39.1768774 L12.7322323,40.2340129 C13.3998968,40.6180645 14.2211097,40.6180645 14.8887742,40.2340129 L23.6724645,35.1777548 C24.5196903,34.6864 25.5024,34.7203613 26.2820645,35.1611355 C26.6715355,35.3811613 27.0104258,35.7200516 27.2647742,36.1434839 C27.8410323,37.1435355 27.6882065,38.3636129 26.9768258,39.1768774 C26.7904,39.3802839 26.5530323,39.5667097 26.2990452,39.7191742 L15.4032516,46.0056258 C14.9118968,46.2765935 14.3526194,46.4290581 13.8106839,46.4290581 C13.2514065,46.4290581 12.7091097,46.2765935 12.2177548,46.0056258 L1.30498065,39.7191742 C1.05099355,39.5667097 0.813987097,39.3802839 0.644541935,39.1768774 C0.300508732,38.7837715 0.0871476355,38.2956159 0.0216774188,37.7832035 L0.0216774188,37.7832041 Z M14.1691151,55.9783226 L13.4452518,55.9783226 C13.0158174,55.9273495 12.6012688,55.7879851 12.2177548,55.5762065 L1.30498065,49.2897548 C1.05099355,49.1372903 0.813987097,48.9512258 0.644541935,48.7478194 C0.300508733,48.3545388 0.0871476366,47.8663774 0.0216774194,47.3540464 L0.0216774194,46.6770279 C0.0638405668,46.347635 0.16835998,46.0208962 0.339612903,45.7147871 C0.576619355,45.3079742 0.881548387,45.0030452 1.2544,44.7656774 L1.37290323,44.6977548 C2.15256774,44.2913032 3.11829677,44.2743226 3.93192258,44.7486968 L10.8961548,48.7478194 L12.7322323,49.8045935 C13.3998968,50.1886452 14.2211097,50.1886452 14.8887742,49.8045935 L23.6724645,44.7486968 C24.5196903,44.2573419 25.5024,44.2913032 26.2820645,44.7320774 C26.6715355,44.9521032 27.0104258,45.2909935 27.2647742,45.7147871 C27.8410323,46.7144774 27.6882065,47.9341935 26.9768258,48.7478194 C26.7904,48.9512258 26.5530323,49.1372903 26.2990452,49.2897548 L15.4032516,55.5762065 C15.0197377,55.7879851 14.5948442,55.9273495 14.1691151,55.9783226 Z"/>
    <path fill="#000" d="M0,7.31215484 C0,7.06467097 0.0715354839,6.85765161 0.214606452,6.69073548 C0.357316129,6.52454194 0.566503226,6.44144516 0.843251613,6.44144516 L3.21403871,6.44144516 C3.31845161,6.44144516 3.42575484,6.46276129 3.53486452,6.50539355 C3.64469677,6.54802581 3.74188387,6.61016774 3.82787097,6.69073548 C3.91349677,6.77202581 3.98503226,6.86487742 4.04211613,6.96929032 C4.0992,7.0747871 4.12774194,7.18895484 4.12774194,7.31215484 L4.12774194,23.7216 C4.12774194,24.2924387 3.82787097,24.5782194 3.22812903,24.5782194 L0.857341935,24.5782194 C0.285780645,24.5782194 0,24.2924387 0,23.7216 L0,7.31215484 Z M0,0.988490323 C0,0.415122581 0.280722581,0.128619355 0.843251613,0.128619355 L3.24185806,0.128619355 C3.50885161,0.128619355 3.72309677,0.200877419 3.88495484,0.343587097 C4.0468129,0.487380645 4.12774194,0.702348387 4.12774194,0.988490323 L4.12774194,3.12407742 C4.12774194,3.34446452 4.05114839,3.55220645 3.89904516,3.74802581 C3.74658065,3.94384516 3.53233548,4.04211613 3.25630968,4.04211613 L0.857341935,4.04211613 C0.285780645,4.04211613 0,3.73610323 0,3.12407742 L0,0.988490323 Z M8.58353548,6.85512258 C8.69770323,6.70301935 8.8068129,6.60763871 8.91194839,6.56934194 C8.98818065,6.49310968 9.10234839,6.45300645 9.25517419,6.44830968 C9.40727742,6.44325161 9.5499871,6.44144516 9.68330323,6.44144516 L11.1255742,6.44144516 C11.4019613,6.44144516 11.6060903,6.53176774 11.7394065,6.71205161 C11.8734452,6.89341935 11.9634065,7.0932129 12.0110968,7.31215484 L12.1682581,8.82632258 C12.3872,8.50224516 12.656,8.18322581 12.9750194,7.86890323 C13.2936774,7.55530323 13.6723097,7.27385806 14.1101935,7.02637419 C14.5480774,6.77889032 15.0481032,6.57909677 15.6099097,6.42699355 C16.1717161,6.27452903 16.8050581,6.19829677 17.5092129,6.19829677 C18.6328258,6.19829677 19.6321548,6.40025806 20.5086452,6.80490323 C21.3840516,7.20990968 22.1218065,7.76449032 22.722271,8.46900645 C23.3216516,9.17388387 23.7761548,10.0019613 24.0861419,10.9543226 C24.3950452,11.9063226 24.5496774,12.9302194 24.5496774,14.0245677 L24.5496774,23.5499871 C24.5496774,23.8928516 24.4691097,24.1493677 24.3076129,24.3209806 C24.1450323,24.4925935 23.912,24.5782194 23.6074323,24.5782194 L21.4368,24.5782194 C21.056,24.5782194 20.8016516,24.5070452 20.6730323,24.3639742 C20.5444129,24.2212645 20.4797419,23.9690839 20.4797419,23.607071 L20.4797419,14.0957419 C20.4797419,13.5913806 20.3941161,13.0985806 20.2228645,12.6173419 C20.0512516,12.1368258 19.8012387,11.7061677 19.4731871,11.3250065 C19.1444129,10.9445677 18.7372387,10.64 18.2520258,10.4113032 C17.7664516,10.1826065 17.2046452,10.0684387 16.5666065,10.0684387 C16.1287226,10.0684387 15.6742194,10.1565935 15.2027355,10.3325419 C14.7316129,10.5092129 14.3005935,10.7585032 13.9107613,11.0825806 C13.5198452,11.4062968 13.196129,11.7993806 12.9388903,12.2607484 C12.6823742,12.7224774 12.5486968,13.2438194 12.5396645,13.8244129 L12.5396645,23.0788645 C12.5396645,23.2595097 12.5299097,23.4408774 12.5111226,23.6215226 C12.4916129,23.8018065 12.4511484,23.9647484 12.389729,24.1067355 C12.3272258,24.2498065 12.2394323,24.3639742 12.1252645,24.4496 C12.0110968,24.5355871 11.863329,24.5782194 11.6823226,24.5782194 L9.3259871,24.5782194 C9.01202581,24.5782194 8.78116129,24.5048774 8.63339355,24.3571097 C8.4859871,24.2093419 8.41192258,23.9976258 8.41192258,23.7216 L8.41192258,7.2836129 C8.41192258,7.15065806 8.46900645,7.0075871 8.58353548,6.85512258 Z M28.6766968,6.49852903 C28.6766968,5.65094194 28.8053161,4.83442581 29.0625548,4.04934194 C29.3197935,3.26317419 29.6958968,2.57094194 30.1908645,1.97083871 C30.6858323,1.37109677 31.2924387,0.892387097 32.0114065,0.535793548 C32.7303742,0.17883871 33.5468903,0 34.4605935,0 L34.6036645,0 C34.8796903,0 35.0939355,0.0838193548 35.2467613,0.250012903 C35.3985032,0.416929032 35.4743742,0.643096774 35.4743742,0.928154839 L35.4743742,2.89935484 C35.4743742,3.17574194 35.4010323,3.40877419 35.2539871,3.5988129 C35.1054968,3.7892129 34.9035355,3.88459355 34.6462968,3.88459355 C34.5035871,3.88459355 34.3229419,3.92072258 34.104,3.99189677 C33.8846968,4.06343226 33.6755097,4.17507097 33.4753548,4.32717419 C33.2752,4.47963871 33.1039484,4.67509677 32.9616,4.9131871 C32.818529,5.15055484 32.7473548,5.432 32.7473548,5.75535484 L32.7473548,8.06905806 L34.8179097,8.06905806 C35.0939355,8.06905806 35.3081806,8.14059355 35.4602839,8.28330323 C35.6131097,8.42637419 35.6889806,8.66410323 35.6889806,8.9972129 L35.6889806,10.7541677 C35.6889806,11.0872774 35.6131097,11.3372903 35.4602839,11.5034839 C35.3081806,11.6704 35.0939355,11.7538581 34.8179097,11.7538581 L32.7473548,11.7538581 L32.7473548,23.6504258 C32.7473548,23.9546323 32.6472774,24.1854968 32.4471226,24.3426581 C32.2469677,24.4998194 32.0283871,24.5782194 31.7906581,24.5782194 L29.5763097,24.5782194 C29.2912516,24.5782194 29.0697806,24.4907871 28.9126194,24.3137548 C28.7554581,24.1378065 28.6766968,23.9163355 28.6766968,23.6504258 L28.6766968,11.7538581 L27.2626065,11.7538581 C26.9869419,11.7538581 26.7633032,11.6704 26.5916903,11.5034839 C26.4204387,11.3372903 26.3348129,11.0872774 26.3348129,10.7541677 L26.3348129,8.9972129 C26.3348129,8.66410323 26.4204387,8.42637419 26.5916903,8.28330323 C26.7633032,8.14059355 26.9869419,8.06905806 27.2626065,8.06905806 L28.6766968,8.06905806 L28.6766968,6.49852903 Z M41.2441806,15.4953806 C41.2441806,16.2577032 41.3778581,16.9784774 41.6444903,17.6591484 C41.9104,18.3394581 42.2821677,18.9373935 42.7583484,19.4507871 C43.2341677,19.9652645 43.7934452,20.3724387 44.4365419,20.6719484 C45.0789161,20.9721806 45.7809032,21.1221161 46.5428645,21.1221161 C47.3138581,21.1221161 48.0353548,20.9721806 48.7066323,20.6719484 C49.3771871,20.3724387 49.960671,19.9652645 50.4563613,19.4507871 C50.951329,18.9373935 51.3415226,18.3394581 51.6265806,17.6591484 C51.9123613,16.9784774 52.055071,16.2577032 52.055071,15.4953806 C52.055071,14.7431742 51.9123613,14.0270968 51.6265806,13.3464258 C51.3415226,12.6653935 50.951329,12.0681806 50.4563613,11.5537032 C49.960671,11.0399484 49.3771871,10.6306065 48.7066323,10.3256774 C48.0353548,10.0207484 47.3138581,9.86864516 46.5428645,9.86864516 C45.7809032,9.86864516 45.0789161,10.0207484 44.4365419,10.3256774 C43.7934452,10.6306065 43.2341677,11.0399484 42.7583484,11.5537032 C42.2821677,12.0681806 41.9104,12.6653935 41.6444903,13.3464258 C41.3778581,14.0270968 41.2441806,14.7431742 41.2441806,15.4953806 Z M56.0971871,23.7360516 C56.0971871,23.9073032 56.0614194,24.0474839 55.9898839,24.1569548 C55.9187097,24.2667871 55.8258581,24.3524129 55.7116903,24.4141935 C55.5971613,24.4763355 55.4660129,24.519329 55.3186065,24.5424516 C55.1708387,24.5666581 55.0165677,24.5782194 54.8547097,24.5782194 L53.0692129,24.5782194 C52.7646452,24.5782194 52.5525677,24.4976516 52.4337032,24.3354323 C52.3144774,24.1735742 52.2266839,23.9690839 52.1696,23.7216 L52.0839742,22.5076645 C51.7508645,22.8407742 51.3816258,23.152929 50.9769806,23.4426839 C50.5723355,23.7331613 50.1366194,23.9857032 49.6701935,24.1995871 C49.204129,24.4141935 48.7084387,24.5803871 48.184929,24.6999742 C47.6614194,24.8184774 47.1238194,24.8784516 46.5714065,24.8784516 C45.7147871,24.8784516 44.8885161,24.765729 44.0936774,24.5424516 C43.2984774,24.3191742 42.5534968,24.0048516 41.8587355,23.6002065 C41.1636129,23.1955613 40.5324387,22.7078194 39.9666581,22.1362581 C39.3997935,21.5650581 38.9142194,20.9320774 38.5095742,20.2369548 C38.1052903,19.5418323 37.7909677,18.7943226 37.567329,17.9947871 C37.343329,17.194529 37.2316903,16.3621161 37.2316903,15.4953806 C37.2316903,14.6290065 37.343329,13.795871 37.567329,12.9959742 C37.7909677,12.1964387 38.1052903,11.448929 38.5095742,10.7541677 C38.9142194,10.0590452 39.3997935,9.42823226 39.9666581,8.86209032 C40.5324387,8.2955871 41.1636129,7.8100129 41.8587355,7.40536774 C42.5534968,7.00072258 43.2984774,6.68603871 44.0936774,6.46276129 C44.8885161,6.23876129 45.7147871,6.12712258 46.5714065,6.12712258 C47.1809032,6.12712258 47.7614968,6.19107097 48.3135484,6.31969032 C48.8656,6.44830968 49.3826065,6.62895484 49.8631226,6.86234839 C50.3436387,7.09610323 50.7887484,7.37682581 51.1984516,7.70523871 C51.6077935,8.03329032 51.9792,8.39313548 52.3123097,8.78332903 L52.5124645,7.25507097 C52.5601548,7.08345806 52.6053161,6.94327742 52.6483097,6.83380645 C52.6909419,6.72433548 52.743329,6.63618065 52.8051097,6.56934194 C52.8672516,6.50322581 52.9456516,6.45770323 53.040671,6.43421935 C53.1364129,6.4100129 53.2549161,6.39845161 53.3976258,6.39845161 L54.8261677,6.39845161 C54.9779097,6.39845161 55.1307355,6.41290323 55.2828387,6.44144516 C55.4353032,6.4699871 55.5733161,6.5147871 55.6972387,6.57656774 C55.8204387,6.63870968 55.9187097,6.72433548 55.9898839,6.83380645 C56.0614194,6.94327742 56.0971871,7.07912258 56.0971871,7.24098065 L56.0971871,23.7360516 Z M65.9795613,24.5782194 C65.2273548,24.5691871 64.5199484,24.4542968 63.8587871,24.2353548 C63.1969032,24.0164129 62.6210065,23.6995613 62.1303742,23.2844387 C61.6401032,22.8700387 61.2524387,22.3602581 60.9662968,21.7547355 C60.6805161,21.1502968 60.5378065,20.4609548 60.5378065,19.6896 L60.5378065,10.0398968 L58.8961032,10.0398968 C58.6189935,10.0398968 58.4126968,9.97883871 58.2743226,9.85527742 C58.136671,9.73171613 58.0673032,9.52794839 58.0673032,9.2436129 L58.0673032,7.19473548 C58.0673032,6.91979355 58.136671,6.72578065 58.2743226,6.6116129 C58.4126968,6.49780645 58.6189935,6.44144516 58.8961032,6.44144516 L60.5378065,6.44144516 C60.5378065,5.93672258 60.5406968,5.43380645 60.5450323,4.93450323 C60.5500903,4.43411613 60.5522581,3.93228387 60.5522581,3.42756129 C60.5522581,3.23716129 60.611871,3.08722581 60.7307355,2.97811613 C60.8496,2.86828387 61.0327742,2.77073548 61.2809806,2.68510968 C61.4428387,2.62802581 61.6375742,2.55938065 61.866271,2.47809032 C62.0949677,2.39752258 62.330529,2.31876129 62.5736774,2.24216774 C62.8157419,2.16629677 63.0516645,2.1019871 63.2803613,2.04923871 C63.5090581,1.9972129 63.6990968,1.97083871 63.8519226,1.97083871 C64.1463742,1.97083871 64.3393032,2.05176774 64.4296258,2.21362581 C64.5199484,2.37620645 64.565471,2.58972903 64.565471,2.85672258 C64.565471,3.45610323 64.5629419,4.05367742 64.5586065,4.64872258 C64.5531871,5.24376774 64.5510194,5.84134194 64.5510194,6.44144516 L66.6078452,6.44144516 C66.8549677,6.44144516 67.0453677,6.50503226 67.1794065,6.63292903 C67.3123613,6.76154839 67.3788387,6.9627871 67.3788387,7.23772903 L67.3788387,9.18616774 C67.3788387,9.4900129 67.3123613,9.70859355 67.1794065,9.84082581 C67.0453677,9.97341935 66.8549677,10.0398968 66.6078452,10.0398968 L64.5510194,10.0398968 C64.5510194,10.659871 64.5510194,11.1841032 64.5510194,11.6125935 C64.5510194,12.0421677 64.5510194,12.4204387 64.5510194,12.7502968 C64.5510194,13.0787097 64.5531871,13.3858065 64.5586065,13.6723097 C64.5629419,13.9580903 64.565471,14.2680774 64.565471,14.6019097 C64.565471,14.9346581 64.565471,15.3169032 64.565471,15.7457548 C64.565471,16.1749677 64.565471,16.6988387 64.565471,17.3188129 L64.5586065,17.3758968 L64.5510194,17.4333419 L64.5510194,19.306271 C64.5510194,19.9356387 64.6745806,20.3883355 64.9227871,20.6650839 C65.170271,20.9411097 65.5698581,21.0791226 66.1226323,21.0791226 C66.3220645,21.0791226 66.4788645,21.1510194 66.5933935,21.293729 C66.7075613,21.4368 66.7646452,21.6080516 66.7646452,21.8074839 L66.7646452,23.7931355 C66.7646452,24.0406194 66.696,24.2335484 66.5576258,24.3712 C66.4199742,24.5092129 66.2270452,24.5782194 65.9795613,24.5782194 Z M69.8634323,7.31215484 C69.8634323,7.06467097 69.935329,6.85765161 70.0780387,6.69073548 C70.2211097,6.52454194 70.4299355,6.44144516 70.7066839,6.44144516 L73.077471,6.44144516 C73.1818839,6.44144516 73.2891871,6.46276129 73.3982968,6.50539355 C73.5077677,6.54802581 73.6056774,6.61016774 73.6913032,6.69073548 C73.776929,6.77202581 73.8484645,6.86487742 73.9055484,6.96929032 C73.9626323,7.0747871 73.9911742,7.18895484 73.9911742,7.31215484 L73.9911742,23.7216 C73.9911742,24.2924387 73.6913032,24.5782194 73.0915613,24.5782194 L70.7211355,24.5782194 C70.1492129,24.5782194 69.8634323,24.2924387 69.8634323,23.7216 L69.8634323,7.31215484 Z M69.8634323,0.988490323 C69.8634323,0.415122581 70.1441548,0.128619355 70.7066839,0.128619355 L73.1052903,0.128619355 C73.3722839,0.128619355 73.586529,0.200877419 73.7483871,0.343587097 C73.9102452,0.487380645 73.9911742,0.702348387 73.9911742,0.988490323 L73.9911742,3.12407742 C73.9911742,3.34446452 73.9145806,3.55220645 73.7624774,3.74802581 C73.6100129,3.94384516 73.3957677,4.04211613 73.1197419,4.04211613 L70.7211355,4.04211613 C70.1492129,4.04211613 69.8634323,3.73610323 69.8634323,3.12407742 L69.8634323,0.988490323 Z M90.4569806,19.8225548 C90.6188387,19.7181419 90.7546839,19.6538323 90.8634323,19.6296258 C90.9732645,19.6061419 91.0664774,19.5938581 91.1423484,19.5938581 C91.3038452,19.6036129 91.4422194,19.6896 91.5563871,19.8510968 L91.8996129,20.3229419 L92.9133935,21.7648516 C92.9607226,21.831329 92.9993806,21.9003355 93.0279226,21.971871 C93.0564645,22.0430452 93.0709161,22.1077161 93.0709161,22.1648 C93.0709161,22.3172645 93.0178065,22.4531097 92.9133935,22.5719742 C92.8082581,22.6908387 92.6706065,22.8122323 92.4993548,22.9357935 C91.6900645,23.5261419 90.8164645,24.0019613 89.8785548,24.3639742 C88.9402839,24.7256258 87.9098839,24.9069935 86.7866323,24.9069935 C85.9390452,24.9069935 85.1181935,24.7946323 84.3229935,24.5709935 C83.5281548,24.3477161 82.7857032,24.0333935 82.0952774,23.6287484 C81.4048516,23.2241032 80.7744,22.7381677 80.2032,22.1720258 C79.6316387,21.6055226 79.1392,20.9747097 78.7251613,20.2795871 C78.3104,19.5848258 77.9917419,18.8373161 77.7681032,18.0374194 C77.5441032,17.2375226 77.4324645,16.4047484 77.4324645,15.5383742 C77.4324645,14.672 77.5441032,13.8385032 77.7681032,13.0389677 C77.9917419,12.2394323 78.3104,11.4919226 78.7251613,10.7968 C79.1392,10.1016774 79.6316387,9.47122581 80.2032,8.90436129 C80.7744,8.33858065 81.4048516,7.85264516 82.0952774,7.448 C82.7857032,7.04335484 83.5281548,6.72903226 84.3229935,6.50539355 C85.1181935,6.28139355 85.9390452,6.16975484 86.7866323,6.16975484 C87.8434065,6.16975484 88.8430968,6.3316129 89.7853419,6.65496774 C90.7283097,6.97904516 91.5657806,7.41692903 92.2992,7.96898065 L92.2847484,7.95489032 C92.4177032,8.08856774 92.5492129,8.20490323 92.6778323,8.30498065 C92.8060903,8.40469677 92.8707613,8.55932903 92.8707613,8.76923871 C92.8707613,8.82632258 92.867871,8.8928 92.8635355,8.96867097 C92.8584774,9.04526452 92.8324645,9.1168 92.7851355,9.18291613 L91.6138323,10.9684129 C91.4227097,11.253471 91.2135226,11.3961806 90.9848258,11.3961806 C90.823329,11.3961806 90.6426839,11.3159742 90.442529,11.1544774 C89.9569548,10.7444129 89.3904516,10.4113032 88.7430194,10.1540645 C88.0952258,9.8971871 87.4290065,9.76892903 86.7436387,9.76892903 C86.0011871,9.76892903 85.3038968,9.9232 84.6517677,10.2324645 C83.9992774,10.5420903 83.4255484,10.9611871 82.9302194,11.4890323 C82.4356129,12.0179613 82.0450581,12.6317935 81.7592774,13.3319742 C81.4742194,14.0314323 81.3315097,14.7670194 81.3315097,15.5383742 C81.3315097,16.3288774 81.4742194,17.071329 81.7592774,17.7660903 C82.0450581,18.4612129 82.4330839,19.0660129 82.9233548,19.5797677 C83.4136258,20.0942452 83.9873548,20.5014194 84.6449032,20.800929 C85.3013677,21.1008 86.0011871,21.2507355 86.7436387,21.2507355 C87.552929,21.2507355 88.2527484,21.1105548 88.8430968,20.829471 C89.4330839,20.5487484 89.9714065,20.2131097 90.4569806,19.8225548 Z M99.0394323,15.4953806 C99.0394323,16.2577032 99.173471,16.9784774 99.4397419,17.6591484 C99.7060129,18.3394581 100.077419,18.9373935 100.553961,19.4507871 C101.029781,19.9652645 101.589058,20.3724387 102.231794,20.6719484 C102.874529,20.9721806 103.576516,21.1221161 104.338477,21.1221161 C105.109471,21.1221161 105.830968,20.9721806 106.502245,20.6719484 C107.1728,20.3724387 107.755923,19.9652645 108.251613,19.4507871 C108.746942,18.9373935 109.137135,18.3394581 109.422194,17.6591484 C109.707974,16.9784774 109.850684,16.2577032 109.850684,15.4953806 C109.850684,14.7431742 109.707974,14.0270968 109.422194,13.3464258 C109.137135,12.6653935 108.746942,12.0681806 108.251613,11.5537032 C107.755923,11.0399484 107.1728,10.6306065 106.502245,10.3256774 C105.830968,10.0207484 105.109471,9.86864516 104.338477,9.86864516 C103.576516,9.86864516 102.874529,10.0207484 102.231794,10.3256774 C101.589058,10.6306065 101.029781,11.0399484 100.553961,11.5537032 C100.077419,12.0681806 99.7060129,12.6653935 99.4397419,13.3464258 C99.173471,14.0270968 99.0394323,14.7431742 99.0394323,15.4953806 Z M113.8928,23.7360516 C113.8928,23.9073032 113.857032,24.0474839 113.785497,24.1569548 C113.714323,24.2667871 113.621471,24.3524129 113.506942,24.4141935 C113.392774,24.4763355 113.261626,24.519329 113.113858,24.5424516 C112.966452,24.5666581 112.811819,24.5782194 112.650323,24.5782194 L110.864826,24.5782194 C110.560258,24.5782194 110.348181,24.4976516 110.229316,24.3354323 C110.11009,24.1735742 110.022297,23.9690839 109.965213,23.7216 L109.879226,22.5076645 C109.546116,22.8407742 109.177239,23.152929 108.772594,23.4426839 C108.367948,23.7331613 107.932232,23.9857032 107.465806,24.1995871 C106.999742,24.4141935 106.504052,24.5803871 105.980181,24.6999742 C105.457032,24.8184774 104.919071,24.8784516 104.367019,24.8784516 C103.510039,24.8784516 102.684129,24.765729 101.888929,24.5424516 C101.09409,24.3191742 100.34911,24.0048516 99.6543484,23.6002065 C98.9592258,23.1955613 98.3280516,22.7078194 97.7619097,22.1362581 C97.1950452,21.5650581 96.7098323,20.9320774 96.3051871,20.2369548 C95.9005419,19.5418323 95.5862194,18.7943226 95.3629419,17.9947871 C95.1385806,17.194529 95.0269419,16.3621161 95.0269419,15.4953806 C95.0269419,14.6290065 95.1385806,13.795871 95.3629419,12.9959742 C95.5862194,12.1964387 95.9005419,11.448929 96.3051871,10.7541677 C96.7098323,10.0590452 97.1950452,9.42823226 97.7619097,8.86209032 C98.3280516,8.2955871 98.9592258,7.8100129 99.6543484,7.40536774 C100.34911,7.00072258 101.09409,6.68603871 101.888929,6.46276129 C102.684129,6.23876129 103.510039,6.12712258 104.367019,6.12712258 C104.976155,6.12712258 105.556748,6.19107097 106.109161,6.31969032 C106.661213,6.44830968 107.178219,6.62895484 107.658735,6.86234839 C108.139252,7.09610323 108.584,7.37682581 108.994065,7.70523871 C109.403406,8.03329032 109.774813,8.39313548 110.107923,8.78332903 L110.308077,7.25507097 C110.355768,7.08345806 110.400929,6.94327742 110.443923,6.83380645 C110.486555,6.72433548 110.538581,6.63618065 110.600361,6.56934194 C110.662503,6.50322581 110.741265,6.45770323 110.836284,6.43421935 C110.931665,6.4100129 111.050168,6.39845161 111.193239,6.39845161 L112.621781,6.39845161 C112.773523,6.39845161 112.926348,6.41290323 113.078452,6.44144516 C113.230916,6.4699871 113.368568,6.5147871 113.49249,6.57656774 C113.616052,6.63870968 113.714323,6.72433548 113.785497,6.83380645 C113.857032,6.94327742 113.8928,7.07912258 113.8928,7.24098065 L113.8928,23.7360516 Z M116.060903,21.8219355 C116.060903,21.5556645 116.09631,21.3269677 116.168206,21.1365677 C116.239381,20.9461677 116.4128,20.8507871 116.689548,20.8507871 L118.931716,20.8507871 C119.045884,20.8507871 119.162219,20.8558452 119.281084,20.8652387 C119.400671,20.8749935 119.509781,20.9006452 119.609858,20.9436387 C119.709574,20.986271 119.793032,21.0487742 119.859871,21.1293419 C119.925987,21.2106323 119.959948,21.3269677 119.959948,21.4794323 L119.959948,23.5929806 C119.959948,23.7259355 119.954529,23.8502194 119.945858,23.9647484 C119.935742,24.0781935 119.909729,24.183329 119.867097,24.2783484 C119.824103,24.3733677 119.759794,24.4477935 119.674168,24.4998194 C119.588181,24.5525677 119.469316,24.5782194 119.316852,24.5782194 L117.074684,24.5782194 C116.741213,24.5782194 116.489394,24.5424516 116.318142,24.4712774 C116.146529,24.3997419 116.060903,24.2212645 116.060903,23.9362065 L116.060903,21.8219355 Z M121.990761,15.7331097 C121.990761,15.6066581 122.02689,15.5000774 122.100232,15.4151742 C122.173935,15.3299097 122.280877,15.2869161 122.422503,15.2869161 L123.636439,15.2869161 C123.690632,15.2869161 123.744826,15.2981161 123.801187,15.3194323 C123.857548,15.341471 123.907045,15.3732645 123.951484,15.4151742 C123.9952,15.4567226 124.032052,15.5040516 124.061316,15.5571613 C124.090581,15.6113548 124.104671,15.6698839 124.104671,15.7331097 L124.104671,24.1392516 C124.104671,24.4322581 123.951484,24.5782194 123.644387,24.5782194 L122.429729,24.5782194 C122.136723,24.5782194 121.990761,24.4322581 121.990761,24.1392516 L121.990761,15.7331097 Z M121.990761,12.4937806 C121.990761,12.1996903 122.134194,12.0530065 122.422503,12.0530065 L123.651252,12.0530065 C123.787819,12.0530065 123.897652,12.0898581 123.980748,12.1635613 C124.063123,12.2369032 124.104671,12.3463742 124.104671,12.4937806 L124.104671,13.5877677 C124.104671,13.700129 124.066013,13.8067097 123.987974,13.9075097 C123.909935,14.0075871 123.800465,14.0574452 123.658477,14.0574452 L122.429729,14.0574452 C122.136723,14.0574452 121.990761,13.9010065 121.990761,13.5877677 L121.990761,12.4937806 Z M128.019252,19.9475613 C128.019252,20.3377548 128.087535,20.7073548 128.224103,21.0552774 C128.361394,21.4042839 128.55071,21.708129 128.794942,21.9664516 C129.038813,22.2251355 129.327484,22.4299871 129.662039,22.5813677 C129.995871,22.7323871 130.360413,22.8078968 130.755665,22.8078968 C131.141161,22.8078968 131.498116,22.7323871 131.827252,22.5813677 C132.156748,22.4299871 132.440723,22.2251355 132.679897,21.9664516 C132.91871,21.708129 133.104774,21.4042839 133.239535,21.0552774 C133.373574,20.7073548 133.440774,20.3377548 133.440774,19.9475613 C133.440774,19.5620645 133.373574,19.1939097 133.239535,18.8423742 C133.104774,18.4908387 132.91871,18.1833806 132.679897,17.9167484 C132.440723,17.6512 132.156748,17.4387613 131.827252,17.2805161 C131.498116,17.1219097 131.141161,17.0424258 130.755665,17.0424258 C130.360413,17.0424258 129.995871,17.1219097 129.662039,17.2805161 C129.327484,17.4387613 129.038813,17.6512 128.794942,17.9167484 C128.55071,18.1833806 128.361394,18.4908387 128.224103,18.8423742 C128.087535,19.1939097 128.019252,19.5620645 128.019252,19.9475613 Z M125.956284,19.9475613 C125.956284,19.5035355 126.013729,19.0754065 126.127897,18.6631742 C126.242065,18.2513032 126.405006,17.8668903 126.614555,17.5106581 C126.823742,17.1551484 127.0752,16.8314323 127.367484,16.5413161 C127.659406,16.2515613 127.983845,16.0026323 128.339716,15.7956129 C128.695587,15.587871 129.076748,15.4274581 129.483561,15.3122065 C129.890735,15.1980387 130.315613,15.1402323 130.758916,15.1402323 C131.198245,15.1402323 131.621677,15.1980387 132.031381,15.3122065 C132.440723,15.4274581 132.821884,15.587871 133.175226,15.7956129 C133.528568,16.0026323 133.851561,16.2515613 134.144206,16.5413161 C134.43649,16.8314323 134.687226,17.1551484 134.897135,17.5106581 C135.105961,17.8668903 135.268903,18.2513032 135.383071,18.6631742 C135.4976,19.0754065 135.555045,19.5035355 135.555045,19.9475613 C135.555045,20.3908645 135.4976,20.8179097 135.383071,21.2272516 C135.268903,21.6373161 135.105961,22.0192 134.897135,22.3725419 C134.687226,22.7258839 134.43649,23.0492387 134.144206,23.3415226 C133.851561,23.6348903 133.528568,23.8845419 133.175226,24.0915613 C132.821884,24.2989419 132.440723,24.4600774 132.031381,24.5742452 C131.621677,24.6894968 131.198245,24.7465806 130.758916,24.7465806 C130.315613,24.7465806 129.890735,24.6894968 129.483561,24.5742452 C129.076748,24.4600774 128.695587,24.2989419 128.339716,24.0915613 C127.983845,23.8845419 127.659406,23.6348903 127.367484,23.3415226 C127.0752,23.0492387 126.823742,22.7258839 126.614555,22.3725419 C126.405006,22.0192 126.242065,21.6373161 126.127897,21.2272516 C126.013729,20.8179097 125.956284,20.3908645 125.956284,19.9475613 Z" transform="translate(44 16)"/>
  </g>
</svg>
