<?xml version="1.0" encoding="UTF-8"?> <svg xmlns="http://www.w3.org/2000/svg" xmlns:xlink="http://www.w3.org/1999/xlink" width="900" zoomAndPan="magnify" viewBox="0 0 675 187.499995" height="250" preserveAspectRatio="xMidYMid meet" version="1.0"><defs><g></g></defs><g fill="rgb(11.759949%, 45.098877%, 74.508667%)" fill-opacity="1"><g transform="translate(3.832384, 154.006729)"><g><path d="M 6.023438 -89.535156 L 6.023438 0.242188 C 20.605469 0.242188 32.296875 -10.605469 32.296875 -23.980469 L 32.296875 -113.636719 C 17.835938 -113.636719 6.023438 -102.910156 6.023438 -89.535156 Z M 6.023438 -89.535156 "></path></g></g></g><g fill="rgb(11.759949%, 45.098877%, 74.508667%)" fill-opacity="1"><g transform="translate(38.776906, 154.006729)"><g><path d="M 73.144531 -55.914062 C 66.878906 -64.226562 56.878906 -69.652344 45.671875 -69.652344 L 37.476562 -69.652344 C 32.898438 -69.652344 29.042969 -73.628906 29.042969 -78.207031 L 29.042969 -79.171875 C 29.042969 -83.75 32.898438 -87.605469 37.476562 -87.605469 L 49.164062 -87.605469 C 62.542969 -87.605469 73.386719 -98.8125 73.386719 -113.394531 L 37.476562 -113.394531 C 18.679688 -113.394531 3.253906 -97.96875 3.253906 -79.171875 L 3.253906 -78.207031 C 3.253906 -70.496094 5.785156 -63.386719 10.121094 -57.722656 C 16.269531 -49.40625 26.269531 -43.984375 37.476562 -43.984375 L 45.671875 -43.984375 C 50.25 -43.984375 54.105469 -40.007812 54.105469 -35.429688 L 54.105469 -34.464844 C 54.105469 -29.886719 50.25 -26.027344 45.671875 -26.027344 L 31.210938 -26.027344 C 17.835938 -26.027344 6.867188 -14.820312 6.867188 -0.242188 L 45.671875 -0.242188 C 64.589844 -0.242188 79.894531 -15.664062 79.894531 -34.464844 L 79.894531 -35.429688 C 79.894531 -43.140625 77.363281 -50.25 73.144531 -55.914062 Z M 73.144531 -55.914062 "></path></g></g></g><g fill="rgb(11.759949%, 45.098877%, 74.508667%)" fill-opacity="1"><g transform="translate(117.101033, 154.006729)"><g><path d="M 23.738281 -112.910156 C 10.242188 -112.910156 -0.601562 -103.03125 -0.601562 -88.328125 L 30.847656 -88.328125 L 30.847656 -0.242188 C 45.429688 -0.242188 57.238281 -11.085938 57.238281 -24.582031 L 57.238281 -88.328125 L 64.347656 -88.328125 C 77.726562 -88.328125 88.691406 -98.332031 88.691406 -112.910156 Z M 23.738281 -112.910156 "></path></g></g></g><g fill="rgb(11.759949%, 45.098877%, 74.508667%)" fill-opacity="1"><g transform="translate(201.570615, 154.006729)"><g><path d="M 63.386719 -97.726562 C 61.820312 -103.753906 58.566406 -107.972656 53.261719 -110.984375 C 50.492188 -112.550781 47.359375 -113.515625 44.105469 -113.515625 C 40.730469 -113.515625 37.597656 -112.550781 34.824219 -110.984375 C 29.644531 -107.972656 26.269531 -103.753906 24.824219 -97.726562 L 0.722656 -0.964844 C 14.097656 2.289062 27.476562 -5.0625 30.488281 -17.351562 L 31.8125 -22.773438 L 32.296875 -25.425781 L 55.792969 -25.425781 L 56.273438 -22.773438 L 57.601562 -17.351562 C 60.613281 -5.0625 73.988281 2.289062 87.363281 -0.964844 Z M 36.511719 -45.550781 L 44.105469 -81.703125 L 51.574219 -45.550781 Z M 36.511719 -45.550781 "></path></g></g></g><g fill="rgb(11.759949%, 45.098877%, 74.508667%)" fill-opacity="1"><g transform="translate(286.281207, 154.006729)"><g><path d="M 68.808594 -38.078125 C 71.699219 -39.644531 74.351562 -41.453125 76.761719 -43.742188 C 80.496094 -47.238281 83.507812 -51.574219 85.679688 -56.757812 C 87.726562 -61.820312 88.8125 -67.84375 88.8125 -74.589844 L 88.8125 -74.953125 C 88.8125 -81.339844 87.847656 -87.003906 85.917969 -92.066406 C 83.992188 -97.125 81.21875 -101.34375 77.605469 -104.839844 C 73.988281 -108.332031 69.652344 -110.984375 64.589844 -112.792969 C 59.410156 -114.597656 53.746094 -115.441406 47.476562 -115.441406 L 30.96875 -115.441406 C 18.558594 -115.441406 4.941406 -103.753906 4.941406 -89.292969 L 4.941406 -0.242188 C 20.125 -0.242188 32.535156 -14.582031 32.535156 -32.175781 L 32.535156 -33.136719 L 43.863281 -33.136719 L 58.804688 -10.964844 C 66.398438 0.363281 80.015625 3.011719 91.339844 -4.578125 Z M 32.535156 -58.203125 L 32.535156 -88.8125 L 45.429688 -88.8125 C 50.371094 -88.8125 54.347656 -87.484375 57.117188 -84.957031 C 59.890625 -82.304688 61.335938 -78.570312 61.335938 -73.628906 L 61.335938 -73.265625 C 61.335938 -68.566406 59.890625 -64.953125 57.117188 -62.179688 C 54.347656 -59.527344 50.492188 -58.203125 45.550781 -58.203125 Z M 32.535156 -58.203125 "></path></g></g></g><g fill="rgb(100%, 56.858826%, 30.198669%)" fill-opacity="1"><g transform="translate(377.858396, 154.006729)"><g><path d="M 23.738281 -112.910156 C 10.242188 -112.910156 -0.601562 -103.03125 -0.601562 -88.328125 L 30.847656 -88.328125 L 30.847656 -0.242188 C 45.429688 -0.242188 57.238281 -11.085938 57.238281 -24.582031 L 57.238281 -88.328125 L 64.347656 -88.328125 C 77.726562 -88.328125 88.691406 -98.332031 88.691406 -112.910156 Z M 23.738281 -112.910156 "></path></g></g></g><g fill="rgb(100%, 56.858826%, 30.198669%)" fill-opacity="1"><g transform="translate(462.327983, 154.006729)"><g><path d="M 6.023438 -89.535156 L 6.023438 0.242188 C 20.605469 0.242188 32.296875 -10.605469 32.296875 -23.980469 L 32.296875 -113.636719 C 17.835938 -113.636719 6.023438 -102.910156 6.023438 -89.535156 Z M 6.023438 -89.535156 "></path></g></g></g><g fill="rgb(100%, 56.858826%, 30.198669%)" fill-opacity="1"><g transform="translate(497.272502, 154.006729)"><g><path d="M 86.28125 -91.339844 C 84.351562 -96.28125 81.582031 -100.5 78.085938 -103.996094 C 74.472656 -107.367188 70.132812 -110.019531 65.070312 -111.707031 C 60.011719 -113.515625 54.46875 -114.476562 48.203125 -114.476562 L 31.8125 -114.476562 C 19.523438 -114.476562 6.023438 -102.789062 6.023438 -88.570312 L 6.023438 -0.242188 C 21.089844 -0.242188 33.378906 -14.460938 33.378906 -31.933594 L 33.378906 -32.898438 L 46.875 -32.898438 C 52.902344 -32.898438 58.566406 -33.742188 63.746094 -35.546875 C 69.046875 -37.234375 73.507812 -39.886719 77.242188 -43.261719 C 80.976562 -46.753906 83.871094 -51.09375 86.039062 -56.15625 C 88.089844 -61.335938 89.171875 -67.242188 89.171875 -73.988281 L 89.171875 -74.351562 C 89.171875 -80.617188 88.207031 -86.28125 86.28125 -91.339844 Z M 61.9375 -72.664062 C 61.9375 -67.964844 60.492188 -64.347656 57.722656 -61.699219 C 54.949219 -59.046875 51.09375 -57.722656 46.273438 -57.722656 L 33.378906 -57.722656 L 33.378906 -87.96875 L 46.152344 -87.96875 C 51.09375 -87.96875 54.949219 -86.761719 57.722656 -84.113281 C 60.492188 -81.582031 61.9375 -77.84375 61.9375 -72.90625 Z M 61.9375 -72.664062 "></path></g></g></g><g fill="rgb(100%, 56.858826%, 30.198669%)" fill-opacity="1"><g transform="translate(588.972017, 154.006729)"><g><path d="M 73.144531 -55.914062 C 66.878906 -64.226562 56.878906 -69.652344 45.671875 -69.652344 L 37.476562 -69.652344 C 32.898438 -69.652344 29.042969 -73.628906 29.042969 -78.207031 L 29.042969 -79.171875 C 29.042969 -83.75 32.898438 -87.605469 37.476562 -87.605469 L 49.164062 -87.605469 C 62.542969 -87.605469 73.386719 -98.8125 73.386719 -113.394531 L 37.476562 -113.394531 C 18.679688 -113.394531 3.253906 -97.96875 3.253906 -79.171875 L 3.253906 -78.207031 C 3.253906 -70.496094 5.785156 -63.386719 10.121094 -57.722656 C 16.269531 -49.40625 26.269531 -43.984375 37.476562 -43.984375 L 45.671875 -43.984375 C 50.25 -43.984375 54.105469 -40.007812 54.105469 -35.429688 L 54.105469 -34.464844 C 54.105469 -29.886719 50.25 -26.027344 45.671875 -26.027344 L 31.210938 -26.027344 C 17.835938 -26.027344 6.867188 -14.820312 6.867188 -0.242188 L 45.671875 -0.242188 C 64.589844 -0.242188 79.894531 -15.664062 79.894531 -34.464844 L 79.894531 -35.429688 C 79.894531 -43.140625 77.363281 -50.25 73.144531 -55.914062 Z M 73.144531 -55.914062 "></path></g></g></g><g fill="rgb(100%, 100%, 100%)" fill-opacity="1"><g transform="translate(310.258555, 75.560178)"><g><path d="M 0.125 -0.65625 L -0.765625 -0.828125 L -0.578125 -1.78125 L -6.625 -2.96875 L -6.8125 -2.015625 L -7.6875 -2.1875 L -7.125 -5.0625 L -6.25 -4.890625 L -6.4375 -3.9375 L -0.390625 -2.75 L -0.203125 -3.703125 L 0.6875 -3.53125 Z M 0.125 -0.65625 "></path></g></g></g><g fill="rgb(100%, 100%, 100%)" fill-opacity="1"><g transform="translate(311.016138, 70.970245)"><g><path d="M 0.421875 -0.859375 L -0.390625 -1.265625 L 1.34375 -4.78125 L 1.078125 -5.5625 L -0.359375 -6.265625 L -1.15625 -6.015625 L -2.515625 -3.25 L -4.015625 -2.734375 L -5.828125 -3.640625 L -6.34375 -5.140625 L -4.46875 -8.9375 L -3.65625 -8.53125 L -5.34375 -5.125 L -5.0625 -4.328125 L -3.875 -3.765625 L -3.09375 -4.015625 L -1.71875 -6.78125 L -0.21875 -7.28125 L 1.828125 -6.265625 L 2.359375 -4.765625 Z M 0.421875 -0.859375 "></path></g></g></g><g fill="rgb(100%, 100%, 100%)" fill-opacity="1"><g transform="translate(314.3674, 64.445678)"><g><path d="M 1.71875 -1.828125 L -3.421875 -6.671875 L -5.046875 -4.953125 L -5.703125 -5.578125 L -1.78125 -9.734375 L -1.125 -9.109375 L -2.734375 -7.390625 L 2.40625 -2.546875 Z M 1.71875 -1.828125 "></path></g></g></g><g fill="rgb(100%, 100%, 100%)" fill-opacity="1"><g transform="translate(318.605818, 59.865849)"><g><path d="M 0.140625 -0.078125 L -1.46875 -8.34375 L -0.125 -9.09375 L 6.140625 -3.484375 L 5.25 -2.96875 L 3.625 -4.453125 L 0.59375 -2.734375 L 1.03125 -0.59375 Z M 0.421875 -3.625 L 2.96875 -5.0625 L -0.21875 -7.953125 L -0.4375 -7.828125 Z M 0.421875 -3.625 "></path></g></g></g><g fill="rgb(100%, 100%, 100%)" fill-opacity="1"><g transform="translate(325.004553, 56.24503)"><g><path d="M 0.921875 -0.171875 L -0.609375 -8 L 3.671875 -8.84375 L 4.984375 -7.9375 L 5.46875 -5.453125 L 4.59375 -4.109375 L 4.5625 -4.109375 L 6.578125 -1.28125 L 5.5 -1.078125 L 3.5 -3.890625 L 1.28125 -3.46875 L 1.890625 -0.375 Z M 1.125 -4.328125 L 4 -4.890625 L 4.453125 -5.59375 L 4.09375 -7.421875 L 3.40625 -7.90625 L 0.53125 -7.34375 Z M 1.125 -4.328125 "></path></g></g></g><g fill="rgb(100%, 100%, 100%)" fill-opacity="1"><g transform="translate(332.33164, 54.856307)"><g><path d="M 0.9375 0.125 L 1.046875 -0.78125 L 4.9375 -0.28125 L 5.59375 -0.78125 L 5.796875 -2.359375 L 5.296875 -3.03125 L 2.25 -3.421875 L 1.296875 -4.671875 L 1.546875 -6.671875 L 2.796875 -7.671875 L 7 -7.125 L 6.890625 -6.21875 L 3.125 -6.71875 L 2.453125 -6.21875 L 2.296875 -4.875 L 2.796875 -4.234375 L 5.84375 -3.828125 L 6.828125 -2.5625 L 6.53125 -0.296875 L 5.265625 0.6875 Z M 0.9375 0.125 "></path></g></g></g><g fill="rgb(100%, 100%, 100%)" fill-opacity="1"><g transform="translate(339.52337, 55.773459)"><g><path d="M 1.6875 0.828125 L 1.15625 -0.703125 L 3.640625 -5.8125 L 5.171875 -6.328125 L 8.5625 -4.6875 L 9.0625 -3.171875 L 6.578125 1.9375 L 5.078125 2.46875 Z M 2.46875 0.234375 L 5.046875 1.484375 L 5.84375 1.21875 L 8.046875 -3.3125 L 7.765625 -4.109375 L 5.1875 -5.359375 L 4.390625 -5.09375 L 2.1875 -0.5625 Z M 2.46875 0.234375 "></path></g></g></g><g fill="rgb(100%, 100%, 100%)" fill-opacity="1"><g transform="translate(346.370056, 59.250288)"><g><path d="M 0.671875 0.640625 L 6.171875 -5.125 L 9.890625 -1.5625 L 9.265625 -0.90625 L 6.265625 -3.78125 L 4.484375 -1.921875 L 7.109375 0.59375 L 6.5 1.25 L 3.875 -1.265625 L 1.390625 1.328125 Z M 0.671875 0.640625 "></path></g></g></g><g fill="rgb(100%, 100%, 100%)" fill-opacity="1"><g transform="translate(351.054808, 63.800259)"><g><path d="M 1.265625 2.171875 L 7.375 -1.390625 L 6.1875 -3.4375 L 6.96875 -3.890625 L 9.84375 1.046875 L 9.0625 1.5 L 7.875 -0.53125 L 1.765625 3.03125 Z M 1.265625 2.171875 "></path></g></g></g><g fill="rgb(100%, 100%, 100%)" fill-opacity="1"><g transform="translate(355.259724, 72.299088)"><g><path d="M 0.078125 0.953125 L 0.984375 0.875 L 1.328125 4.78125 L 1.96875 5.3125 L 3.546875 5.171875 L 4.09375 4.53125 L 3.828125 1.46875 L 4.859375 0.25 L 6.859375 0.078125 L 8.09375 1.09375 L 8.46875 5.3125 L 7.5625 5.40625 L 7.21875 1.609375 L 6.578125 1.078125 L 5.265625 1.203125 L 4.71875 1.828125 L 5 4.90625 L 3.96875 6.109375 L 1.703125 6.3125 L 0.46875 5.296875 Z M 0.078125 0.953125 "></path></g></g></g><g fill="rgb(100%, 100%, 100%)" fill-opacity="1"><g transform="translate(355.786819, 79.61588)"><g><path d="M -0.53125 2.453125 L 6.375 3.921875 L 6.875 1.609375 L 7.765625 1.796875 L 6.578125 7.390625 L 5.6875 7.203125 L 6.171875 4.890625 L -0.734375 3.421875 Z M -0.53125 2.453125 "></path></g></g></g><g fill="rgb(100%, 100%, 100%)" fill-opacity="1"><g transform="translate(354.577468, 85.717458)"><g><path d="M -0.953125 1.671875 L 0.609375 1.25 L 6.546875 4.609375 L 6.0625 5.453125 L 0.40625 2.25 L -0.40625 2.5 L -1.8125 4.984375 L -1.59375 5.78125 L 4.0625 8.984375 L 3.578125 9.84375 L -2.359375 6.484375 L -2.796875 4.9375 Z M -0.953125 1.671875 "></path></g></g></g><g fill="rgb(100%, 100%, 100%)" fill-opacity="1"><g transform="translate(350.778851, 92.401856)"><g><path d="M -0.703125 0.625 L 4.546875 6.625 L 1.28125 9.46875 L -1.0625 9.296875 L -4.109375 5.828125 L -3.96875 3.46875 Z M -0.875 1.921875 L -3.046875 3.84375 L -3.140625 5.421875 L -0.546875 8.390625 L 1.046875 8.53125 L 3.21875 6.609375 Z M -0.875 1.921875 "></path></g></g></g><g fill="rgb(100%, 100%, 100%)" fill-opacity="1"><g transform="translate(344.649921, 97.409454)"><g><path d="M -0.609375 0.28125 L -0.21875 1.09375 L -1.09375 1.515625 L 1.546875 7.078125 L 2.421875 6.65625 L 2.8125 7.46875 L 0.171875 8.734375 L -0.21875 7.921875 L 0.65625 7.5 L -1.984375 1.9375 L -2.859375 2.359375 L -3.25 1.546875 Z M -0.609375 0.28125 "></path></g></g></g><g fill="rgb(100%, 100%, 100%)" fill-opacity="1"><g transform="translate(340.540212, 99.55421)"><g><path d="M -1.84375 0.328125 L -0.515625 1.25 L 0.453125 6.859375 L -0.484375 8.171875 L -4.203125 8.8125 L -5.5 7.890625 L -6.46875 2.28125 L -5.5625 0.96875 Z M -2.125 1.25 L -4.953125 1.75 L -5.453125 2.4375 L -4.59375 7.390625 L -3.890625 7.875 L -1.0625 7.375 L -0.578125 6.703125 L -1.4375 1.75 Z M -2.125 1.25 "></path></g></g></g></svg> 