<svg width="178" height="66" viewBox="0 0 178 66" fill="none" xmlns="http://www.w3.org/2000/svg">
<path d="M149.178 1.97705H157.582C161.598 1.97705 164.842 2.56066 167.317 3.72787C169.838 4.89508 171.706 6.50584 172.92 8.56014C174.18 10.5677 174.857 12.8555 174.951 15.4233C175.044 17.8045 174.647 19.9755 173.76 21.9364C172.873 23.8973 171.659 25.5314 170.118 26.8387C168.578 28.146 166.803 29.1031 164.796 29.71C162.835 30.2703 160.781 30.4104 158.633 30.1302C156.532 29.8034 154.478 28.9864 152.47 27.6791V26.9788C152.47 26.9788 152.75 26.9788 153.31 26.9788C153.917 26.9788 154.664 26.8854 155.551 26.6986C156.485 26.5119 157.442 26.1617 158.423 25.6481C159.45 25.1346 160.407 24.3409 161.294 23.267C162.181 22.1932 162.858 20.7692 163.325 18.995C163.512 18.3881 163.629 17.7111 163.675 16.9641C163.769 16.1704 163.792 15.4467 163.745 14.7931C163.699 11.805 162.882 9.42387 161.294 7.64971C159.753 5.82885 157.559 4.91843 154.711 4.91843H149.879C149.879 4.91843 149.809 4.68499 149.669 4.2181C149.575 3.70453 149.459 3.2143 149.318 2.74741C149.225 2.23384 149.178 1.97705 149.178 1.97705ZM150.089 1.97705V51H139.584V1.97705H150.089ZM139.794 45.8876V51H134.191V50.2997C134.238 50.2997 134.378 50.2997 134.612 50.2997C134.892 50.2997 135.055 50.2997 135.102 50.2997C136.316 50.2997 137.343 49.8795 138.183 49.0391C139.07 48.152 139.537 47.1015 139.584 45.8876H139.794ZM139.794 7.08945H139.584C139.584 5.87554 139.14 4.8484 138.253 4.008C137.366 3.12092 136.316 2.67738 135.102 2.67738C135.055 2.67738 134.915 2.67738 134.682 2.67738C134.448 2.67738 134.308 2.67738 134.261 2.67738L134.191 1.97705H139.794V7.08945ZM149.879 45.8876H150.089C150.136 47.1015 150.579 48.152 151.419 49.0391C152.307 49.8795 153.357 50.2997 154.571 50.2997C154.618 50.2997 154.758 50.2997 154.991 50.2997C155.271 50.2997 155.435 50.2997 155.481 50.2997V51H149.879V45.8876Z" fill="black"/>
<path d="M127.164 30.5504L127.794 42.5961C126.767 44.3235 125.39 45.8876 123.663 47.2883C121.935 48.6889 119.787 49.8328 117.219 50.7199C114.652 51.5603 111.617 51.9805 108.115 51.9805C102.419 51.9338 97.4236 50.9066 93.1282 48.899C88.8796 46.8447 85.588 43.9267 83.2536 40.1449C80.9192 36.3631 79.752 31.7877 79.752 26.4185C79.752 21.1894 80.8958 16.6839 83.1836 12.9022C85.4713 9.0737 88.7395 6.13232 92.9882 4.07803C97.2835 2.02373 102.396 0.996582 108.325 0.996582C112.06 0.996582 115.399 1.37009 118.34 2.11711C121.328 2.86412 123.826 3.77455 125.834 4.84839L125.904 16.824H125.273C124.013 12.2018 121.958 8.91029 119.11 6.94937C116.262 4.94176 112.924 3.93796 109.096 3.93796C105.361 3.93796 102.162 4.84839 99.5012 6.66924C96.84 8.49009 94.7857 11.058 93.3383 14.3728C91.891 17.6877 91.1673 21.6563 91.1673 26.2784C91.1673 30.9006 91.8443 34.8925 93.1982 38.254C94.5989 41.6156 96.5598 44.2302 99.081 46.0977C101.649 47.9652 104.66 48.9457 108.115 49.0391C111.71 49.0391 114.745 48.4555 117.219 47.2883C119.694 46.121 121.678 44.1835 123.172 41.4755C124.713 38.7676 125.857 35.1259 126.604 30.5504H127.164Z" fill="black"/>
<path d="M55.0505 20.8159L73.3991 45.9576C74.4729 47.3583 75.5701 48.4321 76.6906 49.1792C77.8111 49.8795 79.0951 50.253 80.5424 50.2997V51H74.7997C74.2861 51 73.4224 50.9767 72.2085 50.93C71.0413 50.8833 69.7107 50.6965 68.2166 50.3697C66.7226 50.0429 65.2052 49.4826 63.6645 48.6889C62.1705 47.8485 60.8632 46.6813 59.7427 45.1873C59.5092 44.8605 59.0423 44.2302 58.342 43.2964C57.6417 42.3626 56.8246 41.2421 55.8909 39.9348C54.9571 38.6275 53.9766 37.2969 52.9495 35.943C51.969 34.5423 51.0353 33.235 50.1482 32.0211C49.2611 30.8072 48.5374 29.8268 47.9772 29.0797C47.4636 28.286 47.2068 27.8892 47.2068 27.8892L55.0505 20.8159ZM72.6287 2.46728L51.5488 27.469L47.2068 27.8892L66.4658 2.46728H72.6287ZM77.531 1.97705V2.60735H77.2509C75.7101 2.60735 74.2628 2.93417 72.9088 3.5878C71.6015 4.19476 70.481 5.01181 69.5473 6.03895L63.8746 5.89889C64.4349 5.10518 64.5282 4.35817 64.1547 3.65784C63.7812 2.95751 63.1276 2.60735 62.1938 2.60735H61.4935V1.97705H77.2509H77.531ZM44.9657 1.97705V51H34.4608V1.97705H44.9657ZM34.6709 45.8876V51H29.0683V50.2997C29.115 50.2997 29.2551 50.2997 29.4885 50.2997C29.7686 50.2997 29.932 50.2997 29.9787 50.2997C31.1926 50.2997 32.2198 49.8795 33.0602 49.0391C33.9473 48.152 34.4141 47.1015 34.4608 45.8876H34.6709ZM34.6709 7.08945H34.4608C34.4141 5.87554 33.9473 4.8484 33.0602 4.008C32.2198 3.12092 31.1926 2.67738 29.9787 2.67738C29.932 2.67738 29.7686 2.67738 29.4885 2.67738C29.2551 2.67738 29.115 2.67738 29.0683 2.67738V1.97705H34.6709V7.08945ZM44.7556 45.8876H44.9657C45.0124 47.1015 45.456 48.152 46.2964 49.0391C47.1834 49.8795 48.2339 50.2997 49.4478 50.2997C49.4945 50.2997 49.6346 50.2997 49.868 50.2997C50.1482 50.2997 50.3116 50.2997 50.3583 50.2997V51H44.7556V45.8876ZM44.7556 7.08945V1.97705H50.3583V2.67738C50.3116 2.67738 50.1482 2.67738 49.868 2.67738C49.6346 2.67738 49.4945 2.67738 49.4478 2.67738C48.2339 2.67738 47.1834 3.12092 46.2964 4.008C45.456 4.8484 45.0124 5.87554 44.9657 7.08945H44.7556Z" fill="black"/>
<path d="M19.0503 1.97705V48.899C19.0503 51.4669 18.5367 53.778 17.5096 55.8323C16.4824 57.9333 15.0818 59.7074 13.3076 61.1548C11.5802 62.6021 9.59589 63.6526 7.35484 64.3062C5.11379 65.0066 2.77937 65.24 0.351562 65.0066V64.3763C2.31248 63.5359 3.89989 62.2753 5.11379 60.5945C6.32769 58.9604 7.19143 57.0929 7.70501 54.9919C8.26527 52.9376 8.5454 50.8366 8.5454 48.6889V1.97705H19.0503ZM8.7555 7.08945H8.5454C8.49871 5.87554 8.03183 4.8484 7.14474 4.008C6.30435 3.12092 5.2772 2.67738 4.0633 2.67738C4.0633 2.67738 3.89989 2.67738 3.57307 2.67738C3.29294 2.67738 3.15287 2.67738 3.15287 2.67738V1.97705H8.7555V7.08945ZM18.8402 7.08945V1.97705H24.4428V2.67738C24.4428 2.67738 24.2794 2.67738 23.9526 2.67738C23.6725 2.67738 23.5324 2.67738 23.5324 2.67738C22.3185 2.67738 21.268 3.12092 20.3809 4.008C19.5405 4.8484 19.097 5.87554 19.0503 7.08945H18.8402Z" fill="#2048F4"/>
</svg>
