<svg xmlns="http://www.w3.org/2000/svg" width="442" height="74" viewBox="0 0 442 74">
  <g fill="none">
    <path fill="#000" d="M82.6,44.632 L61.8,44.632 L57.832,54.232 L47.208,54.232 L67.176,9.432 L77.416,9.432 L97.448,54.232 L86.568,54.232 L82.6,44.632 Z M78.0869375,35.9456093 C79.7772188,34.9101609 80.708,33.0970962 80.708,30.8405778 C80.708,28.0627571 78.530125,26.2475239 76.6075313,24.6458859 C75.3829688,23.6243158 74.116625,22.569568 73.5220625,21.3907832 C73.2255902,20.8031661 72.6196838,20.432 71.9569063,20.432 C71.2941287,20.432 70.6882223,20.8031661 70.39175,21.3907832 C69.7982813,22.569568 68.532375,23.6249663 67.307375,24.6458859 C65.385875,26.2475239 63.208,28.0627571 63.208,30.8405778 C63.208,33.0970962 64.1387813,34.9101609 65.8290625,35.9456093 C67.0682813,36.7047935 68.6071875,36.9502653 70.208,36.6887468 L68.458,41.2492734 L75.458,41.2492734 L73.708,36.6889636 C74.1100845,36.7557867 74.5169937,36.7900173 74.9246875,36.7913158 C76.0376705,36.8069985 77.1329332,36.5140834 78.0869375,35.9456093 Z M116.84,54.768 C113.298649,54.768 109.874683,54.2880048 106.568,53.328 C103.261317,52.3679952 100.605343,51.1200077 98.6,49.584 L102.12,41.776 C104.04001,43.184007 106.322653,44.3146624 108.968,45.168 C111.613347,46.0213376 114.258653,46.448 116.904,46.448 C119.848015,46.448 122.023993,46.010671 123.432,45.136 C124.840007,44.261329 125.544,43.0986739 125.544,41.648 C125.544,40.581328 125.128004,39.6960035 124.296,38.992 C123.463996,38.2879965 122.39734,37.7226688 121.096,37.296 C119.79466,36.8693312 118.034678,36.4000026 115.816,35.888 C112.40265,35.0773293 109.608011,34.2666707 107.432,33.456 C105.255989,32.6453293 103.389341,31.344009 101.832,29.552 C100.274659,27.759991 99.496,25.3706816 99.496,22.384 C99.496,19.7813203 100.199993,17.4240106 101.608,15.312 C103.016007,13.1999894 105.138652,11.5253395 107.976,10.288 C110.813348,9.05066048 114.27998,8.432 118.376,8.432 C121.234681,8.432 124.02932,8.77332992 126.76,9.456 C129.49068,10.1386701 131.87999,11.1199936 133.928,12.4 L130.728,20.272 C126.589313,17.9253216 122.450687,16.752 118.312,16.752 C115.410652,16.752 113.266674,17.2213286 111.88,18.16 C110.493326,19.0986714 109.8,20.3359923 109.8,21.872 C109.8,23.4080077 110.6,24.5493296 112.2,25.296 C113.800008,26.0426704 116.24265,26.778663 119.528,27.504 C122.94135,28.3146707 125.735989,29.1253293 127.912,29.936 C130.088011,30.7466707 131.954659,32.0266579 133.512,33.776 C135.069341,35.5253421 135.848,37.8933184 135.848,40.88 C135.848,43.4400128 135.13334,45.7759894 133.704,47.888 C132.27466,50.0000106 130.130681,51.6746605 127.272,52.912 C124.413319,54.1493395 120.93602,54.768 116.84,54.768 Z M142.952,9.2 L153.32,9.2 L153.32,54 L142.952,54 L142.952,9.2 Z M163.944,9.2 L174.312,9.2 L174.312,54 L163.944,54 L163.944,9.2 Z M226.024,9.2 L226.024,54 L217.512,54 L195.176,26.8 L195.176,54 L184.936,54 L184.936,9.2 L193.512,9.2 L215.784,36.4 L215.784,9.2 L226.024,9.2 Z M258.344,54.768 C253.69331,54.768 249.501352,53.7653434 245.768,51.76 C242.034648,49.7546566 239.112011,46.9920176 237,43.472 C234.887989,39.9519824 233.832,35.9946886 233.832,31.6 C233.832,27.2053114 234.887989,23.2480176 237,19.728 C239.112011,16.2079824 242.034648,13.4453434 245.768,11.44 C249.501352,9.43465664 253.69331,8.432 258.344,8.432 C262.99469,8.432 267.175981,9.43465664 270.888,11.44 C274.600019,13.4453434 277.522656,16.2079824 279.656,19.728 C281.789344,23.2480176 282.856,27.2053114 282.856,31.6 C282.856,35.9946886 281.789344,39.9519824 279.656,43.472 C277.522656,46.9920176 274.600019,49.7546566 270.888,51.76 C267.175981,53.7653434 262.99469,54.768 258.344,54.768 Z M258.344,45.936 C260.989347,45.936 263.378656,45.3280061 265.512,44.112 C267.645344,42.8959939 269.319994,41.2000109 270.536,39.024 C271.752006,36.8479891 272.36,34.3733472 272.36,31.6 C272.36,28.8266528 271.752006,26.3520109 270.536,24.176 C269.319994,21.9999891 267.645344,20.3040061 265.512,19.088 C263.378656,17.8719939 260.989347,17.264 258.344,17.264 C255.698653,17.264 253.309344,17.8719939 251.176,19.088 C249.042656,20.3040061 247.368006,21.9999891 246.152,24.176 C244.935994,26.3520109 244.328,28.8266528 244.328,31.6 C244.328,34.3733472 244.935994,36.8479891 246.152,39.024 C247.368006,41.2000109 249.042656,42.8959939 251.176,44.112 C253.309344,45.3280061 255.698653,45.936 258.344,45.936 Z M290.664,9.2 L311.016,9.2 C315.880024,9.2 320.178648,10.1279907 323.912,11.984 C327.645352,13.8400093 330.546656,16.4533165 332.616,19.824 C334.685344,23.1946835 335.72,27.1199776 335.72,31.6 C335.72,36.0800224 334.685344,40.0053165 332.616,43.376 C330.546656,46.7466835 327.645352,49.3599907 323.912,51.216 C320.178648,53.0720093 315.880024,54 311.016,54 L290.664,54 L290.664,9.2 Z M310.504,45.488 C314.984022,45.488 318.55732,44.2400125 321.224,41.744 C323.89068,39.2479875 325.224,35.866688 325.224,31.6 C325.224,27.333312 323.89068,23.9520125 321.224,21.456 C318.55732,18.9599875 314.984022,17.712 310.504,17.712 L301.032,17.712 L301.032,45.488 L310.504,45.488 Z M16.952,36.4 L10.936,42.672 L10.936,54 L0.632,54 L0.632,9.2 L10.936,9.2 L10.936,30.128 L30.776,9.2 L42.296,9.2 L23.736,29.168 L43.384,54 L31.288,54 L16.952,36.4 Z"/>
    <path fill="#1275C2" d="M337.738474,45.2914965 L340.074669,26.3959189 C341.619342,13.9023215 351.651422,4.16784864 364.185859,3 L382.278581,1.31427929 C384.526695,1.10481984 386.781257,0.971559027 389.038392,0.914725986 L418.260643,0.178930602 C430.716577,-0.134700921 441.068356,9.7085804 441.381987,22.1645148 C441.433306,24.2026579 441.208116,26.2383522 440.712565,28.216 L435.8832,47.489093 C434.308144,53.7748478 431.577657,59.7128031 427.83105,65 C424.255875,70.0452725 418.543761,73.1481069 412.365356,73.4010031 L409.524924,73.5172685 C401.140766,73.8604512 392.749568,73.0375809 384.591792,71.0722379 L348.307416,62.3307323 C344.742238,61.4718223 341.690908,59.1769337 339.876633,55.989988 C338.030507,52.7470928 337.280601,48.9948602 337.738474,45.2914965 Z M343.695,53 C344.505004,53 345.187497,52.7300027 345.7425,52.19 C346.297503,51.6499973 346.575,50.9900039 346.575,50.21 C346.575,49.399996 346.297503,48.7100029 345.7425,48.14 C345.187497,47.5699972 344.505004,47.285 343.695,47.285 C342.914996,47.285 342.247503,47.5699972 341.6925,48.14 C341.137497,48.7100029 340.86,49.399996 340.86,50.21 C340.86,50.9900039 341.137497,51.6499973 341.6925,52.19 C342.247503,52.7300027 342.914996,53 343.695,53 Z M349.725,21.545 L349.725,53 L357.69,53 L357.69,34.235 L369.3,53 L377.13,53 L377.13,21.545 L369.165,21.545 L369.165,40.265 L357.6,21.545 L349.725,21.545 Z M381.18,21.545 L381.18,53 L403.5,53 L403.5,46.295 L389.145,46.295 L389.145,40.4 L399.63,40.4 L399.63,34.145 L389.145,34.145 L389.145,28.25 L403.5,28.25 L403.5,21.545 L381.18,21.545 Z M413.94,28.25 L413.94,53 L421.905,53 L421.905,28.25 L430.815,28.25 L430.815,21.545 L405.075,21.545 L405.075,28.25 L413.94,28.25 Z"/>
  </g>
</svg>
