<svg xmlns="http://www.w3.org/2000/svg" width="124" height="54" viewBox="0 0 124 54">
  <g fill="none" fill-rule="evenodd">
    <rect width="124" height="54" fill="#0A6138"/>
    <g fill-rule="nonzero" transform="translate(14 12)">
      <path fill="#FFF" d="M40.003,13.217 L42.656,13.217 L42.656,7.783 L45.143,11.478 L45.198,11.478 L47.698,7.756 L47.698,13.217 L50.394,13.217 L50.394,3.707 L47.531,3.707 L45.198,7.389 L42.866,3.707 L40.003,3.707 L40.003,13.217 Z M52.21,13.217 L55.059,13.217 L55.757,11.519 L59.528,11.519 L60.241,13.217 L63.146,13.217 L58.984,3.64 L56.372,3.64 L52.21,13.218 L52.21,13.217 Z M56.553,9.467 L57.657,6.764 L58.747,9.467 L56.553,9.467 Z M68.663,13.38 C71.037,13.38 72.615,12.226 72.615,10.283 C72.615,8.476 71.219,7.769 68.97,7.293 C67.615,6.995 67.28,6.804 67.28,6.37 C67.28,6.003 67.601,5.731 68.258,5.731 C69.123,5.731 70.102,6.057 70.995,6.669 L72.35,4.807 C71.289,3.978 69.99,3.543 68.328,3.543 C65.981,3.543 64.543,4.821 64.543,6.587 C64.543,8.571 66.148,9.141 68.23,9.603 C69.556,9.903 69.878,10.12 69.878,10.513 C69.878,10.948 69.487,11.193 68.76,11.193 C67.63,11.193 66.554,10.799 65.59,10.052 L64.082,11.804 C65.282,12.851 66.932,13.381 68.662,13.381 L68.663,13.38 Z M79.71,13.408 C82.727,13.408 84.99,11.193 84.99,8.462 C84.99,5.704 82.755,3.516 79.738,3.516 C76.721,3.516 74.459,5.731 74.459,8.462 C74.459,11.22 76.693,13.408 79.71,13.408 L79.71,13.408 Z M79.738,11.03 C78.258,11.03 77.238,9.834 77.238,8.462 C77.238,7.062 78.23,5.894 79.71,5.894 C81.205,5.894 82.225,7.09 82.225,8.462 C82.225,9.862 81.233,11.03 79.738,11.03 Z M87.266,13.217 L89.948,13.217 L89.948,8 L94.124,13.217 L96.499,13.217 L96.499,3.707 L93.817,3.707 L93.817,8.734 L89.795,3.707 L87.266,3.707 L87.266,13.217 Z M44.584,26.062 C46.958,26.062 48.536,24.907 48.536,22.964 C48.536,21.157 47.14,20.45 44.891,19.974 C43.536,19.676 43.201,19.486 43.201,19.051 C43.201,18.684 43.522,18.412 44.179,18.412 C45.045,18.412 46.022,18.738 46.916,19.35 L48.271,17.488 C47.21,16.66 45.911,16.225 44.249,16.225 C41.902,16.225 40.464,17.502 40.464,19.268 C40.464,21.252 42.07,21.823 44.151,22.285 C45.478,22.583 45.799,22.801 45.799,23.195 C45.799,23.63 45.408,23.875 44.682,23.875 C43.55,23.875 42.475,23.48 41.512,22.733 L40.002,24.486 C41.204,25.532 42.852,26.062 44.584,26.062 Z M50.436,25.899 L57.88,25.899 L57.88,23.589 L53.146,23.589 L53.146,16.388 L50.436,16.388 L50.436,25.899 Z M63.984,26.089 C67.001,26.089 69.264,23.874 69.264,21.143 C69.264,18.385 67.029,16.198 64.012,16.198 C60.995,16.198 58.732,18.412 58.732,21.143 C58.732,23.901 60.967,26.089 63.984,26.089 L63.984,26.089 Z M64.012,23.711 C62.532,23.711 61.512,22.516 61.512,21.143 C61.512,19.743 62.503,18.575 63.984,18.575 C65.478,18.575 66.498,19.771 66.498,21.143 C66.498,22.543 65.506,23.711 64.012,23.711 L64.012,23.711 Z M73.23,25.899 L75.939,25.899 L75.939,18.698 L78.873,18.698 L78.873,16.388 L70.297,16.388 L70.297,18.698 L73.23,18.698 L73.23,25.899 Z M84.487,26.062 C86.862,26.062 88.44,24.907 88.44,22.964 C88.44,21.157 87.043,20.45 84.795,19.974 C83.44,19.676 83.105,19.486 83.105,19.051 C83.105,18.684 83.425,18.412 84.082,18.412 C84.948,18.412 85.926,18.738 86.82,19.35 L88.174,17.488 C87.113,16.66 85.814,16.225 84.152,16.225 C81.806,16.225 80.367,17.502 80.367,19.268 C80.367,21.252 81.973,21.823 84.054,22.285 C85.381,22.583 85.702,22.801 85.702,23.195 C85.702,23.63 85.312,23.875 84.585,23.875 C83.454,23.875 82.378,23.48 81.415,22.733 L79.906,24.486 C81.108,25.532 82.756,26.062 84.486,26.062 L84.487,26.062 Z"/>
      <path fill="#FFE100" d="M6.456,19.112 L6.608,19.016 C6.871,18.973 7.128,18.919 7.376,18.86 C7.615,18.803 7.842,18.743 8.052,18.666 C8.067,18.662 8.076,18.646 8.072,18.63 C8.067,18.615 8.051,18.606 8.035,18.61 C7.737,18.674 7.411,18.71 7.07,18.72 C7.337,18.547 7.6,18.367 7.857,18.174 C7.934,18.116 8.01,18.058 8.085,17.999 C8.364,17.955 8.647,17.89 8.935,17.805 C8.712,18.095 8.471,18.395 8.199,18.71 C8.179,18.728 8.179,18.757 8.197,18.776 C8.214,18.795 8.244,18.796 8.263,18.778 C8.873,18.32 9.389,17.896 9.845,17.481 C10.064,17.389 10.285,17.289 10.505,17.171 C10.402,17.298 10.299,17.431 10.197,17.569 C10.041,17.78 9.887,18.002 9.728,18.229 C9.35,18.769 8.963,19.327 8.513,19.85 C8.494,19.868 8.493,19.897 8.511,19.916 C8.528,19.935 8.558,19.936 8.577,19.918 C9.251,19.415 9.877,18.869 10.427,18.308 C10.663,18.068 10.88,17.826 11.081,17.59 C11.426,17.186 11.717,16.802 12.001,16.51 C13.34,15.09 14.596,14.254 15.824,13.85 C16.779,13.535 17.711,13.477 18.637,13.589 L18.57,13.389 C17.645,13.243 16.704,13.266 15.726,13.526 C14.414,13.875 13.036,14.65 11.533,16.046 C11.239,16.327 10.913,16.678 10.577,17.084 C10.568,17.077 10.556,17.075 10.545,17.08 C10.397,17.14 10.251,17.193 10.105,17.24 C10.31,17.048 10.503,16.862 10.684,16.676 C10.937,16.414 11.163,16.154 11.4,15.92 C12.804,14.436 14.354,13.6 15.946,13.202 C17.767,12.746 19.634,12.855 21.381,13.185 C21.406,13.19 21.431,13.175 21.436,13.149 C21.442,13.124 21.426,13.099 21.4,13.094 C19.638,12.671 17.746,12.484 15.866,12.847 C14.165,13.175 12.478,13.953 10.902,15.427 C10.615,15.718 10.318,16.025 10.029,16.378 C9.974,16.445 9.92,16.514 9.866,16.583 C9.779,16.585 9.689,16.585 9.599,16.583 L9.899,16.281 C10.259,15.925 10.621,15.575 10.997,15.239 C11.041,15.231 11.085,15.222 11.127,15.212 C11.145,15.21 11.157,15.194 11.154,15.177 C11.151,15.161 11.135,15.149 11.119,15.151 L11.094,15.153 C11.554,14.748 12.036,14.368 12.554,14.031 C13.977,13.119 15.823,12.529 17.737,12.267 C18.662,12.14 19.602,12.091 20.515,12.113 C21.485,12.137 22.422,12.247 23.283,12.425 C23.286,12.425 23.289,12.423 23.29,12.42 C23.29,12.417 23.289,12.414 23.286,12.414 C22.426,12.227 21.486,12.116 20.516,12.072 C19.6,12.03 18.656,12.052 17.722,12.14 C15.753,12.324 13.834,12.808 12.328,13.66 L12.226,13.719 C12.052,13.732 11.87,13.736 11.68,13.731 C11.85,13.611 12.024,13.494 12.202,13.382 C12.386,13.267 12.576,13.156 12.772,13.05 L12.812,13.04 C12.824,13.037 12.832,13.027 12.835,13.016 C14.396,12.181 16.3,11.636 18.263,11.378 C19.34,11.237 20.435,11.183 21.499,11.212 C21.656,11.216 21.814,11.222 21.97,11.23 L22.018,11.25 C22.103,11.287 22.186,11.335 22.278,11.34 C22.361,11.345 22.404,11.32 22.486,11.301 C22.526,11.316 22.571,11.303 22.597,11.272 C22.817,11.291 23.035,11.312 23.25,11.338 C23.362,11.425 23.477,11.508 23.593,11.586 C23.64,11.617 23.683,11.656 23.735,11.675 C23.752,11.681 23.765,11.683 23.783,11.682 C23.84,11.676 23.829,11.667 23.883,11.648 C23.945,11.686 24.026,11.668 24.064,11.607 C24.096,11.557 24.089,11.493 24.051,11.451 C24.161,11.469 24.271,11.488 24.379,11.508 C24.616,11.725 24.863,11.928 25.124,12.114 C25.15,12.132 25.174,12.152 25.203,12.167 C25.245,12.188 25.287,12.202 25.33,12.216 L25.836,13.056 C25.586,13.022 25.336,12.979 25.088,12.93 C25.075,12.927 25.061,12.935 25.058,12.948 C25.054,12.961 25.062,12.974 25.076,12.978 C25.343,13.063 25.613,13.137 25.884,13.208 L25.937,13.222 L26.325,13.866 L26.142,13.74 C25.934,13.599 25.725,13.46 25.507,13.335 C25.031,13.063 24.527,12.845 23.963,12.681 C23.956,12.679 23.948,12.682 23.946,12.689 C23.943,12.696 23.946,12.703 23.954,12.706 C24.344,12.886 24.69,13.099 25.024,13.325 C25.264,13.487 25.492,13.658 25.723,13.829 C26.068,14.084 26.411,14.344 26.768,14.602 L27.428,15.696 C27.323,15.638 27.218,15.579 27.113,15.518 C26.817,15.351 26.527,15.174 26.24,14.994 C26.257,15.092 26.272,15.195 26.285,15.304 C26.507,15.462 26.731,15.618 26.96,15.767 C27.229,15.937 27.496,16.099 27.764,16.256 L28.36,17.244 L28.349,17.239 C28.203,17.182 28.057,17.12 27.909,17.054 C27.909,17.145 27.908,17.236 27.906,17.326 C28.018,17.383 28.13,17.436 28.242,17.486 C28.359,17.538 28.483,17.599 28.614,17.666 L29.047,18.384 C28.707,18.184 28.377,18.02 28.095,17.897 C28.025,17.868 27.957,17.839 27.888,17.807 L27.868,18.142 L27.97,18.187 C28.28,18.315 28.651,18.497 29.034,18.712 C29.141,18.772 29.25,18.836 29.359,18.902 L31.966,23.23 L31.568,23.379 C31.435,23.239 31.306,23.094 31.182,22.946 C31.164,22.926 31.149,22.903 31.129,22.886 C31.092,22.856 31.055,22.846 31.014,22.821 C30.984,22.781 30.926,22.771 30.885,22.802 C30.844,22.832 30.835,22.89 30.866,22.931 C30.879,22.979 30.882,23.02 30.903,23.065 C30.922,23.105 30.953,23.137 30.979,23.171 C31.063,23.281 31.152,23.389 31.244,23.494 C30.916,23.607 30.606,23.702 30.324,23.77 C30.294,23.743 30.263,23.716 30.232,23.686 C30.211,23.656 30.169,23.649 30.139,23.671 C30.109,23.691 30.102,23.733 30.123,23.763 L30.145,23.811 C30.08,23.825 30.018,23.837 29.957,23.847 C29.62,23.901 29.284,23.963 28.949,24.031 L29.086,24.195 C29.386,24.138 29.686,24.085 29.987,24.039 C30.067,24.027 30.148,24.012 30.233,23.995 L30.26,24.042 C30.297,24.1 30.342,24.152 30.385,24.205 C30.538,24.397 30.702,24.582 30.874,24.761 C30.579,24.821 30.304,24.871 30.05,24.913 L29.67,24.975 L29.79,25.153 L30.08,25.108 C30.377,25.065 30.705,25.01 31.056,24.945 C31.292,25.177 31.542,25.398 31.801,25.611 L31.756,25.615 C31.224,25.655 30.694,25.709 30.166,25.775 C30.202,25.84 30.239,25.906 30.275,25.975 C30.402,25.96 30.529,25.947 30.657,25.935 L30.657,25.938 C30.629,26.001 30.618,25.926 30.632,25.994 C30.635,26.008 30.654,26.014 30.664,26.023 C30.718,26.072 30.774,26.12 30.827,26.171 C30.907,26.247 30.98,26.329 31.062,26.406 C31.639,26.952 32.287,27.496 32.959,27.974 C33.479,28.343 34.014,28.683 34.586,28.882 C34.619,28.894 34.652,28.909 34.686,28.912 C34.728,28.917 34.759,28.907 34.8,28.903 C34.832,28.914 34.866,28.897 34.877,28.866 C34.888,28.834 34.871,28.8 34.839,28.789 C34.809,28.762 34.793,28.735 34.759,28.713 C34.732,28.694 34.699,28.684 34.669,28.671 C34.126,28.443 33.588,28.158 33.079,27.805 C32.407,27.34 31.786,26.777 31.178,26.276 C31.091,26.205 31.001,26.142 30.916,26.072 C30.858,26.025 30.804,25.976 30.748,25.929 L30.745,25.926 C31.087,25.893 31.429,25.866 31.772,25.845 C31.867,25.84 31.966,25.834 32.069,25.826 C32.693,26.314 33.362,26.753 34.037,27.156 L34.149,27.221 C34.239,27.269 34.331,27.308 34.421,27.354 L34.465,27.377 L35.807,29.605 L0.134,29.605 L4.333,22.635 C4.79,22.702 5.227,22.698 5.647,22.642 C6.48,22.53 7.247,22.209 7.95,21.76 C8.643,21.318 9.277,20.763 9.847,20.175 C10.29,19.719 10.692,19.242 11.063,18.8 C11.5,18.279 11.889,17.8 12.245,17.45 C12.717,16.976 13.179,16.575 13.63,16.236 L13.294,15.82 C12.824,16.167 12.348,16.582 11.858,17.066 C11.495,17.43 11.092,17.921 10.651,18.466 C10.293,18.907 9.906,19.382 9.491,19.852 C8.97,20.445 8.406,21.03 7.771,21.502 C7.126,21.982 6.419,22.358 5.626,22.515 C5.227,22.595 4.808,22.618 4.368,22.578 L6.097,19.708 C6.26,19.667 6.427,19.618 6.6,19.562 C6.608,19.56 6.613,19.552 6.611,19.544 C6.609,19.536 6.601,19.531 6.593,19.534 C6.448,19.556 6.307,19.573 6.171,19.586 L6.456,19.112 Z M20.439,27.862 C18.459,28.26 16.576,28.547 14.825,28.515 C13.475,28.491 12.204,28.28 11.025,27.789 C10.802,27.806 10.579,27.828 10.355,27.852 C9.103,27.985 7.815,28.198 6.23,28.298 C5.55,28.34 4.817,28.368 4.007,28.339 C4.005,28.339 4.003,28.337 4.003,28.335 C4.003,28.333 4.005,28.331 4.007,28.331 C4.817,28.339 5.549,28.307 6.224,28.235 C7.804,28.068 9.069,27.719 10.314,27.538 L10.445,27.52 L10.442,27.518 C10.28,27.435 10.12,27.346 9.964,27.252 C9.809,27.159 9.658,27.061 9.509,26.958 L9.505,26.955 C8.488,27.155 7.375,27.381 6.085,27.532 C5.678,27.58 5.255,27.621 4.809,27.65 C4.4,27.677 3.975,27.697 3.529,27.7 C3.527,27.7 3.525,27.698 3.525,27.696 C3.525,27.693 3.527,27.692 3.529,27.692 C3.974,27.682 4.399,27.66 4.807,27.622 C5.249,27.579 5.671,27.522 6.074,27.452 C7.238,27.251 8.244,26.957 9.173,26.712 C8.89,26.493 8.615,26.252 8.347,25.986 C7.481,26.159 6.621,26.363 5.76,26.571 C5.348,26.671 4.935,26.77 4.52,26.864 C4.245,26.926 3.97,26.988 3.691,27.044 L3.687,27.041 C3.687,27.039 3.688,27.038 3.69,27.037 C3.967,26.979 4.243,26.917 4.517,26.85 C4.93,26.748 5.339,26.638 5.747,26.523 C6.566,26.293 7.377,26.043 8.199,25.836 L8.17,25.806 C8.156,25.791 8.156,25.766 8.171,25.752 C8.187,25.738 8.211,25.738 8.226,25.754 L8.285,25.814 C8.463,25.77 8.642,25.728 8.822,25.688 C9.054,25.638 9.286,25.591 9.52,25.553 C9.62,25.537 9.722,25.522 9.823,25.508 L9.819,25.505 C9.707,25.409 9.597,25.311 9.489,25.21 C9.378,25.105 9.269,24.998 9.161,24.888 L9.157,24.883 C8.589,25.022 8.03,25.192 7.471,25.367 C7.195,25.453 6.919,25.542 6.641,25.625 C6.343,25.713 6.044,25.793 5.744,25.874 C5.294,25.994 4.84,26.098 4.387,26.209 C4.198,26.255 4.011,26.305 3.822,26.349 C3.821,26.349 3.819,26.349 3.818,26.347 C3.818,26.345 3.818,26.343 3.821,26.343 C4.013,26.289 4.204,26.235 4.394,26.173 C4.849,26.024 5.292,25.848 5.74,25.678 C5.89,25.622 6.038,25.565 6.188,25.51 C6.338,25.456 6.488,25.402 6.639,25.35 C6.829,25.287 7.019,25.227 7.209,25.17 C7.657,25.034 8.109,24.912 8.562,24.805 C8.705,24.771 8.848,24.739 8.992,24.709 L8.879,24.585 L8.779,24.472 L8.771,24.463 C8.768,24.458 8.765,24.453 8.765,24.446 L8.765,24.433 L8.77,24.421 L8.777,24.413 C8.78,24.41 8.784,24.408 8.787,24.407 C8.797,24.403 8.807,24.402 8.816,24.406 C8.82,24.407 8.824,24.41 8.828,24.413 L8.837,24.423 L8.911,24.506 L9.081,24.69 C9.556,24.593 10.036,24.517 10.523,24.471 L10.518,24.467 C10.398,24.377 10.28,24.287 10.163,24.193 C10.099,24.143 10.036,24.091 9.973,24.04 L9.785,23.88 L9.772,23.869 C9.769,23.865 9.767,23.86 9.766,23.856 C9.765,23.851 9.764,23.846 9.765,23.842 C9.765,23.838 9.765,23.834 9.768,23.83 L9.773,23.82 L9.783,23.813 C9.791,23.808 9.802,23.806 9.811,23.808 C9.816,23.809 9.821,23.812 9.825,23.814 L9.835,23.823 L9.978,23.943 C10.193,24.121 10.414,24.293 10.639,24.457 L10.644,24.461 C11.049,24.427 11.458,24.415 11.874,24.429 C11.898,24.429 11.918,24.449 11.918,24.474 C11.918,24.498 11.898,24.518 11.872,24.518 C11.515,24.52 11.162,24.543 10.814,24.582 L10.82,24.586 C11.04,24.741 11.267,24.889 11.497,25.028 C11.724,25.165 11.955,25.294 12.191,25.415 L12.358,25.427 C12.383,25.427 12.403,25.449 12.402,25.475 C12.401,25.49 12.392,25.503 12.382,25.51 C14.103,26.35 15.834,26.622 17.577,26.564 C17.992,26.551 18.408,26.518 18.824,26.471 L18.945,26.575 C18.49,26.627 18.035,26.662 17.58,26.675 C15.772,26.725 13.977,26.427 12.195,25.515 C11.533,25.511 10.887,25.568 10.25,25.657 L10.154,25.671 C10.464,25.911 10.779,26.125 11.103,26.311 C11.202,26.301 11.3,26.293 11.398,26.286 C12.084,26.239 12.747,26.283 13.42,26.456 C13.457,26.463 13.481,26.499 13.473,26.536 C13.466,26.573 13.429,26.596 13.393,26.589 C12.791,26.493 12.209,26.511 11.616,26.584 C12.561,27.044 13.563,27.302 14.619,27.411 C16.154,27.569 17.804,27.415 19.564,27.108 L19.689,27.216 C17.878,27.526 16.182,27.682 14.609,27.511 C13.497,27.391 12.446,27.109 11.459,26.605 L11.433,26.609 C11.177,26.644 10.919,26.691 10.656,26.739 C10.401,26.785 10.142,26.832 9.876,26.883 L9.62,26.933 C9.938,27.148 10.265,27.336 10.6,27.5 C10.852,27.469 11.104,27.446 11.357,27.434 C11.779,27.414 12.205,27.426 12.645,27.47 C13.24,27.53 13.859,27.656 14.527,27.865 C14.566,27.875 14.588,27.915 14.577,27.953 C14.567,27.991 14.527,28.013 14.489,28.003 C13.822,27.843 13.209,27.769 12.625,27.743 C12.197,27.725 11.785,27.738 11.375,27.763 L11.226,27.773 C12.348,28.209 13.553,28.395 14.826,28.413 C16.543,28.435 18.384,28.153 20.319,27.758 L20.439,27.861 L20.439,27.862 Z M21.552,27.495 L21.678,27.602 C21.384,27.666 21.092,27.727 20.802,27.787 L20.665,27.686 C20.959,27.624 21.255,27.56 21.552,27.495 Z M22.76,27.224 L22.9,27.334 L22.078,27.515 L21.941,27.409 L22.761,27.224 L22.76,27.224 Z M23.756,26.997 L23.903,27.112 L23.288,27.248 L23.138,27.138 L23.756,26.997 Z M20.816,26.869 L20.948,26.981 C20.612,27.048 20.28,27.111 19.952,27.17 L19.804,27.065 C20.138,27.005 20.475,26.939 20.817,26.869 L20.816,26.869 Z M25.014,26.714 L25.188,26.834 C24.896,26.896 24.606,26.958 24.316,27.022 L24.158,26.906 C24.442,26.841 24.727,26.777 25.014,26.714 Z M33.439,25.674 L34.216,26.964 L34.171,26.936 C33.593,26.58 33.014,26.204 32.465,25.794 C32.766,25.765 33.093,25.726 33.439,25.674 L33.439,25.674 Z M21.998,26.617 L22.142,26.732 C21.853,26.794 21.567,26.855 21.283,26.913 L21.133,26.803 C21.419,26.743 21.707,26.681 21.998,26.617 L21.998,26.617 Z M25.963,26.508 L26.142,26.637 C25.934,26.678 25.728,26.721 25.522,26.764 L25.34,26.642 L25.963,26.508 Z M10.041,25.688 C9.879,25.713 9.717,25.739 9.556,25.766 C9.324,25.805 9.093,25.844 8.863,25.886 L8.439,25.968 L8.441,25.97 C8.572,26.097 8.707,26.221 8.846,26.34 C8.983,26.459 9.123,26.572 9.267,26.681 L9.273,26.685 C9.452,26.638 9.628,26.593 9.803,26.551 C10.07,26.486 10.333,26.426 10.592,26.382 C10.715,26.361 10.838,26.343 10.959,26.328 C10.647,26.14 10.34,25.928 10.041,25.688 L10.041,25.688 Z M22.988,26.393 L23.14,26.513 L22.693,26.612 L22.47,26.661 L22.307,26.548 C22.533,26.498 22.76,26.446 22.987,26.393 L22.988,26.393 Z M27.194,26.259 L27.385,26.399 C27.149,26.442 26.913,26.486 26.678,26.531 L26.483,26.569 L26.299,26.439 C26.414,26.414 26.529,26.391 26.645,26.367 C26.828,26.331 27.011,26.294 27.195,26.259 L27.194,26.259 Z M20.12,26.277 L20.243,26.381 C19.853,26.451 19.463,26.512 19.073,26.56 L18.925,26.459 C19.323,26.411 19.721,26.349 20.12,26.277 L20.12,26.277 Z M24.155,26.123 L24.332,26.245 L23.493,26.433 L23.323,26.316 L24.155,26.123 L24.155,26.123 Z M28.131,26.085 L28.318,26.24 C28.062,26.281 27.806,26.325 27.551,26.37 L27.377,26.224 C27.627,26.176 27.879,26.13 28.131,26.085 L28.131,26.085 Z M21.273,26.04 L21.405,26.145 C21.095,26.215 20.787,26.279 20.479,26.337 L20.335,26.237 C20.647,26.177 20.959,26.111 21.273,26.04 L21.273,26.04 Z M28.921,25.953 L29.105,26.121 C28.885,26.152 28.665,26.185 28.447,26.22 C28.392,26.165 28.337,26.112 28.282,26.06 C28.494,26.022 28.707,25.987 28.921,25.953 Z M25.119,25.901 L25.299,26.03 L24.621,26.18 L24.428,26.06 L24.951,25.94 L25.119,25.901 L25.119,25.901 Z M29.439,25.874 L29.597,26.055 C29.47,26.071 29.342,26.088 29.215,26.106 C29.163,26.046 29.11,25.988 29.057,25.932 L29.337,25.889 L29.439,25.874 Z M22.239,25.805 L22.376,25.913 C22.128,25.975 21.88,26.035 21.632,26.093 L21.479,25.992 C21.732,25.932 21.985,25.87 22.239,25.805 L22.239,25.805 Z M30.023,25.794 L30.153,25.988 C30.009,26.004 29.865,26.021 29.723,26.039 L29.591,25.852 C29.735,25.832 29.879,25.812 30.023,25.794 L30.023,25.794 Z M26.335,25.628 L26.521,25.765 C26.211,25.83 25.904,25.896 25.599,25.963 L25.404,25.836 C25.712,25.766 26.022,25.696 26.334,25.628 L26.335,25.628 Z M19.505,25.754 L19.643,25.871 C19.408,25.882 19.171,25.888 18.933,25.891 C18.724,25.895 18.515,25.898 18.303,25.894 C18.3,25.894 18.297,25.891 18.297,25.887 C18.297,25.884 18.299,25.881 18.303,25.881 C18.443,25.875 18.583,25.867 18.721,25.855 C18.931,25.836 19.137,25.809 19.343,25.779 L19.505,25.754 Z M20.638,25.534 L20.892,25.737 C20.73,25.767 20.567,25.79 20.404,25.809 C20.2,25.833 19.994,25.851 19.789,25.863 L19.602,25.737 C19.901,25.686 20.195,25.623 20.491,25.564 L20.638,25.534 L20.638,25.534 Z M23.288,25.526 L23.444,25.634 C23.172,25.707 22.9,25.779 22.628,25.849 L22.47,25.746 C22.742,25.675 23.015,25.601 23.288,25.526 Z M27.325,25.416 L27.502,25.564 C27.244,25.615 26.987,25.667 26.732,25.721 L26.542,25.583 C26.802,25.526 27.062,25.471 27.325,25.416 L27.325,25.416 Z M21.671,25.359 L21.847,25.498 C21.66,25.552 21.473,25.603 21.284,25.65 C21.203,25.67 21.121,25.69 21.039,25.707 C20.939,25.642 20.838,25.579 20.739,25.516 C20.819,25.5 20.9,25.486 20.982,25.471 C21.154,25.441 21.327,25.416 21.501,25.388 L21.671,25.359 L21.671,25.359 Z M24.231,25.261 L24.389,25.375 L23.629,25.584 L23.451,25.481 C23.711,25.409 23.971,25.336 24.231,25.261 Z M33.278,25.407 C32.881,25.48 32.51,25.534 32.176,25.572 C32.119,25.528 32.063,25.482 32.006,25.436 C31.789,25.259 31.578,25.075 31.376,24.884 C31.546,24.851 31.72,24.815 31.898,24.779 C32.101,24.736 32.31,24.692 32.521,24.645 L32.682,24.764 C32.8,24.849 32.919,24.932 33.04,25.013 L33.278,25.407 L33.278,25.407 Z M28.151,25.25 L28.322,25.406 C28.109,25.446 27.896,25.486 27.685,25.528 C27.625,25.478 27.564,25.428 27.503,25.38 C27.718,25.336 27.934,25.292 28.151,25.25 Z M10.694,24.596 C10.264,24.649 9.839,24.727 9.419,24.821 L9.246,24.861 C9.471,25.09 9.7,25.3 9.933,25.494 C10.03,25.482 10.128,25.47 10.226,25.46 C10.804,25.401 11.389,25.38 11.984,25.405 C11.554,25.173 11.124,24.905 10.694,24.596 Z M22.759,25.163 L22.822,25.206 L22.697,25.243 L22.011,25.45 L21.828,25.333 C22.122,25.284 22.416,25.233 22.712,25.173 L22.759,25.163 L22.759,25.163 Z M28.789,25.129 L28.935,25.296 C28.79,25.321 28.645,25.346 28.5,25.373 C28.443,25.319 28.385,25.267 28.328,25.216 C28.481,25.186 28.635,25.157 28.789,25.129 L28.789,25.129 Z M15.519,15.782 L15.777,16.188 C15.375,16.347 14.969,16.552 14.552,16.805 C13.858,17.228 13.137,17.784 12.392,18.518 C12.032,18.866 11.64,19.341 11.198,19.858 C10.822,20.298 10.416,20.77 9.968,21.223 C9.854,21.337 9.738,21.449 9.621,21.56 C9.695,21.665 9.771,21.768 9.851,21.869 C10.517,21.191 10.918,20.535 11.353,19.909 C11.708,19.396 12.083,18.905 12.604,18.421 C13.051,18.023 13.517,17.673 14.034,17.397 C14.541,17.126 15.094,16.924 15.707,16.795 C17.047,16.515 18.689,16.595 20.849,17.145 L20.917,17.162 C21.11,17.185 21.303,17.212 21.495,17.239 C22.019,17.322 22.543,17.44 23.047,17.612 C23.56,17.788 24.05,18.022 24.507,18.307 C25.393,18.876 26.049,19.521 27.053,19.959 C27.563,20.182 28.166,20.352 28.944,20.426 C29.134,20.443 29.276,20.61 29.259,20.799 C29.244,20.965 29.112,21.094 28.949,21.111 L28.951,21.117 L28.955,21.155 C29.193,21.195 29.435,21.231 29.677,21.263 C29.706,21.266 29.726,21.292 29.723,21.32 C29.72,21.348 29.694,21.368 29.666,21.365 C29.431,21.343 29.198,21.317 28.966,21.287 C28.973,21.365 28.976,21.444 28.976,21.523 C29.149,21.551 29.324,21.576 29.499,21.599 C29.527,21.602 29.548,21.628 29.545,21.656 C29.541,21.684 29.515,21.704 29.487,21.701 C29.315,21.685 29.142,21.666 28.971,21.646 L28.967,21.699 C28.957,21.783 28.941,21.867 28.917,21.948 C28.884,22.058 28.837,22.164 28.78,22.262 C28.705,22.395 28.61,22.514 28.495,22.616 C28.839,22.596 29.235,22.48 29.498,22.25 C29.69,22.081 29.805,21.85 29.756,21.546 C29.746,21.486 29.788,21.427 29.849,21.417 C29.911,21.407 29.969,21.448 29.979,21.509 C30.049,21.901 29.904,22.205 29.657,22.427 C29.306,22.744 28.735,22.886 28.303,22.87 C27.962,22.856 27.628,22.807 27.299,22.74 C26.844,22.647 26.396,22.523 25.944,22.413 C25.648,22.341 25.352,22.272 25.048,22.229 C24.602,22.155 24.149,22.145 23.698,22.179 C23.471,22.197 23.244,22.224 23.019,22.264 C22.794,22.304 22.571,22.358 22.351,22.415 C22.349,22.415 22.347,22.415 22.347,22.413 C22.347,22.411 22.347,22.409 22.349,22.409 C22.559,22.345 22.771,22.289 22.985,22.236 C23.307,22.156 23.632,22.086 23.961,22.046 C24.331,22 24.702,21.988 25.075,22.017 C25.388,22.05 25.695,22.104 26.001,22.171 C26.453,22.271 26.898,22.396 27.351,22.488 C27.413,22.501 27.476,22.513 27.538,22.524 C27.524,22.494 27.531,22.457 27.558,22.434 C27.75,22.266 27.885,22.058 27.99,21.835 C28.022,21.768 28.05,21.699 28.079,21.63 L28.122,21.522 C27.897,21.482 27.677,21.438 27.462,21.387 C27.46,21.395 27.457,21.404 27.453,21.412 C27.42,21.495 27.381,21.575 27.333,21.652 C27.224,21.825 27.086,21.975 26.934,22.122 C26.928,22.13 26.916,22.132 26.908,22.125 C26.899,22.119 26.898,22.107 26.905,22.099 C27.012,21.921 27.092,21.737 27.166,21.549 L27.249,21.334 C27.102,21.295 26.957,21.254 26.817,21.208 L26.644,21.149 L26.638,21.163 C26.6,21.257 26.555,21.348 26.502,21.435 C26.382,21.634 26.229,21.81 26.065,21.983 C26.059,21.991 26.047,21.993 26.039,21.986 C26.03,21.98 26.029,21.968 26.035,21.96 C26.156,21.756 26.249,21.546 26.337,21.331 L26.439,21.073 C26.275,21.008 26.118,20.938 25.969,20.86 L25.879,20.811 L25.853,20.88 C25.809,20.983 25.757,21.083 25.695,21.178 C25.557,21.388 25.381,21.576 25.186,21.762 C25.18,21.77 25.168,21.771 25.16,21.764 C25.152,21.758 25.15,21.746 25.158,21.738 C25.31,21.518 25.43,21.293 25.534,21.066 C25.569,20.989 25.603,20.913 25.634,20.836 C25.654,20.791 25.672,20.745 25.689,20.698 C25.532,20.598 25.387,20.49 25.255,20.373 C25.236,20.432 25.215,20.49 25.19,20.546 C25.144,20.652 25.089,20.754 25.023,20.85 C24.877,21.064 24.69,21.251 24.478,21.429 C24.47,21.436 24.458,21.436 24.451,21.429 C24.444,21.422 24.443,21.409 24.451,21.402 C24.622,21.189 24.753,20.965 24.865,20.734 C24.903,20.657 24.939,20.58 24.972,20.501 C25.006,20.423 25.038,20.344 25.066,20.264 L25.083,20.214 C24.747,19.904 24.459,19.667 24.197,19.481 C24.03,19.361 23.873,19.263 23.719,19.179 C23.504,19.061 23.297,18.969 23.076,18.897 C22.966,19.183 22.842,19.451 22.702,19.706 C22.462,20.142 22.189,20.527 21.883,20.874 C21.457,21.358 20.976,21.758 20.443,22.066 C19.902,22.379 19.316,22.6 18.703,22.726 C17.8,22.913 16.842,22.899 15.903,22.634 C15.158,22.431 14.466,22.021 13.842,21.511 C13.361,21.118 12.927,20.662 12.552,20.185 C12.28,20.671 11.988,21.133 11.662,21.565 C12.102,22.209 12.704,22.865 13.488,23.39 C13.768,23.578 14.072,23.748 14.4,23.899 C14.85,24.104 15.343,24.275 15.895,24.372 C16.506,24.485 17.202,24.227 18.235,24.219 C18.691,24.215 19.211,24.257 19.817,24.399 C19.833,24.403 19.844,24.42 19.841,24.437 C19.837,24.454 19.821,24.464 19.803,24.461 C19.201,24.343 18.688,24.318 18.239,24.34 C17.185,24.39 16.487,24.682 15.859,24.594 C15.28,24.508 14.755,24.356 14.288,24.141 C13.945,23.983 13.633,23.793 13.35,23.583 C12.581,23.015 12.023,22.302 11.62,21.622 C11.483,21.801 11.34,21.974 11.192,22.142 C11.614,22.765 12.179,23.395 12.897,23.918 C13.121,24.082 13.361,24.235 13.615,24.377 C13.857,24.511 14.112,24.636 14.385,24.743 C15.503,25.183 16.897,25.341 18.634,24.957 C18.651,24.953 18.668,24.964 18.673,24.981 C18.677,24.998 18.666,25.016 18.649,25.02 C16.891,25.49 15.453,25.396 14.293,24.983 C13.99,24.875 13.705,24.744 13.441,24.594 C13.323,24.528 13.209,24.457 13.1,24.382 C12.837,24.202 12.596,24.003 12.376,23.793 C11.857,23.297 11.454,22.74 11.141,22.199 L11.047,22.301 C10.92,22.437 10.787,22.568 10.647,22.693 L10.62,22.718 C10.777,22.871 10.938,23.018 11.1,23.166 L11.413,23.453 L11.727,23.74 C11.977,23.965 12.227,24.184 12.481,24.393 C12.497,24.403 12.5,24.425 12.489,24.44 C12.479,24.455 12.457,24.458 12.442,24.447 C12.159,24.273 11.877,24.091 11.602,23.893 C11.485,23.809 11.37,23.723 11.257,23.632 C11.157,23.552 11.059,23.469 10.965,23.382 C10.823,23.252 10.688,23.114 10.557,22.974 L10.453,22.861 C9.965,23.268 9.417,23.616 8.813,23.942 C8.616,24.049 8.415,24.159 8.203,24.259 C8.201,24.261 8.198,24.259 8.196,24.257 C8.195,24.254 8.196,24.251 8.199,24.25 C8.442,24.11 8.677,23.97 8.895,23.814 C9.052,23.699 9.195,23.574 9.34,23.452 C9.661,23.182 9.959,22.904 10.232,22.607 C10.133,22.489 10.038,22.37 9.947,22.248 L9.852,22.324 C9.192,22.85 8.342,23.386 7.124,23.914 C7.101,23.925 7.073,23.915 7.062,23.892 C7.05,23.869 7.06,23.842 7.083,23.83 C8.235,23.226 9.035,22.647 9.637,22.08 L9.748,21.972 C9.674,21.863 9.603,21.753 9.534,21.642 C9.075,22.064 8.58,22.458 8.051,22.786 C7.343,23.225 6.574,23.537 5.737,23.643 C5.219,23.709 4.677,23.698 4.103,23.576 C4.091,23.573 4.083,23.561 4.085,23.549 C4.087,23.536 4.099,23.528 4.112,23.53 C4.679,23.621 5.214,23.611 5.716,23.515 C6.513,23.362 7.224,22.993 7.871,22.523 C8.39,22.145 8.861,21.695 9.301,21.227 C9.264,21.156 9.228,21.084 9.194,21.012 C9.186,20.995 9.192,20.975 9.209,20.966 C9.226,20.958 9.246,20.965 9.255,20.981 C9.289,21.042 9.325,21.103 9.36,21.163 C9.444,21.073 9.527,20.981 9.61,20.89 C10.028,20.424 10.42,19.953 10.781,19.514 C11.227,18.974 11.634,18.486 12.001,18.124 C12.641,17.504 13.259,16.998 13.867,16.606 C14.429,16.244 14.979,15.974 15.518,15.782 L15.519,15.782 Z M25.387,24.932 L25.552,25.053 L24.583,25.321 L24.403,25.212 L25.387,24.932 L25.387,24.932 Z M29.497,25.004 L29.614,25.181 C29.455,25.207 29.297,25.233 29.139,25.261 C29.093,25.203 29.046,25.146 28.999,25.091 C29.164,25.061 29.33,25.032 29.496,25.004 L29.497,25.004 Z M22.852,25.143 C23.05,25.101 23.248,25.055 23.448,25.01 C23.451,25.009 23.455,25.01 23.456,25.014 C23.456,25.017 23.454,25.021 23.451,25.022 L22.916,25.178 L22.852,25.143 Z M26.4,24.65 L26.56,24.782 C26.271,24.857 25.983,24.935 25.696,25.013 L25.511,24.897 C25.807,24.814 26.104,24.731 26.401,24.65 L26.4,24.65 Z M27.248,24.426 L27.403,24.567 C27.156,24.627 26.908,24.691 26.661,24.755 L26.477,24.629 C26.734,24.559 26.991,24.491 27.248,24.426 L27.248,24.426 Z M31.408,23.673 C31.084,23.777 30.778,23.868 30.496,23.936 L30.584,24.045 C30.772,24.27 30.973,24.487 31.183,24.696 C31.458,24.637 31.747,24.571 32.043,24.499 L32.262,24.445 C31.96,24.205 31.672,23.95 31.408,23.673 L31.408,23.673 Z M28.012,24.238 L28.146,24.392 C27.933,24.44 27.72,24.49 27.507,24.542 C27.447,24.495 27.386,24.45 27.326,24.406 C27.554,24.348 27.783,24.292 28.012,24.238 Z M20.334,24.484 C20.626,24.434 20.905,24.386 21.178,24.345 C21.862,24.243 22.498,24.181 23.157,24.129 C23.317,24.117 23.477,24.105 23.641,24.091 C23.877,24.071 24.117,24.047 24.367,24.028 C24.865,23.99 25.397,23.956 25.99,23.955 C26.33,23.954 26.69,23.965 27.075,23.98 C27.079,23.98 27.082,23.978 27.082,23.974 C27.082,23.971 27.08,23.968 27.076,23.968 C26.717,23.934 26.38,23.91 26.06,23.888 C25.354,23.84 24.734,23.808 24.153,23.82 C23.991,23.823 23.831,23.829 23.675,23.84 C23.444,23.859 23.219,23.886 22.996,23.918 C22.372,24.01 21.775,24.15 21.127,24.295 L20.331,24.471 C20.328,24.471 20.326,24.475 20.327,24.479 C20.327,24.482 20.331,24.484 20.334,24.484 L20.334,24.484 Z M28.859,24.05 L28.971,24.218 C28.756,24.26 28.541,24.305 28.326,24.352 C28.276,24.3 28.225,24.249 28.175,24.2 C28.402,24.147 28.63,24.097 28.859,24.05 Z M32.095,23.443 L32.638,24.344 C32.58,24.3 32.523,24.254 32.466,24.209 C32.214,24.006 31.974,23.789 31.746,23.562 L32.095,23.443 L32.095,23.443 Z M16.565,23.739 C16.717,23.719 16.862,23.701 17.004,23.685 C17.361,23.646 17.691,23.628 18.034,23.616 L18.284,23.607 C18.407,23.602 18.532,23.596 18.661,23.592 C18.921,23.584 19.196,23.58 19.503,23.594 C19.679,23.603 19.865,23.618 20.064,23.636 C20.066,23.636 20.068,23.636 20.068,23.633 C20.068,23.632 20.067,23.63 20.065,23.63 C19.88,23.602 19.706,23.58 19.541,23.56 C19.177,23.516 18.857,23.484 18.556,23.476 C18.472,23.474 18.389,23.473 18.308,23.476 C18.188,23.479 18.07,23.488 17.954,23.5 C17.63,23.534 17.317,23.595 16.978,23.657 L16.563,23.733 C16.561,23.733 16.56,23.735 16.56,23.737 C16.56,23.738 16.562,23.74 16.564,23.739 L16.565,23.739 Z M13.151,22.314 C13.256,22.387 13.361,22.454 13.465,22.524 C13.627,22.633 13.779,22.742 13.933,22.844 C13.999,22.887 14.064,22.93 14.13,22.969 C14.198,23.009 14.266,23.046 14.333,23.082 C14.499,23.174 14.656,23.261 14.793,23.367 C14.858,23.417 14.919,23.469 14.975,23.527 C15.031,23.586 15.081,23.649 15.127,23.717 C15.128,23.718 15.131,23.719 15.133,23.717 C15.136,23.717 15.136,23.714 15.135,23.712 C15.073,23.596 14.994,23.492 14.906,23.39 C14.78,23.245 14.637,23.108 14.47,22.981 C14.4,22.928 14.327,22.875 14.249,22.828 C14.199,22.798 14.146,22.77 14.092,22.744 C13.883,22.641 13.657,22.555 13.432,22.447 C13.339,22.403 13.248,22.355 13.156,22.306 C13.154,22.305 13.151,22.306 13.15,22.308 C13.148,22.31 13.15,22.313 13.151,22.314 L13.151,22.314 Z M20.728,23.607 C20.958,23.551 21.178,23.497 21.394,23.449 C21.937,23.329 22.441,23.251 22.962,23.183 C23.089,23.167 23.216,23.152 23.346,23.134 C23.533,23.109 23.724,23.081 23.922,23.058 C24.319,23.012 24.742,22.971 25.216,22.962 C25.488,22.957 25.776,22.963 26.084,22.974 C26.087,22.974 26.09,22.972 26.09,22.969 C26.09,22.966 26.088,22.963 26.085,22.963 C25.798,22.935 25.528,22.916 25.272,22.9 C24.706,22.864 24.209,22.846 23.742,22.871 C23.612,22.878 23.485,22.888 23.36,22.903 C23.176,22.926 22.996,22.957 22.82,22.995 C22.328,23.097 21.859,23.247 21.348,23.405 C21.148,23.466 20.94,23.528 20.725,23.595 C20.722,23.596 20.72,23.599 20.721,23.603 C20.721,23.606 20.725,23.607 20.728,23.607 L20.728,23.607 Z M28.33,21.557 C28.312,21.621 28.291,21.684 28.267,21.746 C28.217,21.873 28.151,21.993 28.075,22.106 C27.964,22.272 27.826,22.42 27.66,22.546 C27.876,22.581 28.093,22.607 28.314,22.617 L28.322,22.617 C28.317,22.592 28.325,22.565 28.346,22.546 C28.494,22.402 28.589,22.222 28.659,22.03 C28.681,21.972 28.699,21.914 28.717,21.855 L28.788,21.623 C28.634,21.603 28.481,21.581 28.33,21.557 L28.33,21.557 Z M18.596,19.53 C18.777,19.541 20.16,19.57 20.196,18.008 C20.196,18.008 18.847,18.978 18.972,17.996 C19.014,17.672 19.289,17.558 19.566,17.529 C20.171,17.606 20.775,17.721 21.377,17.861 L21.404,17.866 C21.355,18.541 21.198,19.096 20.981,19.555 C20.801,19.935 20.569,20.241 20.306,20.495 C19.576,21.205 18.561,21.478 17.523,21.391 C17.503,21.388 17.483,21.401 17.48,21.422 C17.477,21.442 17.492,21.462 17.512,21.464 C18.614,21.684 19.771,21.53 20.599,20.808 C20.841,20.597 21.049,20.332 21.217,20.021 C21.509,19.477 21.672,18.783 21.674,17.93 L21.762,17.952 C21.748,17.981 21.739,18.012 21.737,18.045 C21.737,18.374 21.72,18.685 21.672,18.98 C21.592,19.478 21.448,19.928 21.238,20.317 C20.977,20.801 20.621,21.194 20.194,21.484 C19.769,21.773 19.27,21.96 18.717,22.035 C18.01,22.131 17.215,22.037 16.359,21.757 C15.779,21.564 15.259,21.241 14.812,20.786 C14.415,20.382 14.079,19.873 13.804,19.26 C13.744,19.138 13.595,19.087 13.472,19.146 C13.348,19.206 13.297,19.353 13.357,19.476 C13.697,20.117 14.098,20.641 14.554,21.051 C15.067,21.513 15.644,21.834 16.282,22.008 C17.183,22.26 18.009,22.308 18.74,22.19 C19.314,22.097 19.829,21.9 20.277,21.606 C20.731,21.309 21.112,20.911 21.422,20.424 C21.634,20.089 21.812,19.715 21.952,19.297 C22.077,18.926 22.172,18.524 22.232,18.088 L22.338,18.122 C22.329,18.147 22.322,18.174 22.318,18.201 C22.296,18.557 22.259,18.891 22.177,19.209 C22.041,19.737 21.837,20.213 21.556,20.623 C21.216,21.117 20.781,21.519 20.294,21.822 C19.794,22.134 19.232,22.34 18.648,22.437 C17.802,22.577 16.909,22.475 16.056,22.165 C15.41,21.923 14.826,21.503 14.319,20.993 C13.834,20.506 13.43,19.935 13.105,19.359 C13.237,19.266 13.369,19.176 13.501,19.089 C13.821,18.875 14.137,18.68 14.44,18.511 C14.439,18.518 14.44,18.527 14.441,18.535 C14.41,18.57 14.409,18.559 14.386,18.6 C14.383,18.605 14.381,18.608 14.381,18.614 C14.377,18.666 14.401,18.716 14.412,18.766 C14.476,19.033 14.565,19.284 14.676,19.518 C14.854,19.893 15.086,20.224 15.365,20.498 C15.525,20.655 15.7,20.793 15.889,20.912 C16.312,21.178 16.797,21.349 17.326,21.419 C17.344,21.422 17.361,21.41 17.365,21.393 C17.368,21.375 17.357,21.357 17.339,21.354 C16.844,21.228 16.407,21.009 16.031,20.714 C15.869,20.587 15.721,20.445 15.584,20.292 C15.344,20.026 15.141,19.722 14.983,19.377 C14.883,19.161 14.802,18.93 14.736,18.685 L14.699,18.546 L14.698,18.54 C14.666,18.5 14.659,18.523 14.613,18.5 C14.608,18.474 14.59,18.452 14.567,18.44 C14.823,18.301 15.067,18.182 15.293,18.088 C15.343,18.555 15.623,20.123 17.189,20.522 C19.299,21.061 19.716,19.61 19.716,19.61 L18.576,19.529 L18.596,19.53 L18.596,19.53 Z M12.003,20.2 C11.927,20.261 11.853,20.324 11.779,20.387 C11.747,20.414 11.711,20.432 11.672,20.442 C11.219,20.996 10.755,21.562 10.076,22.14 C10.169,22.249 10.265,22.355 10.363,22.459 L10.509,22.289 C10.675,22.097 10.84,21.906 10.996,21.707 C11.366,21.235 11.699,20.733 12.003,20.199 L12.003,20.2 Z M19.188,21.74 C18.3,21.813 17.568,21.73 16.96,21.555 C16.634,21.461 16.346,21.338 16.088,21.199 C15.532,20.898 15.125,20.507 14.83,20.109 C14.578,19.768 14.406,19.424 14.29,19.133 C14.262,19.061 14.237,18.993 14.215,18.929 L14.212,18.92 C14.18,18.88 14.155,18.888 14.115,18.861 C14.101,18.815 14.052,18.789 14.005,18.802 C13.96,18.816 13.933,18.864 13.947,18.911 C13.927,18.951 13.917,18.961 13.905,19.007 C13.904,19.014 13.903,19.02 13.905,19.028 C13.913,19.101 13.95,19.173 13.979,19.251 C14.098,19.568 14.282,19.942 14.559,20.309 C14.883,20.739 15.332,21.161 15.949,21.464 C16.229,21.602 16.546,21.714 16.899,21.79 C17.535,21.928 18.293,21.951 19.196,21.805 C19.214,21.803 19.227,21.787 19.225,21.769 C19.223,21.751 19.206,21.738 19.188,21.74 L19.188,21.74 Z M28.392,21.203 C28.385,21.273 28.376,21.343 28.362,21.414 C28.515,21.444 28.669,21.472 28.824,21.499 C28.845,21.424 28.864,21.349 28.881,21.276 C28.717,21.254 28.553,21.229 28.392,21.203 L28.392,21.203 Z M27.553,21.032 L27.547,21.066 C27.539,21.116 27.528,21.166 27.516,21.216 C27.731,21.275 27.952,21.328 28.178,21.376 C28.203,21.31 28.228,21.244 28.25,21.178 C28.012,21.136 27.779,21.088 27.553,21.032 L27.553,21.032 Z M17.167,21.185 C18.007,21.368 18.851,21.27 19.547,20.916 C19.768,20.804 19.973,20.664 20.157,20.501 C20.577,20.131 20.892,19.644 21.059,19.07 C21.069,19.04 21.052,19.009 21.022,19 C20.992,18.99 20.961,19.007 20.952,19.036 C20.77,19.576 20.446,20.021 20.038,20.365 C19.861,20.515 19.668,20.645 19.462,20.757 C18.797,21.12 17.997,21.28 17.173,21.154 C17.165,21.152 17.156,21.158 17.155,21.166 C17.153,21.175 17.159,21.183 17.167,21.185 L17.167,21.185 Z M26.749,20.791 C26.737,20.846 26.724,20.901 26.709,20.954 L26.882,21.018 C27.022,21.068 27.165,21.114 27.312,21.158 C27.331,21.1 27.347,21.042 27.362,20.983 C27.236,20.949 27.114,20.913 26.994,20.875 C26.911,20.848 26.829,20.82 26.749,20.791 Z M28.523,21.076 C28.65,21.101 28.778,21.125 28.908,21.146 L28.913,21.112 L28.884,21.112 C28.76,21.102 28.64,21.09 28.524,21.076 L28.523,21.076 Z M18.701,20.76 C17.999,20.904 17.426,20.859 16.96,20.7 C16.715,20.618 16.503,20.5 16.315,20.365 C15.941,20.094 15.674,19.735 15.494,19.367 C15.356,19.083 15.269,18.795 15.226,18.54 C15.216,18.483 15.207,18.428 15.202,18.374 L15.201,18.367 C15.177,18.324 15.159,18.337 15.122,18.307 C15.12,18.259 15.079,18.222 15.031,18.224 C14.983,18.226 14.945,18.267 14.947,18.314 C14.915,18.347 14.909,18.344 14.884,18.384 C14.88,18.389 14.879,18.394 14.878,18.401 C14.868,18.461 14.888,18.525 14.897,18.591 C14.938,18.876 15.034,19.199 15.191,19.514 C15.398,19.926 15.709,20.327 16.144,20.61 C16.361,20.752 16.61,20.864 16.89,20.933 C17.393,21.057 17.998,21.046 18.717,20.823 C18.735,20.819 18.746,20.801 18.741,20.783 C18.736,20.766 18.718,20.756 18.701,20.76 L18.701,20.76 Z M26.98,18.534 C27.193,18.642 27.417,18.749 27.659,18.854 C28.254,19.112 28.969,19.419 29.567,19.844 C29.973,20.134 30.325,20.477 30.552,20.897 C30.569,20.928 30.557,20.967 30.526,20.985 C30.494,21.002 30.454,20.991 30.436,20.959 C30.213,20.563 29.869,20.242 29.476,19.973 C28.881,19.565 28.171,19.278 27.581,19.034 C27.357,18.942 27.148,18.849 26.948,18.754 L26.98,18.534 Z M25.979,20.439 L25.945,20.597 L26.073,20.667 C26.213,20.74 26.359,20.809 26.512,20.874 C26.529,20.823 26.545,20.771 26.559,20.719 C26.415,20.661 26.277,20.599 26.145,20.53 C26.089,20.5 26.033,20.47 25.979,20.439 Z M22.123,17.315 C22.473,17.371 22.823,17.455 23.164,17.568 C23.401,17.645 23.631,17.738 23.854,17.843 C23.95,17.888 24.045,17.935 24.137,17.986 C24.339,18.094 24.533,18.211 24.725,18.331 C25.18,18.617 25.617,18.925 26.079,19.199 C26.361,19.367 26.654,19.522 26.965,19.651 C27.53,19.885 28.252,19.974 28.818,20.276 C29.057,20.403 29.268,20.57 29.423,20.804 C29.438,20.828 29.47,20.834 29.494,20.819 C29.518,20.804 29.525,20.772 29.51,20.749 C29.348,20.495 29.128,20.313 28.875,20.172 C28.313,19.859 27.589,19.754 27.026,19.509 C26.724,19.379 26.442,19.222 26.168,19.053 C25.778,18.813 25.406,18.546 25.023,18.294 C24.766,18.125 24.503,17.964 24.229,17.817 C24.131,17.767 24.032,17.719 23.93,17.676 C23.696,17.577 23.452,17.498 23.203,17.435 C22.849,17.345 22.487,17.292 22.13,17.263 C22.115,17.262 22.102,17.272 22.0999368,17.286 C22.099,17.3 22.11,17.313 22.123,17.315 Z M25.346,19.971 C25.34,20.016 25.332,20.06 25.324,20.104 L25.314,20.15 L25.35,20.182 C25.474,20.292 25.611,20.392 25.76,20.486 C25.774,20.434 25.787,20.381 25.799,20.327 C25.649,20.229 25.51,20.122 25.384,20.007 L25.346,19.971 L25.346,19.971 Z M23.194,18.565 C23.161,18.668 23.125,18.768 23.088,18.865 C23.313,18.918 23.528,18.98 23.752,19.078 C23.852,19.121 23.952,19.171 24.056,19.229 C24.3,19.364 24.56,19.539 24.857,19.771 C24.949,19.843 25.043,19.92 25.142,20.003 C25.156,19.943 25.169,19.881 25.178,19.818 C24.874,19.544 24.61,19.331 24.368,19.16 C24.199,19.042 24.042,18.944 23.888,18.86 C23.656,18.735 23.435,18.639 23.194,18.565 Z M26.274,18.155 C26.404,18.228 26.534,18.3 26.668,18.372 L26.944,18.516 L26.924,18.741 C26.801,18.683 26.682,18.623 26.566,18.563 C26.457,18.507 26.351,18.451 26.246,18.393 L26.275,18.155 L26.274,18.155 Z M23.227,18.464 L23.203,18.538 C23.333,18.567 23.461,18.598 23.588,18.638 C23.469,18.576 23.349,18.518 23.227,18.464 L23.227,18.464 Z M7.08,18.077 L7.189,18.075 C7.072,18.21 6.957,18.343 6.839,18.475 L7.079,18.077 L7.08,18.077 Z M25.434,17.665 C25.661,17.799 25.882,17.93 26.105,18.058 L26.115,18.321 C25.868,18.185 25.627,18.046 25.38,17.903 C25.399,17.824 25.417,17.745 25.434,17.665 L25.434,17.665 Z M27.105,17.418 C27.355,17.555 27.609,17.683 27.865,17.798 L27.851,18.134 C27.59,18.017 27.331,17.886 27.076,17.744 L27.106,17.418 L27.105,17.418 Z M24.779,17.288 C24.977,17.398 25.166,17.508 25.349,17.616 L25.334,17.877 C25.141,17.767 24.944,17.654 24.738,17.54 C24.753,17.46 24.766,17.376 24.778,17.287 L24.779,17.288 Z M26.35,16.978 C26.45,17.039 26.55,17.1 26.652,17.16 C26.782,17.237 26.914,17.312 27.047,17.385 L27.017,17.711 C26.843,17.613 26.671,17.511 26.501,17.405 L26.339,17.302 C26.344,17.195 26.348,17.086 26.35,16.978 L26.35,16.978 Z M8.264,16.9 L8.129,16.903 C8.034,16.996 7.938,17.088 7.841,17.179 C7.713,17.3 7.583,17.419 7.451,17.535 L7.66,17.537 C7.714,17.476 7.769,17.415 7.825,17.355 C7.968,17.2 8.114,17.048 8.264,16.9 L8.264,16.9 Z M9.746,16.74 L9.679,16.75 C9.584,16.766 9.488,16.781 9.39,16.795 C9.205,16.982 9.02,17.168 8.83,17.35 C8.773,17.405 8.715,17.459 8.657,17.512 C8.837,17.499 9.021,17.48 9.207,17.452 L9.309,17.32 C9.462,17.12 9.605,16.925 9.746,16.74 L9.746,16.74 Z M23.962,16.89 C24.124,16.949 24.277,17.016 24.418,17.089 L24.66,17.221 L24.674,17.504 C24.554,17.438 24.43,17.372 24.302,17.304 C24.184,17.239 24.056,17.18 23.921,17.126 C23.935,17.047 23.949,16.969 23.961,16.891 L23.962,16.89 Z M27.141,16.673 C27.394,16.811 27.646,16.936 27.896,17.048 L27.886,17.316 C27.636,17.191 27.386,17.053 27.135,16.903 C27.138,16.827 27.14,16.75 27.141,16.673 L27.141,16.673 Z M25.627,16.515 C25.769,16.609 25.914,16.703 26.06,16.796 L26.072,17.126 C25.909,17.018 25.748,16.907 25.592,16.796 C25.604,16.703 25.617,16.609 25.627,16.516 L25.627,16.515 Z M23.234,16.692 L23.301,16.706 C23.497,16.748 23.688,16.799 23.869,16.859 L23.9,16.869 L23.885,17.112 C23.685,17.033 23.471,16.965 23.251,16.903 L23.207,16.891 L23.234,16.692 L23.234,16.692 Z M22.602,16.585 C22.799,16.612 22.998,16.645 23.193,16.684 L23.185,16.885 C22.988,16.831 22.787,16.782 22.588,16.738 L22.602,16.585 L22.602,16.585 Z M26.348,16.205 L26.378,16.225 C26.624,16.381 26.868,16.525 27.113,16.658 L27.093,16.878 C26.846,16.729 26.599,16.568 26.353,16.397 L26.348,16.206 L26.348,16.205 Z M22.56,16.732 C22.212,16.656 21.87,16.594 21.564,16.545 C21.546,16.543 21.533,16.527 21.535,16.509 C21.537,16.491 21.554,16.478 21.572,16.479 C21.877,16.504 22.217,16.534 22.565,16.58 L22.56,16.732 L22.56,16.732 Z M24.875,16.006 C25.053,16.129 25.237,16.254 25.425,16.381 L25.408,16.666 C25.223,16.533 25.042,16.401 24.867,16.271 L24.875,16.006 Z M9.915,15.386 L9.661,15.411 C9.47,15.59 9.281,15.771 9.091,15.954 L8.551,16.486 L8.673,16.505 C8.908,16.284 9.147,16.067 9.387,15.851 C9.561,15.693 9.737,15.538 9.915,15.386 L9.915,15.386 Z M14.168,15.248 L14.495,15.651 L14.38,15.721 C14.154,15.862 13.925,16.018 13.693,16.189 C13.646,16.102 13.597,16.02 13.543,15.947 C13.493,15.877 13.438,15.813 13.377,15.759 C13.485,15.681 13.593,15.607 13.7,15.536 C13.857,15.433 14.013,15.336 14.168,15.248 Z M20.223,15.826 C20.418,15.889 20.613,15.958 20.808,16.033 C20.848,16.047 20.87,16.091 20.856,16.132 C20.842,16.172 20.796,16.194 20.756,16.18 C20.575,16.123 20.395,16.07 20.214,16.024 L20.224,15.826 L20.223,15.826 Z M25.687,15.756 C25.801,15.839 25.917,15.919 26.031,15.997 L26.037,16.172 C25.918,16.085 25.799,15.995 25.68,15.902 L25.687,15.757 L25.687,15.756 Z M16.489,15.516 L16.626,15.916 C16.486,15.951 16.346,15.99 16.205,16.036 C16.083,16.074 15.962,16.116 15.84,16.163 C15.793,16.021 15.74,15.873 15.679,15.727 C15.813,15.683 15.947,15.644 16.079,15.609 C16.217,15.573 16.353,15.542 16.489,15.515 L16.489,15.516 Z M24.088,15.436 C24.258,15.568 24.421,15.693 24.591,15.811 L24.604,16.077 L24.478,15.984 C24.343,15.884 24.215,15.78 24.083,15.67 L24.088,15.435 L24.088,15.436 Z M19.455,15.609 C19.667,15.659 19.879,15.718 20.09,15.784 L20.158,16.009 C19.921,15.949 19.684,15.896 19.448,15.854 C19.451,15.774 19.454,15.693 19.455,15.609 L19.455,15.609 Z M17.466,15.401 L17.521,15.765 C17.237,15.792 16.952,15.839 16.665,15.907 C16.653,15.775 16.637,15.634 16.616,15.492 C16.902,15.442 17.186,15.412 17.466,15.402 L17.466,15.401 Z M18.539,15.445 C18.794,15.475 19.047,15.518 19.3,15.574 L19.39,15.844 C19.105,15.796 18.818,15.763 18.531,15.747 C18.536,15.648 18.539,15.547 18.539,15.445 Z M17.593,15.397 C17.851,15.392 18.106,15.402 18.36,15.426 L18.43,15.741 C18.145,15.73 17.86,15.735 17.572,15.761 C17.582,15.644 17.59,15.521 17.593,15.397 L17.593,15.397 Z M24.863,15.123 C25.066,15.289 25.269,15.448 25.473,15.6 L25.465,15.732 C25.265,15.572 25.065,15.403 24.868,15.228 L24.863,15.123 Z M14.932,14.862 L15.193,15.272 C14.989,15.37 14.783,15.48 14.576,15.602 C14.543,15.545 14.508,15.49 14.471,15.439 C14.404,15.347 14.331,15.267 14.246,15.204 C14.476,15.074 14.705,14.961 14.932,14.862 Z M23.328,14.874 C23.583,15.047 23.797,15.21 23.995,15.364 L23.981,15.585 C23.787,15.423 23.58,15.25 23.332,15.065 L23.328,14.875 L23.328,14.874 Z M16.131,14.462 L16.267,14.863 C16.185,14.886 16.102,14.911 16.019,14.939 C15.812,15.006 15.604,15.086 15.394,15.179 C15.297,15.032 15.187,14.903 15.064,14.806 C15.343,14.69 15.619,14.596 15.892,14.522 C15.972,14.5 16.052,14.48 16.131,14.462 Z M11.118,14.436 C10.968,14.476 10.807,14.509 10.638,14.539 C10.416,14.726 10.198,14.918 9.983,15.113 C10.06,15.123 10.136,15.131 10.211,15.138 C10.506,14.894 10.807,14.659 11.118,14.436 Z M25.719,14.666 L25.989,14.836 L25.999,15.098 L25.676,14.863 C25.671,14.784 25.664,14.705 25.656,14.626 L25.719,14.666 Z M20.174,14.78 C20.315,14.829 20.457,14.88 20.598,14.936 C20.638,14.95 20.66,14.993 20.645,15.033 C20.631,15.073 20.587,15.093 20.547,15.08 C20.431,15.042 20.314,15.007 20.198,14.974 C20.192,14.909 20.183,14.844 20.174,14.78 Z M22.677,14.471 C22.898,14.597 23.092,14.717 23.267,14.834 L23.26,15.012 C23.088,14.887 22.896,14.756 22.676,14.62 L22.676,14.471 L22.677,14.471 Z M9.118,14.693 L9.176,14.693 C9.306,14.691 9.436,14.685 9.566,14.676 C9.438,14.78 9.311,14.886 9.186,14.993 L8.958,14.959 L9.118,14.693 Z M19.371,14.538 C19.497,14.57 19.622,14.605 19.748,14.643 L19.817,14.873 C19.682,14.839 19.547,14.809 19.412,14.782 C19.401,14.7 19.387,14.619 19.372,14.538 L19.371,14.538 Z M17.3,14.304 L17.353,14.659 C17.058,14.688 16.762,14.737 16.463,14.811 C16.416,14.671 16.36,14.541 16.291,14.427 C16.631,14.357 16.967,14.317 17.3,14.304 Z M24.751,14.078 L24.884,14.155 C25.104,14.283 25.321,14.416 25.537,14.551 L25.525,14.754 C25.292,14.586 25.057,14.421 24.817,14.262 L24.779,14.238 L24.751,14.078 L24.751,14.078 Z M18.371,14.349 C18.555,14.371 18.738,14.401 18.921,14.437 L19.012,14.712 C18.829,14.685 18.646,14.664 18.462,14.65 C18.438,14.546 18.409,14.445 18.372,14.35 L18.371,14.349 Z M17.467,14.299 C17.685,14.297 17.902,14.305 18.117,14.323 L18.186,14.635 C17.976,14.628 17.766,14.63 17.555,14.644 C17.535,14.521 17.506,14.405 17.467,14.3 L17.467,14.299 Z M22.634,14.594 L22.584,14.564 C22.062,14.25 21.385,13.909 20.451,13.535 C20.435,13.529 20.427,13.511 20.433,13.495 C20.439,13.479 20.457,13.471 20.473,13.477 C21.419,13.826 22.106,14.151 22.639,14.45 L22.634,14.594 L22.634,14.594 Z M11.962,13.874 C11.917,13.884 11.872,13.891 11.825,13.899 C11.671,13.926 11.512,13.95 11.349,13.972 C11.171,14.106 10.997,14.242 10.825,14.383 C10.957,14.378 11.083,14.368 11.203,14.351 C11.213,14.349 11.222,14.351 11.229,14.357 C11.467,14.189 11.711,14.027 11.962,13.875 L11.962,13.874 Z M9.514,14.036 C9.751,14.05 9.994,14.061 10.241,14.058 L10.363,14.055 C10.233,14.152 10.103,14.25 9.973,14.35 C9.776,14.33 9.579,14.293 9.377,14.263 L9.514,14.036 Z M24.506,14.065 C24.295,13.935 24.078,13.812 23.854,13.698 C23.836,13.689 23.829,13.668 23.837,13.65 C23.847,13.632 23.868,13.624 23.887,13.633 C24.096,13.727 24.3,13.83 24.5,13.938 L24.506,14.065 L24.506,14.065 Z M19.772,13.669 C20.025,13.746 20.277,13.833 20.529,13.929 C20.554,13.938 20.566,13.964 20.558,13.989 C20.549,14.013 20.522,14.025 20.498,14.017 C20.289,13.949 20.08,13.887 19.872,13.832 C19.842,13.776 19.808,13.722 19.772,13.669 Z M18.875,13.443 C19.059,13.48 19.243,13.523 19.426,13.571 L19.476,13.734 C19.326,13.701 19.176,13.671 19.026,13.646 C18.98,13.576 18.93,13.508 18.875,13.443 L18.875,13.443 Z M11.564,13.248 C11.263,13.282 10.95,13.304 10.637,13.308 C10.447,13.309 10.257,13.303 10.071,13.294 C9.993,13.368 9.915,13.443 9.838,13.519 L9.92,13.529 C10.083,13.548 10.246,13.569 10.411,13.593 C10.579,13.617 10.745,13.645 10.91,13.668 C11.124,13.523 11.342,13.383 11.564,13.248 Z M12.906,12.545 C12.382,12.617 11.805,12.678 11.225,12.681 C11.07,12.682 10.915,12.679 10.763,12.673 L10.569,12.838 C10.646,12.848 10.724,12.858 10.801,12.87 C11.043,12.904 11.279,12.947 11.516,12.971 C11.675,12.988 11.831,12.999 11.982,13.006 L11.987,13.003 C12.128,12.923 12.271,12.848 12.417,12.775 C12.574,12.696 12.735,12.621 12.897,12.549 L12.906,12.545 Z M10.723,12.029 C10.948,12.059 11.167,12.083 11.378,12.103 C12.067,12.167 12.68,12.17 13.206,12.06 C14.614,11.765 16.136,11.404 17.564,11.161 C18.627,10.981 19.638,10.867 20.505,10.877 C20.815,10.883 21.102,10.889 21.371,10.899 C21.536,11.009 21.706,11.107 21.883,11.19 L21.5,11.17 C20.433,11.122 19.334,11.148 18.248,11.25 C16.504,11.414 14.793,11.778 13.305,12.376 C13.106,12.384 12.896,12.383 12.678,12.37 C12.19,12.343 11.676,12.251 11.161,12.183 L11.157,12.183 C11.134,12.17 11.107,12.166 11.082,12.173 C10.942,12.155 10.804,12.139 10.667,12.123 L10.723,12.029 Z M11.209,11.224 L11.489,11.234 C11.809,11.246 12.128,11.252 12.447,11.252 C13.193,11.25 13.938,11.215 14.679,11.15 C16.096,11.024 17.521,10.68 18.949,10.501 C19.536,10.428 20.123,10.384 20.709,10.391 C20.879,10.538 21.054,10.679 21.235,10.807 C21.007,10.798 20.765,10.79 20.507,10.784 C19.634,10.754 18.615,10.855 17.54,11.006 C16.103,11.208 14.565,11.502 13.146,11.746 C12.719,11.819 12.236,11.804 11.7,11.749 C11.46,11.725 11.21,11.691 10.95,11.651 L11.209,11.224 Z M23.739,11.107 C23.779,11.137 23.822,11.167 23.864,11.196 C23.906,11.226 23.955,11.248 23.991,11.286 C24.002,11.298 24.009,11.309 24.014,11.325 C24.032,11.378 24.017,11.372 24.024,11.428 L24.028,11.43 L24.36,11.49 C24.238,11.378 24.12,11.264 24.003,11.147 L23.738,11.107 L23.739,11.107 Z M22.451,10.963 C22.499,11.009 22.51,11.055 22.555,11.112 C22.607,11.131 22.635,11.188 22.615,11.241 C22.615,11.243 22.615,11.245 22.613,11.247 C22.817,11.266 23.018,11.287 23.217,11.312 C23.09,11.212 22.967,11.108 22.847,10.998 C22.719,10.985 22.587,10.974 22.451,10.963 L22.451,10.963 Z M24.619,11.034 L24.616,11.034 C24.476,10.907 24.34,10.776 24.207,10.642 L24.159,10.592 L24.365,10.614 L24.619,11.034 L24.619,11.034 Z M22.964,10.491 C23.14,10.643 23.318,10.79 23.5,10.93 L23.817,10.956 C23.682,10.816 23.552,10.672 23.424,10.526 L23.124,10.502 L22.964,10.491 L22.964,10.491 Z M21.511,10.416 C21.74,10.568 21.976,10.706 22.218,10.83 L22.264,10.853 C22.42,10.86 22.571,10.868 22.717,10.877 L22.635,10.797 C22.525,10.687 22.419,10.571 22.316,10.452 C22.048,10.438 21.779,10.426 21.511,10.416 L21.511,10.416 Z M11.64,10.508 L11.712,10.512 C12.924,10.583 14.062,10.599 14.909,10.536 C16.465,10.413 18.158,10.164 19.725,10.031 C19.909,10.016 20.09,10.001 20.269,9.991 C20.356,10.073 20.444,10.155 20.533,10.235 L20.566,10.265 C20.022,10.251 19.476,10.28 18.93,10.33 C17.503,10.46 16.07,10.74 14.655,10.81 C13.885,10.85 13.114,10.847 12.341,10.829 C12.048,10.822 11.756,10.811 11.463,10.802 L11.64,10.508 L11.64,10.508 Z M24.295,10.497 L24.05,10.48 C23.907,10.33 23.766,10.177 23.628,10.021 L24.025,10.049 L24.295,10.497 L24.295,10.497 Z M22.372,9.959 C22.527,10.113 22.692,10.255 22.855,10.396 L23.343,10.431 C23.262,10.335 23.182,10.238 23.103,10.139 L22.981,9.985 C22.782,9.975 22.58,9.967 22.372,9.959 Z M21.88,9.945 L21.791,9.943 C21.503,9.939 21.204,9.944 20.896,9.957 C21.04,10.078 21.188,10.193 21.34,10.3 C21.637,10.316 21.935,10.334 22.232,10.354 L22.062,10.154 L21.88,9.944 L21.88,9.945 Z M12.08,9.778 C12.195,9.796 12.31,9.813 12.426,9.825 C12.753,9.859 13.083,9.875 13.412,9.885 C14.184,9.907 14.954,9.875 15.72,9.805 C16.716,9.71 17.809,9.593 18.886,9.532 C19.19,9.514 19.493,9.502 19.791,9.495 C19.903,9.621 20.02,9.743 20.139,9.862 L19.715,9.882 C18.145,9.967 16.446,10.137 14.889,10.2 C14.145,10.232 13.179,10.172 12.135,10.106 L11.891,10.091 L12.08,9.778 Z M23.964,9.948 L23.538,9.918 L23.47,9.84 C23.396,9.754 23.324,9.667 23.252,9.58 C23.422,9.589 23.592,9.599 23.76,9.61 L23.964,9.948 Z M21.984,9.531 L22.087,9.651 C22.148,9.721 22.209,9.79 22.272,9.856 C22.487,9.864 22.697,9.873 22.902,9.883 C22.818,9.774 22.736,9.664 22.657,9.553 L22.547,9.548 C22.361,9.541 22.173,9.536 21.983,9.531 L21.984,9.531 Z M20.394,9.488 C20.514,9.609 20.636,9.728 20.762,9.84 C21.118,9.832 21.462,9.831 21.792,9.843 C21.702,9.736 21.613,9.628 21.526,9.519 C21.352,9.514 21.178,9.508 21.001,9.499 C20.802,9.492 20.6,9.489 20.394,9.489 L20.394,9.488 Z M12.554,8.992 C12.638,9.005 12.724,9.016 12.81,9.026 C13.024,9.051 13.241,9.069 13.46,9.082 C13.763,9.102 14.068,9.11 14.368,9.116 C15.128,9.133 15.861,9.125 16.48,9.136 C17.246,9.144 18.338,9.146 19.5,9.146 L19.505,9.152 C19.56,9.224 19.618,9.294 19.676,9.362 C19.414,9.362 19.147,9.364 18.88,9.369 C17.799,9.386 16.699,9.439 15.697,9.484 C14.972,9.517 14.247,9.498 13.519,9.464 C13.209,9.448 12.898,9.426 12.586,9.412 C12.492,9.408 12.399,9.406 12.305,9.404 L12.553,8.992 L12.554,8.992 Z M21.667,9.148 C21.746,9.248 21.826,9.345 21.907,9.442 L22.087,9.446 C22.254,9.449 22.42,9.451 22.585,9.451 L22.501,9.327 C22.462,9.269 22.424,9.21 22.387,9.151 L21.667,9.148 Z M23.658,9.441 L23.168,9.449 L23.146,9.449 C23.066,9.351 22.989,9.253 22.91,9.155 L23.49,9.16 L23.658,9.44 L23.658,9.441 Z M20.063,9.146 L20.279,9.371 C20.525,9.377 20.769,9.387 21.006,9.403 L21.451,9.425 C21.379,9.333 21.307,9.241 21.236,9.147 L20.063,9.146 L20.063,9.146 Z M23.318,8.876 L22.712,8.858 L22.67,8.856 L22.46,8.596 L23.173,8.634 L23.318,8.875 L23.318,8.876 Z M21.194,8.526 C21.266,8.626 21.34,8.726 21.414,8.823 L22.201,8.843 L22.046,8.573 L21.194,8.526 L21.194,8.526 Z M19.388,8.45 C19.496,8.561 19.608,8.67 19.718,8.782 L20.988,8.812 C20.914,8.711 20.84,8.608 20.768,8.505 L20.57,8.495 C20.182,8.477 19.788,8.462 19.388,8.45 Z M13.172,7.965 L13.635,8.033 C14.285,8.131 14.929,8.239 15.585,8.313 C15.672,8.323 15.759,8.332 15.845,8.338 C16.195,8.365 16.543,8.377 16.892,8.389 C17.546,8.412 18.2,8.42 18.852,8.437 L19.009,8.44 C19.085,8.548 19.158,8.66 19.232,8.77 C18.175,8.745 17.195,8.72 16.49,8.697 C15.87,8.681 15.138,8.674 14.377,8.662 L13.477,8.645 L12.767,8.638 L13.172,7.965 L13.172,7.965 Z M22.972,8.301 C22.712,8.281 22.449,8.259 22.181,8.237 L22.082,8.104 L22.893,8.171 L22.972,8.301 Z M20.815,7.991 L20.915,8.136 C21.229,8.16 21.538,8.184 21.842,8.209 L21.766,8.076 C21.461,8.049 21.145,8.021 20.816,7.99 L20.815,7.991 Z M18.843,7.802 L19.011,8.015 C19.513,8.039 20.007,8.07 20.492,8.105 L20.389,7.951 C20.08,7.922 19.761,7.891 19.429,7.861 C19.235,7.839 19.039,7.821 18.843,7.802 Z M13.562,7.318 C13.695,7.263 13.83,7.203 13.967,7.135 L14.946,7.279 C15.816,7.409 16.687,7.565 17.563,7.673 C17.875,7.711 18.187,7.738 18.497,7.769 L18.513,7.771 C18.531,7.842 18.602,7.891 18.646,7.951 L18.683,8.001 C18.118,7.979 17.552,7.956 16.985,7.941 C16.568,7.929 16.151,7.911 15.734,7.912 C15.034,7.913 14.341,7.957 13.643,7.94 C13.494,7.936 13.346,7.93 13.198,7.921 L13.562,7.318 L13.562,7.318 Z M22.615,7.709 C22.337,7.678 22.049,7.645 21.751,7.609 C21.711,7.547 21.673,7.483 21.635,7.419 C21.928,7.446 22.211,7.471 22.485,7.494 L22.615,7.709 Z M20.355,7.301 L20.455,7.453 L21.472,7.577 L21.364,7.395 L20.354,7.301 L20.355,7.301 Z M14.061,6.49 C14.371,6.535 14.684,6.58 14.998,6.628 C15.9,6.764 16.801,6.926 17.708,7.038 C18.031,7.078 18.355,7.107 18.676,7.138 C19,7.171 19.322,7.198 19.641,7.234 L19.941,7.262 L20.03,7.401 L19.488,7.334 C19.156,7.297 18.821,7.261 18.482,7.235 C18.149,7.21 17.812,7.188 17.475,7.18 C16.871,7.164 16.267,7.185 15.661,7.176 C15.256,7.17 14.855,7.162 14.455,7.137 C14.312,7.128 14.17,7.117 14.029,7.104 L14.144,7.045 C14.159,7.037 14.165,7.018 14.157,7.002 C14.15,6.988 14.132,6.982 14.117,6.987 L14.114,6.989 L13.794,7.081 L13.903,7.092 L13.87,7.108 L13.847,7.118 L13.724,7.172 L13.681,7.192 L13.673,7.195 L13.662,7.199 L13.624,7.215 L13.662,7.199 L13.676,7.194 L13.724,7.172 L13.847,7.118 L13.727,7.101 L13.795,7.081 L13.71,7.072 L14.06,6.49 L14.061,6.49 Z M14.075,7.008 L14.114,6.988 L14.079,7.007 L14.067,7.013 L13.903,7.093 L14.075,7.008 L14.075,7.008 Z M22.177,6.982 L21.322,6.88 L21.221,6.702 C21.382,6.724 21.543,6.748 21.703,6.776 L22.089,6.836 L22.177,6.982 L22.177,6.982 Z M19.877,6.56 C19.886,6.576 19.895,6.592 19.905,6.606 C19.93,6.641 19.952,6.677 19.975,6.713 L21.046,6.846 L20.949,6.667 C20.595,6.625 20.236,6.592 19.877,6.56 Z M14.94,5.031 C15.142,5.019 15.344,5.011 15.546,5.005 C15.883,4.997 16.219,5 16.556,5.007 C17.116,5.02 17.678,5.049 18.239,5.09 C18.687,5.123 19.134,5.168 19.584,5.204 C19.696,5.214 19.808,5.221 19.92,5.229 C20.337,5.259 20.754,5.289 21.172,5.313 L21.369,5.641 C21.164,5.618 20.959,5.599 20.751,5.584 C20.511,5.567 20.271,5.552 20.03,5.548 C19.488,5.542 18.95,5.578 18.408,5.578 C18.047,5.578 17.688,5.575 17.331,5.552 C16.955,5.528 16.584,5.478 16.217,5.422 C16.214,5.422 16.211,5.424 16.21,5.428 C16.21,5.431 16.212,5.434 16.215,5.434 C16.391,5.469 16.568,5.497 16.745,5.528 C17.011,5.575 17.276,5.62 17.545,5.665 L18.345,5.798 C18.747,5.864 19.144,5.939 19.548,5.998 C19.77,6.032 19.992,6.064 20.215,6.088 C20.4,6.108 20.586,6.125 20.771,6.142 C20.788,6.202 20.808,6.258 20.821,6.32 L20.824,6.333 C20.574,6.31 20.321,6.292 20.068,6.277 C19.547,6.247 19.021,6.225 18.497,6.212 C18.022,6.2 17.551,6.207 17.084,6.173 C16.768,6.15 16.457,6.109 16.149,6.061 C16.145,6.061 16.142,6.063 16.142,6.066 C16.142,6.069 16.143,6.072 16.146,6.073 C16.438,6.133 16.735,6.177 17.032,6.224 C17.475,6.294 17.919,6.37 18.37,6.42 C18.78,6.466 19.193,6.5 19.605,6.536 C19.578,6.564 19.564,6.552 19.563,6.63 C19.563,6.642 19.565,6.654 19.569,6.665 C19.269,6.632 18.966,6.6 18.661,6.577 C18.315,6.551 17.968,6.529 17.618,6.52 C16.992,6.504 16.367,6.527 15.739,6.518 C15.32,6.513 14.904,6.505 14.489,6.479 C14.355,6.471 14.219,6.461 14.085,6.449 L14.94,5.031 L14.94,5.031 Z M21.862,6.46 L21.757,6.444 C21.511,6.407 21.262,6.377 21.012,6.351 C20.982,6.319 20.948,6.301 20.916,6.269 C20.876,6.229 20.843,6.188 20.808,6.146 C21.118,6.174 21.427,6.202 21.731,6.242 L21.862,6.46 Z M21.03,5.078 C20.54,5.049 20.05,5.015 19.562,4.985 C19.168,4.961 18.774,4.945 18.381,4.924 C17.459,4.876 16.539,4.839 15.618,4.86 L15.033,4.875 L17.971,0 L21.03,5.078 L21.03,5.078 Z"/>
    </g>
  </g>
</svg>
