<?xml version="1.0" encoding="UTF-8"?> <svg xmlns="http://www.w3.org/2000/svg" width="183.062" height="41.594" viewBox="0 0 183.062 41.594"><metadata><?xpacket begin="﻿" id="W5M0MpCehiHzreSzNTczkc9d"?><?xpacket end="w"?></metadata><defs><style> .cls-1 { fill: #21232d; fill-rule: evenodd; } </style></defs><path id="n" class="cls-1" d="M335.939,62.818h4.966V50.991l7.239,11.828h4.882V42.992H348.06v11.8l-7.211-11.8h-4.91V62.818Zm24.691,0.425a7.575,7.575,0,0,0,2.637-.425,5.349,5.349,0,0,0,1.908-1.163v1.163h4.63V54.536a5.1,5.1,0,0,0-1.922-4.24,9.043,9.043,0,0,0-5.682-1.517,16.657,16.657,0,0,0-3.03.269,9.738,9.738,0,0,0-2.357.695v3.432a10.473,10.473,0,0,1,4.517-.964q3.535,0,3.536,2.184v0.284a8.008,8.008,0,0,0-1.88-.638A10.169,10.169,0,0,0,360.8,53.8a6.623,6.623,0,0,0-4.307,1.234,4.309,4.309,0,0,0-1.5,3.531,4.149,4.149,0,0,0,1.557,3.446,6.381,6.381,0,0,0,4.083,1.234h0Zm1.459-3.063a2.315,2.315,0,0,1-1.5-.425,1.452,1.452,0,0,1-.519-1.191,1.5,1.5,0,0,1,.533-1.248,2.375,2.375,0,0,1,1.515-.425,4.771,4.771,0,0,1,2.75.822V58.9a2.805,2.805,0,0,1-1.151.922,3.788,3.788,0,0,1-1.627.355h0Zm15.235,3.063a11.241,11.241,0,0,0,2.034-.156,6.543,6.543,0,0,0,1.558-.5V58.876a3.809,3.809,0,0,1-1.852.511,1.81,1.81,0,0,1-1.445-.482,2.458,2.458,0,0,1-.407-1.588V52.664H380.3V49.2h-3.086V45.119h-4.938V49.2h-1.908v3.46h1.908V58a5.5,5.5,0,0,0,1.276,3.843,4.845,4.845,0,0,0,3.774,1.4h0Zm15.123,0A12.155,12.155,0,0,0,399.49,61.4V56.663a9.286,9.286,0,0,1-2.975,1.532,12.515,12.515,0,0,1-3.619.482,6.135,6.135,0,0,1-4.447-1.532,5.6,5.6,0,0,1-1.586-4.226,5.581,5.581,0,0,1,1.572-4.212A6.161,6.161,0,0,1,392.9,47.19a12.819,12.819,0,0,1,3.577.454,7.961,7.961,0,0,1,2.792,1.447V44.325a10.322,10.322,0,0,0-3.058-1.333,15.149,15.149,0,0,0-3.76-.425,12.03,12.03,0,0,0-5.626,1.262,8.931,8.931,0,0,0-3.745,3.6,12.078,12.078,0,0,0,0,10.977A8.84,8.84,0,0,0,386.821,62a12.14,12.14,0,0,0,5.626,1.248h0Zm13.664,0a7.585,7.585,0,0,0,2.638-.425,5.367,5.367,0,0,0,1.908-1.163v1.163h4.629V54.536a5.1,5.1,0,0,0-1.922-4.24,9.039,9.039,0,0,0-5.682-1.517,16.665,16.665,0,0,0-3.03.269,9.752,9.752,0,0,0-2.357.695v3.432a10.474,10.474,0,0,1,4.518-.964q3.534,0,3.535,2.184v0.284a8.008,8.008,0,0,0-1.88-.638,10.169,10.169,0,0,0-2.189-.241,6.62,6.62,0,0,0-4.306,1.234,4.31,4.31,0,0,0-1.5,3.531,4.147,4.147,0,0,0,1.558,3.446,6.38,6.38,0,0,0,4.082,1.234h0Zm1.459-3.063a2.315,2.315,0,0,1-1.5-.425,1.454,1.454,0,0,1-.519-1.191,1.5,1.5,0,0,1,.533-1.248,2.375,2.375,0,0,1,1.515-.425,4.769,4.769,0,0,1,2.75.822V58.9a2.792,2.792,0,0,1-1.151.922,3.784,3.784,0,0,1-1.627.355h0Zm15.488,3.063a8.517,8.517,0,0,0,4.84-1.149,3.585,3.585,0,0,0,1.669-3.106,4.568,4.568,0,0,0-.407-2.056,3.548,3.548,0,0,0-1.388-1.4,11.007,11.007,0,0,0-2.778-1.078q0.139,0.029-.758-0.2a14.409,14.409,0,0,1-1.908-.567,0.72,0.72,0,0,1-.533-0.652,0.665,0.665,0,0,1,.533-0.638,4.734,4.734,0,0,1,1.487-.184,10.167,10.167,0,0,1,2.6.369,7.406,7.406,0,0,1,2.23.936v-3.6a7.307,7.307,0,0,0-2.427-.822,16.21,16.21,0,0,0-3.072-.312,8.8,8.8,0,0,0-4.728,1.092,3.647,3.647,0,0,0-1.725,3.3,4.067,4.067,0,0,0,.477,2.071,3.657,3.657,0,0,0,1.459,1.361,14.152,14.152,0,0,0,2.693,1.05q1.011,0.284,1.782.525a4.046,4.046,0,0,1,1.066.454,0.652,0.652,0,0,1,.3.553,0.561,0.561,0,0,1-.449.567,5.188,5.188,0,0,1-1.431.142,11.313,11.313,0,0,1-2.96-.44,11.2,11.2,0,0,1-2.764-1.12V62a8.971,8.971,0,0,0,2.806.922,18.74,18.74,0,0,0,3.395.326h0Zm11.11-15.855a2.574,2.574,0,0,0,1.866-.752,2.621,2.621,0,0,0,0-3.716,2.708,2.708,0,0,0-3.745,0,2.673,2.673,0,0,0,0,3.73,2.586,2.586,0,0,0,1.879.737h0ZM431.7,62.818h4.939V49.2H431.7V62.818Zm7.632,0h4.938V54.451a3.557,3.557,0,0,1,1.319-1.347,3.505,3.505,0,0,1,1.74-.44q2.076,0,2.076,2.3v7.857h4.938V54.309a5.764,5.764,0,0,0-1.361-4.042,5.412,5.412,0,0,0-4.194-1.489,7.039,7.039,0,0,0-2.582.482,5.479,5.479,0,0,0-2.1,1.447V49.2h-4.77V62.818Zm40.253-24.107c-5.917,0-9.8,2.91-9.8,7.477a7.165,7.165,0,0,0,3.718,6.022,8.013,8.013,0,0,0-5.117,7.315c0,5.012,4.4,8.2,11.234,8.2,6.877,0,11.314-3.233,11.314-8.325a7.9,7.9,0,0,0-4.8-7.194,6.753,6.753,0,0,0,3.358-5.82C489.5,41.7,485.661,38.712,479.584,38.712Zm0.04,4.971c2.439,0,3.758,1.091,3.758,3.112,0,1.94-1.319,3.031-3.758,3.031-2.4,0-3.718-1.091-3.718-3.031C475.906,44.774,477.226,43.683,479.624,43.683Zm0.04,11.559c2.839,0,4.438,1.253,4.438,3.516,0,2.3-1.6,3.557-4.478,3.557-2.838,0-4.4-1.253-4.4-3.556C475.227,56.494,476.786,55.241,479.664,55.241Zm-0.023-22.679a20.8,20.8,0,1,1-20.578,20.8A20.688,20.688,0,0,1,479.641,32.563Zm24.342,30.054h4.938V54.249A3.556,3.556,0,0,1,510.24,52.9a3.5,3.5,0,0,1,1.74-.44q2.076,0,2.076,2.3v7.857h4.938V54.108a5.764,5.764,0,0,0-1.361-4.042,5.413,5.413,0,0,0-4.194-1.489,7.039,7.039,0,0,0-2.582.482,5.479,5.479,0,0,0-2.1,1.447V49h-4.77V62.617Z" transform="translate(-335.938 -32.563)"></path></svg> 