<?xml version="1.0" encoding="UTF-8"?> <svg xmlns="http://www.w3.org/2000/svg" width="176.594" height="31.563" viewBox="0 0 176.594 31.563"><metadata><?xpacket begin="﻿" id="W5M0MpCehiHzreSzNTczkc9d"?><?xpacket end="w"?></metadata><defs><style> .cls-1 { fill-rule: evenodd; } </style></defs><path id="Neue-Online-Casino-Logo-Text-Dark" class="cls-1" d="M392.317,54.366V38.47H387.6V46.3l-6.715-7.833H376.4v15.9h4.717V46.649l6.716,7.717h4.484Zm3.439,0h13.989V50.554h-8.853V48.128h7.435V44.477h-7.435v-2.2h8.69V38.47H395.756v15.9Zm32.694-6.4v-9.5h-5.135V47.9a3.046,3.046,0,0,1-.732,2.126,3.14,3.14,0,0,1-4.194.011,3.063,3.063,0,0,1-.721-2.137V38.47h-5.135v9.5a6.059,6.059,0,0,0,2.08,4.968,10.982,10.982,0,0,0,11.769,0,6.075,6.075,0,0,0,2.068-4.968h0Zm3.439,6.4h13.988V50.554h-8.853V48.128h7.436V44.477h-7.436v-2.2h8.691V38.47H431.889v15.9ZM464.35,38.193a9,9,0,0,0-6.378,2.091,7.984,7.984,0,0,0-2.243,6.134,7.982,7.982,0,0,0,2.243,6.134,10.767,10.767,0,0,0,12.768-.011,7.965,7.965,0,0,0,2.254-6.123A7.966,7.966,0,0,0,470.74,40.3a9.019,9.019,0,0,0-6.39-2.1h0Zm0,3.812a3.175,3.175,0,0,1,2.521.993,3.921,3.921,0,0,1,.872,2.68v1.479a3.92,3.92,0,0,1-.872,2.68,3.173,3.173,0,0,1-2.521.993,3.136,3.136,0,0,1-2.509-.993,3.951,3.951,0,0,1-.86-2.68V45.679a3.952,3.952,0,0,1,.86-2.68A3.137,3.137,0,0,1,464.35,42h0Zm27.326,12.361V38.47h-4.717V46.3l-6.715-7.833h-4.485v15.9h4.717V46.649l6.716,7.717h4.484Zm3.439,0h13.338V50.3h-8.2V38.47h-5.136v15.9Zm20.867,0V38.47h-5.136v15.9h5.136Zm19.588,0V38.47h-4.717V46.3l-6.715-7.833h-4.485v15.9h4.717V46.649l6.715,7.717h4.485Zm3.439,0H553V50.554h-8.854V48.128h7.436V44.477h-7.436v-2.2h8.691V38.47H539.009v15.9ZM383.993,60.174a3.167,3.167,0,0,0-2.322.78,3.761,3.761,0,0,0,0,4.609,3.832,3.832,0,0,0,4.452.13,2.335,2.335,0,0,0,.754-1.871H385.1a1.084,1.084,0,0,1-.287.806,1.151,1.151,0,0,1-.845.286,0.98,0.98,0,0,1-.841-0.368,1.655,1.655,0,0,1-.275-1.009V62.982a1.651,1.651,0,0,1,.275-1.014,1.175,1.175,0,0,1,1.638-.061,1.18,1.18,0,0,1,.274.823h1.839a2.354,2.354,0,0,0-.775-1.893,3.141,3.141,0,0,0-2.109-.663h0Zm29.823,6.065-2.187-5.961H409.39L407.2,66.239h1.97l0.253-.84h2.1l0.252,0.84h2.039Zm-3.355-4.3H410.5l0.628,2.123h-1.3Zm26.927-1.767a3.661,3.661,0,0,0-1.93.463,1.569,1.569,0,0,0-.763,1.443,1.5,1.5,0,0,0,.358,1.057,2.045,2.045,0,0,0,.836.559,10.026,10.026,0,0,0,1.211.325,5.306,5.306,0,0,1,.867.23,0.352,0.352,0,0,1,.266.325,0.312,0.312,0,0,1-.239.321,2,2,0,0,1-.606.078,1.382,1.382,0,0,1-.732-0.152,0.665,0.665,0,0,1-.235-0.6H434.6a1.771,1.771,0,0,0,.779,1.655,4.258,4.258,0,0,0,2.183.468,3.254,3.254,0,0,0,1.922-.511,1.8,1.8,0,0,0,.719-1.568,1.4,1.4,0,0,0-.358-0.988,2.029,2.029,0,0,0-.814-0.524,9.764,9.764,0,0,0-1.19-.307,5.365,5.365,0,0,1-.9-0.234,0.372,0.372,0,0,1-.279-0.347,0.324,0.324,0,0,1,.2-0.277,1.239,1.239,0,0,1,.588-0.113,0.85,0.85,0,0,1,.584.173,0.562,0.562,0,0,1,.191.433v0.035h1.8v-0.1a1.556,1.556,0,0,0-.758-1.373,3.512,3.512,0,0,0-1.891-.463h0Zm27.572,6.065V60.278h-1.925v5.961h1.925Zm29.13,0V60.278h-1.769v2.937L489.8,60.278h-1.681v5.961h1.769V63.345l2.518,2.894h1.682Zm23.636-6.065a3.378,3.378,0,0,0-2.392.784,3.567,3.567,0,0,0,0,4.6,4.039,4.039,0,0,0,4.789,0,3.542,3.542,0,0,0,0-4.592,3.384,3.384,0,0,0-2.4-.788h0Zm0,1.43a1.191,1.191,0,0,1,.946.373,1.469,1.469,0,0,1,.326,1v0.555a1.469,1.469,0,0,1-.326,1.005,1.191,1.191,0,0,1-.946.373,1.177,1.177,0,0,1-.941-0.373,1.482,1.482,0,0,1-.322-1.005V62.982a1.483,1.483,0,0,1,.322-1,1.178,1.178,0,0,1,.941-0.373h0Zm26.648-1.43a3.661,3.661,0,0,0-1.93.463,1.567,1.567,0,0,0-.763,1.443,1.5,1.5,0,0,0,.358,1.057,2.045,2.045,0,0,0,.836.559,10.026,10.026,0,0,0,1.211.325,5.306,5.306,0,0,1,.867.23,0.352,0.352,0,0,1,.266.325,0.312,0.312,0,0,1-.239.321,2,2,0,0,1-.606.078,1.382,1.382,0,0,1-.732-0.152,0.665,0.665,0,0,1-.235-0.6h-1.821a1.769,1.769,0,0,0,.779,1.655,4.258,4.258,0,0,0,2.183.468,3.254,3.254,0,0,0,1.922-.511,1.794,1.794,0,0,0,.718-1.568,1.392,1.392,0,0,0-.357-0.988,2.026,2.026,0,0,0-.815-0.524,9.694,9.694,0,0,0-1.189-.307,5.365,5.365,0,0,1-.9-0.234,0.372,0.372,0,0,1-.279-0.347,0.325,0.325,0,0,1,.2-0.277,1.246,1.246,0,0,1,.589-0.113,0.846,0.846,0,0,1,.583.173,0.56,0.56,0,0,1,.192.433v0.035h1.8v-0.1a1.556,1.556,0,0,0-.758-1.373,3.512,3.512,0,0,0-1.891-.463h0ZM376.625,56.781H552.844V69.75H376.625V56.781Z" transform="translate(-376.406 -38.188)"></path></svg> 