<svg width="185" height="23" xmlns="http://www.w3.org/2000/svg"><g fill="none" fill-rule="evenodd"><circle cx="10.062" cy="10.062" r="10.062" transform="translate(164 1.5)" stroke="#4E0080" stroke-width="1.73"/><g transform="translate(165.75 3.25)" fill-rule="nonzero"><circle fill="#470272" cx="8.25" cy="8.25" r="8.25"/><path d="M7.907 11.65l.313.584.314-.585h.034c.277.825.812 1.403 1.994 1.56H5.879c1.181-.157 1.717-.735 1.994-1.56h.034zm.314-8.68l.116.324c1.04 2.653 3.62 3.464 4.294 5.152.976 2.442-2.255 4.737-4.08 2.336.281.186.507.344.733.344.459 0 .917-.217.917-.867s-.458-.867-.917-.867c-.174 0-.348.095-.548.223.193-.286.36-.515.36-.743 0-.454-.22-.908-.876-.908s-.875.454-.875.908c0 .228.166.457.36.743-.2-.128-.374-.223-.549-.223-.458 0-.916.217-.916.867s.458.867.916.867c.226 0 .452-.158.733-.344-1.824 2.401-5.055.106-4.08-2.336.677-1.691 3.264-2.502 4.3-5.167l.112-.309z" fill="#FFF"/></g><path d="M2.103 19.5a.47.47 0 00.483-.483V8.475l7.035 10.731c.098.196.266.294.504.294h.945c.14 0 .255-.049.346-.147a.506.506 0 00.137-.357V5.304a.497.497 0 00-.137-.367.497.497 0 00-.367-.137h-.945a.47.47 0 00-.347.137.497.497 0 00-.136.367V15.93L2.586 5.094a1.485 1.485 0 00-.21-.21c-.07-.056-.175-.084-.315-.084h-.924a.435.435 0 00-.336.137.52.52 0 00-.126.367v13.713c0 .14.042.256.126.347a.435.435 0 00.336.136h.966zm13.887 0a.47.47 0 00.483-.483V5.283c0-.154-.042-.273-.126-.357-.084-.084-.203-.126-.357-.126h-1.05a.435.435 0 00-.336.137.49.49 0 00-.126.346v13.734c0 .14.042.256.126.347a.435.435 0 00.336.136h1.05zm12.69 0c.14 0 .259-.046.357-.136a.452.452 0 00.147-.347v-.756a.497.497 0 00-.137-.367.497.497 0 00-.367-.137h-7.329v-4.851h6.699a.497.497 0 00.367-.136.47.47 0 00.137-.347v-.714a.497.497 0 00-.136-.367.497.497 0 00-.368-.137h-6.699V6.522h7.161a.52.52 0 00.367-.126.435.435 0 00.137-.336v-.756a.497.497 0 00-.136-.367.497.497 0 00-.368-.137h-8.631a.435.435 0 00-.336.137.52.52 0 00-.126.367v13.713c0 .14.042.256.126.347a.435.435 0 00.336.136h8.799zm8.217.21c1.806 0 3.196-.487 4.169-1.46.972-.972 1.459-2.446 1.459-4.42V5.304a.497.497 0 00-.136-.367.47.47 0 00-.347-.137h-1.008a.462.462 0 00-.357.137.52.52 0 00-.126.367v8.568c0 1.358-.319 2.377-.956 3.056-.636.679-1.536 1.018-2.698 1.018-1.176 0-2.082-.336-2.72-1.008-.636-.672-.955-1.694-.955-3.066V5.304a.497.497 0 00-.136-.367.497.497 0 00-.368-.137H31.71a.435.435 0 00-.336.137.52.52 0 00-.126.367v8.526c0 1.974.49 3.448 1.47 4.42.98.974 2.373 1.46 4.179 1.46zm11.682-.21c.35 0 .574-.175.672-.525l2.625-8.085 2.604 8.085c.112.35.343.525.693.525h.756c.364 0 .581-.182.651-.546l2.73-13.503a1.18 1.18 0 00.021-.231.403.403 0 00-.126-.294.403.403 0 00-.294-.126h-1.008c-.308 0-.483.119-.525.357l-2.163 10.962-2.31-7.56c-.112-.336-.336-.504-.672-.504h-.735c-.35 0-.567.168-.651.504l-2.331 7.56-2.163-10.962c-.042-.238-.21-.357-.504-.357H44.82a.403.403 0 00-.294.126.403.403 0 00-.126.294l.042.231 2.709 13.503c.084.364.301.546.651.546h.777zm22.035 0c.14 0 .259-.046.357-.136a.452.452 0 00.147-.347v-.756a.497.497 0 00-.136-.367.497.497 0 00-.368-.137h-7.329v-4.851h6.699a.497.497 0 00.368-.136.47.47 0 00.136-.347v-.714a.497.497 0 00-.136-.367.497.497 0 00-.368-.137h-6.699V6.522h7.161a.52.52 0 00.368-.126.435.435 0 00.136-.336v-.756a.497.497 0 00-.136-.367.497.497 0 00-.368-.137h-8.631a.435.435 0 00-.336.137.52.52 0 00-.126.367v13.713c0 .14.042.256.126.347a.435.435 0 00.336.136h8.799zm8.364.21c1.246 0 2.363-.203 3.35-.609.986-.406 1.767-.994 2.341-1.764.574-.77.875-1.68.903-2.73a.41.41 0 00-.136-.315.463.463 0 00-.326-.126h-2.982c-.196 0-.343.038-.441.115-.098.077-.175.221-.231.431-.182.672-.48 1.148-.892 1.428-.413.28-.942.42-1.586.42-1.582 0-2.401-.882-2.457-2.646a56.139 56.139 0 01-.021-1.785c0-.784.007-1.365.021-1.743.056-1.764.875-2.646 2.457-2.646.658 0 1.187.136 1.586.41.399.272.696.752.892 1.438.07.21.15.353.242.43.09.077.234.116.43.116h2.982a.463.463 0 00.326-.126.41.41 0 00.136-.315c-.028-1.05-.329-1.96-.903-2.73-.574-.77-1.355-1.358-2.341-1.764-.987-.406-2.104-.609-3.35-.609-1.974 0-3.538.493-4.694 1.48-1.155.987-1.767 2.391-1.837 4.211a59.544 59.544 0 00-.021 1.89c0 .854.007 1.47.021 1.848.07 1.862.675 3.276 1.816 4.242 1.141.966 2.713 1.449 4.715 1.449zm9.708-.21c.336 0 .574-.154.714-.462l.756-2.037h5.502l.756 2.037c.14.308.378.462.714.462h2.73a.422.422 0 00.304-.137.422.422 0 00.137-.304.637.637 0 00-.021-.189L95.385 5.409c-.14-.406-.42-.609-.84-.609h-3.276c-.42 0-.7.203-.84.609L85.536 18.87a.637.637 0 00-.021.189c0 .112.046.213.136.304a.422.422 0 00.305.137h2.73zm6.09-5.649h-3.738l1.869-5.355 1.869 5.355zm11.703 5.859c1.246 0 2.352-.186 3.318-.557.966-.37 1.722-.906 2.268-1.606.546-.7.819-1.526.819-2.478 0-.868-.186-1.585-.556-2.152-.371-.567-.946-1.03-1.722-1.386-.777-.357-1.824-.655-3.14-.893-1.148-.238-1.932-.472-2.352-.703-.42-.231-.63-.55-.63-.956 0-.406.161-.714.483-.924.322-.21.777-.315 1.365-.315.518 0 .952.102 1.302.305.35.203.567.451.651.745a.809.809 0 00.714.378h2.94a.41.41 0 00.315-.136.463.463 0 00.126-.326c-.028-.616-.283-1.242-.766-1.88-.484-.636-1.177-1.168-2.08-1.595-.903-.427-1.97-.641-3.202-.641-1.176 0-2.208.189-3.097.567-.89.378-1.576.907-2.058 1.586-.484.679-.725 1.452-.725 2.32 0 1.274.42 2.254 1.26 2.94.84.686 2.107 1.197 3.801 1.533.868.182 1.533.347 1.995.494.462.147.798.315 1.008.504.21.189.315.43.315.724 0 .406-.203.725-.609.956-.406.23-.987.346-1.743.346-.644 0-1.159-.108-1.543-.325-.386-.217-.669-.494-.851-.83a1.355 1.355 0 00-.346-.294.869.869 0 00-.41-.084h-2.793a.463.463 0 00-.326.126.41.41 0 00-.136.315c.028.756.287 1.456.777 2.1.49.644 1.211 1.162 2.163 1.554.952.392 2.107.588 3.465.588zm11.199-.21a.522.522 0 00.525-.525V5.325a.512.512 0 00-.147-.378.512.512 0 00-.378-.147h-3.003a.522.522 0 00-.525.525v13.65c0 .14.052.263.157.367a.504.504 0 00.368.158h3.003zm5.823 0a.548.548 0 00.388-.147.494.494 0 00.158-.378v-7.392l4.935 7.518c.154.266.392.399.714.399h2.373c.154 0 .28-.053.378-.158a.548.548 0 00.147-.388V5.346a.548.548 0 00-.147-.389.494.494 0 00-.378-.157h-2.667a.494.494 0 00-.378.158.548.548 0 00-.147.388v7.686l-4.956-7.833c-.154-.266-.392-.399-.714-.399h-2.373a.494.494 0 00-.378.158.548.548 0 00-.147.388v13.629c0 .14.053.262.157.367a.504.504 0 00.368.158h2.667zm17.289.21c1.988 0 3.553-.483 4.694-1.449 1.14-.966 1.746-2.387 1.816-4.263.028-.784.042-1.386.042-1.806v-.143a65.177 65.177 0 00-.042-1.684c-.056-1.848-.669-3.272-1.838-4.273-1.168-1.001-2.726-1.502-4.672-1.502-1.96 0-3.524.5-4.694 1.502-1.168 1-1.781 2.425-1.837 4.273a57.967 57.967 0 00-.021 1.827v.263c.002.68.009 1.195.021 1.543.07 1.876.679 3.297 1.827 4.263 1.148.966 2.716 1.449 4.704 1.449zm0-3.15c-.742 0-1.33-.22-1.764-.661-.434-.441-.665-1.117-.693-2.027a54.347 54.347 0 01-.021-1.743c0-.742.007-1.309.021-1.701.028-.91.259-1.585.693-2.026.434-.441 1.022-.662 1.764-.662.728 0 1.309.22 1.743.661.434.442.665 1.117.693 2.027.028.784.042 1.351.042 1.701 0 .35-.014.931-.042 1.743-.028.91-.259 1.586-.693 2.027-.434.44-1.015.661-1.743.661zm13.74 3.15c1.246 0 2.352-.186 3.318-.557.966-.37 1.722-.906 2.268-1.606.546-.7.819-1.526.819-2.478 0-.868-.185-1.585-.556-2.152-.371-.567-.945-1.03-1.722-1.386-.778-.357-1.824-.655-3.14-.893-1.148-.238-1.932-.472-2.352-.703-.42-.231-.63-.55-.63-.956 0-.406.161-.714.483-.924.322-.21.777-.315 1.365-.315.518 0 .952.102 1.302.305.35.203.567.451.651.745a.809.809 0 00.714.378h2.94a.41.41 0 00.315-.136.463.463 0 00.126-.326c-.028-.616-.284-1.242-.767-1.88-.482-.636-1.175-1.168-2.078-1.595-.904-.427-1.971-.641-3.203-.641-1.176 0-2.209.189-3.097.567-.89.378-1.576.907-2.059 1.586-.483.679-.724 1.452-.724 2.32 0 1.274.42 2.254 1.26 2.94.84.686 2.107 1.197 3.801 1.533.868.182 1.533.347 1.995.494.462.147.798.315 1.008.504.21.189.315.43.315.724 0 .406-.203.725-.609.956-.406.23-.987.346-1.743.346-.644 0-1.159-.108-1.543-.325-.386-.217-.669-.494-.851-.83a1.355 1.355 0 00-.346-.294.869.869 0 00-.41-.084h-2.793a.463.463 0 00-.325.126.41.41 0 00-.137.315c.028.756.287 1.456.777 2.1.49.644 1.211 1.162 2.163 1.554.952.392 2.107.588 3.465.588z" fill="#4E0080" fill-rule="nonzero"/></g></svg>