<svg xmlns="http://www.w3.org/2000/svg" width="320" height="68" viewBox="0 0 320 68">
  <g fill="none" fill-rule="evenodd">
    <rect width="39" height="39" x="13" y="15" fill="#000"/>
    <path fill="#000" fill-rule="nonzero" d="M82.5112108 45.072L75.7508719 45.072C75.1436585 45.0892932 74.5553149 44.8592646 74.1198123 44.4342937 73.6843098 44.0093228 73.4387191 43.425584 73.4389004 42.816L73.4389004 25.328C73.4343896 24.7156452 73.6780768 24.1277332 74.1140656 23.6992705 74.5500545 23.2708077 75.1408818 23.0386105 75.7508719 23.056L81.3472845 23.056C84.5999003 23.056 88.0279023 24.832 88.0279023 28.656 88.0279023 30.88 87.0553064 32.56 85.2855007 33.376L85.2855007 33.44C88.4424514 34.176 89.8295964 36.224 89.8295964 39.088 89.8295964 43.2 86.1464873 45.072 82.5112108 45.072zM80.5181863 26.816L78.0627803 26.816 78.0627803 32.016 80.486298 32.016C81.6821126 32.016 83.3881415 31.536 83.3881415 29.264 83.3881415 27.648 82.0966617 26.816 80.5181863 26.816zM81.3153961 35.728L78.0627803 35.728 78.0627803 41.296 81.4748381 41.296C83.3881415 41.296 85.0941704 40.736 85.0941704 38.512 85.0941704 36.896 83.9940209 35.728 81.3153961 35.728zM103.908321 45.392C97.3393124 45.392 92.1574489 40.928 92.1574489 34.112 92.1574489 27.296 97.3393124 22.768 103.908321 22.768 110.477329 22.768 115.627304 27.328 115.627304 34.112 115.627304 40.896 110.477329 45.392 103.908321 45.392zM103.908321 27.136C99.9860488 27.136 97.0842053 30.176 97.0842053 34.112 97.0842053 38.048 99.9860488 41.056 103.908321 41.056 107.830593 41.056 110.700548 38.064 110.700548 34.112 110.700548 30.16 107.846537 27.136 103.908321 27.136zM138.826109 42.88C138.826109 44.304 137.646238 45.3920318 136.163428 45.3920318 135.264121 45.3963218 134.419178 44.9604296 133.899352 44.224L123.695067 30.816 123.695067 43.296C123.695067 44.464 122.690583 45.3920318 121.478824 45.3920318 120.267065 45.3920318 119.278525 44.464 119.278525 43.296L119.278525 25.296C119.278525 23.904 120.442451 22.768 121.925262 22.768 122.823439 22.7815358 123.660192 23.2281752 124.173393 23.968L134.393622 37.344 134.393622 24.912C134.393622 23.6837188 135.385868 22.6880002 136.609865 22.6880002 137.833863 22.6880002 138.826109 23.6837188 138.826109 24.912L138.826109 42.88zM156.843049 39.584C157.544594 38.704 157.943199 37.472 157.943199 35.824L157.943199 25.04C157.938625 24.4276452 158.182312 23.8397332 158.618301 23.4112705 159.05429 22.9828077 159.645117 22.7506105 160.255107 22.768 161.519685 22.758977 162.556827 23.7712349 162.58296 25.04L162.58296 36.384C162.58296 38.832 161.865471 40.928 160.573991 42.448 158.931739 44.336 156.364723 45.392 153.048331 45.392 149.731938 45.392 147.148979 44.336 145.506726 42.448 144.215247 40.928 143.513702 38.832 143.513702 36.384L143.513702 25.04C143.531197 23.7737933 144.56373 22.7590843 145.82561 22.768 146.437053 22.7507091 147.029451 22.9824246 147.467943 23.4103957 147.906435 23.8383669 148.153706 24.4261737 148.153463 25.04L148.153463 35.824C148.153463 37.472 148.536124 38.704 149.237668 39.584 150.146487 40.704 151.437967 41.136 153.016442 41.136 154.594918 41.136 155.93423 40.704 156.843049 39.584zM179.483807 28.208C177.873443 28.208 176.677628 26.784 174.190334 26.784 172.037867 26.784 171.001495 27.52 171.001495 28.816 171.001495 30.112 172.165421 30.656 173.807673 31.2 175.736921 31.824 178.12855 32.24 179.930244 33.536 181.349278 34.528 182.449427 36.048 182.449427 38.48 182.449427 42.848 178.766318 45.392 173.999003 45.392 172.292975 45.392 170.012955 45.072 168.179372 44.304 166.951669 43.776 166.010902 43.008 166.010902 41.808 166.00661 41.2140461 166.240909 40.6433817 166.660941 40.2248895 167.080974 39.8063974 167.651313 39.5753757 168.243149 39.584 169.662182 39.584 171.033383 41.392 173.935227 41.392 176.83707 41.392 177.379173 40 177.379173 38.864 177.379173 37.728 176.231191 36.832 174.652715 36.288 173.07424 35.744 170.714499 35.248 168.849028 34.048 167.270553 33.056 166.106627 31.472 166.106627 28.912 166.106627 25.36 169.00847 22.768 174.461385 22.768 175.896363 22.768 178.032885 22.96 179.61136 23.648 180.759342 24.128 181.668161 24.88 181.668161 26.032 181.672516 26.6132244 181.443257 27.1716819 181.032194 27.581173 180.621131 27.9906641 180.062956 28.2166274 179.483807 28.208L179.483807 28.208z"/>
    <path fill="#FFD500" fill-rule="nonzero" d="M200.13154 23.056C201.231689 23.056 202.124632 24 202.124632 25.136 202.13358 26.2548088 201.246177 27.1738136 200.13154 27.2L190.692576 27.2 190.692576 31.952 198.680618 31.952C199.21768 31.9604204 199.729403 32.182624 200.103182 32.5697138 200.476961 32.9568036 200.682166 33.4770607 200.673642 34.016 200.682189 34.5519556 200.475989 35.068923 200.101294 35.4509455 199.726599 35.8329679 199.214772 36.0480686 198.680618 36.048L190.692576 36.048 190.692576 43.136C190.692576 44.4 189.608371 45.392 188.380668 45.392 187.773215 45.404849 187.185777 45.1738621 186.748729 44.7503044 186.311682 44.3267468 186.061178 43.7456563 186.052815 43.136L186.052815 25.328C186.056949 24.7155552 186.305595 24.1303406 186.74311 23.7033229 187.180626 23.2763053 187.77048 23.0431372 188.380668 23.056L200.13154 23.056zM204.627803 25.04C204.727941 23.8289145 205.736674 22.8971631 206.947683 22.8971631 208.158692 22.8971631 209.167426 23.8289145 209.267564 25.04L209.267564 43.136C209.267564 44.4 208.167414 45.392 206.955655 45.392 206.348203 45.404849 205.760765 45.1738621 205.323717 44.7503044 204.886669 44.3267468 204.636165 43.7456563 204.627803 43.136L204.627803 25.04zM233.582461 42.88C233.582461 44.304 232.386647 45.3920907 230.903837 45.3920907 230.008179 45.3993275 229.166744 44.962166 228.655705 44.224L218.435476 30.816 218.435476 43.296C218.435476 44.464 217.446936 45.3920907 216.219233 45.3920907 214.99153 45.3920907 214.034878 44.464 214.034878 43.296L214.034878 25.296C214.034878 23.904 215.18286 22.768 216.66567 22.768 217.567508 22.7842347 218.407957 23.2296878 218.929746 23.968L229.134031 37.344 229.134031 24.912C229.160186 23.7076255 230.149947 22.7501278 231.350274 22.768 232.577977 22.768 233.582461 23.744 233.582461 24.912L233.582461 42.88zM255.649228 42.16C253.082212 44.56 249.749875 45.072 246.672646 45.072L240.709517 45.072C239.386148 45.072 238.381664 44.064 238.381664 42.816L238.381664 25.328C238.381421 24.7141737 238.628692 24.1263669 239.067184 23.6983957 239.505676 23.2704246 240.098074 23.0387091 240.709517 23.056L247.119083 23.056C250.467364 23.056 253.592427 23.712 256.127554 26.416 257.737917 28.144 258.806178 30.592 258.806178 34.048 258.806178 37.792 257.514699 40.416 255.649228 42.16zM243.021425 41.168L246.305929 41.168C248.793224 41.168 250.818137 40.544 252.23717 39.12 253.369208 38 254.038864 36.32 254.038864 34.048 254.038864 31.776 253.432985 30.176 252.364723 29.04 251.009467 27.584 248.952666 26.976 246.433483 26.976L243.021425 26.976 243.021425 41.168zM267.144993 40.928L277.556552 40.928C278.68859 40.928 279.549576 41.904 279.549576 43.008 279.558101 43.5469393 279.352895 44.0671964 278.979116 44.4542862 278.605338 44.841376 278.093614 45.0635796 277.556552 45.072L264.833084 45.072C264.225871 45.0892932 263.637527 44.8592646 263.202025 44.4342937 262.766522 44.0093228 262.520931 43.425584 262.521113 42.816L262.521113 25.328C262.516602 24.7156452 262.760289 24.1277332 263.196278 23.6992705 263.632267 23.2708077 264.223094 23.0386105 264.833084 23.056L277.556552 23.056C278.68859 23.056 279.549576 24 279.549576 25.136 279.558101 25.6749393 279.352895 26.1951964 278.979116 26.5822862 278.605338 26.969376 278.093614 27.1915796 277.556552 27.2L267.144993 27.2 267.144993 31.952 275.882412 31.952C276.982561 31.952 277.843548 32.88 277.843548 34.016 277.856386 34.5476922 277.655959 35.0622949 277.287241 35.4443367 276.918522 35.8263785 276.412389 36.043867 275.882412 36.048L267.144993 36.048 267.144993 40.928zM287.681116 43.136C287.681116 44.4 286.580967 45.392 285.353264 45.392 284.74605 45.4092932 284.157707 45.1792646 283.722204 44.7542937 283.286701 44.3293228 283.041111 43.745584 283.041355 43.136L283.041355 25.328C283.041355 24.7170186 283.28631 24.1317315 283.721309 23.7042418 284.156307 23.2767521 284.744549 23.0430919 285.353264 23.056L292.926756 23.056C295.047334 23.056 296.992526 23.456 298.475336 24.544 299.958146 25.632 301.010463 27.808 301.010463 30.208 301.044561 32.2815655 300.149055 34.2609223 298.571001 35.6 298.09093 35.9878446 297.572725 36.3255891 297.024415 36.608L300.627803 41.808C300.881295 42.1680635 301.015197 42.5991689 301.010463 43.04 301.018997 43.6608279 300.779195 44.2591832 300.344699 44.7012133 299.910204 45.1432434 299.317276 45.3920591 298.698555 45.392 297.789736 45.392 297.183857 44.976 296.721475 44.304L292.193323 37.408 287.681116 37.408 287.681116 43.136zM287.681116 27.008L287.681116 33.504 292.512207 33.504C293.436971 33.504 294.313901 33.376 294.983558 32.96 295.653214 32.544 296.306926 31.568 296.306926 30.272 296.306926 28.976 295.8286 28.144 295.079223 27.616 294.329846 27.088 293.500747 27.008 292.575984 27.008L287.681116 27.008z"/>
    <path fill="#699FF7" fill-rule="nonzero" d="M235.240658 66.256C235.240658 67.216 234.443448 67.952 233.438964 67.952 232.837658 67.9509147 232.273742 67.6590348 231.924265 67.168L225.052317 58.144 225.052317 66.544C225.052317 67.328 224.382661 67.952 223.553563 67.952 223.171745 67.9649445 222.800856 67.8228495 222.524781 67.557854 222.248707 67.2928584 222.090771 66.9273504 222.086697 66.544L222.086697 54.416C222.095029 53.9548419 222.286735 53.5161648 222.619139 53.1976225 222.951544 52.8790803 223.397057 52.7071122 223.856502 52.72 224.464351 52.7256872 225.030608 53.0307416 225.371201 53.536L232.243149 62.544 232.243149 54.16C232.243149 53.3293637 232.914164 52.656 233.741903 52.656 234.569643 52.656 235.240658 53.3293637 235.240658 54.16L235.240658 66.256zM246.38565 67.952C241.969108 67.952 238.477329 64.96 238.477329 60.368 238.477329 55.776 241.969108 52.72 246.38565 52.72 250.802192 52.72 254.278027 55.792 254.278027 60.368 254.278027 64.944 250.818137 67.952 246.38565 67.952zM246.38565 55.664C243.738914 55.664 241.793722 57.712 241.793722 60.368 241.793722 63.024 243.738914 65.04 246.38565 65.04 249.032387 65.04 250.961634 63.008 250.961634 60.368 250.961634 57.728 249.032387 55.664 246.38565 55.664zM260.607872 66.432C260.582017 67.2791813 259.889964 67.9523972 259.045341 67.952 258.635396 67.9649975 258.237723 67.8106115 257.943231 67.5241353 257.648739 67.2376591 257.482606 66.8435851 257.48281 66.432L257.48281 54.448C257.48281 54.035022 257.648355 53.6394055 257.94234 53.3504118 258.236325 53.0614182 258.633893 52.9033963 259.045341 52.912L264.13154 52.912C265.566517 52.912 266.873941 53.184 267.862481 53.92 268.851021 54.656 269.584454 56.112 269.584454 57.728 269.605986 59.1276918 268.996656 60.4623264 267.926258 61.36 267.607413 61.6228516 267.259704 61.8483117 266.889885 62.032L269.313403 65.536C269.490557 65.7768693 269.585609 66.0686334 269.584454 66.368 269.588711 66.7866247 269.425969 67.1895744 269.132475 67.4871011 268.838981 67.7846277 268.43911 67.9520218 268.021923 67.952 267.479874 67.9679567 266.972378 67.6857095 266.698555 67.216L263.63727 62.576 260.607872 62.576 260.607872 66.432zM260.607872 55.568L260.607872 59.952 263.860488 59.952C264.482312 59.952 265.072247 59.856 265.518685 59.584 265.965122 59.312 266.41156 58.64 266.41156 57.776 266.41156 56.912 266.092676 56.336 265.582461 55.984 265.070379 55.6858889 264.483801 55.5415077 263.892377 55.568L260.607872 55.568zM284.715496 59.728C285.656203 59.728 286.134529 60.384 286.134529 61.248L286.134529 66.432C286.134529 67.28 285.544594 67.9520392 284.587942 67.9520392 283.966119 67.9520392 283.487793 67.68 283.24863 67.216 282.171609 67.7046627 281.002613 67.9556489 279.820628 67.9520392 275.435974 67.9520392 272.167414 65.28 272.167414 60.32 272.167414 56.016 275.72297 52.72 280.075735 52.72 281.494768 52.72 282.483308 52.896 283.455904 53.248 284.173393 53.488 284.715496 54 284.715496 54.768 284.724305 55.1567978 284.574271 55.5322954 284.300237 55.807288 284.026204 56.0822806 283.652016 56.2328398 283.264574 56.224 282.291978 56.224 281.813652 55.552 280.011958 55.552 277.460887 55.552 275.42003 57.648 275.42003 60.32 275.42003 62.992 277.301445 65.168 280.011958 65.168 281.063888 65.1707335 282.10355 64.9413166 283.057299 64.496L283.057299 62.512 280.920777 62.512C280.154678 62.512 279.533632 61.8887804 279.533632 61.12 279.533632 60.3512196 280.154678 59.728 280.920777 59.728L284.715496 59.728zM292.942701 64.96L299.942202 64.96C300.708301 64.96 301.329347 65.5832196 301.329347 66.352 301.329347 67.1207804 300.708301 67.744 299.942202 67.744L291.380169 67.744C290.968721 67.7526037 290.571153 67.5945818 290.277168 67.3055882 289.983183 67.0165945 289.817638 66.620978 289.817638 66.208L289.817638 54.448C289.817638 54.035022 289.983183 53.6394055 290.277168 53.3504118 290.571153 53.0614182 290.968721 52.9033963 291.380169 52.912L299.942202 52.912C300.655219 52.9886007 301.195934 53.592399 301.195934 54.312 301.195934 55.031601 300.655219 55.6353993 299.942202 55.712L292.942701 55.712 292.942701 58.896 298.826109 58.896C299.570886 58.9220314 300.158594 59.5402185 300.149477 60.288 300.158026 60.6472042 300.022891 60.9948876 299.774243 61.2534251 299.525594 61.5119625 299.184138 61.659825 298.826109 61.664L292.942701 61.664 292.942701 64.96z"/>
    <path fill="#FFF" fill-rule="nonzero" d="M36.9427005,35.728 L32.0956652,35.728 C30.5546614,35.728 29.305431,34.4743973 29.305431,32.928 L29.305431,32.928 C29.305431,31.3816027 30.5546614,30.128 32.0956652,30.128 L35.5396114,30.128 C36.4825045,30.1283552 37.3854634,29.746036 38.0431198,29.0679968 C38.7007761,28.3899576 39.0572229,27.4738382 39.0313901,26.528 C38.9623484,24.6128079 37.3855054,23.1014038 35.4758346,23.1198302 L23.5176881,23.1198302 C22.6723374,23.1198302 21.9870453,23.8076906 21.9870453,24.656 L21.9870453,43.616 C21.9870453,44.4643094 22.6723374,45.152 23.5176881,45.152 L36.8629796,45.152 C39.429995,45.152 41.5824614,43.104 41.630294,40.528 C41.6516333,39.2651447 41.1677117,38.0463894 40.2867594,37.1443122 C39.4058071,36.2422351 38.2013256,35.7320999 36.9427005,35.728 L36.9427005,35.728 Z"/>
    <path fill="#FFD500" fill-rule="nonzero" d="M57.2556054,14.672 L33.8176383,1.056 C31.757359,-0.145336229 29.2132439,-0.145336229 27.1529646,1.056 L3.58744395,14.688 C1.52801743,15.8697122 0.256607421,18.0673657 0.255107125,20.448 L0.159352577,47.68 C0.14707009,50.0768868 1.41990321,52.2953345 3.49177877,53.488 L26.9297459,67.104 C28.9868699,68.295838 31.5213513,68.295838 33.5784753,67.104 L57.1599402,53.472 C59.2145561,52.2854352 60.4841921,50.0908481 60.492277,47.712 L60.58799,20.48 C60.5969745,18.0840009 59.3250392,15.867118 57.2556054,14.672 Z M36.9427005,50.752 L20.7912307,50.752 C18.3696533,50.752 16.406577,48.7820529 16.406577,46.352 L16.406577,21.92 C16.406577,19.4899471 18.3696533,17.52 20.7912307,17.52 L35.5396114,17.52 C38.9560584,17.5212073 42.0821389,19.4483569 43.6275029,22.5059807 C45.1728669,25.5636046 44.8754424,29.2331727 42.857997,32 C46.5174967,34.5913841 48.0848522,39.2615155 46.7331542,43.5465147 C45.3814562,47.8315139 41.4215856,50.745862 36.9427005,50.752 Z"/>
    <polygon fill="#000" fill-rule="nonzero" points="304.63 24.16 304.63 22.8 310.689 22.8 310.689 24.16 308.472 24.16 308.472 30.208 306.846 30.208 306.846 24.16"/>
    <polygon fill="#000" fill-rule="nonzero" points="314.196 22.8 315.934 27.904 315.95 27.904 317.592 22.8 319.872 22.8 319.872 30.208 318.358 30.208 318.358 24.96 318.326 24.96 316.524 30.208 315.265 30.208 313.447 25.008 313.431 25.008 313.431 30.208 311.916 30.208 311.916 22.8"/>
  </g>
</svg>
