
<svg width="120px" height="42px" viewBox="0 0 120 42" version="1.1" xmlns="http://www.w3.org/2000/svg" xmlns:xlink="http://www.w3.org/1999/xlink">
    <g id="Page-1" stroke="none" stroke-width="1" fill="none" fill-rule="evenodd">
        <g id="button" fill-rule="nonzero">
            <rect id="Rectangle" fill="#E7BDB4" x="0" y="0" width="120" height="42" rx="21"></rect>
            <g id="BUTTON" transform="translate(25.000000, 11.000000)" fill="#640D00">
                <g transform="translate(1.142578, 4.027344)">
                    <path d="M0,12.9726562 L0,0.17578125 L4.48242188,0.17578125 C6.03515625,0.17578125 7.21289062,0.473144531 8.015625,1.06787109 C8.81835938,1.66259766 9.21972656,2.53417969 9.21972656,3.68261719 C9.21972656,4.30957031 9.05859375,4.86181641 8.73632812,5.33935547 C8.4140625,5.81689453 7.96582031,6.16699219 7.39160156,6.38964844 C8.04785156,6.55371094 8.56494141,6.88476562 8.94287109,7.3828125 C9.32080078,7.88085938 9.50976562,8.49023438 9.50976562,9.2109375 C9.50976562,10.4414062 9.1171875,11.3730469 8.33203125,12.0058594 C7.546875,12.6386719 6.42773438,12.9609375 4.97460938,12.9726562 L0,12.9726562 Z M2.63671875,7.40039062 L2.63671875,10.8544922 L4.89550781,10.8544922 C5.51660156,10.8544922 6.00146484,10.706543 6.35009766,10.4106445 C6.69873047,10.1147461 6.87304688,9.70605469 6.87304688,9.18457031 C6.87304688,8.01269531 6.26660156,7.41796875 5.05371094,7.40039062 L2.63671875,7.40039062 Z M2.63671875,5.53710938 L4.58789062,5.53710938 C5.91796875,5.51367188 6.58300781,4.98339844 6.58300781,3.94628906 C6.58300781,3.36621094 6.41455078,2.94873047 6.07763672,2.69384766 C5.74072266,2.43896484 5.20898438,2.31152344 4.48242188,2.31152344 L2.63671875,2.31152344 L2.63671875,5.53710938 Z" id="B"></path>
                    <path d="M21.1728516,0.17578125 L21.1728516,8.60449219 C21.1728516,10.0048828 20.7348633,11.1123047 19.8588867,11.9267578 C18.9829102,12.7412109 17.7861328,13.1484375 16.2685547,13.1484375 C14.7744141,13.1484375 13.5878906,12.7529297 12.7089844,11.9619141 C11.8300781,11.1708984 11.3818359,10.0839844 11.3642578,8.70117188 L11.3642578,0.17578125 L14.0009766,0.17578125 L14.0009766,8.62207031 C14.0009766,9.45996094 14.2016602,10.0708008 14.6030273,10.4545898 C15.0043945,10.8383789 15.5595703,11.0302734 16.2685547,11.0302734 C17.7509766,11.0302734 18.5039062,10.2509766 18.5273438,8.69238281 L18.5273438,0.17578125 L21.1728516,0.17578125 Z" id="U"></path>
                    <polygon id="T" points="32.9677734 2.31152344 29.0478516 2.31152344 29.0478516 12.9726562 26.4111328 12.9726562 26.4111328 2.31152344 22.5439453 2.31152344 22.5439453 0.17578125 32.9677734 0.17578125"></polygon>
                    <polygon id="T" points="44.2441406 2.31152344 40.3242188 2.31152344 40.3242188 12.9726562 37.6875 12.9726562 37.6875 2.31152344 33.8203125 2.31152344 33.8203125 0.17578125 44.2441406 0.17578125"></polygon>
                    <path d="M56.0126953,6.86425781 C56.0126953,8.12402344 55.7900391,9.22851562 55.3447266,10.1777344 C54.8994141,11.1269531 54.262207,11.859375 53.4331055,12.375 C52.6040039,12.890625 51.6533203,13.1484375 50.5810547,13.1484375 C49.5205078,13.1484375 48.5742188,12.8935547 47.7421875,12.3837891 C46.9101562,11.8740234 46.265625,11.1459961 45.8085938,10.199707 C45.3515625,9.25341797 45.1201172,8.16503906 45.1142578,6.93457031 L45.1142578,6.30175781 C45.1142578,5.04199219 45.3413086,3.93310547 45.7954102,2.97509766 C46.2495117,2.01708984 46.8911133,1.28173828 47.7202148,0.769042969 C48.5493164,0.256347656 49.4970703,0 50.5634766,0 C51.6298828,0 52.5776367,0.256347656 53.4067383,0.769042969 C54.2358398,1.28173828 54.8774414,2.01708984 55.331543,2.97509766 C55.7856445,3.93310547 56.0126953,5.0390625 56.0126953,6.29296875 L56.0126953,6.86425781 Z M53.3408203,6.28417969 C53.3408203,4.94238281 53.1005859,3.92285156 52.6201172,3.22558594 C52.1396484,2.52832031 51.4541016,2.1796875 50.5634766,2.1796875 C49.6787109,2.1796875 48.9960938,2.52392578 48.515625,3.21240234 C48.0351562,3.90087891 47.7919922,4.91015625 47.7861328,6.24023438 L47.7861328,6.86425781 C47.7861328,8.17089844 48.0263672,9.18457031 48.5068359,9.90527344 C48.9873047,10.6259766 49.6787109,10.9863281 50.5810547,10.9863281 C51.4658203,10.9863281 52.1455078,10.6391602 52.6201172,9.94482422 C53.0947266,9.25048828 53.3349609,8.23828125 53.3408203,6.90820312 L53.3408203,6.28417969 Z" id="O"></path>
                    <polygon id="N" points="68.3349609 12.9726562 65.6982422 12.9726562 60.5654297 4.55273438 60.5654297 12.9726562 57.9287109 12.9726562 57.9287109 0.17578125 60.5654297 0.17578125 65.7070312 8.61328125 65.7070312 0.17578125 68.3349609 0.17578125"></polygon>
                </g>
            </g>
        </g>
    </g>
</svg>
