
<svg width="161px" height="42px" viewBox="0 0 161 42" version="1.1" xmlns="http://www.w3.org/2000/svg" xmlns:xlink="http://www.w3.org/1999/xlink">
    <g id="Page-1" stroke="none" stroke-width="1" fill="none" fill-rule="evenodd">
        <g id="input" transform="translate(1.000000, 1.000000)">
            <rect id="Rectangle" stroke="#E7BDB4" stroke-width="2" x="0" y="0" width="159" height="40" rx="10"></rect>
            <g id="John-D" transform="translate(16.000000, 8.000000)" fill="#E7BDB4" fill-rule="nonzero">
                <g transform="translate(0.307617, 5.044922)">
                    <path d="M7.40039062,9.10546875 C7.40039062,10.1953125 7.23925781,11.0419922 6.91699219,11.6455078 C6.31933594,12.7470703 5.18261719,13.2978516 3.50683594,13.2978516 C2.54003906,13.2978516 1.71386719,13.0356445 1.02832031,12.5112305 C0.342773438,11.9868164 0,11.0537109 0,9.71191406 L0,8.7890625 L1.64355469,8.7890625 L1.64355469,9.71191406 C1.64355469,10.4150391 1.80029297,10.9438477 2.11376953,11.2983398 C2.42724609,11.652832 2.91503906,11.8300781 3.57714844,11.8300781 C4.50878906,11.8300781 5.11816406,11.5107422 5.40527344,10.8720703 C5.58105469,10.4794922 5.66894531,9.73828125 5.66894531,8.6484375 L5.66894531,0.0439453125 L7.40039062,0.0439453125 L7.40039062,9.10546875 Z" id="J"></path>
                    <path d="M13.5878906,11.9355469 C14.6367188,11.9355469 15.355957,11.5385742 15.7456055,10.7446289 C16.1352539,9.95068359 16.3300781,9.06738281 16.3300781,8.09472656 C16.3300781,7.21582031 16.1894531,6.50097656 15.9082031,5.95019531 C15.4628906,5.08300781 14.6953125,4.64941406 13.6054688,4.64941406 C12.6386719,4.64941406 11.9355469,5.01855469 11.4960938,5.75683594 C11.0566406,6.49511719 10.8369141,7.38574219 10.8369141,8.42871094 C10.8369141,9.43066406 11.0566406,10.265625 11.4960938,10.9335938 C11.9355469,11.6015625 12.6328125,11.9355469 13.5878906,11.9355469 Z M13.6494141,3.26953125 C14.8623047,3.26953125 15.8876953,3.67382812 16.7255859,4.48242188 C17.5634766,5.29101562 17.9824219,6.48046875 17.9824219,8.05078125 C17.9824219,9.56835938 17.6132812,10.8222656 16.875,11.8125 C16.1367188,12.8027344 14.9912109,13.2978516 13.4384766,13.2978516 C12.1435547,13.2978516 11.1152344,12.8598633 10.3535156,11.9838867 C9.59179688,11.1079102 9.2109375,9.93164062 9.2109375,8.45507812 C9.2109375,6.87304688 9.61230469,5.61328125 10.4150391,4.67578125 C11.2177734,3.73828125 12.2958984,3.26953125 13.6494141,3.26953125 Z" id="o"></path>
                    <path d="M19.8632812,0 L21.4453125,0 L21.4453125,4.81640625 C21.8203125,4.34179688 22.1572266,4.0078125 22.4560547,3.81445312 C22.9658203,3.48046875 23.6015625,3.31347656 24.3632812,3.31347656 C25.7285156,3.31347656 26.6542969,3.79101562 27.140625,4.74609375 C27.4042969,5.26757812 27.5361328,5.99121094 27.5361328,6.91699219 L27.5361328,12.9550781 L25.9101562,12.9550781 L25.9101562,7.02246094 C25.9101562,6.33105469 25.8222656,5.82421875 25.6464844,5.50195312 C25.359375,4.98632812 24.8203125,4.72851562 24.0292969,4.72851562 C23.3730469,4.72851562 22.7783203,4.95410156 22.2451172,5.40527344 C21.7119141,5.85644531 21.4453125,6.70898438 21.4453125,7.96289062 L21.4453125,12.9550781 L19.8632812,12.9550781 L19.8632812,0 Z" id="h"></path>
                    <path d="M29.8740234,3.54199219 L31.3769531,3.54199219 L31.3769531,4.87792969 C31.8222656,4.32714844 32.2939453,3.93164062 32.7919922,3.69140625 C33.2900391,3.45117188 33.84375,3.33105469 34.453125,3.33105469 C35.7890625,3.33105469 36.6914062,3.796875 37.1601562,4.72851562 C37.4179688,5.23828125 37.546875,5.96777344 37.546875,6.91699219 L37.546875,12.9550781 L35.9384766,12.9550781 L35.9384766,7.02246094 C35.9384766,6.44824219 35.8535156,5.98535156 35.6835938,5.63378906 C35.4023438,5.04785156 34.8925781,4.75488281 34.1542969,4.75488281 C33.7792969,4.75488281 33.4716797,4.79296875 33.2314453,4.86914062 C32.7978516,4.99804688 32.4169922,5.25585938 32.0888672,5.64257812 C31.8251953,5.953125 31.6538086,6.27392578 31.574707,6.60498047 C31.4956055,6.93603516 31.4560547,7.40917969 31.4560547,8.02441406 L31.4560547,12.9550781 L29.8740234,12.9550781 L29.8740234,3.54199219 Z" id="n"></path>
                    <path d="M50.0537109,11.4609375 C50.6455078,11.4609375 51.1318359,11.3994141 51.5126953,11.2763672 C52.1923828,11.0478516 52.7490234,10.6083984 53.1826172,9.95800781 C53.5283203,9.43652344 53.7773438,8.76855469 53.9296875,7.95410156 C54.0175781,7.46777344 54.0615234,7.01660156 54.0615234,6.60058594 C54.0615234,5.00097656 53.7436523,3.75878906 53.1079102,2.87402344 C52.472168,1.98925781 51.4482422,1.546875 50.0361328,1.546875 L46.9335938,1.546875 L46.9335938,11.4609375 L50.0537109,11.4609375 Z M45.1757812,0.0439453125 L50.4052734,0.0439453125 C52.1806641,0.0439453125 53.5576172,0.673828125 54.5361328,1.93359375 C55.4091797,3.0703125 55.8457031,4.52636719 55.8457031,6.30175781 C55.8457031,7.67285156 55.5878906,8.91210938 55.0722656,10.0195312 C54.1640625,11.9765625 52.6025391,12.9550781 50.3876953,12.9550781 L45.1757812,12.9550781 L45.1757812,0.0439453125 Z" id="D"></path>
                </g>
            </g>
            <rect id="Rectangle" fill="#E7BDB4" fill-rule="nonzero" opacity="0.926827567" x="80" y="9" width="2" height="22"></rect>
        </g>
    </g>
</svg>
