<?xml version="1.0" encoding="UTF-8"?>
<svg width="46px" height="46px" viewBox="0 0 46 46" version="1.1" xmlns="http://www.w3.org/2000/svg" xmlns:xlink="http://www.w3.org/1999/xlink">
    <!-- Generator: Sketch 52.1 (67048) - http://www.bohemiancoding.com/sketch -->
    <title>preloader</title>
    <desc>Created with Sketch.</desc>
    <g id="Home-Page" stroke="none" stroke-width="1" fill="none" fill-rule="evenodd" stroke-linecap="round">
        <g id="Artboard" transform="translate(-1158.000000, -2804.000000)" fill="#000000" stroke="#e7bdb4" stroke-width="4">
            <g id="Stunning-UI" transform="translate(360.000000, 2696.000000)">
                <g id="UI-White" transform="translate(39.000000, 110.000000)">
                    <g id="preloader" transform="translate(761.000000, 0.000000)">
                        <g id="l-link" opacity="0.27" transform="translate(20.603774, 0.000000)">
                            <path d="M0.396226415,0 L0.396226415,7.9245283" id="l"></path>
                        </g>
                        <g id="l-link" opacity="0.27" transform="translate(29.589871, 6.329455) rotate(30.000000) translate(-29.589871, -6.329455) translate(29.089871, 2.329455)">
                            <path d="M0.396226415,0 L0.396226415,7.9245283" id="l"></path>
                        </g>
                        <g id="l-link" opacity="0.27" transform="translate(35.776213, 12.589519) rotate(60.000000) translate(-35.776213, -12.589519) translate(35.276213, 8.589519)">
                            <path d="M0.395583639,0.00181684613 L0.395583639,7.92634515" id="l"></path>
                        </g>
                        <g id="l-link" opacity="0.27" transform="translate(38.000000, 21.103774) rotate(90.000000) translate(-38.000000, -21.103774) translate(37.500000, 17.103774)">
                            <path d="M0.396226415,0 L0.396226415,7.9245283" id="l"></path>
                        </g>
                        <g id="l-link" opacity="0.27" transform="translate(35.670545, 29.589871) rotate(120.000000) translate(-35.670545, -29.589871) translate(35.170545, 25.589871)">
                            <path d="M0.396226415,0 L0.396226415,7.9245283" id="l"></path>
                        </g>
                        <g id="l-link" opacity="0.27" transform="translate(29.410129, 35.774319) rotate(150.000000) translate(-29.410129, -35.774319) translate(28.910129, 31.774319)">
                            <path d="M0.396226415,0 L0.396226415,7.9245283" id="l"></path>
                        </g>
                        <g id="l-link" opacity="0.37" transform="translate(20.896226, 38.000000) rotate(180.000000) translate(-20.896226, -38.000000) translate(20.396226, 34.000000)">
                            <path d="M0.396226415,0 L0.396226415,7.9245283" id="l"></path>
                        </g>
                        <g id="l-link" opacity="0.46" transform="translate(12.410129, 35.670545) rotate(-150.000000) translate(-12.410129, -35.670545) translate(11.910129, 31.670545)">
                            <path d="M0.396226415,0 L0.396226415,7.9245283" id="l"></path>
                        </g>
                        <g id="l-link" opacity="0.56" transform="translate(6.225681, 29.410129) rotate(-120.000000) translate(-6.225681, -29.410129) translate(5.725681, 25.410129)">
                            <path d="M0.396226415,0 L0.396226415,7.9245283" id="l"></path>
                        </g>
                        <g id="l-link" opacity="0.66" transform="translate(4.000000, 20.896226) rotate(-90.000000) translate(-4.000000, -20.896226) translate(3.500000, 16.896226)">
                            <path d="M0.396226415,0 L0.396226415,7.9245283" id="l"></path>
                        </g>
                        <g id="l-link" opacity="0.75" transform="translate(6.330681, 12.411616) rotate(-60.000000) translate(-6.330681, -12.411616) translate(5.830681, 8.411616)">
                            <path d="M0.396900802,-0.00180535143 L0.396900802,7.92272295" id="l"></path>
                        </g>
                        <g id="l-link" opacity="0.85" transform="translate(12.481132, 6.244888) rotate(-30.000000) translate(-12.481132, -6.244888) translate(12.084906, 2.282624)">
                            <path d="M0.396226415,0 L0.396226415,7.9245283" id="l"></path>
                        </g>
                    </g>
                </g>
            </g>
        </g>
    </g>
</svg>
