<?xml version="1.0" encoding="UTF-8"?>
<svg width="237px" height="50px" viewBox="0 0 237 50" version="1.1" xmlns="http://www.w3.org/2000/svg" xmlns:xlink="http://www.w3.org/1999/xlink">
    <!-- Generator: Sketch 52.1 (67048) - http://www.bohemiancoding.com/sketch -->
    <title>cordova-logo-newbrand</title>
    <desc>Created with Sketch.</desc>
    <g id="Home-Page" stroke="none" stroke-width="1" fill="none" fill-rule="evenodd">
        <g id="Artboard" transform="translate(-586.000000, -1400.000000)" fill="#EE350F">
            <g id="Build-Apps-For-Any-P-2" transform="translate(360.000000, 1204.000000)">
                <g id="Logos" transform="translate(19.000000, 195.000000)">
                    <g id="cordova-logo-newbrand" transform="translate(207.000000, 1.000000)">
                        <path d="M47.5862069,50 L39.1133005,50 L39.7044335,42.8571429 L35.5418719,42.8571429 L34.9507389,50 L17.3891626,50 L16.7980296,42.8571429 L12.635468,42.8571429 L13.226601,50 L4.75369458,50 L0,19.0394089 L11.8965517,0 L40.4433498,0 L52.3399015,19.0394089 L47.5862069,50 Z M38.0541872,9.5320197 L30.4187192,9.5320197 L30.9359606,13.1034483 L21.4039409,13.1034483 L21.9211823,9.5320197 L14.2857143,9.5320197 L9.50738916,19.0394089 L11.8965517,38.0788177 L40.4433498,38.0788177 L42.8325123,19.0394089 L38.0541872,9.5320197 Z M33.8916256,31.773399 C33.226601,31.773399 32.7093596,29.8029557 32.7093596,27.3399015 C32.7093596,24.8768473 33.2512315,22.9064039 33.8916256,22.9064039 C34.5566502,22.9064039 35.0738916,24.8768473 35.0738916,27.3399015 C35.0738916,29.8029557 34.5566502,31.773399 33.8916256,31.773399 Z M18.8916256,32.1428571 C18.226601,32.1428571 17.7093596,30.1724138 17.7093596,27.7093596 C17.7093596,25.2463054 18.2512315,23.2758621 18.8916256,23.2758621 C19.5566502,23.2758621 20.0738916,25.2463054 20.0738916,27.7093596 C20.0738916,30.1724138 19.5320197,32.1428571 18.8916256,32.1428571 Z" id="Shape" fill-rule="nonzero"></path>
                        <g id="Group" transform="translate(61.330049, 6.896552)">
                            <g transform="translate(0.492611, 0.000000)">
                                <path d="M0.0738916256,4.85221675 L2.21674877,0.197044335 C2.24137931,0.147783251 2.26600985,0.123152709 2.33990148,0.123152709 L2.4137931,0.123152709 C2.48768473,0.123152709 2.51231527,0.147783251 2.53694581,0.197044335 L4.65517241,4.85221675 C4.7044335,4.95073892 4.63054187,5.02463054 4.5320197,5.02463054 L3.9408867,5.02463054 C3.84236453,5.02463054 3.79310345,4.97536946 3.74384236,4.87684729 L3.39901478,4.13793103 L1.33004926,4.13793103 L0.985221675,4.87684729 C0.960591133,4.95073892 0.886699507,5.02463054 0.78817734,5.02463054 L0.197044335,5.02463054 C0.0985221675,5.02463054 0.0492610837,4.92610837 0.0738916256,4.85221675 Z M3.07881773,3.37438424 L2.38916256,1.84729064 L2.36453202,1.84729064 L1.67487685,3.37438424 L3.07881773,3.37438424 Z" id="Shape" fill-rule="nonzero"></path>
                                <path d="M5.98522167,0.320197044 C5.98522167,0.246305419 6.03448276,0.197044335 6.10837438,0.197044335 L7.73399015,0.197044335 C8.59605911,0.197044335 9.28571429,0.886699507 9.28571429,1.72413793 C9.28571429,2.5862069 8.59605911,3.27586207 7.73399015,3.27586207 L6.89655172,3.27586207 L6.89655172,4.90147783 C6.89655172,4.97536946 6.8226601,5.02463054 6.77339901,5.02463054 L6.13300493,5.02463054 C6.0591133,5.02463054 6.00985222,4.95073892 6.00985222,4.90147783 L6.00985222,0.320197044 L5.98522167,0.320197044 Z M7.68472906,2.4137931 C8.07881773,2.4137931 8.39901478,2.09359606 8.39901478,1.69950739 C8.39901478,1.33004926 8.07881773,1.03448276 7.68472906,1.03448276 L6.89655172,1.03448276 L6.89655172,2.4137931 L7.68472906,2.4137931 Z" id="Shape" fill-rule="nonzero"></path>
                                <path d="M9.87684729,4.85221675 L12.0197044,0.197044335 C12.044335,0.147783251 12.0689655,0.123152709 12.1428571,0.123152709 L12.2167488,0.123152709 C12.2906404,0.123152709 12.3152709,0.147783251 12.3399015,0.197044335 L14.4581281,4.85221675 C14.5073892,4.95073892 14.4334975,5.02463054 14.3349754,5.02463054 L13.7438424,5.02463054 C13.6453202,5.02463054 13.5960591,4.97536946 13.546798,4.87684729 L13.2019704,4.13793103 L11.1330049,4.13793103 L10.7881773,4.87684729 C10.7635468,4.95073892 10.6896552,5.02463054 10.591133,5.02463054 L10,5.02463054 C9.87684729,5.02463054 9.82758621,4.92610837 9.87684729,4.85221675 Z M12.8571429,3.37438424 L12.1674877,1.84729064 L12.1428571,1.84729064 L11.453202,3.37438424 L12.8571429,3.37438424 Z" id="Shape" fill-rule="nonzero"></path>
                                <path d="M17.8817734,0.123152709 C18.5714286,0.123152709 19.08867,0.344827586 19.5566502,0.763546798 C19.6305419,0.812807882 19.6305419,0.911330049 19.5566502,0.960591133 L19.137931,1.40394089 C19.08867,1.45320197 19.0147783,1.45320197 18.9655172,1.40394089 C18.6699507,1.15763547 18.2758621,0.985221675 17.9064039,0.985221675 C17.0197044,0.985221675 16.3546798,1.72413793 16.3546798,2.5862069 C16.3546798,3.44827586 17.0197044,4.18719212 17.9064039,4.18719212 C18.3251232,4.18719212 18.6699507,4.03940887 18.9655172,3.79310345 C19.0147783,3.74384236 19.08867,3.74384236 19.137931,3.79310345 L19.5566502,4.2364532 C19.6059113,4.28571429 19.6059113,4.38423645 19.5566502,4.43349754 C19.08867,4.90147783 18.4975369,5.09852217 17.8817734,5.09852217 C16.5024631,5.09852217 15.3940887,3.99014778 15.3940887,2.61083744 C15.3940887,1.23152709 16.5024631,0.123152709 17.8817734,0.123152709 Z" id="Path"></path>
                                <path d="M21.1576355,0.320197044 C21.1576355,0.246305419 21.2315271,0.197044335 21.2807882,0.197044335 L21.9211823,0.197044335 C21.9950739,0.197044335 22.044335,0.270935961 22.044335,0.320197044 L22.044335,2.14285714 L24.2857143,2.14285714 L24.2857143,0.320197044 C24.2857143,0.246305419 24.3349754,0.197044335 24.408867,0.197044335 L25.0492611,0.197044335 C25.1231527,0.197044335 25.1724138,0.270935961 25.1724138,0.320197044 L25.1724138,4.90147783 C25.1724138,4.97536946 25.0985222,5.02463054 25.0492611,5.02463054 L24.408867,5.02463054 C24.3349754,5.02463054 24.2857143,4.95073892 24.2857143,4.90147783 L24.2857143,3.00492611 L22.044335,3.00492611 L22.044335,4.90147783 C22.044335,4.97536946 21.9950739,5.02463054 21.9211823,5.02463054 L21.2807882,5.02463054 C21.2068966,5.02463054 21.1576355,4.95073892 21.1576355,4.90147783 L21.1576355,0.320197044 Z" id="Path"></path>
                                <path d="M27.1674877,0.320197044 C27.1674877,0.246305419 27.2167488,0.197044335 27.2906404,0.197044335 L30.0985222,0.197044335 C30.1724138,0.197044335 30.2216749,0.270935961 30.2216749,0.320197044 L30.2216749,0.886699507 C30.2216749,0.960591133 30.1724138,1.00985222 30.0985222,1.00985222 L28.0541872,1.00985222 L28.0541872,2.14285714 L29.7536946,2.14285714 C29.8275862,2.14285714 29.8768473,2.21674877 29.8768473,2.26600985 L29.8768473,2.83251232 C29.8768473,2.90640394 29.8029557,2.95566502 29.7536946,2.95566502 L28.0541872,2.95566502 L28.0541872,4.18719212 L30.0985222,4.18719212 C30.1724138,4.18719212 30.2216749,4.26108374 30.2216749,4.31034483 L30.2216749,4.87684729 C30.2216749,4.95073892 30.1724138,5 30.0985222,5 L27.2906404,5 C27.2167488,5 27.1674877,4.92610837 27.1674877,4.87684729 L27.1674877,0.320197044 Z" id="Path"></path>
                            </g>
                            <g transform="translate(0.000000, 10.344828)">
                                <g transform="translate(166.502463, 0.246305)" id="Path">
                                    <path d="M2.8817734,0.147783251 L0.295566502,0.147783251 C0.172413793,0.147783251 0.0492610837,0.246305419 0.0492610837,0.39408867 L0.0492610837,0.886699507 C0.0492610837,1.00985222 0.147783251,1.13300493 0.295566502,1.13300493 L1.08374384,1.13300493 L1.08374384,4.33497537 C1.08374384,4.45812808 1.18226601,4.58128079 1.33004926,4.58128079 L1.87192118,4.58128079 C1.99507389,4.58128079 2.1182266,4.48275862 2.1182266,4.33497537 L2.1182266,1.13300493 L2.90640394,1.13300493 C3.02955665,1.13300493 3.15270936,1.03448276 3.15270936,0.886699507 L3.15270936,0.39408867 C3.12807882,0.270935961 3.00492611,0.147783251 2.8817734,0.147783251 Z"></path>
                                    <path d="M8.62068966,4.26108374 L7.93103448,0.295566502 C7.90640394,0.172413793 7.83251232,0.0985221675 7.70935961,0.0985221675 L7.61083744,0.0985221675 C7.51231527,0.0985221675 7.43842365,0.147783251 7.38916256,0.221674877 L6.18226601,2.80788177 L4.97536946,0.221674877 C4.92610837,0.147783251 4.85221675,0.0985221675 4.75369458,0.0985221675 L4.67980296,0.0985221675 C4.55665025,0.0985221675 4.45812808,0.172413793 4.45812808,0.295566502 L3.74384236,4.28571429 C3.74384236,4.35960591 3.74384236,4.43349754 3.79310345,4.48275862 C3.84236453,4.5320197 3.89162562,4.55665025 3.96551724,4.55665025 L4.50738916,4.55665025 C4.63054187,4.55665025 4.72906404,4.45812808 4.72906404,4.35960591 L5.02463054,2.48768473 L5.91133005,4.45812808 C5.96059113,4.5320197 6.03448276,4.58128079 6.13300493,4.58128079 L6.23152709,4.58128079 C6.33004926,4.58128079 6.42857143,4.5320197 6.45320197,4.43349754 L7.33990148,2.46305419 L7.63546798,4.33497537 C7.66009852,4.43349754 7.75862069,4.50738916 7.85714286,4.50738916 L8.39901478,4.50738916 C8.4729064,4.50738916 8.54679803,4.48275862 8.59605911,4.43349754 C8.62068966,4.408867 8.62068966,4.33497537 8.62068966,4.26108374 Z"></path>
                                </g>
                                <g>
                                    <path d="M18.0788177,16.9950739 C17.8817734,16.7980296 17.6108374,16.6995074 17.3399015,16.6995074 C17.0689655,16.6995074 16.8226601,16.7980296 16.6256158,16.9704433 C15.2463054,18.1034483 13.7192118,18.6699507 12.0935961,18.6699507 C8.39901478,18.6699507 5.51724138,15.6896552 5.51724138,11.8719212 C5.51724138,8.02955665 8.39901478,5 12.0689655,5 C13.6945813,5 15.3448276,5.64039409 16.6009852,6.72413793 C16.8226601,6.92118227 17.0689655,7.04433498 17.3399015,7.04433498 C17.6108374,7.04433498 17.8817734,6.92118227 18.0788177,6.69950739 L20,4.72906404 C20.2216749,4.50738916 20.3448276,4.21182266 20.320197,3.91625616 C20.320197,3.62068966 20.1724138,3.32512315 19.9507389,3.12807882 C17.5862069,1.00985222 15.1231527,0.0738916256 11.9704433,0.0738916256 C5.41871921,0.0738916256 0.0738916256,5.41871921 0.0738916256,11.9704433 C0.0738916256,15.1477833 1.30541872,18.1280788 3.54679803,20.3694581 C5.78817734,22.5862069 8.76847291,23.817734 11.9704433,23.817734 C15.0492611,23.817734 17.8325123,22.7093596 20,20.6157635 C20.2216749,20.3940887 20.3448276,20.0738916 20.3448276,19.7536946 C20.3448276,19.4827586 20.2216749,19.2364532 20.0246305,19.0640394 L18.0788177,16.9950739 Z" id="Path"></path>
                                    <path d="M34.6059113,0.0246305419 C31.4285714,0.0246305419 28.4482759,1.25615764 26.2068966,3.49753695 C23.9901478,5.73891626 22.7586207,8.71921182 22.7586207,11.9211823 C22.7586207,18.5714286 27.955665,23.7684729 34.6059113,23.7684729 C37.8078818,23.7684729 40.7881773,22.5369458 43.0049261,20.320197 C45.2463054,18.1034483 46.4778325,15.1231527 46.4778325,11.9211823 C46.4778325,5.36945813 41.1576355,0.0246305419 34.6059113,0.0246305419 Z M34.6059113,18.6699507 C30.8866995,18.6699507 27.8571429,15.6403941 27.8571429,11.9211823 C27.8571429,8.1773399 30.8866995,5.12315271 34.6059113,5.12315271 C38.2758621,5.12315271 41.3793103,8.25123153 41.3793103,11.9211823 C41.3793103,15.6403941 38.3497537,18.6699507 34.6059113,18.6699507 Z" id="Shape" fill-rule="nonzero"></path>
                                    <path d="M70.270936,7.63546798 C70.270936,3.62068966 66.9704433,0.344827586 62.8817734,0.344827586 L52.6108374,0.344827586 C52.0197044,0.344827586 51.5270936,0.837438424 51.5270936,1.42857143 L51.5270936,22.3399015 C51.5270936,22.9310345 52.0197044,23.4236453 52.6108374,23.4236453 L55.5172414,23.4236453 C56.1083744,23.4236453 56.6009852,22.9310345 56.6009852,22.3399015 L56.6009852,14.7783251 L60.2955665,14.7783251 L64.6059113,22.8817734 C64.729064,23.1527094 65.0492611,23.4482759 65.5418719,23.4482759 L68.8669951,23.4482759 C69.2857143,23.4482759 69.6305419,23.2512315 69.8275862,22.9310345 C70.0246305,22.5862069 70.0246305,22.1674877 69.8275862,21.7980296 L65.7635468,14.2364532 C68.5714286,12.955665 70.270936,10.4433498 70.270936,7.63546798 Z M65.1970443,7.70935961 C65.1970443,9.18719212 63.9901478,10.4433498 62.5615764,10.4433498 L56.6502463,10.4433498 L56.6502463,5.12315271 L62.5615764,5.12315271 C63.9901478,5.12315271 65.1970443,6.30541872 65.1970443,7.70935961 Z" id="Shape" fill-rule="nonzero"></path>
                                    <path d="M84.2610837,0.344827586 L76.773399,0.344827586 C76.2068966,0.344827586 75.7142857,0.837438424 75.7142857,1.42857143 L75.7142857,22.3399015 C75.7142857,22.9310345 76.2068966,23.4236453 76.773399,23.4236453 L84.2610837,23.4236453 C90.6403941,23.4236453 95.8374384,18.226601 95.8374384,11.8472906 C95.8374384,5.51724138 90.6403941,0.344827586 84.2610837,0.344827586 Z M90.4926108,11.8719212 C90.4926108,15.7881773 87.7093596,18.6206897 83.8669951,18.6206897 L80.7635468,18.6206897 L80.7635468,5.14778325 L83.8669951,5.14778325 C87.7093596,5.14778325 90.4926108,7.98029557 90.4926108,11.8719212 Z" id="Shape" fill-rule="nonzero"></path>
                                    <path d="M111.428571,0.0246305419 C108.251232,0.0246305419 105.270936,1.25615764 103.029557,3.49753695 C100.812808,5.73891626 99.5812808,8.71921182 99.5812808,11.9211823 C99.5812808,18.5714286 104.778325,23.7684729 111.428571,23.7684729 C114.630542,23.7684729 117.610837,22.5369458 119.827586,20.320197 C122.068966,18.1034483 123.300493,15.1231527 123.300493,11.9211823 C123.300493,5.36945813 117.980296,0.0246305419 111.428571,0.0246305419 Z M111.428571,18.6699507 C107.70936,18.6699507 104.679803,15.6403941 104.679803,11.9211823 C104.679803,8.1773399 107.70936,5.12315271 111.428571,5.12315271 C115.098522,5.12315271 118.20197,8.25123153 118.20197,11.9211823 C118.20197,15.6403941 115.172414,18.6699507 111.428571,18.6699507 Z" id="Shape" fill-rule="nonzero"></path>
                                    <path d="M146.403941,0.837438424 C146.206897,0.517241379 145.862069,0.344827586 145.46798,0.344827586 L142.241379,0.344827586 C141.724138,0.344827586 141.37931,0.665024631 141.256158,0.985221675 L135.517241,13.817734 L129.802956,1.00985222 C129.679803,0.689655172 129.310345,0.344827586 128.817734,0.344827586 L125.591133,0.344827586 C125.197044,0.344827586 124.852217,0.517241379 124.655172,0.837438424 C124.458128,1.13300493 124.433498,1.5270936 124.605911,1.87192118 L134.384236,23.1527094 C134.581281,23.546798 134.926108,23.7684729 135.369458,23.7684729 L135.689655,23.7684729 C136.108374,23.7684729 136.477833,23.546798 136.674877,23.1280788 L146.477833,1.87192118 C146.625616,1.5270936 146.600985,1.13300493 146.403941,0.837438424 Z" id="Path"></path>
                                    <path d="M165.763547,21.9458128 L156.034483,0.665024631 C155.960591,0.517241379 155.714286,0.0492610837 155.049261,0.0492610837 L154.729064,0.0492610837 C154.310345,0.0492610837 153.940887,0.270935961 153.743842,0.689655172 L143.916256,21.9211823 C143.743842,22.2660099 143.768473,22.6600985 143.965517,22.955665 C144.162562,23.2512315 144.507389,23.4482759 144.901478,23.4482759 L147.660099,23.4482759 C148.275862,23.4482759 148.793103,23.1034483 149.014778,22.5369458 L150.44335,19.408867 L159.261084,19.408867 L160.689655,22.5369458 C160.91133,22.9802956 161.256158,23.4482759 162.044335,23.4482759 L164.778325,23.4482759 C165.172414,23.4482759 165.517241,23.2758621 165.714286,22.955665 C165.91133,22.6600985 165.91133,22.2906404 165.763547,21.9458128 Z M157.241379,14.9261084 L152.413793,14.9261084 L154.802956,9.55665025 L157.241379,14.9261084 Z" id="Shape" fill-rule="nonzero"></path>
                                </g>
                            </g>
                        </g>
                    </g>
                </g>
            </g>
        </g>
    </g>
</svg>
