<?xml version="1.0" encoding="UTF-8"?>
<svg width="23px" height="50px" viewBox="0 0 23 50" version="1.1" xmlns="http://www.w3.org/2000/svg" xmlns:xlink="http://www.w3.org/1999/xlink">
    <!-- Generator: Sketch 52.1 (67048) - http://www.bohemiancoding.com/sketch -->
    <title>Gulp</title>
    <desc>Created with Sketch.</desc>
    <g id="Home-Page" stroke="none" stroke-width="1" fill="none" fill-rule="evenodd">
        <g id="Artboard" transform="translate(-795.000000, -2019.000000)" fill="#EE350F">
            <g id="Use-Anything-You-Lov-2" transform="translate(0.000000, 1735.000000)">
                <g id="Gulp" transform="translate(795.000000, 284.000000)">
                    <path d="M11.2331606,39.4739637 C8.30906736,39.4739637 6.0496114,39.034715 4.9630829,38.7729275 C4.22007772,38.5939119 3.6234456,38.4086788 3.17020725,38.2183938 L4.61930052,40.694171 L5.1861399,48.4297927 C5.1861399,49.2970207 7.94106218,50 11.3393782,50 C14.7376943,50 17.4926166,49.2970207 17.4926166,48.4297927 L17.9414508,40.6099741 L19.3125648,38.2111399 C18.8573834,38.4040155 18.2554404,38.5917098 17.5031088,38.7729275 C16.4165803,39.034715 14.1571244,39.4739637 11.2331606,39.4739637 Z M19.3595855,14.301943 C17.2134715,14.6016839 14.3651554,14.7668394 11.3393782,14.7668394 C8.31360104,14.7668394 5.46528497,14.6016839 3.31917098,14.301943 C2.25608808,14.1534974 1.41502591,13.9783679 0.819300518,13.7817358 C0.677202073,13.734715 0.436398964,13.6545337 0.204663212,13.5268135 L1.53432642,25.7642487 C1.59611399,25.5534974 1.66489637,25.3430052 1.74119171,25.1332902 C1.89727979,24.7034974 2.07784974,24.2832902 2.28277202,23.8727979 C2.48782383,23.4624352 2.71101036,23.0744819 2.95233161,22.7090674 C3.19352332,22.3437824 3.4503886,22.0073834 3.72253886,21.7 C3.99481865,21.3927461 4.27409326,21.1284974 4.56088083,20.9069948 C4.84753886,20.6857513 5.1369171,20.5126943 5.42901554,20.3880829 C5.72124352,20.2634715 6.01062176,20.2010363 6.29727979,20.2010363 C6.62746114,20.2010363 6.94689119,20.2913212 7.25544041,20.4718912 C7.5638601,20.6523316 7.85220207,20.9446891 8.12085492,21.3487047 C8.18251295,21.4389896 8.22163212,21.5303109 8.23782383,21.6226684 C8.25427461,21.7151554 8.2623057,21.8022021 8.2623057,21.8838083 C8.2623057,22.0772021 8.21606218,22.2299223 8.12357513,22.3415803 C8.03108808,22.4533679 7.92124352,22.5091969 7.79430052,22.5091969 C7.67797927,22.5091969 7.57007772,22.4479275 7.47033679,22.3255181 C7.37046632,22.2029793 7.25893782,22.0278497 7.13549223,21.8 C7.01930052,21.5936528 6.89145078,21.4444301 6.75181347,21.351943 C6.61204663,21.2595855 6.46062176,21.213342 6.29727979,21.213342 C6.04326425,21.213342 5.77202073,21.3186528 5.48354922,21.5292746 C5.19494819,21.7397668 4.90919689,22.0181347 4.62629534,22.3641192 C4.34313472,22.7102332 4.07189119,23.1055699 3.81243523,23.5505181 C3.55297927,23.9953368 3.32331606,24.4509067 3.12370466,24.917228 C2.92409326,25.3838083 2.76554404,25.8437824 2.64753886,26.2971503 C2.52953368,26.7505181 2.47059585,27.157772 2.47059585,27.5187824 C2.47059585,27.6392487 2.47888601,27.7629534 2.49507772,27.8895078 C2.5115285,28.0164508 2.54222798,28.1313472 2.5876943,28.2345855 C2.63290155,28.3378238 2.69468912,28.4225389 2.77266839,28.4889896 C2.8507772,28.555829 2.9496114,28.5889896 3.06930052,28.5889896 C3.20362694,28.5889896 3.35595855,28.5439119 3.52668394,28.4536269 C3.69715026,28.363601 3.87409326,28.2452073 4.05725389,28.0992228 C4.24054404,27.9529793 4.42474093,27.7875648 4.60984456,27.6025907 C4.79507772,27.4178756 4.96735751,27.2309585 5.12694301,27.0417098 C5.2865285,26.8527202 5.42810881,26.6709845 5.55142487,26.4970207 C5.67487047,26.3229275 5.76735751,26.1713731 5.82914508,26.0423575 L6.33536269,24.5272021 C6.39702073,24.3639896 6.47772021,24.2479275 6.57759067,24.1791451 C6.67733161,24.1103627 6.77992228,24.0759067 6.88523316,24.0759067 C6.93588083,24.0759067 6.98665803,24.0845855 7.03756477,24.1016839 C7.0884715,24.1189119 7.13367876,24.1458549 7.17370466,24.1822539 C7.21360104,24.2189119 7.24533679,24.2660622 7.26891192,24.3242228 C7.29248705,24.3821244 7.30427461,24.4498705 7.30427461,24.5272021 C7.30427461,24.7335492 7.2861399,24.9268135 7.24987047,25.107513 C7.21360104,25.2882124 7.16735751,25.4642487 7.11101036,25.6362694 C7.05479275,25.8080311 6.99209845,25.9810881 6.92318653,26.1551813 C6.85427461,26.3292746 6.78704663,26.5108808 6.72189119,26.7001295 C6.70738342,26.7216321 6.68108808,26.7891192 6.64287565,26.9029793 C6.60479275,27.0170984 6.55867876,27.1601036 6.50414508,27.3318653 C6.44974093,27.503886 6.39067358,27.696114 6.32720207,27.9089378 C6.26360104,28.1217617 6.1984456,28.3387306 6.13134715,28.5601036 C6.06411917,28.7814767 5.99974093,28.9985751 5.9380829,29.211399 C5.87629534,29.4240933 5.82085492,29.6164508 5.77202073,29.7884715 C5.72305699,29.9602332 5.68225389,30.1041451 5.64948187,30.2203368 C5.61683938,30.336399 5.59689119,30.4050518 5.58963731,30.4268135 C5.57150259,30.4953368 5.54235751,30.5717617 5.50259067,30.6554404 C5.4626943,30.7392487 5.41554404,30.8189119 5.36101036,30.8940415 C5.30660622,30.969171 5.24676166,31.0317358 5.18134715,31.0809585 C5.11606218,31.1303109 5.04896373,31.1551813 4.97992228,31.1551813 C4.8638601,31.1551813 4.77940415,31.1164508 4.72694301,31.0392487 C4.6742228,30.9617876 4.64805699,30.8199482 4.64805699,30.6137306 L4.64805699,30.5234456 C4.64805699,30.4932642 4.64974093,30.4608808 4.65336788,30.4268135 C4.65686528,30.3579016 4.68419689,30.228886 4.73510363,30.0396373 C4.78588083,29.8506477 4.84663212,29.6369171 4.91748705,29.3983161 C4.98821244,29.159715 5.06450777,28.9125648 5.14611399,28.6567358 C5.22759067,28.4010363 5.3011658,28.1722798 5.36658031,27.9702073 C5.17396373,28.1852332 4.96554404,28.3989637 4.74054404,28.6117876 C4.51541451,28.8244819 4.28497409,29.0158031 4.0492228,29.1854922 C3.81321244,29.3553109 3.57551813,29.4939119 3.3361399,29.6014249 C3.09663212,29.7088083 2.86619171,29.7626943 2.64481865,29.7626943 C2.39080311,29.7626943 2.17215026,29.7067358 1.98873057,29.5949482 C1.95569948,29.5746114 1.92448187,29.551943 1.89339378,29.5294041 L2.63329016,37.2869171 C2.82590674,37.7696891 6.45207254,38.955829 11.2331606,38.955829 C16.0164508,38.955829 19.6440415,37.7685233 19.8332902,37.2861399 L20.896114,28.0630829 C20.8081606,28.1437824 20.7225389,28.2226684 20.6406736,28.2990933 C20.3357513,28.5826425 20.048057,28.8265544 19.7777202,29.0306995 C19.507513,29.2348446 19.2433938,29.3930052 18.9857513,29.5045337 C18.7279793,29.6164508 18.4522021,29.6722798 18.1582902,29.6722798 C17.882513,29.6722798 17.669171,29.6120466 17.5186528,29.4917098 C17.3681347,29.3715026 17.2927461,29.2060881 17.2927461,28.9953368 L17.2927461,28.9470207 C17.2927461,28.9319948 17.2945596,28.913601 17.2983161,28.8920984 C17.3126943,28.763342 17.369171,28.6147668 17.4670984,28.4472798 C17.5650259,28.2795337 17.6829016,28.1055699 17.8207254,27.9251295 C17.9586788,27.7445596 18.1055699,27.5617876 18.261658,27.376943 C18.4177461,27.192228 18.5620466,27.0170984 18.6945596,26.8514249 C18.826943,26.6862694 18.936658,26.534715 19.0237047,26.3970207 C19.1110104,26.259456 19.1545337,26.1477979 19.1545337,26.0617876 C19.1545337,26.0102332 19.1362694,25.9694301 19.1001295,25.9391192 C19.0637306,25.9093264 19.0037565,25.8940415 18.9204663,25.8940415 C18.7752591,25.8940415 18.6255181,25.9317358 18.4715026,26.0068653 C18.3170984,26.0819948 18.1645078,26.1832902 18.0139896,26.3099741 C17.8634715,26.4367876 17.7164508,26.5819948 17.573057,26.7452073 C17.4299223,26.9085492 17.2955959,27.0783679 17.1703368,27.2544041 C17.0450777,27.430829 16.9309585,27.6081606 16.8274611,27.7865285 C16.7239637,27.9648964 16.6360104,28.1292746 16.563342,28.2795337 C16.5415803,28.326943 16.5107513,28.3936528 16.4707254,28.4794041 C16.430829,28.5654145 16.3873057,28.6623057 16.3401554,28.7696891 C16.2928756,28.8772021 16.2430052,28.9879534 16.1904145,29.1015544 C16.1378238,29.2156736 16.0897668,29.3231865 16.0462435,29.4240933 C16.0027202,29.5251295 15.9637306,29.6151554 15.9294041,29.6948187 C15.8946891,29.7742228 15.8702073,29.8291451 15.8556995,29.8593264 C15.8375648,29.8979275 15.8076425,29.9708549 15.7659326,30.0783679 C15.7242228,30.1858808 15.6760363,30.311658 15.6217617,30.4555699 C15.5673575,30.5994819 15.5101036,30.7510363 15.4501295,30.9102332 C15.390544,31.0690415 15.3340674,31.2196891 15.2814767,31.3615285 C15.2287565,31.5032383 15.182513,31.6279793 15.1427461,31.7354922 C15.1028497,31.8427461 15.0772021,31.9159326 15.0663212,31.9546632 C15.0301813,32.0664508 14.9874352,32.1715026 14.938601,32.2707254 C14.8895078,32.3694301 14.8334197,32.4564767 14.7698187,32.5318653 C14.7063472,32.6069948 14.6338083,32.6670984 14.5520725,32.7121762 C14.4703368,32.757513 14.3787565,32.7799223 14.2773316,32.7799223 C14.1465026,32.7799223 14.0387306,32.7485751 13.9532383,32.686399 C13.8681347,32.6240933 13.8253886,32.5046632 13.8253886,32.3286269 C13.8253886,32.2426166 13.8362694,32.1545337 13.8580311,32.0643782 C13.8797927,31.9740933 13.9071244,31.884715 13.9397668,31.7967617 C13.9724093,31.7084197 14.0060881,31.6226684 14.040544,31.5388601 C14.0748705,31.4549223 14.1067358,31.3744819 14.1356218,31.2970207 C14.3317358,30.867228 14.5313472,30.436399 14.734456,30.0042746 C14.9375648,29.5724093 15.1326425,29.1448187 15.3196891,28.7213731 C15.3585492,28.6330311 15.3943005,28.5465026 15.4322539,28.4586788 C15.4208549,28.4698187 15.409715,28.4814767 15.3985751,28.4923575 C15.1625648,28.7203368 14.9277202,28.921114 14.6936528,29.0952073 C14.459456,29.2693005 14.2272021,29.4079016 13.9970207,29.5111399 C13.7664508,29.6141192 13.5423575,29.6658031 13.3244819,29.6658031 C13.1757772,29.6658031 13.0515544,29.642228 12.9518135,29.5949482 C12.851943,29.5475389 12.7722798,29.4830311 12.7123057,29.4015544 C12.6523316,29.3199482 12.6095855,29.2231865 12.5841969,29.111399 C12.5756477,29.0731865 12.5703368,29.0332902 12.5647668,28.9935233 C12.5010363,29.0431347 12.4367876,29.0914508 12.3720207,29.1373057 C12.1470207,29.296114 11.9256477,29.4240933 11.7079016,29.5207254 C11.490285,29.617487 11.294171,29.6658031 11.1202073,29.6658031 C10.9458549,29.6658031 10.8044041,29.607772 10.6953368,29.4917098 C10.5865285,29.3757772 10.5322539,29.1779793 10.5322539,28.8987047 C10.5322539,28.7007772 10.5612694,28.4708549 10.619171,28.2088083 C10.5248705,28.3764249 10.4069948,28.5462435 10.265544,28.7180052 C10.1238342,28.8900259 9.96243523,29.0468912 9.78108808,29.1888601 C9.59935233,29.3305699 9.39624352,29.4455959 9.17137306,29.5336788 C8.94624352,29.6217617 8.70129534,29.6658031 8.4365285,29.6658031 C8.31670984,29.6658031 8.2015544,29.6507772 8.09080311,29.6207254 C7.98005181,29.590544 7.88303109,29.5389896 7.7996114,29.4659326 C7.71606218,29.3930052 7.64909326,29.2950777 7.59818653,29.1726684 C7.54740933,29.0502591 7.52202073,28.8963731 7.52202073,28.711658 C7.52202073,28.7073834 7.52927461,28.6418394 7.54378238,28.5148964 C7.55829016,28.3880829 7.60453368,28.1882124 7.68264249,27.915285 C7.76062176,27.642487 7.88134715,27.2888601 8.04443005,26.8546632 C8.20790155,26.4205959 8.43834197,25.8940415 8.73588083,25.2752591 C8.81204663,25.1117876 8.90012953,24.9946891 8.99974093,24.9238342 C9.09974093,24.8528497 9.20751295,24.8173575 9.32357513,24.8173575 C9.37448187,24.8173575 9.42707254,24.825 9.48147668,24.8398964 C9.5361399,24.8550518 9.58678756,24.8786269 9.63406736,24.9108808 C9.68108808,24.9431347 9.71930052,24.9840674 9.7484456,25.0334197 C9.77720207,25.082772 9.79196891,25.1396373 9.79196891,25.2041451 C9.79196891,25.2471503 9.78639896,25.2882124 9.77551813,25.3265544 C9.75725389,25.4 9.71826425,25.4953368 9.65867876,25.6134715 C9.59870466,25.7318653 9.52875648,25.867228 9.4488342,26.0198187 C9.36917098,26.1724093 9.28471503,26.3367876 9.19585492,26.5132124 C9.10686528,26.6892487 9.02435233,26.8718912 8.94818653,27.0611399 C8.87202073,27.2503886 8.80660622,27.4426166 8.75220207,27.6382124 C8.69779793,27.8338083 8.66683938,28.0240933 8.65971503,28.2088083 C8.65971503,28.2861399 8.67772021,28.3569948 8.71411917,28.4215026 C8.7503886,28.4860104 8.81036269,28.5181347 8.89378238,28.5181347 C9.12953368,28.5181347 9.35453368,28.4406736 9.56878238,28.2861399 C9.78277202,28.1313472 9.98044041,27.9389896 10.1620466,27.7090674 C10.3435233,27.4791451 10.5076425,27.2318653 10.6546632,26.967487 C10.8016839,26.7031088 10.9240933,26.4615285 11.0220207,26.242228 C11.0910622,26.0962435 11.1518135,25.9391192 11.2044041,25.7716321 C11.2569948,25.603886 11.3142487,25.4493523 11.3759067,25.3073834 C11.4376943,25.1654145 11.5082902,25.0472798 11.5882124,24.9527202 C11.6678756,24.8582902 11.7678756,24.8108808 11.8874352,24.8108808 C12.0182642,24.8108808 12.1215026,24.8603627 12.1979275,24.9591969 C12.2740933,25.0581606 12.3120466,25.1762953 12.3120466,25.3137306 C12.3120466,25.3910622 12.2876943,25.4976684 12.238601,25.6330311 C12.1895078,25.7683938 12.1278497,25.9231865 12.0534974,26.0972798 C11.9790155,26.2713731 11.8983161,26.4572539 11.811399,26.6547927 C11.7243523,26.8527202 11.6433938,27.0534974 11.5693005,27.257772 C11.4945596,27.4619171 11.4331606,27.6617876 11.3840674,27.8573834 C11.3349741,28.0528497 11.3106218,28.2345855 11.3106218,28.4020725 C11.3106218,28.5568653 11.3904145,28.6343264 11.55,28.6343264 C11.6625648,28.6343264 11.8022021,28.5955959 11.969171,28.5181347 C12.1361399,28.4406736 12.3112694,28.3322539 12.4944301,28.192487 C12.5401554,28.1576425 12.5862694,28.1212435 12.6319948,28.0830311 C12.6831606,27.8720207 12.7431347,27.676943 12.8129534,27.4996114 C12.9398964,27.1641192 13.0687824,26.8312176 13.1994819,26.5002591 C13.3300518,26.1693005 13.4497409,25.8661917 13.5588083,25.5910622 L15.2080311,21.432513 C15.2733161,21.2648964 15.361399,21.1466321 15.4718912,21.0778497 C15.582772,21.0091969 15.6943005,20.9747409 15.8068653,20.9747409 C15.919171,20.9747409 16.0216321,21.0112694 16.1142487,21.0843264 C16.2068653,21.157513 16.2532383,21.2756477 16.2532383,21.4389896 C16.2532383,21.5163212 16.2376943,21.598057 16.2068653,21.6839378 C16.1760363,21.7699482 16.1370466,21.8623057 16.0897668,21.9611399 C15.9992228,22.163342 15.8911917,22.4103627 15.7659326,22.7025907 C15.6406736,22.9949482 15.5063472,23.3130829 15.3630829,23.6568653 C15.2196891,24.0007772 15.0726684,24.3585492 14.9221503,24.7303109 C14.7716321,25.1022021 14.6246114,25.4642487 14.4812176,25.8167098 C14.3380829,26.1693005 14.2036269,26.5032383 14.0783679,26.8193005 C13.9532383,27.1352332 13.8454663,27.4093264 13.7545337,27.6413212 C13.7146373,27.7401554 13.6756477,27.8553109 13.6376943,27.986399 C13.5994819,28.1173575 13.5805699,28.2345855 13.5805699,28.3378238 C13.5805699,28.4020725 13.5914508,28.4536269 13.6132124,28.4923575 C13.6349741,28.5310881 13.6766839,28.5505181 13.738342,28.5505181 C13.8145078,28.5505181 13.909715,28.5237047 14.0240933,28.4698187 C14.138342,28.4161917 14.261658,28.3450777 14.394171,28.2569948 C14.5268135,28.1690415 14.6646373,28.0680052 14.807772,27.9540155 C14.9512953,27.8401554 15.0936528,27.7220207 15.2351036,27.5994819 C15.3768135,27.4768135 15.5119171,27.3544041 15.6406736,27.2318653 C15.7694301,27.109456 15.8848446,26.9966321 15.9865285,26.8933938 C16.0103627,26.8686528 16.0388601,26.8511658 16.0702073,26.8380829 C16.1314767,26.6550518 16.1874352,26.4757772 16.2367876,26.3003886 C16.2658031,26.2229275 16.305829,26.1134715 16.3566062,25.9715026 C16.4072539,25.8295337 16.4654145,25.6898964 16.5306995,25.5523316 C16.5959845,25.4148964 16.6696891,25.2954663 16.7510363,25.1945596 C16.832772,25.0936528 16.9208549,25.0430052 17.0151554,25.0430052 C17.1603627,25.0430052 17.2656736,25.0764249 17.3309585,25.1428756 C17.3962435,25.209715 17.428886,25.3073834 17.428886,25.436399 C17.428886,25.4621762 17.4252591,25.5029793 17.4180052,25.5588083 C17.4106218,25.6147668 17.4018135,25.6739637 17.3909326,25.7362694 C17.3800518,25.7984456 17.3681347,25.8576425 17.3554404,25.913601 C17.3426166,25.9694301 17.3309585,26.0102332 17.3200777,26.0360104 C17.4541451,25.8897668 17.5993523,25.7448187 17.7554404,25.6009067 C17.9115285,25.4568653 18.0729275,25.3265544 18.2398964,25.2107513 C18.4069948,25.0945596 18.5774611,25.0002591 18.7518135,24.9268135 C18.9257772,24.8540155 19.1001295,24.8173575 19.2742228,24.8173575 C19.3939119,24.8173575 19.5128238,24.8345855 19.6306995,24.8690415 C19.7485751,24.9033679 19.8540155,24.953886 19.9463731,25.0204663 C20.0389896,25.0873057 20.1143782,25.1709845 20.1722798,25.2720207 C20.2303109,25.3729275 20.2593264,25.4900259 20.2593264,25.6233161 C20.2593264,25.7997409 20.2150259,25.9876943 20.1260363,26.1875648 C20.0371762,26.3874352 19.9256477,26.588342 19.7913212,26.7901554 C19.6569948,26.9923575 19.5117876,27.1888601 19.3559585,27.3801813 C19.1998705,27.5715026 19.053886,27.7454663 18.9177461,27.9023316 C18.7816062,28.059456 18.667228,28.192487 18.5746114,28.3020725 C18.4823834,28.4119171 18.4339378,28.4860104 18.4304404,28.5247409 C18.4304404,28.5762953 18.4468912,28.6181347 18.4795337,28.6505181 C18.5121762,28.6826425 18.5665803,28.6988342 18.6427461,28.6988342 C18.7044041,28.6988342 18.7953368,28.6643782 18.9148964,28.5955959 C19.0345855,28.5268135 19.2025907,28.4076425 19.4183938,28.2378238 C19.6341969,28.0680052 19.9084197,27.8401554 20.2404145,27.5542746 C20.4681347,27.3584197 20.734715,27.1248705 21.0351036,26.8591969 L22.4747409,13.5264249 C22.2428756,13.6544041 22.0016839,13.734715 21.859456,13.7817358 C21.2638601,13.9783679 20.4227979,14.1534974 19.3595855,14.301943 Z M11.330829,11.138601 C5.10692979,11.138601 0.0613989637,11.8345053 0.0613989637,12.6930052 C0.0613989637,13.5515051 5.10692979,14.2474093 11.330829,14.2474093 C17.5547282,14.2474093 22.6002591,13.5515051 22.6002591,12.6930052 C22.6002591,11.8345053 17.5547282,11.138601 11.330829,11.138601 Z M15.8305699,13.1472798 C15.8305699,13.3487047 15.2309585,13.5120466 14.4911917,13.5120466 C13.7515544,13.5120466 13.151943,13.3487047 13.151943,13.1472798 C13.151943,12.9457254 13.7515544,12.7823834 14.4911917,12.7823834 C15.2309585,12.7823834 15.8305699,12.9457254 15.8305699,13.1472798 Z" id="Cup" fill-rule="nonzero"></path>
                    <path d="M13.4231548,12.9860095 C13.4165141,12.996597 13.4130829,13.0074079 13.4130829,13.0183938 C13.4130829,13.1488342 13.8958549,13.2544041 14.4911917,13.2544041 C15.086658,13.2544041 15.5693005,13.1488342 15.5693005,13.0183938 L16.9774611,7.30880829 L22.5775966,1.39627448 C22.5794251,1.3944706 22.5811938,1.39260383 22.5829016,1.39067358 C22.7014249,1.25660622 22.4608808,0.841709845 22.0617876,0.485880829 C21.6626943,0.130051813 21.2317358,0.00958549223 21.0977979,0.14507772 C21.0967968,0.14609104 21.0958203,0.147118674 21.0948683,0.148160507 L15.1198187,6.43549223 L13.4231548,12.9860095 Z" id="Straw"></path>
                </g>
            </g>
        </g>
    </g>
</svg>