<?xml version="1.0" encoding="UTF-8" standalone="no"?>
<!DOCTYPE svg PUBLIC "-//W3C//DTD SVG 1.1//EN" "http://www.w3.org/Graphics/SVG/1.1/DTD/svg11.dtd">
<svg width="100%" height="100%" viewBox="0 0 128 128" version="1.1" xmlns="http://www.w3.org/2000/svg" xmlns:xlink="http://www.w3.org/1999/xlink" xml:space="preserve" style="fill-rule:evenodd;clip-rule:evenodd;stroke-linejoin:round;stroke-miterlimit:1.41421;">
    <g transform="matrix(0.962406,0,0,0.962406,-155.91,-34.6466)">
        <g>
            <g transform="matrix(1,0,0,1,3.20687,-9.90765)">
                <path d="M225.293,164.908L246.293,143.908L246.293,119.908L225.293,98.908L232.293,91.908L256.293,115.908L256.293,147.908L225.293,178.908L194.293,147.908L194.293,133.908L204.293,133.908L204.293,143.908L225.293,164.908Z" style="fill:rgb(33,33,33);"/>
            </g>
            <g transform="matrix(-1,-1.22465e-16,1.22465e-16,-1,453.793,214.908)">
                <path d="M225.293,164.908L246.293,143.908L246.293,119.908L225.293,98.908L232.293,91.908L256.293,115.908L256.293,147.908L225.293,178.908L194.293,147.908L194.293,133.908L204.293,133.908L204.293,143.908L225.293,164.908Z" style="fill:rgb(33,33,33);"/>
            </g>
        </g>
        <g>
            <g transform="matrix(1,0,0,1,3.20687,-9.90765)">
                <path d="M185.293,138.908L185.293,124.908L172.793,112.408L185.293,99.908L185.293,85.908L158.793,112.408L185.293,138.908Z" style="fill:rgb(33,33,33);"/>
            </g>
            <g transform="matrix(-1,1.22465e-16,-1.22465e-16,-1,453.793,214.908)">
                <path d="M185.293,138.908L185.293,124.908L172.793,112.408L185.293,99.908L185.293,85.908L158.793,112.408L185.293,138.908Z" style="fill:rgb(33,33,33);"/>
            </g>
        </g>
    </g>
</svg>
