<svg width="224" height="224" viewBox="0 0 224 224" fill="none" xmlns="http://www.w3.org/2000/svg">
<rect width="224" height="224" rx="36" fill="#B53DF5"/>
<path d="M37.2395 64.0569L38.2132 64H184.367L37.2395 64.0569ZM184.367 64L185.341 64.0569L186.287 64.2228L184.367 64ZM37.2395 64.0569L184.367 64L186.287 64.2228L37.2395 64.0569ZM35.3829 64.4903L36.2931 64.2228L37.2395 64.0569L35.3829 64.4903ZM186.287 64.2228L187.198 64.4903L188.063 64.8522L186.287 64.2228ZM33.7068 65.3014L37.2395 64.0569L186.287 64.2228L33.7068 65.3014ZM33.7068 65.3014L35.3829 64.4903L37.2395 64.0569L33.7068 65.3014ZM33.7068 65.3014L34.5177 64.8522L35.3829 64.4903L33.7068 65.3014ZM186.287 64.2228L188.063 64.8522L189.621 65.8308L186.287 64.2228ZM188.063 64.8522L188.874 65.3014L189.621 65.8308L188.063 64.8522ZM32.2845 66.4333L32.9593 65.8308L33.7068 65.3014L32.2845 66.4333ZM33.7068 65.3014L186.287 64.2228L191.79 68.608L33.7068 65.3014ZM186.287 64.2228L189.621 65.8308L191.79 68.608L186.287 64.2228ZM189.621 65.8308L190.296 66.4333L190.889 67.1018L189.621 65.8308ZM31.1907 67.829L32.2845 66.4333L33.7068 65.3014L31.1907 67.829ZM31.1907 67.829L31.6918 67.1018L32.2845 66.4333L31.1907 67.829ZM189.621 65.8308L190.889 67.1018L191.79 68.608L189.621 65.8308ZM190.889 67.1018L191.39 67.829L191.79 68.608L190.889 67.1018ZM30.5018 69.4315L30.7908 68.608L31.1907 67.829L30.5018 69.4315ZM191.79 68.608L192.079 69.4315L192.247 70.2922L191.79 68.608ZM19.1272 164.285L31.1907 67.829L33.7068 65.3014L19.1272 164.285ZM19.1272 164.285L30.5018 69.4315L31.1907 67.829L19.1272 164.285ZM19.1272 164.285L30.3336 70.2922L30.5018 69.4315L19.1272 164.285ZM191.79 68.608L192.247 70.2922L203.512 165.403L191.79 68.608ZM33.7068 65.3014L191.79 68.608L26.4157 172.604L33.7068 65.3014ZM19.7537 168.461L19.1272 164.285L33.7068 65.3014L19.7537 168.461ZM192.247 70.2922L203.453 164.285L203.512 165.403L192.247 70.2922ZM191.79 68.608L203.512 165.403L202.339 169.347L191.79 68.608ZM26.4157 172.604L19.7537 168.461L33.7068 65.3014L26.4157 172.604ZM191.79 68.608L202.339 169.347L26.4157 172.604L191.79 68.608ZM19.159 166.479L19.0687 165.403L19.1272 164.285L19.159 166.479ZM19.7537 168.461L19.159 166.479L19.1272 164.285L19.7537 168.461ZM203.512 165.403L203.421 166.479L203.19 167.502L203.512 165.403ZM203.512 165.403L203.19 167.502L202.339 169.347L203.512 165.403ZM19.7537 168.461L19.39 167.502L19.159 166.479L19.7537 168.461ZM203.19 167.502L202.827 168.461L202.339 169.347L203.19 167.502ZM20.8456 170.149L20.2417 169.347L19.7537 168.461L20.8456 170.149ZM22.367 171.458L20.8456 170.149L19.7537 168.461L22.367 171.458ZM202.339 169.347L201.735 170.149L201.023 170.856L202.339 169.347ZM202.339 169.347L201.023 170.856L199.313 171.944L202.339 169.347ZM22.367 171.458L21.557 170.856L20.8456 170.149L22.367 171.458ZM26.4157 172.604L22.367 171.458L19.7537 168.461L26.4157 172.604ZM202.339 169.347L199.313 171.944L26.4157 172.604L202.339 169.347ZM201.023 170.856L200.213 171.458L199.313 171.944L201.023 170.856ZM24.2479 172.304L23.267 171.944L22.367 171.458L24.2479 172.304ZM26.4157 172.604L24.2479 172.304L22.367 171.458L26.4157 172.604ZM199.313 171.944L198.333 172.304L197.28 172.528L199.313 171.944ZM199.313 171.944L197.28 172.528L26.4157 172.604L199.313 171.944ZM26.4157 172.604L25.3005 172.528L24.2479 172.304L26.4157 172.604ZM197.28 172.528L196.165 172.604H26.4157L197.28 172.528Z" fill="#6F03A8"/>
<path d="M36.6282 51.0514L37.6159 51H185.471L36.6282 51.0514ZM185.471 51L186.459 51.0514L187.424 51.2012L185.471 51ZM36.6282 51.0514L185.471 51L187.424 51.2012L36.6282 51.0514ZM34.7293 51.443L35.663 51.2012L36.6282 51.0514L34.7293 51.443ZM187.424 51.2012L188.358 51.443L189.251 51.7702L187.424 51.2012ZM32.9938 52.1766L36.6282 51.0514L187.424 51.2012L32.9938 52.1766ZM32.9938 52.1766L34.7293 51.443L36.6282 51.0514L32.9938 52.1766ZM32.9938 52.1766L33.8364 51.7702L34.7293 51.443L32.9938 52.1766ZM187.424 51.2012L189.251 51.7702L190.876 52.6557L187.424 51.2012ZM189.251 51.7702L190.094 52.1766L190.876 52.6557L189.251 51.7702ZM31.4976 53.2014L32.2109 52.6557L32.9938 52.1766L31.4976 53.2014ZM32.9938 52.1766L187.424 51.2012L193.213 55.1745L32.9938 52.1766ZM187.424 51.2012L190.876 52.6557L193.213 55.1745L187.424 51.2012ZM190.876 52.6557L191.59 53.2014L192.224 53.8073L190.876 52.6557ZM30.3191 54.4671L31.4976 53.2014L32.9938 52.1766L30.3191 54.4671ZM30.3191 54.4671L30.8637 53.8073L31.4976 53.2014L30.3191 54.4671ZM190.876 52.6557L192.224 53.8073L193.213 55.1745L190.876 52.6557ZM192.224 53.8073L192.768 54.4671L193.213 55.1745L192.224 53.8073ZM29.539 55.923L29.8741 55.1745L30.3191 54.4671L29.539 55.923ZM193.213 55.1745L193.548 55.923L193.763 56.7062L193.213 55.1745ZM12.1365 147.587L30.3191 54.4671L32.9938 52.1766L12.1365 147.587ZM12.1365 147.587L29.539 55.923L30.3191 54.4671L12.1365 147.587ZM12.1365 147.587L29.3243 56.7062L29.539 55.923L12.1365 147.587ZM193.213 55.1745L193.763 56.7062L211.087 148.736L193.213 55.1745ZM32.9938 52.1766L193.213 55.1745L19.4925 156.177L32.9938 52.1766ZM12.5394 151.888L12.1365 147.587L32.9938 52.1766L12.5394 151.888ZM193.763 56.7062L210.951 147.587L211.087 148.736L193.763 56.7062ZM193.213 55.1745L211.087 148.736L210.078 152.803L193.213 55.1745ZM19.4925 156.177L12.5394 151.888L32.9938 52.1766L19.4925 156.177ZM193.213 55.1745L210.078 152.803L19.4925 156.177L193.213 55.1745ZM12.0268 149.843L12 148.736L12.1365 147.587L12.0268 149.843ZM12.5394 151.888L12.0268 149.843L12.1365 147.587L12.5394 151.888ZM211.087 148.736L211.061 149.843L210.878 150.897L211.087 148.736ZM211.087 148.736L210.878 150.897L210.078 152.803L211.087 148.736ZM12.5394 151.888L12.2092 150.897L12.0268 149.843L12.5394 151.888ZM210.878 150.897L210.548 151.888L210.078 152.803L210.878 150.897ZM13.611 153.632L13.0094 152.803L12.5394 151.888L13.611 153.632ZM15.1749 154.988L13.611 153.632L12.5394 151.888L15.1749 154.988ZM210.078 152.803L209.476 153.632L208.752 154.364L210.078 152.803ZM210.078 152.803L208.752 154.364L206.968 155.492L210.078 152.803ZM15.1749 154.988L14.3357 154.364L13.611 153.632L15.1749 154.988ZM19.4925 156.177L15.1749 154.988L12.5394 151.888L19.4925 156.177ZM210.078 152.803L206.968 155.492L19.4925 156.177L210.078 152.803ZM208.752 154.364L207.912 154.988L206.968 155.492L208.752 154.364ZM17.1602 155.865L16.1194 155.492L15.1749 154.988L17.1602 155.865ZM19.4925 156.177L17.1602 155.865L15.1749 154.988L19.4925 156.177ZM206.968 155.492L205.927 155.865L204.8 156.097L206.968 155.492ZM206.968 155.492L204.8 156.097L19.4925 156.177L206.968 155.492ZM19.4925 156.177L18.2878 156.097L17.1602 155.865L19.4925 156.177ZM204.8 156.097L203.595 156.177H19.4925L204.8 156.097Z" fill="white"/>
<path d="M129.234 112.041L111.633 85.6419V68L129.234 112.041ZM111.633 85.6419L69 126.482L111.633 68V85.6419ZM111.633 68L154.266 126.482L129.234 112.041L111.633 68ZM111.633 85.6419L94.0328 112.041L69 126.482L111.633 85.6419ZM154.266 126.482L94.0328 112.041H129.234L154.266 126.482ZM154.266 126.482H69L94.0328 112.041L154.266 126.482Z" fill="#6F03A8"/>
<path d="M107.696 75.3677L63 126.26L107.696 55V75.3677ZM127.854 103.708L107.696 75.3677V55L127.854 103.708ZM107.696 75.3677L88.5717 107.874L63 126.26L107.696 75.3677ZM107.696 55L158.474 118.267L127.854 103.708L107.696 55ZM158.474 118.267L63 126.26L88.5717 107.874L158.474 118.267ZM158.474 118.267L88.5717 107.874L127.854 103.708L158.474 118.267Z" fill="#B53DF5"/>
</svg>
