<svg xmlns="http://www.w3.org/2000/svg" xmlns:xlink="http://www.w3.org/1999/xlink" width="512" height="512" viewBox="0 0 512 512"><defs><path id="a" d="M128,0 L384,0 C454.692448,0 512,57.307552 512,128 L512,384 C512,454.692448 454.692448,512 384,512 L128,512 C57.307552,512 0,454.692448 0,384 L0,128 C0,57.307552 57.307552,0 128,0 Z"/></defs><g fill="none"><use xlink:href="#a" fill="#000" fill-rule="evenodd"/><path fill="#FFF" d="M224.545681,89 C232.413586,89 240.164838,89.5561198 247.800597,90.6683593 C233.571982,92.6380015 220.029502,96.3532663 207.172157,101.813729 C187.0578,110.356214 169.412057,122.242331 154.234929,137.472078 C139.0578,152.701826 127.224363,170.399817 118.734618,190.566052 C110.244873,210.732286 106,232.491378 106,255.843326 C106,279.195273 110.244873,301.00659 118.734618,321.277274 C127.224363,341.547958 139.0578,359.296931 154.234929,374.524191 C169.412057,389.751452 187.0578,401.637569 207.172157,410.182541 C220.029803,415.644721 233.572617,419.361114 247.800597,421.331719 C240.165514,422.443832 232.413929,423 224.545681,423 C201.077688,423 179.286513,418.727514 159.172157,410.182541 C139.0578,401.637569 121.412057,389.751452 106.234929,374.524191 C91.0577999,359.296931 79.224363,341.547958 70.7346178,321.277274 C62.2448726,301.00659 58,279.195273 58,255.843326 C58,232.491378 62.2448726,210.732286 70.7346178,190.566052 C79.224363,170.399817 91.0577999,152.701826 106.234929,137.472078 C121.412057,122.242331 139.0578,110.356214 159.172157,101.813729 C179.286513,93.2712429 201.077688,89 224.545681,89 Z"/><path fill="#FFF" d="M320.545681,423 C297.077688,423 275.286513,418.727514 255.172157,410.182541 C235.0578,401.637569 217.412057,389.751452 202.234929,374.524191 C187.0578,359.296931 175.224363,341.547958 166.734618,321.277274 C158.244873,301.00659 154,279.195273 154,255.843326 C154,232.491378 158.244873,210.732286 166.734618,190.566052 C175.224363,170.399817 187.0578,152.701826 202.234929,137.472078 C217.412057,122.242331 235.0578,110.356214 255.172157,101.813729 C275.286513,93.2712429 297.077688,89 320.545681,89 C339.225606,89 357.24798,92.1347317 374.612803,98.404195 C391.977626,104.673658 407.588564,113.733418 421.445618,125.583475 C435.302672,137.433531 446.154133,151.759292 454,168.560758 L397.139838,200.522337 C389.124922,186.580802 378.770665,175.514117 366.077067,167.322284 C353.383468,159.13045 337.239279,155.034534 317.6445,155.034534 C304.244873,155.034534 291.957738,157.56495 280.783095,162.625782 C269.608452,167.686614 259.885643,174.725771 251.614667,183.743254 C243.343692,192.760737 236.945929,203.41584 232.42138,215.708564 C227.89683,228.001288 225.634556,241.379542 225.634556,255.843326 C225.634556,270.411559 227.870727,283.86815 232.34307,296.213099 C236.815413,308.558047 243.133623,319.239263 251.2977,328.256746 C259.461778,337.274229 269.21069,344.313386 280.544438,349.374218 C291.878185,354.43505 304.244873,356.965466 317.6445,356.965466 C337.239279,356.965466 353.49161,352.814838 366.401492,344.513581 C379.311374,336.212324 389.557489,325.250089 397.139838,311.626876 L454,343.588456 C446.154133,360.176048 435.302672,374.423472 421.445618,386.330727 C407.588564,398.237982 391.977626,407.326342 374.612803,413.595805 C357.24798,419.865268 339.225606,423 320.545681,423 Z"/></g></svg>