<svg xmlns="http://www.w3.org/2000/svg" xmlns:xlink="http://www.w3.org/1999/xlink" width="512" height="512" viewBox="0 0 512 512"><defs><path id="a" d="M204.8,0 L307.2,0 C378.886721,0 414.730081,0 442.110784,13.9511649 C466.195532,26.2229569 485.777043,45.8044681 498.048835,69.889216 C512,97.2699188 512,133.113279 512,204.8 L512,307.2 C512,378.886721 512,414.730081 498.048835,442.110784 C485.777043,466.195532 466.195532,485.777043 442.110784,498.048835 C414.730081,512 378.886721,512 307.2,512 L204.8,512 C133.113279,512 97.2699188,512 69.889216,498.048835 C45.8044681,485.777043 26.2229569,466.195532 13.9511649,442.110784 C0,414.730081 0,378.886721 0,307.2 L0,204.8 C0,133.113279 0,97.2699188 13.9511649,69.889216 C26.2229569,45.8044681 45.8044681,26.2229569 69.889216,13.9511649 C97.2699188,0 133.113279,0 204.8,0 Z"/></defs><g fill="none"><mask id="b" fill="#fff"><use xlink:href="#a"/></mask><use xlink:href="#a" fill="#FFACFF" fill-rule="evenodd"/><path fill="#1C0F27" d="M284.459012,406.457017 C260.269942,406.457017 241.419127,400.979763 227.906566,390.025254 C214.394006,379.070745 204.601696,365.061613 198.529638,347.997859 C192.45758,330.934105 188.363816,312.922364 186.248347,293.962637 L189.203393,261.82985 C189.203393,278.682941 191.429594,292.590032 195.881996,303.551124 C200.334398,314.512216 206.94524,322.673786 215.714521,328.035834 C224.483803,333.397882 235.231379,336.078906 247.95725,336.078906 C268.662406,336.078906 285.025892,328.26131 297.047708,312.626118 C309.069524,296.990927 315.080432,274.47296 315.080432,245.072216 C315.080432,215.500309 309.069524,192.93955 297.047708,177.389941 C285.025892,161.840332 268.662406,154.065527 247.95725,154.065527 C235.231379,154.065527 224.483803,156.746551 215.714521,162.108599 C206.94524,167.470646 200.334398,175.632216 195.881996,186.593308 C191.429594,197.554401 189.203393,211.461492 189.203393,228.314583 L186.248347,196.181795 C188.363816,177.222068 192.769942,159.104996 199.466725,141.830578 C206.163508,124.55616 216.578889,110.547029 230.712869,99.8031833 C244.846848,89.0593381 264.011679,83.6874154 288.20736,83.6874154 C312.270824,83.6874154 333.235456,90.0139077 351.101256,102.666892 C368.967056,115.319877 382.833297,133.609759 392.699978,157.536539 C402.566659,181.46332 407.5,210.641879 407.5,245.072216 C407.5,279.081227 402.505509,308.1561 392.516527,332.296835 C382.527545,356.437571 368.348942,374.832785 349.980718,387.482478 C331.612494,400.132171 309.771926,406.457017 284.459012,406.457017 Z M189.203393,517.687415 L104.5,517.687415 L104.5,83.6874154 L189.203393,83.6874154 L189.203393,185.885358 L189.203393,305.941407 L189.203393,517.687415 Z" mask="url(#b)"/></g></svg>