<svg xmlns="http://www.w3.org/2000/svg" width="512" height="512" viewBox="0 0 512 512"><defs><linearGradient id="a" x1="50%" x2="50%" y1="0%" y2="100%"><stop offset="0%" stop-color="#C27FFF"/><stop offset="100%" stop-color="#7838B3"/></linearGradient><linearGradient id="b" x1="50%" x2="50%" y1="0%" y2="100%"><stop offset="0%" stop-color="#D2A1FF"/><stop offset="100%" stop-color="#7D3CB8"/></linearGradient></defs><g fill="none" fill-rule="evenodd"><path fill="url(#a)" stroke="url(#b)" stroke-width="12" d="M256,6 C325.035594,6 387.535594,33.9822031 432.776695,79.2233047 C478.017797,124.464406 506,186.964406 506,256 C506,325.035594 478.017797,387.535594 432.776695,432.776695 C387.535594,478.017797 325.035594,506 256,506 C186.964406,506 124.464406,478.017797 79.2233047,432.776695 C33.9822031,387.535594 6,325.035594 6,256 C6,186.964406 33.9822031,124.464406 79.2233047,79.2233047 C124.464406,33.9822031 186.964406,6 256,6 Z"/><path fill="#301449" d="M312.18291,128 L191.224452,128 C185.498459,128 180.533064,132.071242 179.25765,137.811858 L176.351069,150.894334 L128.30449,368.582101 C128.10213,369.498945 128,370.436169 128,371.376335 C128,378.348192 133.495787,384 140.275183,384 L161.408292,384 C166.430819,384 171.430024,383.297681 176.268527,381.912343 C180.803563,380.613893 184.366503,377.001514 185.693436,372.356658 L187.819869,364.913189 L228.09186,188.847041 C229.396249,183.144349 234.344302,179.113895 240.040916,179.113895 L298.383012,179.113895 C305.358146,179.113895 336.576171,188.965615 330.840704,224.19407 C327.017059,247.679707 311.779423,261.122184 285.127798,264.521502 C263.868879,264.877611 247.421548,269.706457 235.785804,279.008039 C228.504348,284.828816 223.908107,291.760841 221.997474,299.804215 C221.764359,300.784794 221.646456,301.790588 221.646291,302.800047 C221.645155,309.771905 227.14002,315.42466 233.919416,315.425829 L281.593207,315.425829 C337.1824,315.425829 375.911668,275.639115 382.663733,225.256607 C394.000077,139.983776 329.985662,128 312.18291,128 Z"/></g></svg>