<svg xmlns="http://www.w3.org/2000/svg" xmlns:xlink="http://www.w3.org/1999/xlink" width="512" height="512" viewBox="0 0 512 512"><defs><linearGradient id="b" x1="50%" x2="50%" y1="0%" y2="100%"><stop offset="0%" stop-color="#3A3A3A"/><stop offset="50.168%" stop-color="#1A1A1A"/><stop offset="100%" stop-color="#1A1A1A"/></linearGradient><linearGradient id="c" x1="50%" x2="50%" y1="0%" y2="100%"><stop offset="0%" stop-color="#64FFA7"/><stop offset="100%" stop-color="#00E84D"/></linearGradient><linearGradient id="d" x1="50%" x2="50%" y1="0%" y2="99.861%"><stop offset="0%" stop-color="#00471F"/><stop offset="100%" stop-color="#000A03"/></linearGradient><path id="a" d="M164.088653,-7.25467311e-15 L347.911347,0 C404.968547,0 425.658866,5.94083911 446.518125,17.096493 C467.377384,28.252147 483.747853,44.6226157 494.903507,65.481875 C506.059161,86.3411342 512,107.031453 512,164.088653 L512,347.911347 C512,404.968547 506.059161,425.658866 494.903507,446.518125 C483.747853,467.377384 467.377384,483.747853 446.518125,494.903507 C425.658866,506.059161 404.968547,512 347.911347,512 L164.088653,512 C107.031453,512 86.3411342,506.059161 65.481875,494.903507 C44.6226157,483.747853 28.252147,467.377384 17.096493,446.518125 C5.94083911,425.658866 0,404.968547 0,347.911347 L0,164.088653 C0,107.031453 5.94083911,86.3411342 17.096493,65.481875 C28.252147,44.6226157 44.6226157,28.252147 65.481875,17.096493 C86.3411342,5.94083911 107.031453,4.215174e-15 164.088653,-7.25467311e-15 Z"/></defs><g fill="none" fill-rule="evenodd"><use xlink:href="#a" fill="url(#b)"/><use xlink:href="#a" fill="url(#c)"/><path fill="url(#d)" d="M102.470588,147 C113.776182,147 122.941176,156.164995 122.941176,167.470588 L122.941176,344.882353 C122.941176,356.187947 113.776182,365.352941 102.470588,365.352941 C91.1649945,365.352941 82,356.187947 82,344.882353 L82,167.470588 C82,156.164995 91.1649945,147 102.470588,147 Z M228.705882,147 C240.011476,147 249.176471,156.164995 249.176471,167.470588 L249.176471,344.882353 C249.176471,356.187947 240.011476,365.352941 228.705882,365.352941 C217.400289,365.352941 208.235294,356.187947 208.235294,344.882353 L208.235294,167.470588 C208.235294,156.164995 217.400289,147 228.705882,147 Z M399.294118,303.941176 C416.252508,303.941176 430,317.688668 430,334.647059 C430,351.605449 416.252508,365.352941 399.294118,365.352941 C382.335727,365.352941 368.588235,351.605449 368.588235,334.647059 C368.588235,317.688668 382.335727,303.941176 399.294118,303.941176 Z M346.411765,147 C392.576272,147 430,184.423728 430,230.588235 L430,261.294118 C430,272.599711 420.835005,281.764706 409.529412,281.764706 C398.223818,281.764706 389.058824,272.599711 389.058824,261.294118 L389.058824,230.588235 C389.058824,207.034915 369.965085,187.941176 346.411765,187.941176 C322.858444,187.941176 303.764706,207.034915 303.764706,230.588235 L303.764706,281.764706 C303.764706,292.685682 307.980638,302.633851 314.731771,310.178495 C321.347882,317.572246 326.918219,318.377294 332.970599,322.247586 L333.341769,322.488455 C342.827856,328.735914 345.453283,341.490473 339.205824,350.97656 C334.070398,358.774147 324.32671,362.134038 315.476603,359.159048 C312.928701,358.302493 310.701023,357.392795 308.793591,356.42989 C299.274823,351.624651 290.800124,345.052704 283.80042,337.144972 C270.747324,322.39858 262.823529,303.006994 262.823529,281.764706 L262.823529,230.588235 C262.823529,184.423728 300.247257,147 346.411765,147 Z M165.588235,227.176471 C181.604493,227.176471 194.588235,240.160213 194.588235,256.176471 C194.588235,272.192728 181.604493,285.176471 165.588235,285.176471 C149.571978,285.176471 136.588235,272.192728 136.588235,256.176471 C136.588235,240.160213 149.571978,227.176471 165.588235,227.176471 Z"/></g></svg>