<svg width="300" height="300" viewBox="0 0 300 300" fill="none" xmlns="http://www.w3.org/2000/svg">
<circle cx="150" cy="150" r="150" fill="#6332F6"/>
<path d="M190.2 200.9C190.2 195.5 189.15 190.85 187.05 186.95C184.95 183.05 182.1 179.55 178.5 176.45C174.9 173.35 170.6 170.55 165.6 168.05C160.6 165.55 155.2 162.9 149.4 160.1C142.6 156.9 135.75 153.5 128.85 149.9C121.95 146.3 115.75 142.1 110.25 137.3C104.75 132.5 100.3 126.95 96.9 120.65C93.5 114.35 91.8 107 91.8 98.6C91.8 91.6 93.1 84.65 95.7 77.75C98.3 70.85 102.1 64.7 107.1 59.3C112.1 53.9 118.35 49.5 125.85 46.1C133.35 42.7 142.1 41 152.1 41C159.5 41 166.35 41.95 172.65 43.85C178.95 45.75 184.6 48.2 189.6 51.2C194.6 54.2 199 57.5 202.8 61.1C206.6 64.7 209.7 68.2 212.1 71.6L193.2 86.9C191.4 84.3 189.15 81.7 186.45 79.1C183.75 76.5 180.65 74.15 177.15 72.05C173.65 69.95 169.8 68.25 165.6 66.95C161.4 65.65 156.9 65 152.1 65C146.3 65 141.25 65.9 136.95 67.7C132.65 69.5 129 71.9 126 74.9C123 77.9 120.75 81.35 119.25 85.25C117.75 89.15 117 93.1 117 97.1C117 102.1 118.1 106.45 120.3 110.15C122.5 113.85 125.6 117.3 129.6 120.5C133.6 123.7 138.5 126.8 144.3 129.8C150.1 132.8 156.6 135.9 163.8 139.1C171.8 142.7 179.05 146.45 185.55 150.35C192.05 154.25 197.55 158.5 202.05 163.1C206.55 167.7 210 172.9 212.4 178.7C214.8 184.5 216 191.3 216 199.1C216 208.3 214.35 216.55 211.05 223.85C207.75 231.15 203.2 237.35 197.4 242.45C191.6 247.55 184.75 251.45 176.85 254.15C168.95 256.85 160.5 258.2 151.5 258.2C142.5 258.2 134.4 256.95 127.2 254.45C120 251.95 113.6 248.65 108 244.55C102.4 240.45 97.6 235.75 93.6 230.45C89.6 225.15 86.4 219.8 84 214.4L105 201.8C106.8 206 109.15 210.05 112.05 213.95C114.95 217.85 118.3 221.3 122.1 224.3C125.9 227.3 130.25 229.7 135.15 231.5C140.05 233.3 145.4 234.2 151.2 234.2C156.2 234.2 161.05 233.5 165.75 232.1C170.45 230.7 174.6 228.6 178.2 225.8C181.8 223 184.7 219.55 186.9 215.45C189.1 211.35 190.2 206.5 190.2 200.9Z" fill="white"/>
</svg>
