<svg width="257" height="257" viewBox="0 0 257 257" xmlns="http://www.w3.org/2000/svg"><g transform="translate(.335 .836)" fill="none"><path d="M128,0 C198.692448,0 256,57.307552 256,128 C256,198.692448 198.692448,256 128,256 C57.307552,256 0,198.692448 0,128 C0,57.307552 57.307552,0 128,0 Z" fill="#0080FF"/><path d="M187.70836,31.1294586 L185.99568,31.5845432 L185.99568,31.5845432 L181.892542,32.7010295 L181.892542,32.7010295 L177.893183,33.8279688 L177.893183,33.8279688 L175.284619,34.5849699 L172.722207,35.3464685 L170.205961,36.1124051 L168.965154,36.4970191 L165.91365,37.4632947 L165.91365,37.4632947 L162.934331,38.4362497 L160.602863,39.2193451 L157.753533,40.2040311 L157.753533,40.2040311 L154.97645,41.1950721 L152.806819,41.9924025 L151.739352,42.3925465 L151.739352,42.3925465 L149.639123,43.1957551 L147.585177,44.0028084 C146.23131,44.5421122 144.908306,45.0839396 143.616182,45.6282113 L141.701156,46.4464423 C140.755225,46.8564646 139.826668,47.2678396 138.915491,47.6805339 L137.116313,48.5076718 L135.363495,49.3382685 L133.657049,50.1722648 C131.412707,51.2864998 129.292054,52.409642 127.295217,53.5410583 L125.820806,54.3911622 C124.853345,54.9589191 123.916845,55.528705 123.011323,56.1004408 L121.676275,56.959497 C114.242678,61.835657 109.047764,66.8498358 106.101196,71.9534407 C100.53457,81.5951209 103.272619,92.7535852 115.534193,105.788197 L116.563464,106.863767 C116.913719,107.223704 117.271148,107.585056 117.635776,107.947832 L118.751279,109.040434 C119.130329,109.406062 119.516602,109.773122 119.910124,110.141619 L121.112462,111.25143 C121.724529,111.8085 122.352962,112.368822 122.997846,112.93242 L124.309572,114.063993 L124.981933,114.63307 L124.981933,114.63307 L126.359743,115.777833 L127.065231,116.353529 L127.065231,116.353529 L128.509464,117.511582 L129.998167,118.678549 L131.531491,119.854476 L133.109585,121.039406 C164.853255,144.629989 176.003984,167.776138 163.507065,189.421437 C158.125813,198.742038 148.362904,207.307163 134.194897,215.239284 L132.362284,216.248466 C130.505737,217.254228 128.577384,218.249759 126.577176,219.235313 L124.553015,220.217552 C120.798135,222.012261 116.801689,223.773723 112.563376,225.50351 L110.22758,226.443898 L109.041688,226.911753 L109.041688,226.911753 L106.633912,227.842823 C106.228616,227.997488 105.82132,228.151897 105.412024,228.306052 L102.932242,229.227931 L100.404444,230.143754 L97.8286171,231.053577 L95.204752,231.957457 C94.3221227,232.257766 93.4314851,232.557094 92.5328375,232.85545 L89.8128626,233.747614 L87.6933348,234.428221 L87.6933348,234.428221 C100.219411,239.178715 113.806184,241.777778 128,241.777778 C190.837732,241.777778 241.777778,190.837732 241.777778,128 C241.777778,87.0608079 220.155727,51.1717163 187.70836,31.1294586 Z" fill="#001749"/><path d="M128,14.2222222 C65.1622685,14.2222222 14.2222222,65.1622685 14.2222222,128 C14.2222222,169.181449 36.1009259,205.252853 68.8687948,225.224674 L69.9070143,224.928574 L69.9070143,224.928574 L72.6916994,224.126041 L75.4298686,223.319423 L78.1215111,222.508776 L81.4206195,221.489887 L81.4206195,221.489887 L84.6469918,220.464901 L88.422597,219.227027 L88.422597,219.227027 L90.8814433,218.397083 L93.2936978,217.563449 L95.6593497,216.726183 L97.9783882,215.88534 L99.120424,215.463596 L99.120424,215.463596 L101.369522,214.617495 L103.57198,213.76796 L105.727786,212.915046 L107.83693,212.058811 L108.874,211.629466 L108.874,211.629466 L110.91313,210.768355 L111.915188,210.336604 L111.915188,210.336604 L113.88428,209.470744 C114.20857,209.326175 114.530914,209.181477 114.851312,209.03665 L116.750342,208.16617 L117.682337,207.729797 L117.682337,207.729797 L119.51128,206.854823 L121.293485,205.976923 C122.759179,205.244137 124.176176,204.508363 125.544448,203.769749 L127.162985,202.882058 L128.734734,201.991696 C131.057263,200.654179 133.22185,199.307841 135.228331,197.953542 L136.542559,197.049506 C143.426835,192.221791 148.311868,187.295846 151.190259,182.310326 C156.991952,172.261498 154.382385,160.879924 142.173225,147.754638 L141.148091,146.671913 L140.619266,146.127589 L140.619266,146.127589 L139.529008,145.032989 C138.602313,144.117504 137.630201,143.193707 136.612291,142.261465 L135.05103,140.856753 L135.05103,140.856753 L133.420784,139.439276 C132.754851,138.869718 132.072293,138.297073 131.373028,137.721312 L129.952196,136.565627 C129.471144,136.179008 128.982642,135.790996 128.486665,135.401582 L126.976288,134.229126 L125.420918,133.048208 L124.626315,132.45456 C92.8830777,108.864299 81.5580546,86.0189645 93.7843905,64.8423296 C98.5941453,56.51159 107.043828,48.8726351 119.152986,41.8271683 L120.866388,40.8479217 C125.78833,38.084247 131.282392,35.4126203 137.349782,32.8269675 L139.515022,31.9179441 L140.6155,31.4660912 L140.6155,31.4660912 L142.85218,30.5676661 L145.136502,29.6762324 L148.058918,28.5716813 L148.058918,28.5716813 L151.055816,27.4778456 L152.275435,27.0432857 L152.275435,27.0432857 L154.75044,26.1792239 L157.273147,25.3218567 C158.122,25.0371768 158.978806,24.7536027 159.843566,24.4711247 L162.461709,23.6269687 L163.78868,23.2073382 L163.78868,23.2073382 L166.478432,22.3729348 L168.672372,21.7073461 C156.042446,16.8716284 142.330624,14.2222222 128,14.2222222 Z" fill="#001749"/></g></svg>