<svg width="43" height="42" viewBox="0 0 43 42" xmlns="http://www.w3.org/2000/svg"><g transform="translate(.49)" fill="none" fill-rule="evenodd"><path d="M8,2 L34,2 C37.3137085,2 40,4.6862915 40,8 L40,34 C40,37.3137085 37.3137085,40 34,40 L8,40 C4.6862915,40 2,37.3137085 2,34 L2,8 C2,4.6862915 4.6862915,2 8,2 Z" fill="#036"/><path d="M1.14359354,23.3923048 L13.1435935,2.60769515 C14.248163,0.694524661 16.6945247,0.0390240398 18.6076952,1.14359354 L39.3923048,13.1435935 C41.3054753,14.248163 41.960976,16.6945247 40.8564065,18.6076952 L28.8564065,39.3923048 C27.751837,41.3054753 25.3054753,41.960976 23.3923048,40.8564065 L2.60769515,28.8564065 C0.694524661,27.751837 0.0390240398,25.3054753 1.14359354,23.3923048 Z" fill="#004D99"/><path d="M6.33974596,15.6076952 L23.660254,5.60769515 C24.6168393,5.0554104 25.8400201,5.38316072 26.3923048,6.33974596 L36.3923048,23.660254 C36.9445896,24.6168393 36.6168393,25.8400201 35.660254,26.3923048 L18.339746,36.3923048 C17.3831607,36.9445896 16.1599799,36.6168393 15.6076952,35.660254 L5.60769515,18.339746 C5.0554104,17.3831607 5.38316072,16.1599799 6.33974596,15.6076952 Z" fill="#0067CC"/><path d="M13,12 L29,12 C29.5522847,12 30,12.4477153 30,13 L30,29 C30,29.5522847 29.5522847,30 29,30 L13,30 C12.4477153,30 12,29.5522847 12,29 L12,13 C12,12.4477153 12.4477153,12 13,12 Z" fill="#0080FF"/></g></svg>