<svg xmlns="http://www.w3.org/2000/svg" width="512" height="512" viewBox="0 0 512 512"><defs><linearGradient id="a" x1="0%" x2="96.6%" y1="0%" y2="96.225%"><stop offset="0%" stop-color="#46A3FF"/><stop offset="47.501%" stop-color="#1557F4"/><stop offset="90.276%" stop-color="#8100F9"/><stop offset="100%" stop-color="#CC7FFF"/></linearGradient><linearGradient id="b" x1="50%" x2="50%" y1="0%" y2="100%"><stop offset="0%" stop-opacity=".583"/><stop offset="100%" stop-opacity="0"/></linearGradient></defs><g fill="none" fill-rule="evenodd"><path fill="url(#a)" fill-rule="nonzero" d="M416,0 C469.019336,0 512,42.980664 512,96 L512,416 C512,469.019336 469.019336,512 416,512 L96,512 C42.980664,512 0,469.019336 0,416 L0,96 C0,42.980664 42.980664,0 96,0 L416,0 Z M269.468402,149.503605 L264.132099,150.896136 C260.744759,151.761047 252.829523,153.726035 250.590975,154.309774 C244.818115,155.815143 240.088996,157.217217 235.696602,158.777022 C215.687375,165.882597 207.239024,174.276661 207.239024,188.367196 C207.239024,198.007399 210.652894,204.173733 218.984801,210.298559 L219.391802,210.594904 C227.776102,216.642363 237.547009,220.89178 260.760385,229.195371 L266.157741,231.122828 C275.077783,234.318353 280.701317,236.414477 286.071408,238.619157 L286.819385,238.927613 L288.312817,239.551669 L289.090829,239.881003 C289.61076,240.102034 290.133659,240.326196 290.662271,240.554577 C301.383519,245.186569 310.354243,250.029433 318.205159,255.743925 C338.90711,270.812377 350.459598,291.384193 350.459598,317.816077 C350.459598,336.61095 343.425575,353.05244 330.920816,366.448292 C321.300102,376.754581 308.974546,384.803136 294.422217,391.334833 C286.672205,394.813364 278.636817,397.709534 269.968486,400.328072 C267.14809,401.18006 264.417721,401.957195 261.353279,402.792195 L253.70254,404.852575 L245.569841,407.100283 C217.692343,414.761681 158.496683,430.68852 67.8875972,454.906909 C75.7865508,460.62827 85.4995205,464 96,464 L416,464 C442.509668,464 464,442.509668 464,416 L464,101.680238 L424.967753,111.134719 C346.123328,130.264771 294.246022,143.065741 269.468402,149.503605 Z M416,48 L96,48 C69.490332,48 48,69.490332 48,96 L48,410.536826 L106.07641,395.002023 C166.371676,378.853622 207.885652,367.662626 230.574161,361.441142 L242.989964,358.023939 C245.022719,357.476328 247.607736,356.786067 247.798088,356.734633 L249.429995,356.29038 C251.815387,355.635746 253.940596,355.027528 256.088088,354.378812 C262.926818,352.312961 269.09099,350.091228 274.766892,347.543645 L275.910696,347.023107 C293.825447,338.755735 302.459598,329.270144 302.459598,317.816077 C302.459598,307.680005 298.900501,301.183852 290.367698,294.853456 L289.69715,294.363446 L288.912178,293.805782 L288.386542,293.441485 C280.55677,288.069025 270.954153,283.883658 251.016113,276.689819 L240.536016,272.937358 C233.700707,270.477786 228.960885,268.710386 224.57584,266.948013 L223.485962,266.507127 L222.357922,266.044715 C221.107286,265.528602 219.861552,265.003082 218.57833,264.451419 C207.956401,259.885003 199.082408,255.129313 191.312273,249.524841 C170.745086,234.690065 159.239024,214.422864 159.239024,188.367196 C159.239024,167.715348 166.67423,150.274492 180.206435,136.829242 C190.619297,126.48329 203.722816,119.194669 219.633833,113.544429 C225.177108,111.575929 230.816552,109.885907 237.322027,108.166728 L240.428288,107.363899 L252.110037,104.426246 C252.477571,104.332585 252.770907,104.257052 252.971226,104.204227 L258.030463,102.881969 C286.583696,95.4765881 348.554321,80.2327939 444.125677,57.1035328 C436.224892,51.3757037 426.506665,48 416,48 Z"/><polygon fill="url(#b)" points="464 101.694 512 91.375 512 376.264 464 376.264"/></g></svg>