<svg xmlns="http://www.w3.org/2000/svg" xmlns:xlink="http://www.w3.org/1999/xlink" width="512" height="512" viewBox="0 0 512 512"><defs><linearGradient id="b" x1="50%" x2="50%" y1="0%" y2="100%"><stop offset="0%" stop-color="#323233"/><stop offset="100%"/></linearGradient><linearGradient id="c" x1="84.186%" x2="9.909%" y1="36.094%" y2="48.467%"><stop offset="0%" stop-color="#FFF"/><stop offset="100%" stop-color="#606060"/></linearGradient><linearGradient id="e" x1="9.441%" x2="88.246%" y1="60.625%" y2="46.066%"><stop offset="0%" stop-color="#FFF"/><stop offset="100%" stop-color="#616161"/></linearGradient><linearGradient id="f" x1="50%" x2="50%" y1="0%" y2="100%"><stop offset="0%" stop-color="#FFF"/><stop offset="25.881%" stop-color="#D8D8D8"/><stop offset="49.084%" stop-color="#FFF"/><stop offset="66.071%" stop-color="#9C9C9C"/><stop offset="100%" stop-color="#696969"/></linearGradient><path id="a" d="M164.088653,-7.25467311e-15 L347.911347,0 C404.968547,0 425.658866,5.94083911 446.518125,17.096493 C467.377384,28.252147 483.747853,44.6226157 494.903507,65.481875 C506.059161,86.3411342 512,107.031453 512,164.088653 L512,347.911347 C512,404.968547 506.059161,425.658866 494.903507,446.518125 C483.747853,467.377384 467.377384,483.747853 446.518125,494.903507 C425.658866,506.059161 404.968547,512 347.911347,512 L164.088653,512 C107.031453,512 86.3411342,506.059161 65.481875,494.903507 C44.6226157,483.747853 28.252147,467.377384 17.096493,446.518125 C5.94083911,425.658866 0,404.968547 0,347.911347 L0,164.088653 C0,107.031453 5.94083911,86.3411342 17.096493,65.481875 C28.252147,44.6226157 44.6226157,28.252147 65.481875,17.096493 C86.3411342,5.94083911 107.031453,4.215174e-15 164.088653,-7.25467311e-15 Z"/></defs><g fill="none"><mask id="d" fill="#fff"><use xlink:href="#a"/></mask><use xlink:href="#a" fill="url(#b)"/><path fill="url(#c)" fill-rule="evenodd" d="M200.2525,203.524904 C202.800548,209.111538 207.011339,213.90801 213.061886,218.355797 L213.505623,218.679017 L214.35782,219.285744 C223.101694,225.428929 232.966109,229.824058 255.280186,237.8534 L261.569773,240.103298 L262.392489,240.641221 C269.959255,245.510929 279.555551,249.567458 298.66599,256.444026 L303.848573,258.297232 C306.881553,260.079491 309.688615,261.913461 312.320252,263.828966 C326.728728,274.316548 335.644048,287.309824 338.973571,303.046613 C338.871089,305.895598 338.700033,308.918583 338.459982,312.114989 C326.50542,306.130697 315.320741,300.387712 304.905942,294.886034 C302.606689,292.029736 299.756018,289.367045 296.325929,286.822298 L295.628441,286.312149 L294.608451,285.586751 L294.082815,285.222454 C285.99671,279.673986 276.801412,275.46064 257.783086,268.508224 C218.75304,245.011532 199.239024,227.631195 199.239024,216.367196 C199.239024,212.044716 199.564742,207.862901 200.203907,203.828947 L200.2525,203.524904 Z M552,69.328817 L552,124 C552,122.261074 551.953765,120.532946 551.857215,118.817689 L480.21182,136.014533 C383.222495,159.327736 325.797017,173.291449 307.935387,177.905672 L304.441274,178.817018 L298.45176,180.327135 L291.22228,182.146914 L289.688042,182.546643 L287.937711,183.014529 C283.640869,184.178359 279.921128,185.303703 276.434194,186.517674 L275.696602,186.777022 C257.05409,193.397256 248.447078,201.135972 247.358263,213.558191 L245.551052,212.84311 C235.576858,208.857052 230.062172,205.961425 225.241704,202.4845 L224.870981,202.214446 C219.103609,197.974696 217.306669,194.765846 217.239024,188.719216 L217.239024,188.367196 C217.239024,179.408709 222.379648,174.117888 239.043013,168.200479 L239.751264,167.951499 C243.320563,166.708903 247.295476,165.520606 252.240066,164.21552 L255.212709,163.450734 L267.352186,160.393596 L270.462932,159.580977 L273.560298,158.787923 C295.220809,153.282148 355.711904,138.598118 454.877441,114.775041 L524.137549,98.5542226 L523.070932,94.0000002 L532,94 L532,74.2121608 L537.309049,72.9386643 L552,69.328817 Z M512,79.0131608 L512,80.8556913 L450.261213,95.3151543 L387.475173,110.422959 C320.657617,126.53266 280.010716,136.457946 265.434182,140.223525 L260.820385,141.420221 C260.121555,141.597236 259.226037,141.822739 258.029346,142.123218 C258.56007,141.928757 259.095344,141.735655 259.633833,141.544429 C265.177108,139.575929 270.816552,137.885907 277.322027,136.166728 L279.591905,135.576577 L290.803667,132.757037 L296.990624,131.162888 L302.107193,129.866244 C327.519075,123.473454 389.503808,108.438133 488.064558,84.758967 L512,79.0131608 Z" mask="url(#d)"/><path fill="url(#e)" fill-rule="evenodd" d="M264.399745,292.43845 C268.385061,294.054041 271.642363,295.496204 274.427564,296.8769 L275.035617,297.181132 C278.038464,298.697734 280.48769,300.149332 282.72877,301.687067 L283.162561,301.987828 L283.97155,302.563962 L284.457293,302.919874 L285.11731,303.418635 C290.690165,307.711698 292.459598,311.284103 292.459598,317.816077 C292.459598,324.558012 286.483171,331.130598 271.720521,337.943326 L270.624733,338.441858 C265.565692,340.71242 259.850995,342.795804 253.196338,344.806049 L251.795473,345.224292 L250.049241,345.732047 C249.251358,345.960761 248.421451,346.194386 247.547593,346.436328 L245.978199,346.867023 L238.22485,348.956174 L229.162184,351.45031 C218.319636,354.416809 200.148337,359.352358 174.654719,366.25519 L121.433217,380.650374 L-10.4207702,418.085801 L-9.87729871,420 L-18,420 L-18,441.109161 L-21.9408979,442.173506 L-38,446.882057 L-38,389.041161 L-37.9914168,390.295096 C-37.9627925,392.450175 -37.8625075,394.58798 -37.6895582,396.705597 L129.890693,351.446108 C163.130451,342.450319 185.467613,336.383697 196.902179,333.246241 L202.826701,331.611762 L210.62484,329.51043 L212.215876,329.073769 C213.769917,328.643507 215.22227,328.229583 216.656628,327.806243 L218.088088,327.378812 C224.926818,325.312961 231.09099,323.091228 236.766892,320.543645 L237.910696,320.023107 C254.882565,312.19086 263.525032,303.265253 264.387752,292.608365 L264.399745,292.43845 Z M231.968486,373.328072 C229.14809,374.18006 226.417721,374.957195 223.353279,375.792195 L216.921108,377.520903 L185.236362,386.177021 C166.268674,391.32949 139.268693,398.639892 104.236403,408.108258 L2,435.709161 L2,435.349809 L126.834708,399.907266 L204.368207,378.924068 C219.15211,374.91308 230.050572,371.945973 237.065129,370.022328 L243.486185,368.251634 L251.226691,366.166018 L252.862518,365.717175 L253.987484,365.40367 C246.98814,368.414838 239.732177,370.982809 231.968486,373.328072 Z M312.459598,290.816077 C312.459598,296.074567 311.908985,301.148837 310.841995,306.023727 C308.564813,298.526232 303.833094,292.391785 296.325929,286.822298 L295.628441,286.312149 L294.608451,285.586751 L294.082815,285.222454 C285.349268,279.229729 275.321796,274.794488 253.021389,266.783446 L248.409878,265.135092 L247.821353,264.764722 C240.211574,260.028538 230.34866,255.915176 211.640585,249.194619 L206.337334,247.299322 C203.028986,245.404901 199.993123,243.456354 197.162175,241.414438 C196.398155,240.863362 195.649704,240.305282 194.916837,239.740161 C229.529257,247.539522 312.459598,270.65227 312.459598,290.816077 Z" mask="url(#d)"/><path fill="url(#f)" fill-rule="evenodd" d="M512,52.0834732 L512,80.8556913 L450.261213,95.3151543 L387.475173,110.422959 C320.657617,126.53266 280.010716,136.457946 265.434182,140.223525 L259.990008,141.630046 L248.741896,144.459412 L247.166815,144.86969 L245.480966,145.319867 C240.792864,146.586943 236.838292,147.78828 233.146272,149.073651 L232.379532,149.343197 C208.548391,157.80594 197.239024,169.445741 197.239024,188.367196 C197.239024,201.210874 202.169025,210.348401 213.061886,218.355797 L213.505623,218.679017 L214.35782,219.285744 C223.101694,225.428929 232.966109,229.824058 255.280186,237.8534 L265.29494,241.438487 C272.407118,244.001086 276.984445,245.724634 281.188578,247.427466 L283.028869,248.181368 L284.457229,248.778501 L285.192664,249.089929 L286.722594,249.745819 C297.119181,254.237591 305.337292,258.746237 312.320252,263.828966 C331.012395,277.434526 340.459598,295.257149 340.459598,317.816077 C340.459598,333.640906 334.700274,347.744821 323.610798,359.624537 C315.304362,368.522892 304.326122,375.928435 290.327358,382.211669 C283.258812,385.384329 275.701479,388.149939 267.076737,390.75531 L265.635543,391.18637 C263.467631,391.828314 261.252487,392.455078 258.724323,393.143952 L252.325617,394.863604 L228.500741,401.383032 C210.90961,406.169096 184.252565,413.390845 148.530317,423.04807 L139.507168,425.4879 L5.32986782,463.553148 L2.00000007,464.529387 L2.00000007,435.349809 L126.834708,399.907266 L204.368207,378.924068 C219.15211,374.91308 230.050572,371.945973 237.065129,370.022328 L243.486185,368.251634 L251.226691,366.166018 L252.862518,365.717175 L254.916156,365.141501 C255.799538,364.890558 256.64928,364.644579 257.487332,364.397235 L258.949243,363.960763 C266.410949,361.706777 272.91902,359.334156 278.861751,356.666809 L280.052855,356.124894 C301.183127,346.373763 312.459598,333.972445 312.459598,317.816077 C312.459598,304.530022 307.427482,295.058423 296.325929,286.822298 L295.628441,286.312149 L294.608451,285.586751 L294.082815,285.222454 C285.349268,279.229729 275.321796,274.794488 253.021389,266.783446 L242.612576,263.056027 C236.845512,260.973364 232.909341,259.498818 229.368277,258.093933 L227.570142,257.37275 L226.143861,256.789086 L224.731849,256.201172 C224.015208,255.900249 223.281787,255.588522 222.527868,255.264409 C212.198045,250.823571 204.070053,246.396977 197.162175,241.414438 C178.610886,228.033696 169.239024,210.523037 169.239024,188.367196 C169.239024,170.673626 175.406599,155.695008 187.254674,143.923065 C196.115195,135.119479 207.624622,128.420896 222.980244,122.967886 C228.065132,121.162166 233.383137,119.550936 239.876983,117.83483 L242.108171,117.254821 L253.242535,114.455074 L259.485756,112.846602 L264.563744,111.559818 C289.902714,105.185385 351.849451,90.159144 450.400581,66.4822893 L509.695259,52.6497921 L512,52.0834732 Z" mask="url(#d)"/></g></svg>