<svg width="512" height="512" viewBox="0 0 512 512" fill="none" xmlns="http://www.w3.org/2000/svg">
<g clip-path="url(#clip0_473_2)">
<rect width="512" height="512" rx="128" fill="black"/>
<path fill-rule="evenodd" clip-rule="evenodd" d="M224.021 307.738V204.397C224.021 172.908 198.568 147.381 167.17 147.381C135.772 147.381 110.319 172.908 110.319 204.397V307.738C110.319 339.227 135.772 364.754 167.17 364.754C198.568 364.754 224.021 339.227 224.021 307.738ZM167.17 126C123.998 126 89 161.099 89 204.397V307.738C89 351.035 123.998 386.135 167.17 386.135C210.342 386.135 245.34 351.035 245.34 307.738V204.397C245.34 161.099 210.342 126 167.17 126Z" fill="#D7FF37"/>
<path d="M206.255 256.067C206.255 277.716 188.756 295.266 167.17 295.266C145.584 295.266 128.085 277.716 128.085 256.067C128.085 234.419 145.584 216.869 167.17 216.869C188.756 216.869 206.255 234.419 206.255 256.067Z" fill="#D7FF37"/>
<path d="M401.681 307.738V204.397C401.681 172.908 376.228 147.381 344.83 147.381C313.432 147.381 287.979 172.908 287.979 204.397V256.067H266.66V204.397C266.66 161.099 301.658 126 344.83 126C388.002 126 423 161.099 423 204.397V307.738C423 351.035 388.002 386.135 344.83 386.135C324.057 386.135 305.177 378.009 291.177 364.754L306.242 349.609C316.378 359.009 329.935 364.754 344.83 364.754C376.228 364.754 401.681 339.227 401.681 307.738Z" fill="#D7FF37"/>
<path d="M383.915 204.397C383.915 226.045 366.416 243.595 344.83 243.595C323.244 243.595 305.745 226.045 305.745 204.397C305.745 182.748 323.244 165.198 344.83 165.198C366.416 165.198 383.915 182.748 383.915 204.397Z" fill="#D7FF37"/>
</g>
<defs>
<clipPath id="clip0_473_2">
<rect width="512" height="512" fill="white"/>
</clipPath>
</defs>
</svg>
