<svg width="1022" height="1022" viewBox="0 0 1022 1022" fill="none" xmlns="http://www.w3.org/2000/svg">
<path fill-rule="evenodd" clip-rule="evenodd" d="M511 1022C895 1022 1022 895 1022 511C1022 127 895 0 511 0C127 0 0 127 0 511C0 895 127 1022 511 1022Z" fill="#FF6300"/>
<path d="M657 903H365C329.654 903 301 874.346 301 839L301 183C301 147.654 329.654 119 365 119H657C692.346 119 721 147.654 721 183V839C721 874.346 692.346 903 657 903Z" fill="white"/>
<path fill-rule="evenodd" clip-rule="evenodd" d="M399.327 410.5C284.673 410.5 211.399 452.513 179.523 536.539C178.287 539.799 177.112 543.122 176 546.509C220.673 501.173 272.785 484.175 332.319 495.502C366.313 501.964 390.61 520.731 417.48 541.509C461.277 575.343 511.954 614.5 622.673 614.5C741.776 614.5 816.224 569.177 846 478.504C801.327 523.841 749.215 540.839 689.664 529.511C655.687 523.036 631.39 504.269 604.52 483.505C560.723 449.67 510.028 410.5 399.327 410.5Z" fill="#FF6300"/>
</svg>
