<svg width="64" height="64" viewBox="0 0 64 64" fill="none" xmlns="http://www.w3.org/2000/svg">
<path d="M64 0H0V64H64V0Z" fill="#114DF1"/>
<path d="M25.6677 14H31.1171V28.5722C31.1171 30.2563 30.7163 31.7235 29.9147 32.9737C29.1131 34.2166 27.9953 35.1799 26.5612 35.8639C25.1272 36.5405 23.4614 36.8788 21.5641 36.8788C19.6446 36.8788 17.9679 36.5405 16.5338 35.8639C15.0998 35.1799 13.9856 34.2166 13.1914 32.9737C12.3971 31.7235 12 30.2563 12 28.5722V14H17.4605V28.0979C17.4605 28.8774 17.6296 29.5724 17.9679 30.1828C18.3135 30.7932 18.7952 31.2712 19.413 31.6169C20.0307 31.9625 20.7478 32.1353 21.5641 32.1353C22.3804 32.1353 23.0937 31.9625 23.7041 31.6169C24.3219 31.2712 24.8036 30.7932 25.1492 30.1828C25.4949 29.5724 25.6677 28.8774 25.6677 28.0979V14Z" fill="white"/>
<path d="M40 14V36.5919H34.5395V14H40Z" fill="white"/>
<path d="M13.2301 43.7273V49.5454H12V43.7273H13.2301Z" fill="white"/>
<path d="M18.9487 43.7273V49.5454H17.8862L15.3549 45.8835H15.3123V49.5454H14.0822V43.7273H15.1617L17.6731 47.3864H17.7242V43.7273H18.9487Z" fill="white"/>
<path d="M21.0351 43.7273V49.5454H19.805V43.7273H21.0351Z" fill="white"/>
<path d="M21.6656 44.7415V43.7273H26.444V44.7415H24.6628V49.5454H23.4468V44.7415H21.6656Z" fill="white"/>
<path d="M28.3011 43.7273V49.5454H27.0709V43.7273H28.3011Z" fill="white"/>
<path d="M30.156 49.5454H28.8378L30.8463 43.7273H32.4315L34.4372 49.5454H33.119L31.6616 45.0568H31.6162L30.156 49.5454ZM30.0736 47.2585H33.1872V48.2187H30.0736V47.2585Z" fill="white"/>
<path d="M34.045 44.7415V43.7273H38.8234V44.7415H37.0421V49.5454H35.8262V44.7415H34.045Z" fill="white"/>
<path d="M40.6804 43.7273V49.5454H39.4503V43.7273H40.6804Z" fill="white"/>
<path d="M42.5836 43.7273L43.9899 48.1477H44.0439L45.453 43.7273H46.8166L44.8109 49.5454H43.2257L41.2172 43.7273H42.5836Z" fill="white"/>
<path d="M47.3569 49.5454V43.7273H51.2773V44.7415H48.587V46.1278H51.0756V47.142H48.587V48.5312H51.2887V49.5454H47.3569Z" fill="white"/>
</svg>
