<svg xmlns="http://www.w3.org/2000/svg" width="51" height="51" viewBox="0 0 51 51"><defs><linearGradient id="a" x1="0%" x2="100%" y1="50%" y2="50%"><stop offset="0%" stop-color="#2B8CFF"/><stop offset="100%" stop-color="#D74AFF"/></linearGradient></defs><path fill="url(#a)" d="M20.6607444,2 L27.7305797,2 L27.7305797,23.7192161 C27.7305797,26.1630342 27.1517852,28.3002689 25.9941961,30.1309204 C24.836607,31.9615719 23.217803,33.3849062 21.1377841,34.4009233 C19.0577652,35.4169404 16.6336004,35.924949 13.8652899,35.924949 C11.0838771,35.924949 8.65316125,35.4169404 6.57314231,34.4009233 C4.49312337,33.3849062 2.87759492,31.9615719 1.72655695,30.1309204 C0.575518984,28.3002689 0,26.1630342 0,23.7192161 L0,2 L7.06983532,2 L7.06983532,23.1181308 C7.06983532,24.3922785 7.35076719,25.5265133 7.91263095,26.5208352 C8.4744947,27.5151571 9.26564719,28.2943559 10.2860884,28.8584317 C11.3065297,29.4225075 12.4995968,29.7045455 13.8652899,29.7045455 C15.237449,29.7045455 16.4331961,29.4225075 17.4525313,28.8584317 C18.4718665,28.2943559 19.2614025,27.5151571 19.8211392,26.5208352 C20.380876,25.5265133 20.6607444,24.3922785 20.6607444,23.1181308 L20.6607444,2 Z M40.6289486,2 L40.6289486,35.4545455 L33.5591132,35.4545455 L33.5591132,2 L40.6289486,2 Z M2.90729869,38 L2.90729869,47.4545455 L0.909301758,47.4545455 L0.909301758,38 L2.90729869,38 Z M5.93076045,43.3551136 L5.93076045,47.4545455 L3.96601658,47.4545455 L3.96601658,40.3636364 L5.83843091,40.3636364 L5.83843091,41.6156394 L5.91965205,41.6156394 C6.07843964,41.2019838 6.34234825,40.8745145 6.71137791,40.6332314 C7.08040756,40.3919484 7.52806159,40.2713068 8.05434,40.2713068 C8.5473413,40.2713068 8.9771185,40.3791809 9.34367161,40.5949291 C9.71022471,40.8106773 9.99490748,41.117673 10.1977199,41.5159163 C10.4005323,41.9141596 10.5010249,42.3881059 10.499222,42.9377552 L10.499222,47.4545455 L8.53445363,47.4545455 L8.53445363,43.2886075 C8.53628099,42.8552838 8.42532925,42.516129 8.20159841,42.2711431 C7.97786757,42.0261573 7.66903245,41.9036643 7.27509306,41.9036643 C7.01041503,41.9036643 6.77697035,41.9610577 6.57475903,42.0758445 C6.37254771,42.1906313 6.21511862,42.3562113 6.10247177,42.5725847 C5.98982491,42.788958 5.93258781,43.049801 5.93076045,43.3551136 Z M11.4988569,47.4545455 L11.4988569,40.3636364 L13.4636008,40.3636364 L13.4636008,47.4545455 L11.4988569,47.4545455 Z M12.4862782,39.4476984 C12.1936127,39.4476984 11.9429404,39.3504158 11.7342612,39.1558505 C11.525582,38.9612852 11.4212424,38.7273837 11.4212424,38.454146 C11.4212424,38.1809082 11.5257143,37.9470428 11.7346579,37.7525496 C11.9436016,37.5580565 12.1936849,37.4608099 12.4849076,37.4608099 C12.7784867,37.4608099 13.029147,37.5580925 13.2368885,37.7526578 C13.44463,37.9472231 13.5485007,38.1811246 13.5485007,38.4543623 C13.5485007,38.7276001 13.44463,38.9614655 13.2368885,39.1559587 C13.029147,39.3504518 12.7789436,39.4476984 12.4862782,39.4476984 Z M18.9824426,47.4545455 L18.9824426,40.3636364 L20.9471865,40.3636364 L20.9471865,47.4545455 L18.9824426,47.4545455 Z M19.9698638,39.4476984 C19.6771984,39.4476984 19.4265261,39.3504158 19.2178469,39.1558505 C19.0091677,38.9612852 18.9048281,38.7273837 18.9048281,38.454146 C18.9048281,38.1809082 19.0092999,37.9470428 19.2182436,37.7525496 C19.4271873,37.5580565 19.6772705,37.4608099 19.9684933,37.4608099 C20.2620724,37.4608099 20.5127327,37.5580925 20.7204742,37.7526578 C20.9282157,37.9472231 21.0320864,38.1811246 21.0320864,38.4543623 C21.0320864,38.7276001 20.9282157,38.9614655 20.7204742,39.1559587 C20.5127327,39.3504518 20.2625292,39.4476984 19.9698638,39.4476984 Z M23.9891187,47.5874856 C23.5379542,47.5874856 23.1352507,47.5085486 22.7810082,47.3506747 C22.4267657,47.1928008 22.1474688,46.9575168 21.9431176,46.6448226 C21.7387663,46.3321284 21.6365907,45.9421923 21.6365907,45.4750144 C21.6365907,45.0798247 21.7083024,44.7488209 21.8517258,44.482003 C21.9951491,44.215185 22.1915057,44.0002182 22.4407955,43.8371027 C22.6900852,43.6739872 22.9742991,43.550256 23.2934372,43.4659091 C23.6125752,43.3815622 23.9478829,43.3224617 24.2993604,43.2886075 C24.7099383,43.248021 25.0415553,43.2084924 25.2942112,43.1700218 C25.5468672,43.1315511 25.7304443,43.0736889 25.8449425,42.996435 C25.9594408,42.9191811 26.0166899,42.8048392 26.0166899,42.6534091 L26.0166899,42.6275857 C26.0166899,42.3345836 25.9246729,42.1080637 25.740639,41.9480258 C25.556605,41.7879879 25.2977697,41.707969 24.9641331,41.707969 C24.6102032,41.707969 24.3284418,41.7853671 24.1188489,41.9401634 C23.909256,42.0949596 23.7712065,42.2896211 23.7047004,42.5241477 L21.884005,42.3764205 C21.9763346,41.9455492 22.1577597,41.572384 22.4282805,41.2569247 C22.6988012,40.9414654 23.0488841,40.698331 23.4785291,40.5275213 C23.908174,40.3567116 24.4058279,40.2713068 24.9714906,40.2713068 C25.3672573,40.2713068 25.7454959,40.3176279 26.1062063,40.41027 C26.4669167,40.5029121 26.7879181,40.6457103 27.0692107,40.8386647 C27.3505032,41.031619 27.5728635,41.2796705 27.7362916,41.5828192 C27.8997197,41.8859678 27.9814338,42.2489864 27.9814338,42.671875 L27.9814338,47.4545455 L26.116377,47.4545455 L26.116377,46.4721735 L26.0609792,46.4721735 C25.9465291,46.6925141 25.7943536,46.8867067 25.6044529,47.0547513 C25.4145522,47.2227959 25.1852672,47.3535961 24.9165978,47.4471519 C24.6479284,47.5407077 24.3387687,47.5874856 23.9891187,47.5874856 Z M24.5542043,46.2321167 C24.8428784,46.2321167 25.0978546,46.1742544 25.319133,46.0585299 C25.5404113,45.9428054 25.7138418,45.7861458 25.8394244,45.5885509 C25.965007,45.3909561 26.0277983,45.1684515 26.0277983,44.9210372 L26.0277983,44.1676136 C25.9686978,44.2063728 25.8854449,44.2420664 25.7780397,44.2746943 C25.6706344,44.3073222 25.5512192,44.3365599 25.4197938,44.3624073 C25.2883685,44.3882548 25.1566426,44.4113372 25.0246162,44.4316545 C24.8925897,44.4519718 24.7727176,44.4698246 24.6649998,44.4852128 C24.4335508,44.5184419 24.2314957,44.5721445 24.0588347,44.6463207 C23.8861736,44.7204969 23.7519832,44.8199074 23.6562634,44.9445523 C23.5605437,45.0691972 23.5126838,45.2238492 23.5126838,45.4085083 C23.5126838,45.6781394 23.6105555,45.8828153 23.8062989,46.0225358 C24.0020424,46.1622564 24.2513442,46.2321167 24.5542043,46.2321167 Z M31.3926796,38.6647727 L31.3926001,40.3627727 L32.7296547,40.3636364 L32.7296547,41.8409091 L31.3926001,41.8407727 L31.3926796,45.2736927 C31.3926796,45.4558993 31.4209916,45.597327 31.4776156,45.6979759 C31.5342396,45.7986247 31.6124191,45.8687975 31.7121543,45.9084944 C31.8118894,45.9481913 31.9269888,45.9680398 32.0574524,45.9680398 C32.1516573,45.9680398 32.2450689,45.9597325 32.337687,45.943118 L32.5486744,45.9016058 L32.8589161,47.3677701 L32.6814883,47.4185604 C32.612157,47.4367197 32.5326369,47.4561083 32.4429282,47.4767262 C32.2635107,47.5179619 32.046392,47.5431962 31.7915721,47.5524292 C31.3176138,47.5708951 30.902744,47.5079595 30.5469626,47.3636225 C30.1911813,47.2192854 29.9148058,46.994148 29.7178361,46.6882102 C29.5208664,46.3822724 29.424233,45.9981911 29.4279358,45.5359664 L29.4276001,41.8407727 L28.4566001,41.8409091 L28.4566001,40.3636364 L29.4276001,40.3627727 L29.4279358,38.6647727 L31.3926796,38.6647727 Z M16.9191405,38.6647727 L16.919061,40.3627727 L18.2561156,40.3636364 L18.2561156,41.8409091 L16.919061,41.8407727 L16.9191405,45.2736927 C16.9191405,45.4558993 16.9474525,45.597327 17.0040765,45.6979759 C17.0607005,45.7986247 17.13888,45.8687975 17.2386152,45.9084944 C17.3383503,45.9481913 17.4534497,45.9680398 17.5839132,45.9680398 C17.6781182,45.9680398 17.7715298,45.9597325 17.8641478,45.943118 L18.0751353,45.9016058 L18.385377,47.3677701 L18.2079492,47.4185604 C18.1386178,47.4367197 18.0590978,47.4561083 17.9693891,47.4767262 C17.7899716,47.5179619 17.5728529,47.5431962 17.318033,47.5524292 C16.8440747,47.5708951 16.4292048,47.5079595 16.0734235,47.3636225 C15.7176422,47.2192854 15.4412667,46.994148 15.244297,46.6882102 C15.0473273,46.3822724 14.9506938,45.9981911 14.9543966,45.5359664 L14.954061,41.8407727 L13.983061,41.8409091 L13.983061,40.3636364 L14.954061,40.3627727 L14.9543966,38.6647727 L16.9191405,38.6647727 Z M33.4559817,47.4545455 L33.4559817,40.3636364 L35.4207256,40.3636364 L35.4207256,47.4545455 L33.4559817,47.4545455 Z M34.4434029,39.4476984 C34.1507375,39.4476984 33.9000652,39.3504158 33.691386,39.1558505 C33.4827068,38.9612852 33.3783672,38.7273837 33.3783672,38.454146 C33.3783672,38.1809082 33.4828391,37.9470428 33.6917827,37.7525496 C33.9007264,37.5580565 34.1508097,37.4608099 34.4420324,37.4608099 C34.7356115,37.4608099 34.9862718,37.5580925 35.1940133,37.7526578 C35.4017548,37.9472231 35.5056255,38.1811246 35.5056255,38.4543623 C35.5056255,38.7276001 35.4017548,38.9614655 35.1940133,39.1559587 C34.9862718,39.3504518 34.7360684,39.4476984 34.4434029,39.4476984 Z M46.4202028,40.2713068 C46.8892561,40.2713068 47.3259821,40.3457836 47.7303807,40.4947371 C48.1347793,40.6436906 48.4883966,40.8679024 48.7912327,41.1673723 C49.0940688,41.4668422 49.3304349,41.8418588 49.5003309,42.2924222 C49.6702268,42.7429856 49.7551748,43.2695645 49.7551748,43.8721591 L49.7551748,44.4113492 L44.924,44.411 C44.9244642,44.7696071 44.9903211,45.0727798 45.122035,45.3282249 C45.2537488,45.58367 45.4396342,45.7803271 45.679691,45.9181962 C45.9197478,46.0560654 46.2035169,46.125 46.5309982,46.125 C46.7507618,46.125 46.9509775,46.0939229 47.1316452,46.0317688 C47.312313,45.9696147 47.4678907,45.8774414 47.5983783,45.755249 C47.7288659,45.6330566 47.8273387,45.4830211 47.8937968,45.3051425 L49.7108134,45.4232955 C49.6184838,45.8615723 49.4304465,46.2430568 49.1467015,46.567749 C48.8629564,46.8924413 48.4968722,47.1441835 48.0484488,47.3229759 C47.6000253,47.5017682 47.0831241,47.5911643 46.4977452,47.5911643 C45.7702172,47.5911643 45.1437709,47.4432928 44.6184061,47.1475497 C44.0930414,46.8518066 43.6889434,46.4307935 43.406112,45.8845104 C43.1232806,45.3382272 42.9818649,44.6908384 42.9818649,43.942344 C42.9818649,43.2123154 43.1237495,42.5718513 43.4075186,42.0209517 C43.6912877,41.4700521 44.0904567,41.0407197 44.6050256,40.7329545 C45.1195945,40.4251894 45.7246535,40.2713068 46.4202028,40.2713068 Z M37.9566486,40.3636364 L39.4265638,45.4380826 L39.5004275,45.4380826 L40.9703427,40.3636364 L43.0495608,40.3636364 L40.5714502,47.4545455 L38.3555411,47.4545455 L35.8774305,40.3636364 L37.9566486,40.3636364 Z M46.4534559,41.7374711 C46.1561259,41.7374711 45.8926621,41.806562 45.6630645,41.9447438 C45.4334668,42.0829255 45.2538931,42.2665146 45.1243432,42.4955111 C45.0207033,42.6787083 44.9573344,42.8782479 44.9342367,43.0941297 L44.928,43.192 L47.9049052,43.1925992 C47.9030297,42.9107056 47.8403947,42.6603458 47.7170001,42.44152 C47.5936055,42.2226942 47.423409,42.0506462 47.2064105,41.9253762 C46.989412,41.8001062 46.7384271,41.7374711 46.4534559,41.7374711 Z" transform="translate(.914 .545)"/></svg>